<?xml version="1.0" encoding="UTF-8"?>
<svg width="43px" height="47px" viewBox="0 0 43 47" version="1.1" xmlns="http://www.w3.org/2000/svg" xmlns:xlink="http://www.w3.org/1999/xlink">
    <!-- Generator: Sketch 50.2 (55047) - http://www.bohemiancoding.com/sketch -->
    <title>no-solicitation_white_icon_01</title>
    <desc>Created with Sketch.</desc>
    <defs></defs>
    <g id="-HG-Domain-Privacy" stroke="none" stroke-width="1" fill="none" fill-rule="evenodd">
        <g id="XL-HG-Homepage-02" transform="translate(-1319.000000, -1916.000000)">
            <g id="xl_add-ons_base" transform="translate(0.000000, 1582.000000)">
                <g id="Selector" transform="translate(570.000000, 139.000000)">
                    <g id="Website-Back-Up-Copy-2" transform="translate(530.000000, 0.000000)">
                        <g id="no-solicitation_white_icon_01" transform="translate(219.000000, 195.000000)">
                            <rect id="Rectangle-17" stroke="#FFFFFF" x="0.5" y="0.5" width="32" height="46" rx="3"></rect>
                            <circle id="Oval-2" stroke="#FFFFFF" fill="#A15569" cx="32.5" cy="23.5" r="10"></circle>
                            <rect id="Rectangle-16-Copy" fill="#FFFFFF" transform="translate(32.500000, 23.500000) rotate(45.000000) translate(-32.500000, -23.500000) " x="32" y="17.5" width="1" height="12" rx="0.5"></rect>
                            <rect id="Rectangle-16-Copy-3" fill="#FFFFFF" transform="translate(16.500000, 3.500000) rotate(-270.000000) translate(-16.500000, -3.500000) " x="16" y="0.5" width="1" height="6" rx="0.5"></rect>
                            <rect id="Rectangle-16-Copy-2" fill="#FFFFFF" transform="translate(12.838835, 19.838835) rotate(45.000000) translate(-12.838835, -19.838835) " x="12.3388348" y="7.83883476" width="1" height="24"></rect>
                            <rect id="Rectangle-16-Copy-5" fill="#FFFFFF" transform="translate(14.838835, 32.838835) rotate(45.000000) translate(-14.838835, -32.838835) " x="14.3388348" y="26.8388348" width="1" height="12"></rect>
                            <rect id="Rectangle-16-Copy-4" fill="#FFFFFF" transform="translate(9.889087, 17.889087) rotate(45.000000) translate(-9.889087, -17.889087) " x="9.3890873" y="12.8890873" width="1" height="10"></rect>
                            <rect id="Rectangle-16-Copy-6" fill="#FFFFFF" transform="translate(17.889087, 34.389087) rotate(45.000000) translate(-17.889087, -34.389087) " x="17.3890873" y="30.8890873" width="1" height="7"></rect>
                            <rect id="Rectangle-16" fill="#FFFFFF" x="0" y="6" width="32" height="1"></rect>
                            <rect id="Rectangle-16-Copy-7" fill="#FFFFFF" x="0" y="40" width="32" height="1"></rect>
                            <rect id="Rectangle-16-Copy" fill="#FFFFFF" transform="translate(32.500000, 23.500000) rotate(-225.000000) translate(-32.500000, -23.500000) " x="32" y="17.5" width="1" height="12" rx="0.5"></rect>
                        </g>
                    </g>
                </g>
            </g>
        </g>
    </g>
</svg>