<svg xmlns="http://www.w3.org/2000/svg" viewBox="0 0 43 47"><defs><style>.cls-1{fill:#eca93f;}</style></defs><title>no-solicitation_icon_02</title><g id="Layer_2" data-name="Layer 2"><g id="Layer_1-2" data-name="Layer 1"><path class="cls-1" d="M19.5,3.5h0A.5.5,0,0,1,19,4H14a.5.5,0,0,1-.5-.5h0A.5.5,0,0,1,14,3h5A.5.5,0,0,1,19.5,3.5Z"/><path class="cls-1" d="M21.32,11.35h0a.5.5,0,0,1,0,.71L5.06,28.32a.5.5,0,0,1-.71,0h0a.5.5,0,0,1,0-.7L20.62,11.35A.5.5,0,0,1,21.32,11.35Z"/><path class="cls-1" d="M19.08,28.6h0a.48.48,0,0,1,0,.7L11.3,37.08a.48.48,0,0,1-.7,0h0a.5.5,0,0,1,0-.71l7.77-7.77A.5.5,0,0,1,19.08,28.6Z"/><path class="cls-1" d="M13.42,14.35h0a.5.5,0,0,1,0,.71L7.06,21.42a.5.5,0,0,1-.71,0h0a.5.5,0,0,1,0-.7l6.37-6.37A.5.5,0,0,1,13.42,14.35Z"/><path class="cls-1" d="M20.36,31.91h0a.5.5,0,0,1,0,.71l-4.24,4.24a.5.5,0,0,1-.71,0h0a.5.5,0,0,1,0-.7l4.25-4.25A.5.5,0,0,1,20.36,31.91Z"/><path class="cls-1" d="M43,23.5A10.5,10.5,0,0,0,33,13V3.5A3.5,3.5,0,0,0,29.5,0H3.5A3.5,3.5,0,0,0,0,3.5v40A3.5,3.5,0,0,0,3.5,47h26A3.5,3.5,0,0,0,33,43.5V34A10.5,10.5,0,0,0,43,23.5ZM1,3.5A2.5,2.5,0,0,1,3.5,1h26A2.5,2.5,0,0,1,32,3.5V6H1Zm31,40A2.5,2.5,0,0,1,29.5,46H3.5A2.5,2.5,0,0,1,1,43.5V41H32ZM1,40V7H32v6A10.48,10.48,0,0,0,32,34v6Zm32-7h0c-.17,0-.33,0-.5,0s-.33,0-.5,0h0A9.48,9.48,0,0,1,32,14h0c.17,0,.33,0,.5,0s.33,0,.5,0h0A9.48,9.48,0,0,1,33,33Z"/><path class="cls-1" d="M36.74,19.26a.48.48,0,0,0-.7,0L32.5,22.79,29,19.26a.49.49,0,1,0-.7.7l3.53,3.54L28.26,27a.49.49,0,1,0,.7.7l3.54-3.53L36,27.74a.49.49,0,1,0,.7-.7L33.21,23.5,36.74,20A.48.48,0,0,0,36.74,19.26Z"/></g></g></svg>