<?xml version="1.0" encoding="UTF-8"?>
<svg width="45px" height="47px" viewBox="0 0 45 47" version="1.1" xmlns="http://www.w3.org/2000/svg" xmlns:xlink="http://www.w3.org/1999/xlink">
    <!-- Generator: Sketch 50.2 (55047) - http://www.bohemiancoding.com/sketch -->
    <title>private-info_icon_01</title>
    <desc>Created with Sketch.</desc>
    <defs></defs>
    <g id="-HG-Domain-Privacy" stroke="none" stroke-width="1" fill="none" fill-rule="evenodd">
        <g id="XL-HG-Homepage-02" transform="translate(-673.000000, -1752.000000)" fill="#ECA93F">
            <g id="xl_add-ons_base" transform="translate(0.000000, 1582.000000)">
                <g id="Selector" transform="translate(570.000000, 139.000000)">
                    <g id="Private-Information">
                        <g id="private-info_icon_01" transform="translate(103.000000, 30.000000)">
                            <path d="M42,30 L45,30 L45,21 L42,21 L42,30 Z M42,29 L44.103,29 L44.103,22 L42,22 L42,29 Z" id="Fill-2"></path>
                            <g id="Group-25" transform="translate(0.000000, 0.457043)">
                                <path d="M13.5884302,44.1399652 C13.5884302,45.1177043 12.7899419,45.9128348 11.810407,45.9128348 L11.3488953,45.9128348 C10.3693605,45.9128348 9.57087209,45.1177043 9.57087209,44.1399652 L9.57087209,42.7291826 L8.52436047,42.7291826 L8.52436047,44.1399652 C8.52436047,45.6926609 9.79168605,46.956313 11.3488953,46.956313 L11.810407,46.956313 C13.3676163,46.956313 14.6349419,45.6926609 14.6349419,44.1399652 L14.6349419,42.7291826 L13.5884302,42.7291826 L13.5884302,44.1399652 Z" id="Fill-3"></path>
                                <path d="M32.9212674,44.1399652 C32.9212674,45.1177043 32.1227791,45.9128348 31.1432442,45.9128348 L30.6827791,45.9128348 C29.7032442,45.9128348 28.9047558,45.1177043 28.9047558,44.1399652 L28.9047558,42.7291826 L27.8582442,42.7291826 L27.8582442,44.1399652 C27.8582442,45.6926609 29.1255698,46.956313 30.6827791,46.956313 L31.1432442,46.956313 C32.7004535,46.956313 33.9677791,45.6926609 33.9677791,44.1399652 L33.9677791,42.7291826 L32.9212674,42.7291826 L32.9212674,44.1399652 Z" id="Fill-5"></path>
                                <path d="M41.4293023,37.8266087 C41.4293023,40.070087 39.5989535,41.8951304 37.35,41.8951304 L5.12790698,41.8951304 C2.87686047,41.8951304 1.04651163,40.070087 1.04651163,37.8266087 L1.04651163,5.69895652 C1.04651163,3.45547826 2.87686047,1.63043478 5.12790698,1.63043478 L37.35,1.63043478 C39.5989535,1.63043478 41.4293023,3.45547826 41.4293023,5.69895652 L41.4293023,37.8266087 Z M37.35,0.586956522 L5.12790698,0.586956522 C2.30023256,0.586956522 0,2.88052174 0,5.69895652 L0,37.8266087 C0,40.6450435 2.30023256,42.9386087 5.12790698,42.9386087 L37.35,42.9386087 C40.1766279,42.9386087 42.475814,40.6450435 42.475814,37.8266087 L42.475814,5.69895652 C42.475814,2.88052174 40.1766279,0.586956522 37.35,0.586956522 Z" id="Fill-7"></path>
                                <path d="M36.8262209,36.9085565 C36.8262209,37.1266435 36.6472674,37.3050783 36.4275,37.3050783 L6.04831395,37.3050783 C5.82959302,37.3050783 5.65063953,37.1266435 5.65063953,36.9085565 L5.65063953,6.61742609 C5.65063953,6.39933913 5.82959302,6.22090435 6.04831395,6.22090435 L36.4275,6.22090435 C36.6472674,6.22090435 36.8262209,6.39933913 36.8262209,6.61742609 L36.8262209,36.9085565 Z M36.4275,5.17742609 L6.04831395,5.17742609 C5.2519186,5.17742609 4.60412791,5.82333913 4.60412791,6.61742609 L4.60412791,36.9085565 C4.60412791,37.7026435 5.2519186,38.3485565 6.04831395,38.3485565 L36.4275,38.3485565 C37.2249419,38.3485565 37.8727326,37.7026435 37.8727326,36.9085565 L37.8727326,6.61742609 C37.8727326,5.82333913 37.2249419,5.17742609 36.4275,5.17742609 Z" id="Fill-9"></path>
                                <path d="M24.396907,16.5423652 C24.396907,16.914887 24.0923721,17.2185391 23.7187674,17.2185391 L18.7583023,17.2185391 C18.3836512,17.2185391 18.0791163,16.914887 18.0791163,16.5423652 L18.0791163,11.5973217 C18.0791163,11.222713 18.3836512,10.9190609 18.7583023,10.9190609 L23.7187674,10.9190609 C24.0923721,10.9190609 24.396907,11.222713 24.396907,11.5973217 L24.396907,16.5423652 Z M23.7187674,9.87558261 L18.7583023,9.87558261 C17.8070233,9.87558261 17.0326047,10.6488 17.0326047,11.5973217 L17.0326047,16.5423652 C17.0326047,17.490887 17.8070233,18.2620174 18.7583023,18.2620174 L23.7187674,18.2620174 C24.6700465,18.2620174 25.4434186,17.490887 25.4434186,16.5423652 L25.4434186,11.5973217 C25.4434186,10.6488 24.6700465,9.87558261 23.7187674,9.87558261 Z" id="Fill-11"></path>
                                <path d="M21.237907,33.3338087 C17.7195349,33.3338087 14.8562791,30.4798957 14.8562791,26.9696348 C14.8562791,23.4614609 17.7195349,20.6075478 21.237907,20.6075478 C24.7562791,20.6075478 27.6195349,23.4614609 27.6195349,26.9696348 C27.6195349,30.4798957 24.7562791,33.3338087 21.237907,33.3338087 M21.237907,19.5640696 C17.1418605,19.5640696 13.8097674,22.8854609 13.8097674,26.9696348 C13.8097674,31.0538087 17.1418605,34.377287 21.237907,34.377287 C25.3339535,34.377287 28.6660465,31.0538087 28.6660465,26.9696348 C28.6660465,22.8854609 25.3339535,19.5640696 21.237907,19.5640696" id="Fill-13"></path>
                                <polygon id="Fill-15" points="20.7146512 23.325913 21.7611628 23.325913 21.7611628 20.0848696 20.7146512 20.0848696"></polygon>
                                <polygon id="Fill-17" points="25.062907 27.4914783 28.1417442 27.4914783 28.1417442 26.448 25.062907 26.448"></polygon>
                                <polygon id="Fill-18" points="14.3330233 27.4914783 17.365814 27.4914783 17.365814 26.448 14.3330233 26.448"></polygon>
                                <polygon id="Fill-19" points="20.7146512 33.8546087 21.7611628 33.8546087 21.7611628 30.5655652 20.7146512 30.5655652"></polygon>
                                <polygon id="Fill-20" points="23.6457209 29.9119304 25.8465349 32.1074087 26.5864186 31.3686261 24.3856047 29.1741913"></polygon>
                                <polygon id="Fill-21" points="16.0840465 22.5464348 18.1969535 24.6511304 18.9368372 23.9133913 16.8239302 21.8086957"></polygon>
                                <polygon id="Fill-22" points="23.514907 24.1304348 24.2547907 24.8681739 26.579093 22.581913 25.8392093 21.8441739"></polygon>
                                <polygon id="Fill-23" points="16.0840465 31.3935652 16.8239302 32.1313043 19.053 29.9118261 18.3131163 29.174087"></polygon>
                                <path d="M21.237907,30.348 C19.3709302,30.348 17.8513953,28.8328696 17.8513953,26.9702609 C17.8513953,25.1086957 19.3709302,23.5925217 21.237907,23.5925217 C23.1059302,23.5925217 24.6254651,25.1086957 24.6254651,26.9702609 C24.6254651,28.8328696 23.1059302,30.348 21.237907,30.348 M21.237907,22.5490435 C18.7932558,22.5490435 16.8048837,24.5326957 16.8048837,26.9702609 C16.8048837,29.4088696 18.7932558,31.3914783 21.237907,31.3914783 C23.6836047,31.3914783 25.6719767,29.4088696 25.6719767,26.9702609 C25.6719767,24.5326957 23.6836047,22.5490435 21.237907,22.5490435" id="Fill-24"></path>
                            </g>
                        </g>
                    </g>
                </g>
            </g>
        </g>
    </g>
</svg>