<?xml version="1.0" encoding="UTF-8"?>
<svg width="50px" height="50px" viewBox="0 0 50 50" version="1.1" xmlns="http://www.w3.org/2000/svg" xmlns:xlink="http://www.w3.org/1999/xlink">
    <!-- Generator: sketchtool 49.3 (51167) - http://www.bohemiancoding.com/sketch -->
    <title>F7CF4FE8-D765-4B78-8F7D-198A4EB1DDBD</title>
    <desc>Created with sketchtool.</desc>
    <defs></defs>
    <g id="HG-Domain-Privacy" stroke="none" stroke-width="1" fill="none" fill-rule="evenodd">
        <g id="M-HG-Privacy-Protection" transform="translate(-624.000000, -2126.000000)">
            <g id="xl_secured,-unsecured" transform="translate(133.000000, 1914.000000)">
                <g id="web-hosting_baby-plan" transform="translate(374.000000, 182.000000)">
                    <g id="reveal-public_icon_03" transform="translate(117.000000, 30.000000)">
                        <path d="M49.4256727,27.1703273 C50.6540364,13.6503273 40.6904,1.69469091 27.1704,0.466327273 C13.6504,-0.762763636 1.69476364,9.2016 0.4664,22.7216 C-0.762690909,36.2408727 9.20167273,48.1972364 22.7209455,49.4256 C36.2409455,50.6539636 48.1973091,40.6903273 49.4256727,27.1703273 Z" id="Stroke-1" stroke="#AA6363" stroke-width="0.72"></path>
                        <path d="M0.466181818,25.3434182 C0.466181818,25.3434182 11.3338182,15.5230545 25.3556364,15.5230545 C39.2952727,15.5230545 49.4218182,25.3434182 49.4218182,25.3434182" id="Stroke-3" stroke="#AA6363" stroke-width="0.72" stroke-linecap="round"></path>
                        <path d="M0.467563636,25.3917091 C0.467563636,25.3917091 11.3359273,35.2120727 25.3570182,35.2120727 C39.2966545,35.2120727 49.4239273,25.3917091 49.4239273,25.3917091" id="Stroke-5" stroke="#AA6363" stroke-width="0.72" stroke-linecap="round"></path>
                        <path d="M26.0968,15.7486545 C20.6677091,15.7486545 16.2502545,20.1653818 16.2502545,25.5952 C16.2502545,31.0250182 20.6677091,35.4417455 26.0968,35.4417455 C31.5258909,35.4417455 35.9433455,31.0250182 35.9433455,25.5952 C35.9433455,20.1653818 31.5258909,15.7486545 26.0968,15.7486545 M26.0968,16.4759273 C31.1331636,16.4759273 35.2160727,20.5588364 35.2160727,25.5952 C35.2160727,30.6315636 31.1331636,34.7144727 26.0968,34.7144727 C21.0604364,34.7144727 16.9775273,30.6315636 16.9775273,25.5952 C16.9775273,20.5588364 21.0604364,16.4759273 26.0968,16.4759273" id="Fill-7" fill="#AA6363"></path>
                        <path d="M29.1284364,23.2562909 C30.4200727,24.9304727 30.1102545,27.3348364 28.4353455,28.6272 C26.7611636,29.9188364 24.3568,29.6082909 23.0651636,27.9341091 C21.7735273,26.2599273 22.0833455,23.8555636 23.7575273,22.5639273 C25.4317091,21.2715636 27.8368,21.5821091 29.1284364,23.2562909 Z" id="Stroke-9" stroke="#AA6363" stroke-width="0.72"></path>
                    </g>
                </g>
            </g>
        </g>
    </g>
</svg>