<?xml version="1.0" encoding="UTF-8"?>
<svg width="42px" height="53px" viewBox="0 0 42 53" version="1.1" xmlns="http://www.w3.org/2000/svg" xmlns:xlink="http://www.w3.org/1999/xlink">
    <!-- Generator: sketchtool 49.3 (51167) - http://www.bohemiancoding.com/sketch -->
    <title>B51F07E7-040C-4E9F-A56F-3682ADB16E26</title>
    <desc>Created with sketchtool.</desc>
    <defs></defs>
    <g id="HG-Domain-Privacy" stroke="none" stroke-width="1" fill="none" fill-rule="evenodd">
        <g id="M-HG-Privacy-Protection" transform="translate(-329.000000, -2122.000000)" stroke="#58927D">
            <g id="xl_secured,-unsecured" transform="translate(133.000000, 1914.000000)">
                <g id="web-hosting_baby-plan-copy" transform="translate(74.000000, 182.000000)">
                    <g id="reveal-private_icon_03" transform="translate(122.000000, 26.000000)">
                        <path d="M41.4315517,33.3289667 C42.4591034,22.0478556 34.1228276,12.0718 22.8117931,11.0462444 C11.5007586,10.0214111 1.49824138,18.3356333 0.469965517,29.6167444 C-0.557586207,40.8978556 7.77868966,50.8739111 19.0897241,51.8994667 C30.4007586,52.9243 40.404,44.6100778 41.4315517,33.3289667 Z" id="Stroke-1" stroke-width="0.76464"></path>
                        <path d="M26.4912828,26.4812167 C26.4912828,23.74905 24.2710759,21.5339944 21.5309379,21.5339944 C18.7922483,21.5339944 16.5713172,23.74905 16.5713172,26.4812167 C16.5713172,29.2133833 18.7922483,31.4284389 21.5309379,31.4284389 C24.2710759,31.4284389 26.4912828,29.2133833 26.4912828,26.4812167 Z" id="Stroke-3" stroke-width="0.72"></path>
                        <path d="M21.5312276,31.42815 L21.5312276,41.97115" id="Stroke-5" stroke-width="0.72"></path>
                        <path d="M29.2318552,12.7927222 L29.2318552,8.26438889 C29.2318552,8.26438889 29.399131,0.647833333 20.957131,0.348833333 C20.7876828,0.342333333 20.957131,0.348833333 20.957131,0.348833333 C11.990131,0.348833333 12.6816828,8.26438889 12.6816828,8.26438889 L12.6816828,12.7927222" id="Stroke-7" stroke-width="0.68976"></path>
                    </g>
                </g>
            </g>
        </g>
    </g>
</svg>