<?xml version="1.0" encoding="UTF-8"?>
<svg width="33px" height="40px" viewBox="0 0 33 40" version="1.1" xmlns="http://www.w3.org/2000/svg" xmlns:xlink="http://www.w3.org/1999/xlink">
    <!-- Generator: sketchtool 49.3 (51167) - http://www.bohemiancoding.com/sketch -->
    <title>2616CFAD-BE0E-4F4E-8A71-6AEB1B858F6A</title>
    <desc>Created with sketchtool.</desc>
    <defs></defs>
    <g id="HG-Domain-Privacy-Sliders" stroke="none" stroke-width="1" fill="none" fill-rule="evenodd">
        <g id="M-Domain-Privacy---Slider---Private-Information" transform="translate(-479.000000, -259.000000)" stroke="#ECA93F">
            <g id="m_add-ons_base" transform="translate(0.000000, 88.000000)">
                <g id="Selector" transform="translate(220.000000, 156.000000)">
                    <g id="Pro-Services" transform="translate(188.000000, 0.000000)">
                        <g id="spam-protection_icon_01" transform="translate(72.000000, 16.000000)">
                            <path d="M0.372093023,20.81445 L0.372093023,35.06445 C0.372093023,35.06445 0.372093023,38.06445 3.34883721,38.06445 L27.9069767,38.06445 C27.9069767,38.06445 30.8837209,38.06445 30.8837209,35.06445 L30.8837209,20.81445" id="Stroke-1" stroke-width="0.75"></path>
                            <path d="M1.48837209,37.31445 L12.1466047,28.14495" id="Stroke-3" stroke-width="0.75"></path>
                            <path d="M29.7674419,37.31445 L19.336186,27.8667" id="Stroke-5" stroke-width="0.75"></path>
                            <polyline id="Stroke-7" stroke-width="0.75" points="0.00290232558 20.81445 2.97666977 20.81445 15.7372279 31.0152"></polyline>
                            <polyline id="Stroke-9" stroke-width="0.75" points="31.2674977 20.81445 28.2937302 20.81445 15.3381953 31.0152"></polyline>
                            <path d="M29.4326515,20.81445 L29.4324093,3.5892 C29.4324093,3.5892 29.5254326,0.3447 26.0657116,0.3447 L8.55724651,0.3447 L1.82310698,7.4337 L1.82310698,20.81445" id="Stroke-11" stroke-width="0.69"></path>
                            <polyline id="Stroke-13" stroke-width="0.69" points="1.82340465 7.433775 8.66917209 7.433775 8.66917209 0.344775"></polyline>
                            <path d="M10.6046512,16.722375 L13.1549767,16.722375 L17.0247442,23.635875 C17.0247442,23.635875 17.2003721,24.034875 17.728,23.635875 C18.2556279,23.236875 18.827907,21.154125 17.728,18.273375 L23.5765581,18.317625 C23.5765581,18.317625 24.6876279,18.538875 24.7032558,17.386875 C24.7196279,16.234875 26.2586047,8.435625 22.4773953,8.435625 C18.6954419,8.435625 14.0785116,10.252125 10.6046512,9.986625 L10.6046512,16.722375 Z" id="Stroke-15" stroke-width="0.771"></path>
                            <path d="M22.0058047,11.692125 L25.0272,11.692125" id="Stroke-17" stroke-width="0.771"></path>
                            <path d="M21.7056744,13.7685 L25.0269767,13.7685" id="Stroke-19" stroke-width="0.771"></path>
                            <path d="M21.7056744,15.7116 L25.0269767,15.7116" id="Stroke-21" stroke-width="0.771"></path>
                            <polygon id="Stroke-23" stroke-width="0.78" points="8.25376744 16.89195 10.6046512 16.89195 10.6046512 9.92895 8.25376744 9.92895"></polygon>
                        </g>
                    </g>
                </g>
            </g>
        </g>
    </g>
</svg>