<?xml version="1.0" encoding="UTF-8"?>
<svg width="54px" height="54px" viewBox="0 0 54 54" version="1.1" xmlns="http://www.w3.org/2000/svg" xmlns:xlink="http://www.w3.org/1999/xlink">
    <!-- Generator: sketchtool 61 (101010) - https://sketch.com -->
    <title>AE0FB493-1BD1-4C40-BD7C-4F56FBF1103C</title>
    <desc>Created with sketchtool.</desc>
    <defs>
        <path d="M27,54 C12.0885,54 0,41.9115 0,27 C0,12.0885 12.0885,0 27,0 C41.9115,0 54,12.0885 54,27 C54,41.9115 41.9115,54 27,54 Z" id="path-1"></path>
    </defs>
    <g id="Nav-updates" stroke="none" stroke-width="1" fill="none" fill-rule="evenodd">
        <g id="nav_card-dropdown_support" transform="translate(-103.000000, -216.000000)">
            <g transform="translate(78.000000, 25.000000)" id="row_list-big_knowledge-base">
                <g transform="translate(25.000000, 191.000000)">
                    <g id="icon_nav_transfer-domains">
                        <mask id="mask-2" fill="white">
                            <use xlink:href="#path-1"></use>
                        </mask>
                        <use id="Fill-1" fill="#4480C5" xlink:href="#path-1"></use>
                        <g id="Group-2" mask="url(#mask-2)">
                            <g transform="translate(10.000000, 13.000000)">
                                <path d="M17,24.7083333 L17,27 L17,27 C20.0782998,25.4619714 22.8344519,24.692957 25.2684564,24.692957 C27.5154916,24.692957 29.8940853,25.3483646 32.4042373,26.6591797 C32.778261,26.8544797 33.2372546,26.7696681 33.5167785,26.4535951 C33.8281341,26.1015283 34,25.6477577 34,25.1777648 L34,5.75138012 C34,5.34876454 33.6736156,5.02238012 33.271,5.02238012 L28.0604027,5.02238012 L28.0604027,5.02238012 C26.5925082,4.92833085 25.8050362,5.13070304 25.6979866,5.6294967 C25.1119455,8.36013333 24.1097083,8.15776114 22.6912752,5.02238012 L17,5.02238012 L17,24.7083333 Z" id="Path-16" fill="#ECA93F"></path>
                                <path d="M0,25.9071902 L0,27 L0,27 C3.07829978,25.4619714 5.8344519,24.692957 8.26845638,24.692957 C10.5154916,24.692957 12.8940853,25.3483646 15.4042373,26.6591797 C15.778261,26.8544797 16.2372546,26.7696681 16.5167785,26.4535951 C16.8281341,26.1015283 17,25.6477577 17,25.1777648 L17,5.75138012 C17,5.34876454 16.6736156,5.02238012 16.271,5.02238012 L11.0604027,5.02238012 L11.0604027,5.02238012 C9.59250822,4.92833085 8.80503618,5.13070304 8.69798658,5.6294967 C8.11194548,8.36013333 7.10970835,8.15776114 5.69127517,5.02238012 L0,5.02238012 L0,25.9071902 Z" id="Path-16-Copy" fill="#ECA93F" transform="translate(8.500000, 16.000000) scale(-1, 1) translate(-8.500000, -16.000000) "></path>
                                <path d="M17,3.87368421 L17,23 C19.2923977,21.3859649 21.7076023,20.5789474 24.245614,20.5789474 C26.7836257,20.5789474 29.0350877,20.9421053 31,21.6684211 L31,0.968421053 C29.1988304,0.322807018 26.8654971,0 24,0 C21.1345029,0 18.8011696,1.29122807 17,3.87368421 Z" id="Path-15" fill="#FBCE3B"></path>
                                <path d="M3,3.87368421 L3,23 C5.29239766,21.3859649 7.70760234,20.5789474 10.245614,20.5789474 C12.7836257,20.5789474 15.0350877,20.9421053 17,21.6684211 L17,0.968421053 C15.1988304,0.322807018 12.8654971,0 10,0 C7.13450292,0 4.80116959,1.29122807 3,3.87368421 Z" id="Path-15-Copy" fill="#FBCE3B" transform="translate(10.000000, 11.500000) scale(-1, 1) translate(-10.000000, -11.500000) "></path>
                            </g>
                        </g>
                    </g>
                </g>
            </g>
        </g>
    </g>
</svg>