<?xml version="1.0" encoding="UTF-8"?>
<svg width="54px" height="54px" viewBox="0 0 54 54" version="1.1" xmlns="http://www.w3.org/2000/svg" xmlns:xlink="http://www.w3.org/1999/xlink">
    <!-- Generator: sketchtool 61 (101010) - https://sketch.com -->
    <title>1CC4C392-0094-439F-AD2D-24C7B32D5016</title>
    <desc>Created with sketchtool.</desc>
    <g id="Nav-updates" stroke="none" stroke-width="1" fill="none" fill-rule="evenodd">
        <g id="nav_card-dropdown_support" transform="translate(-103.000000, -138.000000)">
            <g transform="translate(78.000000, 25.000000)" id="row_list-big_call-us">
                <g transform="translate(25.000000, 113.000000)">
                    <g id="icon_nav_call-us">
                        <path d="M39.517274,2.93404932 C35.8741233,1.06254247 31.7471918,0.000295890411 27.3694932,0.000295890411 C12.6622603,0.000295890411 0.739356164,11.9224603 0.739356164,26.6304329 C0.739356164,35.6277205 5.20656164,43.5768164 12.0386712,48.397611 C13.4582055,49.3999397 14.9798219,50.2654192 16.5850274,50.9777753 C19.882726,52.4409534 23.5295753,53.2605699 27.3694932,53.2605699 C42.0774658,53.2605699 53.9996301,41.3376658 53.9996301,26.6304329 C53.9996301,18.2892822 50.163411,10.8476384 44.161274,5.96470685 C42.7299041,4.79963836 41.1727808,3.78473425 39.517274,2.93404932 Z" id="fill-circle" fill="#FBCE3B"></path>
                        <path d="M48.3772836,25.4922429 C48.3772836,29.1320859 47.4257226,32.7069068 45.6351659,35.8566365 L45.6351659,38.1561839 C45.6351659,39.1867503 44.8003652,40.0222502 43.770498,40.0222502 L43.2503206,40.0222502 C40.9039293,43.7844468 36.688675,46.58879 31.6567983,47.5557325 C31.4064979,48.4828228 30.5661038,49.1707993 29.5600082,49.1707993 L26.0166496,49.1707993 C24.8147883,49.1707993 23.8366591,48.1926701 23.8366591,46.9908088 C23.8366591,45.7896466 24.8147883,44.8108182 26.0166496,44.8108182 L29.5600082,44.8108182 C30.2864386,44.8108182 30.926872,45.1715864 31.3232975,45.7204294 C35.3791426,44.9401634 38.8316099,42.8517633 40.9920239,40.0222502 C40.9920239,40.0222502 43.6761977,29.6094984 44.5878196,26.0139394 C44.7663497,25.3097932 44.5472869,24.1137316 44.5878196,24.133769 C43.8977457,15.2893559 36.538355,8.30261909 27.5841733,8.30261909 C18.6390807,8.30261909 11.2831858,15.2781693 10.5833235,24.1141924 C10.821039,24.0023263 9.49752325,39.1867503 9.49752325,38.1561839 L9.49752325,35.7895169 C7.73143728,32.6558679 6.79176208,29.1076152 6.79176208,25.4922429 C6.79176208,13.956751 16.119996,4.572584 27.5841733,4.572584 C39.0490496,4.572584 48.3772836,13.956751 48.3772836,25.4922429 Z" id="headset" fill="#4480C5"></path>
                        <rect id="Rectangle" fill="#FF8D4E" x="23.6712329" y="43.6438356" width="8.87671233" height="5.91780822" rx="2.95890411"></rect>
                        <rect id="Rectangle" fill="#FFFFFF" x="36.9863014" y="24.4109589" width="8.87671233" height="16.2739726" rx="1.47945205"></rect>
                        <rect id="Rectangle-Copy" fill="#FFFFFF" x="8.87671233" y="24.4109589" width="8.87671233" height="16.2739726" rx="1.47945205"></rect>
                        <polygon id="star-03" fill="#ECA93F" points="36.2465753 15.5342466 37.3896884 17.9696656 39.9452055 18.3596793 38.0958904 20.2548571 38.5328014 22.9315068 36.2465753 21.6675735 33.9603493 22.9315068 34.3972603 20.2548571 32.5479452 18.3596793 35.1034623 17.9696656"></polygon>
                        <polygon id="star-02" fill="#ECA93F" points="27.369863 10.3561644 29.1988439 14.2528348 33.2876712 14.8768568 30.3287671 17.9091412 31.0278247 22.1917808 27.369863 20.1694874 23.7119013 22.1917808 24.4109589 17.9091412 21.4520548 14.8768568 25.5408822 14.2528348"></polygon>
                        <polygon id="star-01" fill="#ECA93F" points="18.4931507 15.5342466 19.6362637 17.9696656 22.1917808 18.3596793 20.3424658 20.2548571 20.7793767 22.9315068 18.4931507 21.6675735 16.2069246 22.9315068 16.6438356 20.2548571 14.7945205 18.3596793 17.3500377 17.9696656"></polygon>
                    </g>
                </g>
            </g>
        </g>
    </g>
</svg>