<?xml version="1.0" encoding="UTF-8"?>
<svg width="52px" height="52px" viewBox="0 0 52 52" version="1.1" xmlns="http://www.w3.org/2000/svg" xmlns:xlink="http://www.w3.org/1999/xlink">
    <!-- Generator: sketchtool 61 (101010) - https://sketch.com -->
    <title>85E59EC0-BB3C-4492-AB24-3D3B787FEC5B</title>
    <desc>Created with sketchtool.</desc>
    <defs>
        <circle id="path-1" cx="25.9425804" cy="25.9425804" r="25.9425804"></circle>
    </defs>
    <g id="Nav-updates" stroke="none" stroke-width="1" fill="none" fill-rule="evenodd">
        <g id="nav_card-dropdown_hosting-types" transform="translate(-105.000000, -219.000000)">
            <g transform="translate(80.000000, 25.000000)" id="row_list-big_wordpress-hosting">
                <g transform="translate(25.000000, 194.000000)">
                    <g id="icon_nav_wordpress-hosting">
                        <g id="wordpress">
                            <mask id="mask-2" fill="white">
                                <use xlink:href="#path-1"></use>
                            </mask>
                            <use id="Oval" fill="#EBEFF3" xlink:href="#path-1"></use>
                            <path d="M1.49711725,15.0292353 L1.71670999,15.0292353 L13.8606031,49.32832 L13.7508068,49.32832 C8.71881829,46.9365944 4.74336095,42.9001596 1.82443473,37.2211378 C0.148486327,33.3375018 -0.690523692,29.4878211 -0.690523692,25.6763401 C-0.690523692,22.2404895 0.0386899539,18.6900397 1.49711725,15.0292353" id="Fill-77" fill="#4480C5" mask="url(#mask-2)"></path>
                            <path d="M25.9101801,-0.56125775 C32.7047232,-0.56125775 38.7339589,1.7613625 44.002223,6.4087319 L44.002223,6.52156313 L43.6575094,6.4087319 C41.5220197,6.4087319 40.0325968,7.68393771 39.193577,10.2322204 L39.193577,11.2434437 C39.193577,12.744312 40.2624059,15.0690611 42.3978957,18.2155623 C43.4667246,20.2401378 44.002223,22.4137356 44.002223,24.7363559 C44.002223,26.6864202 43.0482987,30.3225663 41.1404499,35.6447942 L39.3063135,41.829223 C39.1545528,41.829223 38.1616042,39.0169578 36.3296358,33.3945562 L29.4592123,13.3808504 L29.5741169,13.3808504 C32.2451051,13.3808504 33.5827672,13.0423568 33.5827672,12.3696271 L33.5827672,12.0311335 C33.4288385,11.5074262 33.1621733,11.2072526 32.7806036,11.1327414 L25.3378254,11.4691062 L17.7801428,11.1327414 C17.398573,11.356275 17.2077881,11.6947686 17.2077881,12.1439647 L17.0928836,12.1439647 C17.0928836,12.9699745 18.2007367,13.3808504 20.4142748,13.3808504 L20.9866295,13.4936817 L25.1080164,24.8491871 L19.2695656,42.0527566 L19.1546611,42.0527566 L9.42246443,13.4936817 L9.42246443,13.3808504 L9.53520095,13.3808504 C12.1324769,13.3808504 13.4289468,13.0806768 13.4289468,12.4824584 L13.4289468,12.1439647 C13.4289468,11.6947686 13.1622816,11.356275 12.6267831,11.1327414 L3.92439122,11.4691062 L3.46694112,11.4691062 L3.46694112,11.2434437 C4.23008062,9.89585562 6.02519285,7.94579132 8.8479418,5.3975086 C13.9644453,1.4249977 19.6511353,-0.56125775 25.9101801,-0.56125775" id="Fill-78" fill="#4480C5" mask="url(#mask-2)"></path>
                            <path d="M25.9466958,28.5409959 C26.1004667,28.5409959 27.1834525,31.3053176 29.1956535,36.8297757 L34.6479272,50.8669214 L34.5315007,50.8669214 C31.515396,51.8253312 28.3453716,52.4464186 25.3292669,52.4464186 C22.6207039,52.4464186 20.4146959,52.1350526 18.018068,51.3963656 L25.9466958,28.5409959 Z" id="Fill-79" fill="#4480C5" mask="url(#mask-2)"></path>
                            <path d="M49.1198274,12.9505029 L49.3337898,12.9505029 C51.324044,17.1392043 52.3171527,21.3640152 52.3171527,25.6270597 C52.3171527,33.2567835 49.4750858,39.8372079 43.7889334,45.3725811 C42.438548,46.5684426 41.1588105,47.5412748 39.9517394,48.2889538 L39.8447582,48.2889538 L39.8447582,48.1763771 L48.5869398,21.3640152 C49.0834941,19.1953214 49.3337898,17.2878904 49.3337898,15.6438464 L49.1198274,12.9505029 Z" id="Fill-80" fill="#4480C5" mask="url(#mask-2)"></path>
                        </g>
                    </g>
                </g>
            </g>
        </g>
    </g>
</svg>