<?xml version="1.0" encoding="UTF-8"?>
<svg width="54px" height="54px" viewBox="0 0 54 54" version="1.1" xmlns="http://www.w3.org/2000/svg" xmlns:xlink="http://www.w3.org/1999/xlink">
    <!-- Generator: sketchtool 61 (101010) - https://sketch.com -->
    <title>41FBA2D6-A641-40F5-A281-2B397CCBF060</title>
    <desc>Created with sketchtool.</desc>
    <defs>
        <path d="M54,27 C54,41.9115 41.9115,54 27,54 C12.08775,54 0,41.9115 0,27 C0,12.0885 12.08775,0 27,0 C41.9115,0 54,12.0885 54,27" id="path-1"></path>
    </defs>
    <g id="Nav-updates" stroke="none" stroke-width="1" fill="none" fill-rule="evenodd">
        <g id="nav_card-dropdown_pro-hosting-types" transform="translate(-104.000000, -219.000000)">
            <g id="nav_card-dropdown_hosting-types" transform="translate(80.000000, 25.000000)">
                <g id="row_list-big_wordpress-hosting" transform="translate(24.000000, 194.000000)">
                    <g id="icon_nav_reseller">
                        <mask id="mask-2" fill="white">
                            <use xlink:href="#path-1"></use>
                        </mask>
                        <use id="Fill-1" fill="#4480C5" xlink:href="#path-1"></use>
                        <path d="M20.0699503,11.9287712 C18.3683109,9.57612736 22.2243475,8.1318608 22.2243475,5.93214399 C26.6604025,4.93170958 29.8544839,4.93170958 31.806592,5.93214399 C31.806592,7.77143119 35.8348769,9.81735597 34.2789862,11.9287712 C33.2417257,13.3363813 31.8573293,13.3363813 30.1257969,11.9287712 C30.1257969,14.3589654 29.1134742,15.5454545 27.113739,15.5454545 C25.3391991,15.5454545 24.0825616,14.5840908 24.0825616,11.9287712 C22.5419136,13.4972004 21.2043765,13.4972004 20.0699503,11.9287712 Z" id="Rectangle-5" fill="#FBCE3B" mask="url(#mask-2)" transform="translate(27.136364, 10.363636) rotate(-180.000000) translate(-27.136364, -10.363636) "></path>
                        <path d="M26.3909277,54.8181818 C35.9351069,54.8181818 42.6027005,52.0036245 46.3937087,46.3745097 C49.1375331,44.8535937 43.8358674,37.2464337 43.8358674,36.2727273 C43.8358674,24.5465109 37.6810412,17.7272727 33.6585448,17.7272727 C31.4882565,17.7272727 22.5421064,17.9375795 20.1071214,17.9375795 C16.7597491,17.9375795 9.26499189,23.6188317 9.26499189,36.2727273 C9.26499189,38.238571 3.69712903,43.6219967 5.56501111,45.8867814 C7.43289318,48.1515661 12.074659,54.8181818 26.3909277,54.8181818 Z" id="Oval-3" fill="#FBCE3B" mask="url(#mask-2)"></path>
                        <rect id="Rectangle-8" fill="#ECA93F" mask="url(#mask-2)" x="19.3636364" y="14.7272727" width="16.0909091" height="4.09090909" rx="2.04545455"></rect>
                        <path d="M30.4915345,32.1752535 C30.4626379,29.6341754 29.0558077,28.3636364 26.271044,28.3636364 C22.0938984,28.3636364 21.5548763,31.2736542 21.5548763,32.1752535 C21.5548763,33.0768529 21.3168895,36.5021071 26.271044,36.5021071 C31.0267827,36.5021071 31.090713,39.6985687 31.090713,40.4278185 C31.090713,41.1570683 31.1998695,44.4545455 26.267202,44.4545455 C22.978757,44.4545455 21.4079817,42.5762013 21.5548763,38.819513" id="Path-7" stroke="#ECA93F" stroke-width="2.43" stroke-linecap="round" stroke-linejoin="round" mask="url(#mask-2)"></path>
                        <line x1="26.3181818" y1="47.970516" x2="26.3181818" y2="26.0765787" id="Path-8" stroke="#ECA93F" stroke-width="2.43" stroke-linecap="round" stroke-linejoin="round" mask="url(#mask-2)"></line>
                    </g>
                </g>
            </g>
        </g>
    </g>
</svg>