<?xml version="1.0" encoding="UTF-8"?>
<svg width="54px" height="54px" viewBox="0 0 54 54" version="1.1" xmlns="http://www.w3.org/2000/svg" xmlns:xlink="http://www.w3.org/1999/xlink">
    <!-- Generator: sketchtool 61 (101010) - https://sketch.com -->
    <title>BC7851C9-A2C3-4F3A-BE67-5576CE378D7D</title>
    <desc>Created with sketchtool.</desc>
    <defs>
        <path d="M26.940372,53.880744 C12.0618032,53.880744 0,41.8189407 0,26.940372 C0,12.0618032 12.0618032,0 26.940372,0 C41.8189407,0 53.880744,12.0618032 53.880744,26.940372 C53.880744,41.8189407 41.8189407,53.880744 26.940372,53.880744 Z" id="path-1"></path>
    </defs>
    <g id="Nav-updates" stroke="none" stroke-width="1" fill="none" fill-rule="evenodd">
        <g id="nav_card-dropdown_hosting-types" transform="translate(-104.000000, -58.000000)">
            <g id="icon_nav_web-hosting-copy" transform="translate(104.000000, 58.000000)">
                <mask id="mask-2" fill="white">
                    <use xlink:href="#path-1"></use>
                </mask>
                <use id="Fill-1" fill="#FF8D4E" xlink:href="#path-1"></use>
                <rect id="Rectangle" fill="#2D578B" mask="url(#mask-2)" x="33.0233284" y="19.4676516" width="17.2418381" height="34.2142724" rx="2.89285714"></rect>
                <rect id="Rectangle" fill="#2D578B" mask="url(#mask-2)" x="4.46653407" y="28.1889684" width="17.2418381" height="34.2142724" rx="0.969853391"></rect>
                <g id="Group-10" mask="url(#mask-2)">
                    <g transform="translate(10.237341, 9.518931)" id="Group-9">
                        <g>
                            <rect id="Rectangle" fill="#2D578B" x="0" y="0" width="33.4060613" height="55.4702676" rx="1.93970678"></rect>
                            <rect id="Rectangle" fill="#4480C5" x="0" y="5.21449884" width="33.4060613" height="42.8970069"></rect>
                            <rect id="Rectangle" fill="#FFFFFF" x="2.96344092" y="15.8832714" width="27.7965221" height="10.7761488" rx="1.93970678"></rect>
                            <rect id="Rectangle-Copy-2" fill="#2D578B" x="2.96942767" y="30.6909298" width="27.7965221" height="2.23478522" rx="1.11739261"></rect>
                            <rect id="Rectangle-Copy-3" fill="#2D578B" x="2.96942767" y="35.3135842" width="11.7266578" height="2.23478522" rx="1.11739261"></rect>
                            <rect id="Rectangle-Copy-4" fill="#2D578B" x="15.9606737" y="35.3135842" width="6.51480988" height="2.23478522" rx="1.11739261"></rect>
                            <rect id="Rectangle-Copy" fill="#2D578B" x="2.96942767" y="8.55341743" width="27.8997823" height="3.5920496" rx="1.7960248"></rect>
                        </g>
                    </g>
                </g>
            </g>
        </g>
    </g>
</svg>