<?xml version="1.0" encoding="UTF-8"?>
<svg width="54px" height="54px" viewBox="0 0 54 54" version="1.1" xmlns="http://www.w3.org/2000/svg" xmlns:xlink="http://www.w3.org/1999/xlink">
    <!-- Generator: sketchtool 61 (101010) - https://sketch.com -->
    <title>09BF3F5A-DD65-4513-BA5E-5C36AC42B0B4</title>
    <desc>Created with sketchtool.</desc>
    <g id="Nav-updates" stroke="none" stroke-width="1" fill="none" fill-rule="evenodd">
        <g id="nav_card-dropdown_hosting-types" transform="translate(-104.000000, -138.000000)">
            <g transform="translate(80.000000, 25.000000)" id="row_list-big_website-builder">
                <g transform="translate(24.000000, 113.000000)">
                    <g id="icon_nav_website-builder">
                        <g id="Group-4" fill="#FBCE3B">
                            <g id="Group-6">
                                <circle id="Oval" cx="26.940372" cy="26.940372" r="26.940372"></circle>
                            </g>
                        </g>
                        <g id="Asset-65" transform="translate(9.429130, 8.980124)">
                            <rect id="Rectangle" fill="#4480C5" x="0" y="1.3470186" width="28.5567943" height="29.6344092" rx="3.87941333"></rect>
                            <path d="M23.5857745,8.08211159 L30.5324216,8.08211159 C33.0122143,8.08211159 35.0224836,10.0923808 35.0224836,12.5721736 L35.0224836,31.430434 C35.0224836,33.9102267 33.0122143,35.920496 30.5324216,35.920496 L13.2456829,35.920496 C10.8898798,35.920496 8.98012399,34.0107402 8.98012399,31.6549371 L8.98012399,28.6821849 C8.98012399,27.8374722 9.21840613,27.0098918 9.66759743,26.2945131 L19.783186,10.1845017 C20.604659,8.87622984 22.040979,8.08211159 23.5857745,8.08211159 Z" id="Rectangle" fill="#FF8D4E"></path>
                            <path d="M29.3637347,13.5518059 C31.1610303,15.4113542 33.0713694,20.4429434 27.2220304,26.484821 C25.1195833,28.6576028 21.1153378,31.8274378 16.6574522,30.2789172 C16.5920874,30.2747771 16.5265305,30.2747771 16.4611657,30.2789172 C16.4611657,30.2789172 13.8992128,32.5906634 10.9058462,30.0835531 C7.91247955,27.5764429 8.64896111,25.3730626 10.0840339,23.5642493 L5.78535849,18.0341335 C5.01558212,17.2516299 4.89875009,16.0284237 5.5061954,15.1113559 C5.86820156,14.5772617 6.44786466,14.2354295 7.0857389,14.179886 C7.72361314,14.1243425 8.35251233,14.3609379 8.79944746,14.8245928 L9.34032595,14.2687136 L9.22255402,14.1473907 C8.42460707,13.3093789 8.42460707,11.9832137 9.22255402,11.1452018 L9.37522133,10.9863792 C9.75728814,10.5907667 10.2809605,10.3677255 10.8277418,10.3677255 C11.374523,10.3677255 11.8981954,10.5907667 12.2802622,10.9863792 L12.3958532,11.1077021 L13.0523226,10.684175 C12.3233369,9.94127254 12.1475033,8.80931004 12.6161303,7.87610269 C12.9344548,7.25361086 13.5262988,6.82114914 14.2106005,6.71101984 C14.8949022,6.60089054 15.5902285,6.82619924 16.0838593,7.31801761 L17.9289528,8.2996297 C17.0565682,7.11287171 17.237588,5.89964328 18.0183723,5.09450077 L18.2364684,4.86067857 C19.0172527,4.05333019 20.2691247,4.17024129 21.0499089,4.97758967 L29.3637347,13.5518059 Z" id="Path" fill="#FFFFFF" fill-rule="nonzero"></path>
                        </g>
                    </g>
                </g>
            </g>
        </g>
    </g>
</svg>