<?xml version="1.0" encoding="UTF-8"?>
<svg width="54px" height="54px" viewBox="0 0 54 54" version="1.1" xmlns="http://www.w3.org/2000/svg" xmlns:xlink="http://www.w3.org/1999/xlink">
    <!-- Generator: sketchtool 61 (101010) - https://sketch.com -->
    <title>B57E231F-C4E4-447D-8232-A1BC0C8F0070</title>
    <desc>Created with sketchtool.</desc>
    <g id="Nav-updates" stroke="none" stroke-width="1" fill="none" fill-rule="evenodd">
        <g id="nav_card-dropdown_domains" transform="translate(-103.000000, -137.000000)" fill-rule="nonzero">
            <g id="nav_card-dropdown_domain" transform="translate(78.000000, 25.000000)">
                <g id="row_list-big_web-hosting" transform="translate(25.000000, 112.000000)">
                    <g id="icon_nav_register-domain">
                        <circle id="Oval" fill="#4480C5" cx="26.955" cy="26.955" r="26.955"></circle>
                        <polygon id="Path" fill="#3A679D" points="42 26.7975 44.1225 30.6825 48 32.7975 44.1225 34.92 42 38.7975 39.8775 34.92 36 32.7975 39.8775 30.6825"></polygon>
                        <polygon id="Path" fill="#3A679D" points="32.3475 38.0475 33.975 41.025 36.9525 42.6525 33.975 44.2725 32.3475 47.25 30.7275 44.2725 27.75 42.6525 30.7275 41.025"></polygon>
                        <polygon id="Path" fill="#3A679D" points="18 8.0475 19.3275 10.4775 21.75 11.7975 19.3275 13.125 18 15.5475 16.6725 13.125 14.25 11.7975 16.6725 10.4775"></polygon>
                        <path d="M46.68,14.8575 L35.325,9.465 C34.6875317,9.15802256 33.9449683,9.15802256 33.3075,9.465 L4.275,23.9475 C3.1384867,24.5172088 2.67592903,25.8981781 3.24,27.0375 L11.715,44.0475 C11.9871533,44.5948476 12.4657871,45.0115103 13.0454113,45.2056563 C13.6250354,45.3998022 14.2580717,45.355495 14.805,45.0825 L43.8825,30.6 C44.4894338,30.306199 44.9326031,29.7556782 45.09,29.1 L47.9325,17.4975 C48.2015272,16.4310637 47.6761555,15.3236933 46.68,14.8575 Z" id="Path" fill="#FBCE3B"></path>
                        <rect id="Rectangle" fill="#ECA93F" transform="translate(25.327125, 26.643750) rotate(-26.480000) translate(-25.327125, -26.643750) " x="8.21212454" y="17.90625" width="34.23" height="17.475" rx="3.3075"></rect>
                        <polygon id="Path" fill="#FBCE3B" points="19.44 33.555 17.94 34.305 13.7925 32.58 15.2925 35.58 13.425 36.5175 10.29 30.225 11.79 29.475 15.9975 31.32 14.43 28.1625 16.2825 27.24"></polygon>
                        <path d="M24.69,30.9375 L23.94,30.2325 L21.6225,31.3875 L21.7575,32.385 L19.8075,33.375 L19.0575,25.875 L21.1575,24.825 L26.6775,29.925 L24.69,30.9375 Z M21.1275,27.405 L21.4125,29.505 L22.6275,28.8975 L21.1275,27.405 Z" id="Shape" fill="#FBCE3B"></path>
                        <polygon id="Path" fill="#FBCE3B" points="34.3875 26.1075 32.565 27 31.065 24 31.17 27.75 30.2775 28.1925 27.405 25.9425 28.905 28.905 27.0825 29.8125 23.925 23.475 25.9575 22.5 29.3025 25.1325 29.25 20.8275 31.275 19.815"></polygon>
                        <polygon id="Path" fill="#FBCE3B" points="39.9975 23.31 35.1225 25.74 31.995 19.4475 36.8175 17.0475 37.6125 18.6525 34.6575 20.1525 35.0625 20.97 37.7775 19.62 38.5275 21.0675 35.8125 22.4175 36.225 23.235 39.225 21.735"></polygon>
                        <polygon id="Path" fill="#FFFFFF" points="30.57 4.0425 32.7525 8.04 36.75 10.2225 32.7525 12.4125 30.57 16.41 28.38 12.4125 24.3825 10.2225 28.38 8.04"></polygon>
                        <polygon id="Path" fill="#FFFFFF" points="21 38.7975 22.59 41.7075 25.5 43.2975 22.59 44.895 21 47.7975 19.41 44.895 16.5 43.2975 19.41 41.7075"></polygon>
                    </g>
                </g>
            </g>
        </g>
    </g>
</svg>