<?xml version="1.0" encoding="UTF-8"?>
<svg width="54px" height="54px" viewBox="0 0 54 54" version="1.1" xmlns="http://www.w3.org/2000/svg" xmlns:xlink="http://www.w3.org/1999/xlink">
    <!-- Generator: sketchtool 61 (101010) - https://sketch.com -->
    <title>4083E5F0-1438-4886-B82D-157679131879</title>
    <desc>Created with sketchtool.</desc>
    <defs>
        <circle id="path-1" cx="26.547486" cy="26.547486" r="26.547486"></circle>
    </defs>
    <g id="Nav-updates" stroke="none" stroke-width="1" fill="none" fill-rule="evenodd">
        <g id="nav_card-dropdown_pro-hosting-types" transform="translate(-105.000000, -59.000000)">
            <g id="nav_card-dropdown_hosting-types" transform="translate(80.000000, 25.000000)">
                <g id="row_list-big_website-builder" transform="translate(25.000000, 34.000000)">
                    <g id="icon_nav_dedicated">
                        <g id="Group-19">
                            <mask id="mask-2" fill="white">
                                <use xlink:href="#path-1"></use>
                            </mask>
                            <use id="Graphic-Placeholder" fill="#FF8D4E" xlink:href="#path-1"></use>
                            <g id="server" mask="url(#mask-2)">
                                <g transform="translate(40.023464, 27.964246) scale(-1, 1) translate(-40.023464, -27.964246) translate(11.023464, 7.964246)">
                                    <path d="M7.96424581,15.601301 C7.96424581,16.515092 8.69662512,17.2558659 9.61236179,17.2558659 L55.428979,17.2558659 C56.3392083,17.2558659 57.077095,16.5144029 57.077095,15.601301 L57.077095,1.65456497 C57.077095,0.740773968 56.3447157,2.75647022e-15 55.428979,2.75647022e-15 L9.61236179,2.75647022e-15 C8.70213247,2.75647022e-15 7.96424581,0.741462989 7.96424581,1.65456497 L7.96424581,15.601301 Z" id="Fill-22" fill="#4480C5"></path>
                                    <rect id="Rectangle" fill="#2D578B" x="11.7854749" y="17.2558659" width="42.75" height="2.6547486"></rect>
                                    <rect id="Rectangle-Copy-2" fill="#2D578B" x="11.3807263" y="37.1664804" width="42.75" height="2.6547486"></rect>
                                    <rect id="Rectangle-Copy" fill="#2D578B" x="15.9284916" y="17.2558659" width="2.6547486" height="2.6547486"></rect>
                                    <rect id="Rectangle-Copy-3" fill="#2D578B" x="15.9284916" y="37.1664804" width="2.6547486" height="2.6547486"></rect>
                                    <path d="M49.1128492,7.96442118 C49.1128492,8.6974671 49.7066514,9.29162011 50.4403988,9.29162011 C51.1734448,9.29162011 51.7675978,8.6974671 51.7675978,7.96442118 C51.7675978,7.23137526 51.1734448,6.63687151 50.4403988,6.63687151 C49.7066514,6.63687151 49.1128492,7.23137526 49.1128492,7.96442118" id="Fill-25" fill="#FF8D4E"></path>
                                    <path d="M45.1307263,7.96442118 C45.1307263,8.6974671 45.7245285,9.29162011 46.4582759,9.29162011 C47.1913219,9.29162011 47.7854749,8.6974671 47.7854749,7.96442118 C47.7854749,7.23137526 47.1913219,6.63687151 46.4582759,6.63687151 C45.7245285,6.63687151 45.1307263,7.23137526 45.1307263,7.96442118" id="Fill-25" fill="#FFFFFF"></path>
                                    <path d="M41.1486034,7.96442118 C41.1486034,8.6974671 41.7424056,9.29162011 42.476153,9.29162011 C43.2091989,9.29162011 43.803352,8.6974671 43.803352,7.96442118 C43.803352,7.23137526 43.2091989,6.63687151 42.476153,6.63687151 C41.7424056,6.63687151 41.1486034,7.23137526 41.1486034,7.96442118" id="Fill-25" fill="#FBCE3B"></path>
                                    <rect id="Rectangle" fill="#2D578B" x="0" y="6.63687151" width="37.1664804" height="2.6547486" rx="0.848044693"></rect>
                                </g>
                            </g>
                            <g id="server-copy" mask="url(#mask-2)">
                                <g transform="translate(40.023464, 36.874860) scale(-1, 1) translate(-40.023464, -36.874860) translate(11.023464, 27.874860)">
                                    <path d="M7.96424581,15.601301 C7.96424581,16.515092 8.69662512,17.2558659 9.61236179,17.2558659 L55.428979,17.2558659 C56.3392083,17.2558659 57.077095,16.5144029 57.077095,15.601301 L57.077095,1.65456497 C57.077095,0.740773968 56.3447157,2.75647022e-15 55.428979,2.75647022e-15 L9.61236179,2.75647022e-15 C8.70213247,2.75647022e-15 7.96424581,0.741462989 7.96424581,1.65456497 L7.96424581,15.601301 Z" id="Fill-22" fill="#4480C5"></path>
                                    <path d="M49.1128492,7.96442118 C49.1128492,8.6974671 49.7066514,9.29162011 50.4403988,9.29162011 C51.1734448,9.29162011 51.7675978,8.6974671 51.7675978,7.96442118 C51.7675978,7.23137526 51.1734448,6.63687151 50.4403988,6.63687151 C49.7066514,6.63687151 49.1128492,7.23137526 49.1128492,7.96442118" id="Fill-25" fill="#FF8D4E"></path>
                                    <path d="M45.1307263,7.96442118 C45.1307263,8.6974671 45.7245285,9.29162011 46.4582759,9.29162011 C47.1913219,9.29162011 47.7854749,8.6974671 47.7854749,7.96442118 C47.7854749,7.23137526 47.1913219,6.63687151 46.4582759,6.63687151 C45.7245285,6.63687151 45.1307263,7.23137526 45.1307263,7.96442118" id="Fill-25" fill="#FFFFFF"></path>
                                    <path d="M41.1486034,7.96442118 C41.1486034,8.6974671 41.7424056,9.29162011 42.476153,9.29162011 C43.2091989,9.29162011 43.803352,8.6974671 43.803352,7.96442118 C43.803352,7.23137526 43.2091989,6.63687151 42.476153,6.63687151 C41.7424056,6.63687151 41.1486034,7.23137526 41.1486034,7.96442118" id="Fill-25" fill="#FBCE3B"></path>
                                    <rect id="Rectangle" fill="#2D578B" x="0" y="6.63687151" width="37.1664804" height="2.6547486" rx="0.848044693"></rect>
                                </g>
                            </g>
                            <g id="server-copy-2" mask="url(#mask-2)" fill="#4480C5">
                                <g transform="translate(30.940223, 51.285475) scale(-1, 1) translate(-30.940223, -51.285475) translate(11.440223, 47.785475)" id="Fill-22">
                                    <path d="M0,4.99629613 C0,5.90236089 0.734592885,6.63687151 1.65403282,6.63687151 L36.8398219,6.63687151 C37.753319,6.63687151 38.4938547,5.90125199 38.4938547,4.99629613 L38.4938547,1.64057538 C38.4938547,0.734510617 37.7592619,1.06018085e-15 36.8398219,1.06018085e-15 L1.65403282,1.06018085e-15 C0.740535718,1.06018085e-15 0,0.735619516 0,1.64057538 L0,4.99629613 Z"></path>
                                </g>
                            </g>
                        </g>
                    </g>
                </g>
            </g>
        </g>
    </g>
</svg>