<?xml version="1.0" encoding="UTF-8"?>
<svg width="40px" height="40px" viewBox="0 0 40 40" version="1.1" xmlns="http://www.w3.org/2000/svg" xmlns:xlink="http://www.w3.org/1999/xlink">
    <!-- Generator: sketchtool 55.2 (78181) - https://sketchapp.com -->
    <title>7ABC3CCF-8767-4713-A28E-4956A1D0BCE4</title>
    <desc>Created with sketchtool.</desc>
    <g id="Page-1" stroke="none" stroke-width="1" fill="none" fill-rule="evenodd">
        <g id="Artboard" transform="translate(-79.000000, -47.000000)" fill="#FFFFFF" fill-rule="nonzero">
            <g id="white-social-icons">
                <g id="Group-3" transform="translate(79.000000, 47.000000)">
                    <g id="Facebook">
                        <g id="Layer_1">
                            <path d="M19.6577253,0 C8.80107296,0 0,8.8216 0,19.7 C0,30.58 8.80107296,39.3984 19.6577253,39.3984 C30.5143777,39.3984 39.3154506,30.58 39.3154506,19.7 C39.3154506,8.8216 30.5135794,0 19.6577253,0 Z M24.8601373,19.6176 L21.4562575,19.6176 L21.4562575,31.7832 L16.4111073,31.7832 L16.4111073,19.6176 L14.0114678,19.6176 L14.0114678,15.3224 L16.4111073,15.3224 L16.4111073,12.5392 C16.4111073,10.5472 17.3546781,7.4376 21.5033562,7.4376 L25.2393219,7.452 L25.2393219,11.624 L22.5267554,11.624 C22.0837082,11.624 21.4570558,11.8456 21.4570558,12.7928 L21.4570558,15.3232 L25.3031845,15.3232 L24.8601373,19.6176 Z" id="Shape"></path>
                        </g>
                    </g>
                </g>
            </g>
        </g>
    </g>
</svg>