<?xml version="1.0" encoding="UTF-8"?>
<svg width="40px" height="40px" viewBox="0 0 40 40" version="1.1" xmlns="http://www.w3.org/2000/svg" xmlns:xlink="http://www.w3.org/1999/xlink">
    <!-- Generator: sketchtool 55.2 (78181) - https://sketchapp.com -->
    <title>5A525370-ECE3-4DF8-9304-FA3B84880135</title>
    <desc>Created with sketchtool.</desc>
    <g id="Page-1" stroke="none" stroke-width="1" fill="none" fill-rule="evenodd">
        <g id="Artboard" transform="translate(-176.000000, -47.000000)" fill="#FFFFFF" fill-rule="nonzero">
            <g id="white-social-icons">
                <g id="Group-3" transform="translate(79.000000, 47.000000)">
                    <g id="Instagram" transform="translate(97.000000, 0.000000)">
                        <g id="Layer_1">
                            <g id="Group">
                                <ellipse id="Oval" cx="20.0369099" cy="20" rx="3.51244635" ry="3.52"></ellipse>
                                <path d="M24.4274678,11.36 L15.6463519,11.36 C14.3690987,11.36 13.2515021,11.76 12.5330472,12.48 C11.8145923,13.2 11.4154506,14.32 11.4154506,15.6 L11.4154506,24.4 C11.4154506,25.68 11.8145923,26.8 12.6128755,27.6 C13.4111588,28.32 14.448927,28.72 15.7261803,28.72 L24.4274678,28.72 C25.704721,28.72 26.8223176,28.32 27.5407725,27.6 C28.3390558,26.88 28.7381974,25.76 28.7381974,24.48 L28.7381974,15.68 C28.7381974,14.4 28.3390558,13.36 27.6206009,12.56 C26.8223176,11.76 25.7845494,11.36 24.4274678,11.36 Z M20.0369099,25.44 C17.0034335,25.44 14.6085837,22.96 14.6085837,20 C14.6085837,16.96 17.0832618,14.56 20.0369099,14.56 C22.9905579,14.56 25.5450644,16.96 25.5450644,20 C25.5450644,23.04 23.0703863,25.44 20.0369099,25.44 Z M25.704721,15.6 C24.9862661,15.6 24.4274678,15.04 24.4274678,14.32 C24.4274678,13.6 24.9862661,13.04 25.704721,13.04 C26.423176,13.04 26.9819742,13.6 26.9819742,14.32 C26.9819742,15.04 26.423176,15.6 25.704721,15.6 Z" id="Shape"></path>
                                <path d="M20.1965665,0.16 C9.33991416,0.16 0.558798283,8.96 0.558798283,19.84 C0.558798283,30.72 9.33991416,39.52 20.1965665,39.52 C31.0532189,39.52 39.8343348,30.72 39.8343348,19.84 C39.9141631,8.96 31.0532189,0.16 20.1965665,0.16 Z M30.6540773,24.48 C30.6540773,26.32 30.0154506,27.92 28.8978541,29.04 C27.7802575,30.16 26.183691,30.72 24.4274678,30.72 L15.7261803,30.72 C13.9699571,30.72 12.3733906,30.16 11.255794,29.04 C10.0583691,27.92 9.49957082,26.32 9.49957082,24.48 L9.49957082,15.68 C9.49957082,12 11.9742489,9.44 15.7261803,9.44 L24.5072961,9.44 C26.3433476,9.44 27.8600858,10.08 28.9776824,11.2 C30.095279,12.32 30.6540773,13.84 30.6540773,15.68 L30.6540773,24.48 Z" id="Shape"></path>
                            </g>
                        </g>
                    </g>
                </g>
            </g>
        </g>
    </g>
</svg>