<?xml version="1.0" encoding="UTF-8"?>
<svg width="40px" height="40px" viewBox="0 0 40 40" version="1.1" xmlns="http://www.w3.org/2000/svg" xmlns:xlink="http://www.w3.org/1999/xlink">
    <!-- Generator: sketchtool 55.2 (78181) - https://sketchapp.com -->
    <title>D15D86C7-C51A-40C7-8E4B-15083A3E8840</title>
    <desc>Created with sketchtool.</desc>
    <g id="Page-1" stroke="none" stroke-width="1" fill="none" fill-rule="evenodd">
        <g id="Artboard" transform="translate(-127.000000, -47.000000)" fill="#FFFFFF" fill-rule="nonzero">
            <g id="white-social-icons">
                <g id="Group-3" transform="translate(79.000000, 47.000000)">
                    <g id="Twitter" transform="translate(48.000000, 0.000000)">
                        <g id="Layer_1">
                            <path d="M19.6577253,0 C8.80107296,0 0,8.8216 0,19.7 C0,30.58 8.80107296,39.3984 19.6577253,39.3984 C30.5143777,39.3984 39.3138541,30.58 39.3138541,19.7 C39.3138541,8.8216 30.5135794,0 19.6577253,0 Z M29.5596309,15.728 C29.5700086,15.9408 29.574,16.1544 29.574,16.3704 C29.574,22.9312 24.5911159,30.4952 15.4795107,30.4952 C12.6823262,30.4952 10.0775279,29.6736 7.88544206,28.2656 C8.27340773,28.3112 8.66696137,28.3344 9.06690129,28.3344 C11.388309,28.3344 13.524515,27.5408 15.2192704,26.2096 C13.0519313,26.1688 11.2230644,24.7328 10.5924206,22.7608 C10.8941717,22.82 11.2047039,22.8496 11.5240172,22.8496 C11.9758455,22.8496 12.4133047,22.7904 12.8292103,22.676 C10.5620858,22.22 8.85455794,20.212 8.85455794,17.8088 C8.85455794,17.7872 8.85455794,17.7664 8.85535622,17.7448 C9.52272103,18.1168 10.2866781,18.34 11.0993305,18.3664 C9.76939056,17.4744 8.89527039,15.9568 8.89527039,14.2336 C8.89527039,13.324 9.13954506,12.4704 9.56582833,11.7376 C12.0093734,14.7408 15.6599227,16.7176 19.7774678,16.924 C19.6928498,16.5616 19.6489442,16.1816 19.6489442,15.7928 C19.6489442,13.052 21.8665751,10.8288 24.6030901,10.8288 C26.0280258,10.8288 27.3148584,11.432 28.218515,12.396 C29.3472876,12.1744 30.4074077,11.76 31.3645494,11.1912 C30.9933476,12.3512 30.2086352,13.324 29.1852361,13.9376 C30.1886781,13.8176 31.1434249,13.5504 32.0311159,13.156 C31.3685408,14.1536 30.5279485,15.028 29.5596309,15.728 Z" id="Shape"></path>
                        </g>
                    </g>
                </g>
            </g>
        </g>
    </g>
</svg>