<?xml version="1.0" encoding="UTF-8"?>
<svg width="40px" height="40px" viewBox="0 0 40 40" version="1.1" xmlns="http://www.w3.org/2000/svg" xmlns:xlink="http://www.w3.org/1999/xlink">
    <!-- Generator: sketchtool 55.2 (78181) - https://sketchapp.com -->
    <title>056A5257-059F-410A-92D3-1BAB06FCCDD9</title>
    <desc>Created with sketchtool.</desc>
    <g id="Page-1" stroke="none" stroke-width="1" fill="none" fill-rule="evenodd">
        <g id="Artboard" transform="translate(-321.000000, -47.000000)" fill="#FFFFFF" fill-rule="nonzero">
            <g id="white-social-icons">
                <g id="Group-3" transform="translate(79.000000, 47.000000)">
                    <g id="Youtube" transform="translate(242.000000, 0.000000)">
                        <path d="M20,40 C8.954305,40 0,31.045695 0,20 C0,8.954305 8.954305,0 20,0 C31.045695,0 40,8.954305 40,20 C40,31.045695 31.045695,40 20,40 Z M24.158844,21.0633774 C22.495364,22.0946981 20.836924,23.1342264 19.187724,24.1884717 C18.295924,24.7584717 18.043644,24.3775283 18.056244,23.4814906 C18.070804,22.4484717 18.059604,21.4148868 18.061564,20.3815849 C18.063244,19.3010189 18.061004,18.2207358 18.064084,17.1404528 C18.066044,16.4218679 18.343804,16.1629057 19.003484,16.588 C20.727444,17.6988491 22.448604,18.8133774 24.171724,19.9253585 C24.774284,20.3139434 24.789684,20.6722453 24.158844,21.0633774 Z M27.287844,13.3007358 C22.778444,12.8595094 18.251964,12.9664906 13.738364,13.2223396 C11.568644,13.3451698 10.401604,14.5400755 10.199164,16.8755472 C9.972084,19.4948868 9.838804,22.1464906 10.369124,24.7604528 C10.777924,26.7755472 11.710044,27.6045094 13.736404,27.6554528 C15.926004,27.7103585 18.117844,27.7771509 20.308844,27.7771509 C20.308844,27.8136604 20.308844,27.7406415 20.308844,27.7771509 C21.054764,27.7771509 21.800684,27.7862075 22.546604,27.7751698 C23.944924,27.7542264 25.343524,27.733283 26.741564,27.6908302 C29.254564,27.6144151 30.385204,26.5881887 30.618724,24.0209245 C30.836844,21.6248868 30.793724,19.2141321 30.622364,16.8175283 C30.473684,14.7415849 29.324284,13.4999811 27.287844,13.3007358 Z" id="Shape"></path>
                    </g>
                </g>
            </g>
        </g>
    </g>
</svg>