<?xml version="1.0" encoding="UTF-8"?>
<svg width="16px" height="16px" viewBox="0 0 16 16" version="1.1" xmlns="http://www.w3.org/2000/svg" xmlns:xlink="http://www.w3.org/1999/xlink">
    <title>a-glyph__info-hover -blue-50</title>
    <g id="Symbols" stroke="none" stroke-width="1" fill="none" fill-rule="evenodd">
        <g id="Atoms/Glyphs/Info/Hover/.a-glyph__info-hover--blue-50" fill="#2E93EE">
            <g id=".a-glyph__info-hover--blue-50">
                <path d="M8,0.380952381 C12.2078838,0.380952381 15.6190476,3.79211619 15.6190476,8 C15.6190476,12.2078838 12.2078838,15.6190476 8,15.6190476 C3.79211619,15.6190476 0.380952381,12.2078838 0.380952381,8 C0.380952381,3.79211619 3.79211619,0.380952381 8,0.380952381 Z M8.95238095,6.0952381 L7.04761905,6.0952381 L7.04761905,12.7619048 L8.95238095,12.7619048 L8.95238095,6.0952381 Z M8.00716076,3.23809524 C7.44862155,3.23809524 7.04761905,3.68106312 7.04761905,4.19785899 C7.04761905,4.74418605 7.44862155,5.14285714 8.00716076,5.14285714 C8.55137845,5.14285714 8.95238095,4.74418605 8.95238095,4.19785899 C8.95238095,3.68106312 8.55137845,3.23809524 8.00716076,3.23809524 Z" id="Combined-Shape"></path>
            </g>
        </g>
    </g>
</svg>