<?xml version="1.0" encoding="UTF-8"?>
<svg width="295px" height="289px" viewBox="0 0 295 289" version="1.1" xmlns="http://www.w3.org/2000/svg" xmlns:xlink="http://www.w3.org/1999/xlink">
    <!-- Generator: sketchtool 55.2 (78181) - https://sketchapp.com -->
    <title>A5399921-7BA3-40A6-A7DD-0834F8F88C2B</title>
    <desc>Created with sketchtool.</desc>
    <g id="Page-1" stroke="none" stroke-width="1" fill="none" fill-rule="evenodd">
        <g id="Transfer-M" transform="translate(-335.000000, -510.000000)">
            <g id="Customer-Window-Transfer-M" transform="translate(335.000000, 510.000000)">
                <g id="Group-6-Copy" transform="translate(102.000000, 2.000000)">
                    <g id="Group-12">
                        <g id="hero_graphic_02" transform="translate(27.465385, 28.997409)">
                            <polygon id="Rectangle" fill="#2E578C" fill-rule="nonzero" points="2.96923077 2.23056995 114.315385 2.23056995 114.315385 191.829016 2.96923077 191.829016"></polygon>
                            <polygon id="Rectangle-2" fill="#2E578C" fill-rule="nonzero" points="20.0423077 194.059585 97.2423077 194.059585 89.1603728 203.725389 28.1242426 203.725389"></polygon>
                            <g id="Rectangle-3" transform="translate(9.650000, 8.178756)" fill="#FBCD3B" fill-rule="nonzero">
                                <polygon id="path-1-2" points="0 0 97.9846154 0 97.9846154 179.189119 0 179.189119"></polygon>
                            </g>
                            <g id="Asset-23" transform="translate(26.723077, 44.044647)">
                                <polygon id="Rectangle" fill="#274666" fill-rule="nonzero" points="25.2384615 129.04084 62.2610042 125.478669 63.8384615 149.900516 25.2384615 151.501985"></polygon>
                                <path d="M26.2874045,77.1496532 L24.4961538,130.446445 C33.6849729,134.996451 55.4997516,134.823517 60.766583,129.205324 C64.2778039,125.459863 63.819837,108.107972 59.3926823,77.1496532 L26.2874045,77.1496532 Z" id="Path" fill="#FF6B17" fill-rule="nonzero"></path>
                                <path d="M64.5807692,80.1237465 C64.5750133,79.4525114 64.5247719,78.7823948 64.4303752,78.1177997 C62.3013597,62.6151659 50.2349211,61.2058356 49.790456,61.2058356 C49.345991,61.2058356 37.4672087,60.5594367 35.7173187,60.8826361 C33.9674286,61.2058356 20.7283973,61.4844294 20.7846154,74.6757614 C20.800441,75.3752607 21.0838645,79.5037556 21.4082821,80.1237465 L64.5807692,80.1237465 Z" id="Path" fill="#FF6B17" fill-rule="nonzero"></path>
                                <path d="M62.0565002,77.8931766 C64.7410081,90.8703841 64.3923767,100.707338 61.0106059,107.404039 C55.9379497,117.44909 41.2565917,118.637269 28.95,116.25361" id="Path-4" stroke="#F6EAE8" stroke-width="7.34473106"></path>
                                <path d="M24.4961538,75.6626066 C22.8983491,83.9060238 19.8406469,91.0943938 15.3230471,97.2277166 C8.5466475,106.427701 0.222771387,111.885659 0.767732848,121.017529" id="Path-4" stroke="#F6EAE8" stroke-width="7.34473106"></path>
                                <polygon id="Rectangle" fill="#FF6B17" points="25.7968941 76.4061299 36.3730769 76.4061299 36.3730769 96.0528242 25.2384615 97.2247828"></polygon>
                                <path d="M28.1797289,80.1098212 C27.1092375,83.1204272 21.8030433,81.3651324 18.5576923,76.9539861 C18.5576923,76.9539861 20.9874618,66.5649598 25.470181,64.5097569 C25.470181,65.8331498 36.2486174,68.4852669 28.1797289,80.1098212 Z" id="Path" fill="#FF6B17" fill-rule="nonzero"></path>
                                <path d="M58.0383826,78.8893054 C58.0383826,78.8893054 63.3268672,80.9605907 66.8076923,76.5940248 C65.5527879,71.3361867 60.818496,63.5632468 52.9820428,61.5356636 C52.2996482,65.3094737 49.3890597,67.3822324 58.0383826,78.8893054 Z" id="Path" fill="#FF6B17" fill-rule="nonzero"></path>
                                <path d="M31.9192308,61.3169276 C31.9192308,66.5359195 36.938478,71.2014667 42.5551245,71.2014667 C48.171771,71.2014667 52.3925833,68.0162606 52.7038462,61.7776837 C52.0357279,61.547828 51.0671096,61.2193136 49.7979913,60.7921403 L35.7972711,60.7921403 L31.9192308,61.3169276 Z" id="Path" fill="#FF8D4E" fill-rule="nonzero"></path>
                                <path d="M38.820892,46.6651973 L45.2344863,46.6651973 C47.5304584,46.6651973 49.4250768,48.461673 49.547086,50.754401 L50.0884428,60.927271 C50.2918806,64.7501592 47.3577363,68.0141414 43.534848,68.2175792 C43.4121709,68.2241075 43.2893419,68.2273735 43.1664913,68.2273735 C39.0387956,68.2273735 35.6044547,65.054598 35.278148,60.9398203 L34.5157058,51.3253054 C34.3271524,48.9476168 36.1017971,46.8672665 38.4794857,46.678713 C38.5930649,46.6697061 38.7069561,46.6651973 38.820892,46.6651973 Z" id="Rectangle" fill="#EFD8D5" fill-rule="nonzero"></path>
                                <g id="face" transform="translate(8.165385, -0.176772)" fill-rule="nonzero">
                                    <path d="M9.7691536,38.482067 C9.7691536,39.4333258 11.0518808,53.4418126 6.11214575,55.3812456 C7.29620051,58.0969823 17.7903954,60.6768868 24.8182996,54.1302033 L9.7691536,38.482067 Z" id="Path" fill="#ECA93F"></path>
                                    <ellipse id="Oval" fill="#F6EAE8" cx="8.60336175" cy="33.3940922" rx="4.14951559" ry="5.12110876"></ellipse>
                                    <path d="M58.476409,37.3683178 C58.476409,37.9911407 57.6896402,55.2170599 62.1530522,58.9078018 C62.1530522,58.9078018 48.3602069,66.4645621 38.7703599,57.4645269 L58.476409,37.3683178 Z" id="Path" fill="#ECA93F"></path>
                                    <ellipse id="Oval" fill="#F6EAE8" cx="32.9220201" cy="35.2208749" rx="25.1737279" ry="25.4372985"></ellipse>
                                    <path d="M8.60336175,33.3940922 C16.3201648,24.8558791 23.2912175,30.3429142 27.8498117,20.3757165 C31.1769231,31.0406031 41.8640018,31.2279793 52.5605309,33.3940922 L58.095748,29.3507291 C58.095748,29.3507291 57.7911149,7.17462266 33.2283101,7.17462266 C7.98125243,7.17462266 6.25908928,36.1329785 8.60336175,33.3940922 Z" id="Path" fill="#ECA93F"></path>
                                    <ellipse id="Oval" fill="#3B356B" cx="18.7276745" cy="36.1727877" rx="2.33826923" ry="3.16232702"></ellipse>
                                    <ellipse id="Oval" fill="#3B356B" cx="35.8749822" cy="36.1727877" rx="2.33826923" ry="3.16232702"></ellipse>
                                    <path d="M24.4590772,47.8800674 C21.8982108,47.8800674 23.2883407,52.8246109 27.1836008,52.8246109 C31.078861,52.8246109 36.1552053,54.0290407 35.8749822,46.2266782 C31.7384111,48.3643389 27.0199436,47.8800674 24.4590772,47.8800674 Z" id="Path" fill="#3B356B"></path>
                                    <path d="M11.6011558,26.7296505 L7.84009058,29.7240952 C7.84009058,29.7240952 4.46756316,15.3545862 17.6500152,10.7418711 C30.8324673,6.1291561 11.0473259,26.1498328 11.6011558,26.7296505 Z" id="Path" fill="#ECA93F"></path>
                                    <path d="M55.3567571,28.515833 L55.3567571,33.916398 C55.3567571,33.916398 56.4967393,30.7484137 57.6186553,30.7484137 C58.3064484,32.1186758 58.7451604,32.3974309 58.9347912,31.5846792 C59.2192375,30.3655516 57.4693856,14.729396 47.7304013,11.4114479 C37.9914169,8.09349984 55.7188474,28.0951406 55.3567571,28.515833 Z" id="Path" fill="#ECA93F"></path>
                                    <ellipse id="Oval" fill="#F6EAE8" cx="56.4334121" cy="34.6158834" rx="3.87288122" ry="4.89178818"></ellipse>
                                    <path d="M10.330213,18.9149143 L55.5138272,18.9149143 C55.5138272,18.9149143 49.9222141,-1.43884904e-13 32.8375121,-1.43884904e-13 C13.6729741,-1.43884904e-13 10.330213,18.9149143 10.330213,18.9149143 Z" id="Path" fill="#FFFFFF"></path>
                                    <path d="M0.00554808628,18.9149143 C0.00554808628,18.9149143 -0.672819836,11.7942581 12.9726926,11.7942581 C12.3611763,13.1398524 11.9576011,14.3266285 11.7619669,15.3545862 C39.9537464,15.262366 54.0699072,15.2533716 54.1104492,15.327603 C54.689205,16.4736084 55.344994,17.6750028 55.6996234,18.9149143 L0.00554808628,18.9149143 Z" id="Path" fill="#274666"></path>
                                    <path d="M22.9894285,14.4345203 L32.6716316,14.4345203 C32.6716316,14.4345203 32.5430255,11.1733282 27.8305301,11.1733282 C23.1180347,11.1733282 22.9894285,14.4345203 22.9894285,14.4345203 Z" id="Path" fill="#ECA93F"></path>
                                </g>
                            </g>
                            <g id="Group-7" transform="translate(19.300000, 8.178756)">
                                <path d="M0,0 L78.6846154,0 L78.6846154,30.2667822 C78.6846154,31.6189099 77.5884994,32.7150259 76.2363717,32.7150259 L2.44824369,32.7150259 C1.09611603,32.7150259 -2.47390832e-15,31.6189099 0,30.2667822 L0,0 Z" id="Rectangle" fill="#ECA93F"></path>
                                <rect id="Rectangle" fill="#FBCD3B" x="4.45384615" y="6.45186361" width="69.7769231" height="2.23056995" rx="0.816081229"></rect>
                                <rect id="Rectangle-Copy-2" fill="#FBCD3B" x="4.45384615" y="23.5768845" width="69.7769231" height="2.23056995" rx="0.816081229"></rect>
                                <rect id="Rectangle-Copy" fill="#FBCD3B" x="4.45384615" y="14.6066355" width="69.7769231" height="2.23056995" rx="0.816081229"></rect>
                                <rect id="Rectangle" fill="#ECA93F" x="76.2510706" y="30.1726559" width="1" height="18.7559753"></rect>
                                <ellipse id="Oval" fill="#ECA93F" cx="76.6566614" cy="48.5208925" rx="2.027954" ry="2.03869296"></ellipse>
                            </g>
                            <rect id="Rectangle-4-2" fill="#2E578C" fill-rule="nonzero" x="0" y="0" width="118.769231" height="10.4093264"></rect>
                            <rect id="Rectangle-4-2-Copy" fill="#2E578C" fill-rule="nonzero" x="0" y="187.367876" width="118.769231" height="10.4093264"></rect>
                        </g>
                        <rect id="Rectangle" fill="#2D578A" x="166.276923" y="14.8704663" width="22.2692308" height="8.92227979" rx="2.23222218"></rect>
                        <rect id="Rectangle-Copy-13" fill="#2D578A" x="0" y="95.1709845" width="22.2692308" height="8.92227979" rx="2.23222218"></rect>
                        <rect id="Rectangle-Copy-11" fill="#2D578A" x="174.442308" y="0" width="18.5576923" height="8.92227979" rx="2.23222218"></rect>
                        <rect id="Rectangle-Copy-18" fill="#2D578A" x="5.19615385" y="7.43523316" width="18.5576923" height="8.92227979" rx="2.23222218"></rect>
                        <rect id="Rectangle-Copy-7" fill="#2D578A" x="170.730769" y="255.772021" width="22.2692308" height="8.92227979" rx="2.23222218"></rect>
                        <rect id="Rectangle-Copy-8" fill="#2D578A" x="134.357692" y="255.772021" width="30.4346154" height="8.92227979" rx="2.23222218"></rect>
                        <rect id="Rectangle-Copy-12" fill="#2D578A" x="14.8461538" y="112.272021" width="18.5576923" height="8.92227979" rx="2.23222218"></rect>
                        <rect id="Rectangle-Copy-9" fill="#2D578A" x="156.626923" y="243.132124" width="18.5576923" height="8.92227979" rx="2.23222218"></rect>
                        <rect id="Rectangle-Copy-19" fill="#2D578A" x="17.8153846" y="278.07772" width="18.5576923" height="8.92227979" rx="2.23222218"></rect>
                        <g id="controller" transform="translate(64.951923, 182.711746) scale(-1, 1) translate(-64.951923, -182.711746) translate(45.280769, 158.547238)" fill-rule="nonzero">
                            <polygon id="Path" fill="#2D578A" points="32.6615385 20.6418812 10.8452543 24.2744522 3.69350308 22.8553587 0 45.7473708 6.33953635 48.1522439 24.9135017 44.9284335"></polygon>
                            <polygon id="Path" fill="#274666" points="13.1387228 26.6727249 8.90769231 45.921674 24.1866566 43.0409813 29.6923077 24.3594978"></polygon>
                            <path d="M35.6331912,30.514864 L31.7573038,32.9456126 C31.7573038,32.9456126 31.0634096,35.0818176 30.7375349,37.7390617 C30.2343819,41.8418672 20.5646333,46.0449023 20.6149627,37.6842961 C20.7916318,31.1757279 24.6693469,27.3624712 30.1428097,27.7735843 C33.3118033,27.172382 34.4327432,27.6996824 35.6331912,30.514864 Z" id="Path" fill="#F6EAE8" transform="translate(28.123979, 35.030060) scale(-1, 1) rotate(-77.000000) translate(-28.123979, -35.030060) "></path>
                            <polygon id="Path" fill="#274666" points="11.1346154 24.1585577 3.79204906 22.1289279 -6.32929606e-13 45.6992521 6.26010958 48.1522439"></polygon>
                            <polygon id="Path" fill="#2D578A" points="27.9042036 17.667788 32.6615385 20.6418812 10.858837 24.3594978 3.71153846 22.399837"></polygon>
                            <path d="M25.2384615,18.8845158 C25.2384615,18.8845158 36.7156563,-0.582824548 39.0664071,1.46057815 C41.4171578,3.50398085 27.9733219,19.8983579 27.9733219,19.8983579 L25.2384615,18.8845158 Z" id="Path" fill="#2D578A"></path>
                            <path d="M9.340643,22.8724512 C9.340643,22.8724512 2.98851813,1.00008413 6.01225143,0.573074795 C9.03598473,0.14606546 11.8769231,21.4886246 11.8769231,21.4886246 L9.340643,22.8724512 Z" id="Path" fill="#2D578A"></path>
                        </g>
                        <path d="M81.3047701,182.428253 C81.9547675,181.495423 85.1798508,180.308085 86.9991392,185.321779 C89.0572888,187.225086 89.0363938,193.587577 84.794917,195.802835 C77.218753,199.759748 75.2196887,197.951005 73.6567644,192.878974 C73.2978333,191.714164 73.4797295,189.504556 74.526327,189.801654 C79.550194,188.788758 81.0932973,186.620559 81.6683675,185.321779 L81.3047701,182.428253 Z" id="Path" fill="#F6EAE8" fill-rule="nonzero"></path>
                        <path d="M38.4912756,171.187134 C35.6670107,163.513898 35.6670107,157.387252 38.4912756,152.807197 C41.3155404,148.227141 47.2902434,147.654634 56.4153846,151.089676" id="Path-43" stroke="#FFFFFF" stroke-width="1.48814812" stroke-linecap="round"></path>
                        <path d="M28.2618403,173.417704 C23.240925,161.652075 23.240925,152.257885 28.2618403,145.235133 C33.2827556,138.212382 43.9044499,137.334538 60.1269231,142.601601" id="Path-43-Copy" stroke="#FFFFFF" stroke-width="1.48814812" stroke-linecap="round"></path>
                        <path d="M15.9623856,173.417704 C8.29371962,159.220139 8.29371962,146.966848 15.9623856,136.657829 C23.6310516,126.34881 39.3423077,125.203796 63.0961538,133.222787" id="Path-43-Copy-2" stroke="#FFFFFF" stroke-width="1.48814812" stroke-linecap="round"></path>
                    </g>
                    <ellipse id="Oval" fill="#FF8D4E" cx="45.6519231" cy="160.229275" rx="2.59807692" ry="2.60233161"></ellipse>
                    <ellipse id="Oval-Copy" fill="#FF8D4E" cx="78.3134615" cy="158.742228" rx="2.59807692" ry="2.60233161"></ellipse>
                </g>
                <g id="drone-copy">
                    <ellipse id="Oval" stroke="#FFFFFF" stroke-width="1.4000001" fill-rule="nonzero" cx="129.500009" cy="22.0500015" rx="25.9000018" ry="11.5500008"></ellipse>
                    <ellipse id="Oval" stroke="#FFFFFF" stroke-width="1.4000001" fill-rule="nonzero" cx="27.3000019" cy="55.3000038" rx="26.6000018" ry="11.9000008"></ellipse>
                    <ellipse id="Oval" stroke="#FFFFFF" stroke-width="1.4000001" fill-rule="nonzero" cx="104.300007" cy="59.8500041" rx="25.9000018" ry="11.5500008"></ellipse>
                    <polygon id="Path" fill="#FBCE3B" fill-rule="nonzero" points="89.7078316 48.253551 56.0799241 48.253551 66.2681477 38.547353 99.8875933 38.547353"></polygon>
                    <path d="M56.2800038,47.3185599 L57.8200039,47.3185599 L57.8200039,66.6248499 C57.8200039,67.0501092 57.4752632,67.39485 57.0500039,67.39485 C56.6247446,67.39485 56.2800038,67.0501092 56.2800038,66.6248499 L56.2800038,47.3185599 Z" id="Rectangle-Copy-14" fill="#ECA93F"></path>
                    <path d="M87.850006,47.3185599 L89.3900061,47.3185599 L89.3900061,66.6248499 C89.3900061,67.0501092 89.0452653,67.39485 88.620006,67.39485 C88.1947468,67.39485 87.850006,67.0501092 87.850006,66.6248499 L87.850006,47.3185599 Z" id="Rectangle-Copy-17" fill="#ECA93F"></path>
                    <path d="M65.5200045,38.8247449 L67.0600046,38.8247449 L67.0600046,61.9918599 C67.0600046,62.4171192 66.7152638,62.7618599 66.2900045,62.7618599 C65.8647452,62.7618599 65.5200045,62.4171192 65.5200045,61.9918599 L65.5200045,38.8247449 Z" id="Rectangle-Copy-15" fill="#ECA93F"></path>
                    <polygon id="Path" fill="#ECA93F" fill-rule="nonzero" points="56.0799241 48.253551 55.2506501 41.2769563 66.0396743 29.9092607 66.2681477 38.547353"></polygon>
                    <polygon id="Path" fill="#ECA93F" fill-rule="nonzero" points="66.0396743 33.914363 100.361464 34.7827645 99.8875933 38.547353 66.2681477 38.547353"></polygon>
                    <polygon id="Path" fill="#ECA93F" fill-rule="nonzero" points="55.2506501 41.2873739 26.6914685 54.2826591 26.6914685 57.8175801 56.5961049 48.2639687"></polygon>
                    <polygon id="Path" fill="#ECA93F" fill-rule="nonzero" points="91.0025145 45.4307004 107.545685 58.4683707 101.376902 59.2397804 84.1652349 48.253551"></polygon>
                    <path d="M99.2924775,31.9789442 C96.0432878,26.4256313 93.4138329,23.3913898 91.4041127,22.8762197 C88.3895324,22.1034646 76.5294454,20.4653876 72.5240866,20.9982149 C69.8538474,21.3534331 67.0440443,23.0136381 64.0946772,25.97883 C58.7396869,30.9580335 55.7916779,33.9296747 55.2506501,34.8937536 C54.6211701,36.0154492 53.587383,39.8840948 55.2506501,41.2769563 C59.65236,37.1062567 61.9404048,34.9906552 62.1147845,34.9301518 C63.7176427,34.3740183 67.0229665,34.14007 72.0307559,34.2283068 L100.361464,34.9301518 L99.2924775,31.9789442 Z" id="Path-5" fill="#FBCE3B"></path>
                    <path d="M40.7885104,10.0876139 L36.1028443,12.4983674 L60.7593989,37.0873737 L63.8029194,34.9301518 L69.5794237,34.8937536 C61.7335101,29.3174236 52.136539,21.0487104 40.7885104,10.0876139 Z" id="Path" fill="#ECA93F" fill-rule="nonzero"></path>
                    <polygon id="Path" fill="#ECA93F" fill-rule="nonzero" points="130.316562 19.9609952 132.326532 22.7642407 99.8875933 38.547353 94.5292301 35.3500024"></polygon>
                    <path d="M22.5437905,57.3567049 C20.2417461,62.3407145 15.5437176,62.9684063 8.4497048,59.2397804 C6.4185157,61.1863851 18.2464091,65.4854909 25.2417009,64.9933638 C41.6437867,63.8394575 19.7923121,63.8394575 23.8693894,59.2397804 C23.1148116,58.6920468 22.6729453,58.064355 22.5437905,57.3567049 Z" id="Path-6" fill="#FFFFFF"></path>
                    <path d="M35.3253172,47.5567043 C33.0232729,52.5407138 28.3252443,53.1684056 21.2312316,49.4397797 C19.2000425,51.3863844 31.0279359,55.6854903 38.0232277,55.1933631 C54.4253135,54.0394568 32.5738389,54.0394568 36.6509162,49.4397797 C35.8963384,48.8920461 35.4544721,48.2643543 35.3253172,47.5567043 Z" id="Path-6-Copy-4" fill="#FFFFFF" transform="translate(32.606337, 51.394503) scale(-1, -1) translate(-32.606337, -51.394503) "></path>
                    <path d="M99.0253216,60.9000041 C96.7232772,65.8840137 92.0252487,66.5117055 84.9312359,62.7830796 C82.9000468,64.7296843 94.7279403,69.0287901 101.723232,68.536663 C118.125318,67.3827567 96.2738432,67.3827567 100.35092,62.7830796 C99.5963427,62.235346 99.1544764,61.6076542 99.0253216,60.9000041 Z" id="Path-6-Copy" fill="#FFFFFF"></path>
                    <path d="M111.806848,51.1000035 C109.504804,56.084013 104.806775,56.7117048 97.7127627,52.9830789 C95.6815736,54.9296836 107.509467,59.2287895 114.504759,58.7366623 C130.906845,57.582756 109.05537,57.582756 113.132447,52.9830789 C112.377869,52.4353453 111.936003,51.8076535 111.806848,51.1000035 Z" id="Path-6-Copy-5" fill="#FFFFFF" transform="translate(109.087869, 54.937803) scale(-1, -1) translate(-109.087869, -54.937803) "></path>
                    <path d="M126.325323,23.1000016 C124.023279,28.0840111 119.325251,28.7117029 112.231238,24.983077 C110.200049,26.9296817 122.027942,31.2287876 129.023234,30.7366604 C145.42532,29.5827541 123.573845,29.5827541 127.650922,24.983077 C126.896345,24.4353434 126.454478,23.8076516 126.325323,23.1000016 Z" id="Path-6-Copy-2" fill="#FFFFFF"></path>
                    <path d="M139.10685,13.3000009 C136.804806,18.2840105 132.106777,18.9117023 125.012765,15.1830763 C122.981575,17.129681 134.809469,21.4287869 141.804761,20.9366598 C158.206846,19.7827534 136.355372,19.7827534 140.432449,15.1830763 C139.677871,14.6353428 139.236005,14.007651 139.10685,13.3000009 Z" id="Path-6-Copy-6" fill="#FFFFFF" transform="translate(136.387870, 17.137800) scale(-1, -1) translate(-136.387870, -17.137800) "></path>
                    <path d="M33.2253171,12.6000009 C30.9232728,17.5840104 26.2252442,18.2117022 19.1312314,14.4830763 C17.1000423,16.429681 28.9279358,20.7287869 35.9232276,20.2366597 C52.3253133,19.0827534 30.4738388,19.0827534 34.550916,14.4830763 C33.7963382,13.9353427 33.3544719,13.3076509 33.2253171,12.6000009 Z" id="Path-6-Copy-3" fill="#FFFFFF"></path>
                    <path d="M46.0068439,2.80000019 C43.7047995,7.78400974 39.006771,8.41170155 31.9127582,4.68307562 C29.8815691,6.62968032 41.7094625,10.9287862 48.7047543,10.4366591 C65.1068401,9.28275273 43.2553655,9.28275273 47.3324428,4.68307562 C46.577865,4.13534206 46.1359987,3.50765025 46.0068439,2.80000019 Z" id="Path-6-Copy-7" fill="#FFFFFF" transform="translate(43.287864, 6.637799) scale(-1, -1) translate(-43.287864, -6.637799) "></path>
                    <ellipse id="Oval" fill="#ECA93F" fill-rule="nonzero" cx="28.3330525" cy="55.3071104" rx="6.24494105" ry="3.11106958"></ellipse>
                    <ellipse id="Oval" fill="#ECA93F" fill-rule="nonzero" cx="103.991653" cy="59.2397804" rx="6.24494105" ry="3.11106958"></ellipse>
                    <g id="Group-10" transform="translate(77.335027, 80.307407) rotate(-13.000000) translate(-77.335027, -80.307407) translate(51.835027, 55.307407)">
                        <polygon id="Rectangle" fill="#2E578B" transform="translate(25.797576, 24.955766) rotate(12.000000) translate(-25.797576, -24.955766) " points="4.48257526 4.37576538 47.1125762 4.94707785 47.1125762 45.5357663 4.48257526 44.9644538"></polygon>
                        <polygon id="Rectangle" fill="#FBCE3B" transform="translate(29.932213, 8.112381) rotate(12.000000) translate(-29.932213, -8.112381) " points="24.7858416 5.17238054 34.913788 5.25124313 35.0785835 11.0523807 24.9589115 11.0037725"></polygon>
                        <path d="M13.6616281,26.5186082 C14.1620693,26.5186082 14.5303184,26.9151842 14.5303184,27.368414 C14.5303184,27.8499705 14.1620693,28.2182197 13.6616281,28.2182197 C13.161187,28.2182197 12.8023801,27.8499705 12.8023801,27.368414 C12.8023801,26.9151842 13.161187,26.5186082 13.6616281,26.5186082 Z M20.1768054,25.4705145 L21.7064557,25.8009945 C21.4137449,27.3872985 20.1390363,28.3126425 18.5149631,28.3126425 C16.6359482,28.3126425 15.1535093,26.8679728 15.1535093,25.0078425 C15.1535093,23.1571544 16.6359482,21.7030424 18.5149631,21.7030424 C20.0729403,21.7030424 21.3948603,22.6283864 21.6970134,24.1297099 L20.1673631,24.5168436 C19.9690751,23.572615 19.3269997,23.1288276 18.5149631,23.1288276 C17.5140808,23.1288276 16.7114865,23.9314219 16.7114865,25.0078425 C16.7114865,26.0842631 17.5140808,26.8962997 18.5149631,26.8962997 C19.3175574,26.8962997 19.9596328,26.4430699 20.1768054,25.4705145 Z M25.7383118,21.7030424 C27.626769,21.7030424 29.1092079,23.1665967 29.1092079,25.0172848 C29.1092079,26.8585305 27.626769,28.3126425 25.7383118,28.3126425 C23.8498546,28.3126425 22.3674157,26.8585305 22.3674157,25.0172848 C22.3674157,23.1665967 23.8498546,21.7030424 25.7383118,21.7030424 Z M25.7383118,26.8868574 C26.767521,26.8868574 27.5512307,26.0937054 27.5512307,25.0172848 C27.5512307,23.9314219 26.767521,23.1288276 25.7383118,23.1288276 C24.7091026,23.1288276 23.9253929,23.9314219 23.9253929,25.0172848 C23.9253929,26.0937054 24.7091026,26.8868574 25.7383118,26.8868574 Z M37.2862275,21.8446767 L37.2862275,28.1710083 L35.7754618,28.1710083 L35.7754618,24.8001122 L34.000312,28.1710083 L33.2826983,28.1710083 L31.4981062,24.7812276 L31.4981062,28.1710083 L29.9873405,28.1710083 L29.9873405,21.8446767 L31.5169908,21.8446767 L33.6415051,25.8576482 L35.7660195,21.8446767 L37.2862275,21.8446767 Z" id=".COM" fill="#FFFFFF" fill-rule="nonzero" transform="translate(25.044304, 25.007842) rotate(12.000000) translate(-25.044304, -25.007842) "></path>
                    </g>
                    <ellipse id="Oval" stroke="#FFFFFF" stroke-width="1.4000001" fill-rule="nonzero" cx="37.1000025" cy="11.5500008" rx="24.5000017" ry="10.8500007"></ellipse>
                    <path d="M44.2839244,11.2937054 C44.2839244,12.9891111 41.4830091,14.3962979 38.0389833,14.3962979 C34.5949576,14.3962979 31.7940423,13.0060652 31.7940423,11.2937054 C31.7940423,9.58134557 34.5864956,8.18263581 38.0389833,8.18263581 C41.4914711,8.18263581 44.2839244,9.57286854 44.2839244,11.2937054 Z" id="Path" fill="#ECA93F" fill-rule="nonzero"></path>
                    <path d="M97.8600067,38.0525799 L99.4000068,38.0525799 L99.4000068,61.2196949 C99.4000068,61.6449542 99.055266,61.9896949 98.6300067,61.9896949 C98.2047474,61.9896949 97.8600067,61.6449542 97.8600067,61.2196949 L97.8600067,38.0525799 Z" id="Rectangle-Copy-16" fill="#ECA93F"></path>
                    <ellipse id="Oval" fill="#ECA93F" fill-rule="nonzero" cx="131.230766" cy="21.5000481" rx="6.24494105" ry="3.11106958"></ellipse>
                </g>
            </g>
        </g>
    </g>
</svg>