<?xml version="1.0" encoding="UTF-8"?>
<svg width="260px" height="386px" viewBox="0 0 260 386" version="1.1" xmlns="http://www.w3.org/2000/svg" xmlns:xlink="http://www.w3.org/1999/xlink">
    <!-- Generator: sketchtool 55.2 (78181) - https://sketchapp.com -->
    <title>182C5214-089F-414F-8BDB-342E9D71FEDF</title>
    <desc>Created with sketchtool.</desc>
    <g id="Page-1" stroke="none" stroke-width="1" fill="none" fill-rule="evenodd">
        <g id="Transfer-XL" transform="translate(-1514.000000, -224.000000)">
            <g id="Customer-Window-Transfer" transform="translate(1514.000000, 224.000000)">
                <g id="Group-12">
                    <g id="hero_graphic_02" transform="translate(37.000000, 39.000000)">
                        <polygon id="Rectangle" fill="#2E578C" fill-rule="nonzero" points="4 3 154 3 154 258 4 258"></polygon>
                        <polygon id="Rectangle-2" fill="#2E578C" fill-rule="nonzero" points="27 261 131 261 120.112419 274 37.8875807 274"></polygon>
                        <g id="Rectangle-3" transform="translate(13.000000, 11.000000)" fill="#FBCD3B" fill-rule="nonzero">
                            <polygon id="path-1-2" points="0 0 132 0 132 241 0 241"></polygon>
                        </g>
                        <g id="Asset-23" transform="translate(36.000000, 59.237749)">
                            <polygon id="Rectangle" fill="#274666" fill-rule="nonzero" points="34 173.553185 83.8749279 168.762251 86 201.608359 34 203.762251"></polygon>
                            <path d="M35.4130837,103.762251 L33,175.443651 C45.37872,181.563171 74.7665048,181.330584 81.861718,173.774408 C86.5918602,168.736958 85.97491,145.399572 80.0108674,103.762251 L35.4130837,103.762251 Z" id="Path" fill="#FF6B17" fill-rule="nonzero"></path>
                            <path d="M87,107.762251 C86.9922458,106.859475 86.9245632,105.958204 86.7973966,105.064358 C83.9292928,84.2141256 67.673987,82.31865 67.0752258,82.31865 C66.4764646,82.31865 50.47396,81.4492772 48.1165951,81.8839636 C45.7592302,82.31865 27.9242658,82.6933441 28,100.434996 C28.0213195,101.375786 28.4031336,106.928396 28.8401728,107.762251 L87,107.762251 Z" id="Path" fill="#FF6B17" fill-rule="nonzero"></path>
                            <path d="M83.5994303,104.762251 C87.2158659,122.215917 86.7462069,135.446106 82.1904535,144.452819 C75.3568234,157.962888 55.5788282,159.560926 39,156.35503" id="Path-4" stroke="#F6EAE8" stroke-width="9.87096774"></path>
                            <path d="M33,101.762251 C30.8475169,112.849217 26.7283325,122.517199 20.6424469,130.766197 C11.5136184,143.139695 0.300106532,150.480363 1.03425151,162.762251" id="Path-4" stroke="#F6EAE8" stroke-width="9.87096774"></path>
                            <polygon id="Rectangle" fill="#FF6B17" points="34.7522926 102.762251 49 102.762251 49 129.186028 34 130.762251"></polygon>
                            <path d="M37.9623291,107.743523 C36.5202163,111.79263 29.3719754,109.431851 25,103.499089 C25,103.499089 28.2732646,89.5263919 34.3121609,86.7622514 C34.3121609,88.5421457 48.8323344,92.1091046 37.9623291,107.743523 Z" id="Path" fill="#FF6B17" fill-rule="nonzero"></path>
                            <path d="M78.1864221,106.101993 C78.1864221,106.101993 85.3108056,108.887763 90,103.01496 C88.3094552,95.9434428 81.9316527,85.4892448 71.3747727,82.7622514 C70.4554846,87.8378288 66.5344845,90.6255808 78.1864221,106.101993 Z" id="Path" fill="#FF6B17" fill-rule="nonzero"></path>
                            <path d="M43,82.4680629 C43,89.4873342 49.7616802,95.7622514 57.328147,95.7622514 C64.8946138,95.7622514 70.5806822,91.4783157 71,83.0877558 C70.0999444,82.7786119 68.79507,82.3367771 67.0853768,81.7622514 L48.2243031,81.7622514 L43,82.4680629 Z" id="Path" fill="#FF8D4E" fill-rule="nonzero"></path>
                            <path d="M52.2834381,62.7622514 L60.9512247,62.7622514 C64.0367067,62.7622514 66.582894,65.1763342 66.7471259,68.2574422 L67.475804,81.927962 C67.750289,87.0774949 63.7982818,91.4745301 58.6487489,91.7490151 C58.4832294,91.7578377 58.3175043,91.7622514 58.1517499,91.7622514 C52.5909325,91.7622514 47.9640139,87.4882804 47.5236993,81.9449228 L46.4975329,69.0259608 C46.2437136,65.8304936 48.6283905,63.0342944 51.8238577,62.7804752 C51.9767503,62.7683308 52.1300641,62.7622514 52.2834381,62.7622514 Z" id="Rectangle" fill="#EFD8D5" fill-rule="nonzero"></path>
                            <g id="face" transform="translate(11.000000, -0.237749)" fill-rule="nonzero">
                                <path d="M13.1605178,51.7563689 C13.1605178,53.0357623 14.8885441,71.8764448 8.23397873,74.4848809 C9.8290784,78.1374048 23.9663358,81.6072415 33.4339787,72.8022943 L13.1605178,51.7563689 Z" id="Path" fill="#ECA93F"></path>
                                <ellipse id="Oval" fill="#F6EAE8" cx="11.590021" cy="44.9133087" rx="5.59002101" ry="6.88762362"></ellipse>
                                <path d="M78.7765096,50.2584344 C78.7765096,51.0960987 77.7166138,74.2640597 83.7295003,79.2279146 C83.7295003,79.2279146 65.1484652,89.3913623 52.2295003,77.2867853 L78.7765096,50.2584344 Z" id="Path" fill="#ECA93F"></path>
                                <ellipse id="Oval" fill="#F6EAE8" cx="44.3509079" cy="47.3702359" rx="33.9127941" ry="34.211837"></ellipse>
                                <path d="M11.590021,44.9133087 C21.9857143,33.4298583 31.3767696,40.8096338 37.517881,27.4042738 C42,41.7479888 56.3971008,42 70.8069328,44.9133087 L78.263702,39.4751966 C78.263702,39.4751966 77.8533154,9.6494925 44.7635266,9.6494925 C10.7519463,9.6494925 8.43193375,48.5969675 11.590021,44.9133087 Z" id="Path" fill="#ECA93F"></path>
                                <ellipse id="Oval" fill="#3B356B" cx="25.2289916" cy="48.6505089" rx="3.15" ry="4.25316456"></ellipse>
                                <ellipse id="Oval" fill="#3B356B" cx="48.3289916" cy="48.6505089" rx="3.15" ry="4.25316456"></ellipse>
                                <path d="M32.9500522,64.3961882 C29.5001803,64.3961882 31.3728942,71.0463408 36.6203949,71.0463408 C41.8678956,71.0463408 48.7064941,72.6662359 48.3289916,62.1724661 C42.7564087,65.0475081 36.3999241,64.3961882 32.9500522,64.3961882 Z" id="Path" fill="#3B356B"></path>
                                <path d="M15.6285,35.9499829 L10.5617801,39.9773546 C10.5617801,39.9773546 6.01847886,20.6511159 23.7772226,14.4472553 C41.5359662,8.24339462 14.882408,35.1701583 15.6285,35.9499829 Z" id="Path" fill="#ECA93F"></path>
                                <path d="M74.5738696,38.352305 L74.5738696,45.6157827 C74.5738696,45.6157827 76.109597,41.3550094 77.6209863,41.3550094 C78.5475471,43.1979402 79.1385581,43.5728514 79.3940193,42.4797428 C79.7772111,40.8400799 77.4198977,19.8102678 64.3000224,15.347801 C51.1801471,10.8853343 75.0616597,37.7864957 74.5738696,38.352305 Z" id="Path" fill="#ECA93F"></path>
                                <ellipse id="Oval" fill="#F6EAE8" cx="76.0242857" cy="46.556554" rx="5.21735294" ry="6.57919943"></ellipse>
                                <path d="M13.9163491,25.4395711 L74.7854667,25.4395711 C74.7854667,25.4395711 67.2527237,-1.43884904e-13 44.2370629,-1.43884904e-13 C18.4195506,-1.43884904e-13 13.9163491,25.4395711 13.9163491,25.4395711 Z" id="Path" fill="#FFFFFF"></path>
                                <path d="M0.00747410586,25.4395711 C0.00747410586,25.4395711 -0.906389416,15.8626607 17.4761662,15.8626607 C16.6523619,17.6724148 16.1086854,19.2685665 15.8451368,20.6511159 C53.8236998,20.5270846 72.8402894,20.5149876 72.8949056,20.6148249 C73.6745767,22.1561423 74.5580231,23.771955 75.0357621,25.4395711 L0.00747410586,25.4395711 Z" id="Path" fill="#274666"></path>
                                <path d="M30.9702146,19.4136754 L44.013597,19.4136754 C44.013597,19.4136754 43.8403452,15.0275424 37.4919058,15.0275424 C31.1434664,15.0275424 30.9702146,19.4136754 30.9702146,19.4136754 Z" id="Path" fill="#ECA93F"></path>
                            </g>
                        </g>
                        <g id="Group-7" transform="translate(26.000000, 11.000000)">
                            <path d="M0,0 L106,0 L106,40.7096774 C106,42.5268724 104.526872,44 102.709677,44 L3.29032258,44 C1.4731276,44 -6.65636218e-16,42.5268724 0,40.7096774 L0,0 Z" id="Rectangle" fill="#ECA93F"></path>
                            <rect id="Rectangle" fill="#FBCD3B" x="6" y="8.67741935" width="94" height="3" rx="1.09677419"></rect>
                            <rect id="Rectangle-Copy-2" fill="#FBCD3B" x="6" y="31.7096774" width="94" height="3" rx="1.09677419"></rect>
                            <rect id="Rectangle-Copy" fill="#FBCD3B" x="6" y="19.6451613" width="94" height="3" rx="1.09677419"></rect>
                            <rect id="Rectangle" fill="#ECA93F" x="102.721649" y="40.5806452" width="1.09278351" height="25.2258065"></rect>
                            <ellipse id="Oval" fill="#ECA93F" cx="103.268041" cy="65.2580645" rx="2.73195876" ry="2.74193548"></ellipse>
                        </g>
                        <rect id="Rectangle-4-2" fill="#2E578C" fill-rule="nonzero" x="0" y="0" width="160" height="14"></rect>
                        <rect id="Rectangle-4-2-Copy" fill="#2E578C" fill-rule="nonzero" x="0" y="252" width="160" height="14"></rect>
                    </g>
                    <rect id="Rectangle" fill="#2D578A" x="224" y="20" width="30" height="12" rx="3"></rect>
                    <rect id="Rectangle-Copy-13" fill="#2D578A" x="0" y="128" width="30" height="12" rx="3"></rect>
                    <rect id="Rectangle-Copy-11" fill="#2D578A" x="235" y="0" width="25" height="12" rx="3"></rect>
                    <rect id="Rectangle-Copy-18" fill="#2D578A" x="7" y="10" width="25" height="12" rx="3"></rect>
                    <rect id="Rectangle-Copy-7" fill="#2D578A" x="230" y="344" width="30" height="12" rx="3"></rect>
                    <rect id="Rectangle-Copy-8" fill="#2D578A" x="181" y="344" width="41" height="12" rx="3"></rect>
                    <rect id="Rectangle-Copy-12" fill="#2D578A" x="20" y="151" width="25" height="12" rx="3"></rect>
                    <rect id="Rectangle-Copy-9" fill="#2D578A" x="211" y="327" width="25" height="12" rx="3"></rect>
                    <rect id="Rectangle-Copy-19" fill="#2D578A" x="24" y="374" width="25" height="12" rx="3"></rect>
                    <g id="controller" transform="translate(87.500000, 245.737749) scale(-1, 1) translate(-87.500000, -245.737749) translate(61.000000, 213.237749)" fill-rule="nonzero">
                        <polygon id="Path" fill="#2D578A" points="44 27.7622514 14.6101871 32.6478696 4.97570363 30.7392629 0 61.5278227 8.54030804 64.7622514 33.5622302 60.4263949"></polygon>
                        <polygon id="Path" fill="#274666" points="17.6998338 35.8734209 12 61.7622514 32.5830607 57.8878703 40 32.7622514"></polygon>
                        <path d="M47.9858721,41.0354717 L42.7737477,44.3079132 C42.7737477,44.3079132 41.8414502,47.1851293 41.4044122,50.7643829 C40.7296223,56.2907782 27.7252671,61.9477614 27.788927,50.6857248 C28.0234154,41.9185162 33.2373308,36.7837834 40.5996606,37.340211 C44.8618544,36.531898 46.3698395,37.2427333 47.9858721,41.0354717 Z" id="Path" fill="#F6EAE8" transform="translate(37.887283, 47.114032) scale(-1, 1) rotate(-77.000000) translate(-37.887283, -47.114032) "></path>
                        <polygon id="Path" fill="#274666" points="15 32.4919975 5.10845987 29.7622514 -8.52651283e-13 61.4631056 8.43330825 64.7622514"></polygon>
                        <polygon id="Path" fill="#2D578A" points="37.5911551 23.7622514 44 27.7622514 14.6284851 32.7622514 5 30.1266101"></polygon>
                        <path d="M34,25.3986868 C34,25.3986868 49.4615059,-0.783868556 52.6283204,1.96440128 C55.7951349,4.71267111 37.6842678,26.7622514 37.6842678,26.7622514 L34,25.3986868 Z" id="Path" fill="#2D578A"></path>
                        <path d="M12.5832496,30.7622514 C12.5832496,30.7622514 4.02598297,1.34506089 8.09940607,0.770755648 C12.1728292,0.19645041 16,28.901077 16,28.901077 L12.5832496,30.7622514 Z" id="Path" fill="#2D578A"></path>
                    </g>
                    <path d="M109.529742,245.356466 C110.405386,244.101858 114.750058,242.504951 117.200913,249.248106 C119.97355,251.807955 119.945401,260.365173 114.231494,263.344579 C104.025263,268.666421 101.332223,266.233755 99.2267293,259.412139 C98.7431951,257.845531 98.9882366,254.873723 100.398161,255.273305 C107.166064,253.911013 109.244857,250.994898 110.019562,249.248106 L109.529742,245.356466 Z" id="Path" fill="#F6EAE8" fill-rule="nonzero"></path>
                    <path d="M51.8535319,230.237749 C48.0488227,219.917647 48.0488227,211.677628 51.8535319,205.517693 C55.658241,199.357758 63.7070637,198.587766 76,203.207717" id="Path-43" stroke="#FFFFFF" stroke-width="2" stroke-linecap="round"></path>
                    <path d="M38.0729455,233.237749 C31.3090182,217.413592 31.3090182,204.778897 38.0729455,195.333663 C44.8368729,185.888429 59.145891,184.707775 81,191.791701" id="Path-43-Copy" stroke="#FFFFFF" stroke-width="2" stroke-linecap="round"></path>
                    <path d="M21.5037319,233.237749 C11.1728865,214.142766 11.1728865,197.662729 21.5037319,183.797637 C31.8345773,169.932546 53,168.392562 85,179.177686" id="Path-43-Copy-2" stroke="#FFFFFF" stroke-width="2" stroke-linecap="round"></path>
                </g>
                <circle id="Oval" fill="#FF8D4E" cx="61.5" cy="215.5" r="3.5"></circle>
                <circle id="Oval-Copy" fill="#FF8D4E" cx="105.5" cy="213.5" r="3.5"></circle>
            </g>
        </g>
    </g>
</svg>