<?xml version="1.0" encoding="UTF-8"?>
<svg width="421px" height="417px" viewBox="0 0 421 417" version="1.1" xmlns="http://www.w3.org/2000/svg" xmlns:xlink="http://www.w3.org/1999/xlink">
    <!-- Generator: sketchtool 55.2 (78181) - https://sketchapp.com -->
    <title>3E713BAF-68ED-44E6-BE31-4A59E6AA0052</title>
    <desc>Created with sketchtool.</desc>
    <g id="Page-1" stroke="none" stroke-width="1" fill="none" fill-rule="evenodd">
        <g id="Transfer-XL" transform="translate(-53.000000, -217.000000)">
            <g id="Snappy-Window-Transfer" transform="translate(53.000000, 217.000000)">
                <g id="hero_graphic_02" transform="translate(180.000000, 201.500000) scale(-1, 1) translate(-180.000000, -201.500000) translate(26.000000, 30.000000)">
                    <polygon id="Rectangle" fill="#2E578C" fill-rule="nonzero" points="17.8425656 7.95626822 291.428571 7.95626822 291.428571 338.043732 17.8425656 338.043732"></polygon>
                    <g id="Rectangle-3" transform="translate(27.755102, 12.912536)" fill="#FF8D4E" fill-rule="nonzero">
                        <polygon id="path-1-2" points="0 0 256.734694 0 256.734694 320.174927 0 320.174927"></polygon>
                    </g>
                    <rect id="Rectangle" fill="#FF6B17" x="102.099125" y="255.769679" width="69.3877551" height="69.3877551"></rect>
                    <rect id="Rectangle" fill="#FF6B17" x="64.4314869" y="182.41691" width="69.3877551" height="69.3877551"></rect>
                    <rect id="Rectangle" fill="#FF6B17" x="27.755102" y="108.072886" width="90.2040816" height="69.3877551"></rect>
                    <path d="M35.9924198,145.252187 C36.7804665,145.252187 37.3603499,145.876676 37.3603499,146.590379 C37.3603499,147.348688 36.7804665,147.928571 35.9924198,147.928571 C35.2043732,147.928571 34.6393586,147.348688 34.6393586,146.590379 C34.6393586,145.876676 35.2043732,145.252187 35.9924198,145.252187 Z M43.3822157,140.167055 C45.3597668,140.167055 47.0250729,141.772886 47.0250729,144.122157 C47.0250729,146.486297 45.3597668,148.077259 43.3822157,148.077259 C42.4008746,148.077259 41.6276968,147.765015 41.0626822,147.214869 L41.0626822,147.854227 L38.6836735,147.854227 L38.6836735,136.405248 L41.0626822,136.405248 L41.0626822,141.029446 C41.6276968,140.4793 42.4008746,140.167055 43.3822157,140.167055 Z M42.8915452,146.055102 C43.9323615,146.055102 44.6906706,145.281924 44.6906706,144.122157 C44.6906706,142.977259 43.9323615,142.189213 42.8915452,142.189213 C41.9250729,142.189213 41.0626822,142.977259 41.0626822,144.122157 C41.0626822,145.281924 41.9250729,146.055102 42.8915452,146.055102 Z M55.7233236,140.390087 L55.7233236,147.854227 L53.3443149,147.854227 L53.3443149,147.140525 C52.7793003,147.735277 51.9912536,148.077259 51.054519,148.077259 C49.3148688,148.077259 48.155102,146.843149 48.155102,144.969679 L48.155102,140.390087 L50.519242,140.390087 L50.519242,144.46414 C50.519242,145.341399 51.0396501,145.936152 51.7979592,145.936152 C52.7346939,145.936152 53.3443149,145.296793 53.3443149,143.854519 L53.3443149,140.390087 L55.7233236,140.390087 Z M56.9425656,145.906414 L59.2620991,145.430612 C59.3661808,146.069971 59.9460641,146.307872 60.5854227,146.307872 C61.2099125,146.307872 61.551895,146.040233 61.551895,145.71312 C61.551895,145.46035 61.3586006,145.267055 60.8084548,145.162974 L59.2918367,144.865598 C57.9090379,144.612828 57.1209913,143.869388 57.1209913,142.694752 C57.1209913,141.163265 58.4443149,140.167055 60.3326531,140.167055 C62.1912536,140.167055 63.4253644,141.014577 63.7227405,142.308163 L61.551895,142.739359 C61.477551,142.278426 61.0314869,141.862099 60.3029155,141.862099 C59.6635569,141.862099 59.4553936,142.174344 59.4553936,142.441983 C59.4553936,142.650146 59.5446064,142.858309 60.0204082,142.962391 L61.7749271,143.319242 C63.1874636,143.616618 63.841691,144.46414 63.841691,145.564431 C63.841691,147.214869 62.4142857,148.077259 60.4516035,148.077259 C58.6970845,148.077259 57.1953353,147.437901 56.9425656,145.906414 Z M66.4139942,136.836443 C67.2169096,136.836443 67.796793,137.460933 67.796793,138.189504 C67.796793,138.947813 67.2169096,139.512828 66.4139942,139.512828 C65.6110787,139.512828 65.0460641,138.947813 65.0460641,138.189504 C65.0460641,137.460933 65.6110787,136.836443 66.4139942,136.836443 Z M67.6034985,147.854227 L65.2244898,147.854227 L65.2244898,140.390087 L67.6034985,140.390087 L67.6034985,147.854227 Z M74.116035,140.167055 C75.8556851,140.167055 77.0154519,141.401166 77.0154519,143.274636 L77.0154519,147.854227 L74.651312,147.854227 L74.651312,143.780175 C74.651312,142.902915 74.1309038,142.308163 73.3725948,142.308163 C72.4358601,142.308163 71.8262391,142.947522 71.8262391,144.389796 L71.8262391,147.854227 L69.4472303,147.854227 L69.4472303,140.390087 L71.8262391,140.390087 L71.8262391,141.10379 C72.3912536,140.509038 73.1793003,140.167055 74.116035,140.167055 Z M85.9516035,144.122157 L85.9516035,144.731778 L80.4798834,144.731778 C80.6731778,145.623907 81.2827988,146.174052 82.0857143,146.174052 C82.6358601,146.174052 83.2752187,146.040233 83.6766764,145.311662 L85.7880466,145.742857 C85.148688,147.31895 83.7956268,148.077259 82.0857143,148.077259 C79.9297376,148.077259 78.145481,146.486297 78.145481,144.122157 C78.145481,141.772886 79.9297376,140.167055 82.1005831,140.167055 C84.2119534,140.167055 85.9069971,141.683673 85.9516035,144.122157 Z M82.1005831,142.1 C81.4314869,142.1 80.7475219,142.516327 80.5244898,143.274636 L83.6023324,143.274636 C83.3793003,142.47172 82.7845481,142.1 82.1005831,142.1 Z M86.6801749,145.906414 L88.9997085,145.430612 C89.1037901,146.069971 89.6836735,146.307872 90.3230321,146.307872 C90.9475219,146.307872 91.2895044,146.040233 91.2895044,145.71312 C91.2895044,145.46035 91.0962099,145.267055 90.5460641,145.162974 L89.0294461,144.865598 C87.6466472,144.612828 86.8586006,143.869388 86.8586006,142.694752 C86.8586006,141.163265 88.1819242,140.167055 90.0702624,140.167055 C91.928863,140.167055 93.1629738,141.014577 93.4603499,142.308163 L91.2895044,142.739359 C91.2151603,142.278426 90.7690962,141.862099 90.0405248,141.862099 C89.4011662,141.862099 89.1930029,142.174344 89.1930029,142.441983 C89.1930029,142.650146 89.2822157,142.858309 89.7580175,142.962391 L91.5125364,143.319242 C92.9250729,143.616618 93.5793003,144.46414 93.5793003,145.564431 C93.5793003,147.214869 92.151895,148.077259 90.1892128,148.077259 C88.4346939,148.077259 86.9329446,147.437901 86.6801749,145.906414 Z M94.3376093,145.906414 L96.6571429,145.430612 C96.7612245,146.069971 97.3411079,146.307872 97.9804665,146.307872 C98.6049563,146.307872 98.9469388,146.040233 98.9469388,145.71312 C98.9469388,145.46035 98.7536443,145.267055 98.2034985,145.162974 L96.6868805,144.865598 C95.3040816,144.612828 94.516035,143.869388 94.516035,142.694752 C94.516035,141.163265 95.8393586,140.167055 97.7276968,140.167055 C99.5862974,140.167055 100.820408,141.014577 101.117784,142.308163 L98.9469388,142.739359 C98.8725948,142.278426 98.4265306,141.862099 97.6979592,141.862099 C97.0586006,141.862099 96.8504373,142.174344 96.8504373,142.441983 C96.8504373,142.650146 96.9396501,142.858309 97.4154519,142.962391 L99.1699708,143.319242 C100.582507,143.616618 101.236735,144.46414 101.236735,145.564431 C101.236735,147.214869 99.8093294,148.077259 97.8466472,148.077259 C96.0921283,148.077259 94.590379,147.437901 94.3376093,145.906414 Z" id=".business" fill="#FF8D4E" fill-rule="nonzero" transform="translate(67.938047, 142.241254) scale(-1, 1) translate(-67.938047, -142.241254) "></path>
                    <rect id="Rectangle" fill="#FF6B17" x="27.755102" y="182.41691" width="31.7201166" height="69.3877551"></rect>
                    <path d="M86.0655977,211.666181 C86.8536443,211.666181 87.4335277,212.290671 87.4335277,213.004373 C87.4335277,213.762682 86.8536443,214.342566 86.0655977,214.342566 C85.277551,214.342566 84.7125364,213.762682 84.7125364,213.004373 C84.7125364,212.290671 85.277551,211.666181 86.0655977,211.666181 Z M90.0653061,203.250437 C90.8682216,203.250437 91.448105,203.874927 91.448105,204.603499 C91.448105,205.361808 90.8682216,205.926822 90.0653061,205.926822 C89.2623907,205.926822 88.6973761,205.361808 88.6973761,204.603499 C88.6973761,203.874927 89.2623907,203.250437 90.0653061,203.250437 Z M91.2548105,214.268222 L88.8758017,214.268222 L88.8758017,206.804082 L91.2548105,206.804082 L91.2548105,214.268222 Z M97.7673469,206.58105 C99.5069971,206.58105 100.666764,207.81516 100.666764,209.68863 L100.666764,214.268222 L98.3026239,214.268222 L98.3026239,210.194169 C98.3026239,209.31691 97.7822157,208.722157 97.0239067,208.722157 C96.087172,208.722157 95.477551,209.361516 95.477551,210.80379 L95.477551,214.268222 L93.0985423,214.268222 L93.0985423,206.804082 L95.477551,206.804082 L95.477551,207.517784 C96.0425656,206.923032 96.8306122,206.58105 97.7673469,206.58105 Z M105.082799,206.804082 L107.134694,206.804082 L107.134694,208.69242 L105.082799,208.69242 L105.082799,214.268222 L102.718659,214.268222 L102.718659,208.69242 L101.648105,208.69242 L101.648105,206.804082 L102.718659,206.804082 L102.718659,205.540233 C102.718659,203.785714 103.923032,202.670554 105.722157,202.670554 C106.227697,202.670554 106.718367,202.774636 107.194169,202.96793 L106.68863,204.811662 C106.465598,204.737318 106.227697,204.70758 106.049271,204.70758 C105.484257,204.70758 105.082799,205.034694 105.082799,205.629446 L105.082799,206.804082 Z M111.53586,206.610787 C113.751312,206.610787 115.624781,208.18688 115.624781,210.536152 C115.624781,212.900292 113.751312,214.476385 111.53586,214.476385 C109.275802,214.476385 107.402332,212.900292 107.402332,210.536152 C107.402332,208.18688 109.275802,206.610787 111.53586,206.610787 Z M111.53586,212.469096 C112.457726,212.469096 113.334985,211.710787 113.334985,210.536152 C113.334985,209.376385 112.457726,208.603207 111.53586,208.603207 C110.569388,208.603207 109.692128,209.376385 109.692128,210.536152 C109.692128,211.710787 110.569388,212.469096 111.53586,212.469096 Z" id=".info" fill="#FF8D4E" fill-rule="nonzero" transform="translate(100.168659, 208.573469) scale(-1, 1) translate(-100.168659, -208.573469) "></path>
                    <path d="M124.273469,297.905248 C125.061516,297.905248 125.641399,298.529738 125.641399,299.24344 C125.641399,300.001749 125.061516,300.581633 124.273469,300.581633 C123.485423,300.581633 122.920408,300.001749 122.920408,299.24344 C122.920408,298.529738 123.485423,297.905248 124.273469,297.905248 Z M130.60758,292.849854 C132.823032,292.849854 134.696501,294.425948 134.696501,296.775219 C134.696501,299.139359 132.823032,300.715452 130.60758,300.715452 C128.347522,300.715452 126.474052,299.139359 126.474052,296.775219 C126.474052,294.425948 128.347522,292.849854 130.60758,292.849854 Z M130.60758,298.708163 C131.529446,298.708163 132.406706,297.949854 132.406706,296.775219 C132.406706,295.615452 131.529446,294.842274 130.60758,294.842274 C129.641108,294.842274 128.763848,295.615452 128.763848,296.775219 C128.763848,297.949854 129.641108,298.708163 130.60758,298.708163 Z M140.881924,292.939067 C141.090087,292.939067 141.238776,292.953936 141.417201,292.998542 L141.31312,295.377551 L140.881924,295.377551 C139.216618,295.377551 138.309621,296.239942 138.309621,298.172886 L138.309621,300.507289 L135.930612,300.507289 L135.930612,293.043149 L138.309621,293.043149 L138.309621,294.470554 C138.844898,293.578426 139.662682,292.939067 140.881924,292.939067 Z M150.279009,293.043149 L150.279009,300.655977 C150.279009,302.960641 148.316327,304.22449 145.892711,304.22449 C144.182799,304.22449 142.889213,303.629738 142.160641,302.425364 L144.138192,301.206122 C144.688338,301.875219 145.119534,302.127988 145.892711,302.127988 C146.963265,302.127988 147.9,301.592711 147.9,300.418076 L147.9,299.86793 C147.334985,300.418076 146.561808,300.730321 145.580466,300.730321 C143.602915,300.730321 141.937609,299.139359 141.937609,296.775219 C141.937609,294.425948 143.602915,292.820117 145.580466,292.820117 C146.561808,292.820117 147.334985,293.132362 147.9,293.682507 L147.9,293.043149 L150.279009,293.043149 Z M146.071137,298.708163 C147.037609,298.708163 147.9,297.934985 147.9,296.775219 C147.9,295.630321 147.037609,294.842274 146.071137,294.842274 C145.030321,294.842274 144.272012,295.630321 144.272012,296.775219 C144.272012,297.934985 145.030321,298.708163 146.071137,298.708163 Z" id=".org" fill="#FF8D4E" fill-rule="nonzero" transform="translate(136.599708, 298.522303) scale(-1, 1) translate(-136.599708, -298.522303) "></path>
                    <rect id="Rectangle" fill="#FF6B17" x="27.755102" y="255.769679" width="69.3877551" height="69.3877551"></rect>
                    <path d="M47.3868805,297.905248 C48.1749271,297.905248 48.7548105,298.529738 48.7548105,299.24344 C48.7548105,300.001749 48.1749271,300.581633 47.3868805,300.581633 C46.5988338,300.581633 46.0338192,300.001749 46.0338192,299.24344 C46.0338192,298.529738 46.5988338,297.905248 47.3868805,297.905248 Z M54.7469388,292.820117 C56.4865889,292.820117 57.6463557,294.054227 57.6463557,295.927697 L57.6463557,300.507289 L55.2822157,300.507289 L55.2822157,296.433236 C55.2822157,295.555977 54.7618076,294.961224 54.0034985,294.961224 C53.0667638,294.961224 52.4571429,295.600583 52.4571429,297.042857 L52.4571429,300.507289 L50.0781341,300.507289 L50.0781341,293.043149 L52.4571429,293.043149 L52.4571429,293.756851 C53.0221574,293.162099 53.8102041,292.820117 54.7469388,292.820117 Z M66.5825073,296.775219 L66.5825073,297.38484 L61.1107872,297.38484 C61.3040816,298.276968 61.9137026,298.827114 62.7166181,298.827114 C63.2667638,298.827114 63.9061224,298.693294 64.3075802,297.964723 L66.4189504,298.395918 C65.7795918,299.972012 64.4265306,300.730321 62.7166181,300.730321 C60.5606414,300.730321 58.7763848,299.139359 58.7763848,296.775219 C58.7763848,294.425948 60.5606414,292.820117 62.7314869,292.820117 C64.8428571,292.820117 66.5379009,294.336735 66.5825073,296.775219 Z M62.7314869,294.753061 C62.0623907,294.753061 61.3784257,295.169388 61.1553936,295.927697 L64.2332362,295.927697 C64.0102041,295.124781 63.4154519,294.753061 62.7314869,294.753061 Z M72.7976676,298.306706 L73.3478134,300.180175 C72.76793,300.49242 72.158309,300.730321 71.3107872,300.730321 C69.4521866,300.730321 68.3370262,299.719242 68.3370262,297.75656 L68.3370262,294.931487 L66.983965,294.931487 L66.983965,293.043149 L68.3370262,293.043149 L68.3370262,290.54519 L70.716035,290.54519 L70.716035,293.043149 L72.9166181,293.043149 L72.9166181,294.931487 L70.716035,294.931487 L70.716035,297.518659 C70.716035,298.291837 71.0877551,298.604082 71.7122449,298.604082 C72.0393586,298.604082 72.4854227,298.485131 72.7976676,298.306706 Z" id=".net" fill="#FF8D4E" fill-rule="nonzero" transform="translate(59.690816, 295.637755) scale(-1, 1) translate(-59.690816, -295.637755) "></path>
                    <g id="Group-7" transform="translate(39.650146, 12.912536)">
                        <path d="M0,0 L232.944606,0 L232.944606,80.2915452 C232.944606,81.933908 231.613208,83.2653061 229.970845,83.2653061 L2.97376093,83.2653061 C1.33139812,83.2653061 1.62176489e-14,81.933908 0,80.2915452 L0,0 Z" id="Rectangle" fill="#FF6B17"></path>
                        <rect id="Rectangle" fill="#FF8D4E" x="8.34985423" y="6.93877551" width="220" height="3" rx="0.991253644"></rect>
                        <rect id="Rectangle-Copy-2" fill="#FF8D4E" x="8.34985423" y="38.0874636" width="220" height="3" rx="0.991253644"></rect>
                        <rect id="Rectangle-Copy" fill="#FF8D4E" x="8.34985423" y="22.0874636" width="220" height="3" rx="0.991253644"></rect>
                        <rect id="Rectangle-Copy-2" fill="#FF8D4E" x="8.34985423" y="53.0874636" width="220" height="3" rx="0.991253644"></rect>
                        <rect id="Rectangle-Copy-3" fill="#FF8D4E" x="8.34985423" y="68.0874636" width="220" height="3" rx="0.991253644"></rect>
                        <rect id="Rectangle" fill="#FF6B17" x="229.970845" y="71.3702624" width="1" height="29.7376093"></rect>
                        <circle id="Oval" fill="#FF6B17" cx="230.466472" cy="102.594752" r="2.47813411"></circle>
                    </g>
                    <g id="snapp" transform="translate(148.000000, 199.931487) scale(-1, 1) translate(-148.000000, -199.931487) translate(21.000000, 67.431487)">
                        <path d="M138.856428,191.725141 C134.225363,201.729802 114.590001,188.684465 119.443286,198.587624 C127.816537,215.662187 136.705338,218.318644 138.856428,225.723947 C143.238607,240.834649 141.236961,257.167896 147.099125,260.111482 C155.987927,264.577612 171.167221,263.668676 181.967114,256.634079 C181.900448,250.014321 181.967114,241.512849 164.883382,238.075802 C164.883382,229.568513 161.609538,219.702994 159.054007,211.137026 C156.831807,203.718484 152.909623,185.736466 146.687462,181.839635 L138.856428,191.725141 Z" id="Path" fill="#4580C1"></path>
                        <path d="M212.55102,68.4995494 C212.55102,68.4995494 205.012449,77.1911782 198.845622,83.0358694 C194.793242,86.8765651 190.185554,90.8131348 186.042618,93.3131151 C183.03248,95.1341271 170.083577,95.7407009 165.151705,97.9610912 C156.300542,101.945995 152.318666,100.216003 149.268497,105.568513 C144.518772,113.903445 149.507786,128.037761 154.092251,133.649075 C160.465095,132.635563 177.989333,123.027729 184.795119,121.945364 C191.492792,120.880192 200.734042,111.759497 201.024781,111.70643 C208.099612,106.174571 217.966434,87.8952866 225.799135,78.9748344 L212.55102,68.4995494 Z" id="Path" fill="#4580C1"></path>
                        <path d="M229.915964,80.6981651 C236.431241,79.8692924 239.073106,80.079189 245.350094,74.8941571 C246.799654,73.6967649 253.183223,69.7796527 253.778999,68.5624168 C254.305483,67.4867541 252.911862,65.8297974 249.598137,63.5915465 C236.165089,59.297837 227.004254,58.4410753 222.115633,61.0212616 C217.227012,63.6014479 216.198543,69.8594219 219.030228,79.7951837 C221.943868,80.9497532 225.572447,81.250747 229.915964,80.6981651 Z" id="Path-2" fill="#4580C1"></path>
                        <path d="M169.958324,261.104623 C169.891658,254.864397 167.98501,252.388608 160.345086,249.153752 C166.367248,254.401014 166.491692,257.097462 165.376147,261.83721 C167.109463,261.647443 169.016111,261.422371 169.958324,261.104623 Z" id="Path" fill="#2D578A"></path>
                        <path d="M179.967114,256.634079 C179.047123,252.32241 178.14491,250.159956 172.269412,247.158998 C175.060496,249.753944 178.233798,252.843164 177.531583,258.090426 C178.399031,257.703197 179.216689,257.214271 179.967114,256.634079 L179.967114,256.634079 Z" id="Path" fill="#2D578A"></path>
                        <path d="M58.8349754,158.661654 C58.7641008,160.667605 58.1499695,162.617492 57.0572152,164.306101 C55.2794549,167.117292 54.2439096,166.781891 58.6927546,169.195896 C61.5060602,170.722854 65.0838027,171.777602 69.2659837,172.45723 C75.5325885,173.47226 74.0659363,172.774979 71.3015192,166.962831 C70.1065124,164.347306 68.6770666,161.843782 67.0304502,159.482504 C60.9771765,151.053345 59.1060838,151.627057 58.852753,158.661654" id="Path" fill="#4580C1"></path>
                        <path d="M36.6396387,155.757786 C34.3641056,159.967953 37.8529601,160.612276 42.3506935,162.187778 C44.0236636,162.765678 45.7579958,163.15068 47.5195314,163.335203 C52.5817037,163.878023 51.2706056,163.14985 49.057294,159.085318 C47.7038583,156.591048 46.2096421,154.174667 44.5817826,151.847716 C35.7374254,139.217216 39.9640504,149.596998 36.6396387,155.757786" id="Path" fill="#4580C1"></path>
                        <path d="M17.484272,153.864535 C17.5093033,154.832281 17.4736793,155.800636 17.3776064,156.76399 C17.0442764,160.268048 16.6487247,159.676683 21.0175705,160.060629 C22.9569993,160.264443 24.9136433,160.245192 26.8486241,160.003258 C32.4219025,159.173582 30.4041446,157.245025 27.4886178,154.027823 C26.4861371,152.919716 25.3837877,151.904881 24.195317,150.995973 C13.1865366,142.580054 17.3331624,148.502531 17.484272,153.864535" id="Path" fill="#4580C1"></path>
                        <path d="M91.2035451,30.542848 C91.2035451,30.542848 59.6483007,46.6862324 59.9416312,51.7922727 C60.2349616,56.8983131 68.8304324,56.2054451 72.3059537,63.1076466 C72.3059537,63.1076466 52.9905886,76.3471636 54.2439096,82.4241018 C55.4972305,88.5010401 67.8615531,86.2900408 71.0570771,91.1180513 C71.0570771,91.1180513 68.0037739,103.201317 70.7815243,107.618903 C73.5592747,112.036488 73.141501,108.22792 77.0303516,113.885607 C77.0303516,113.885607 74.9459277,68.7653335 91.2035451,30.542848 Z" id="Path" fill="#4580C1"></path>
                        <path d="M84.5813882,45.216646 C95.6435013,55.7023434 109.763362,62.3044492 122.53657,70.4070336 C131.260928,75.9367385 139.198627,82.1372456 145.434121,90.4295964 C153.096268,100.615198 148.696312,112.614614 150.442961,125.103891 C151.038511,129.353776 151.331841,133.652206 151.505173,137.937397 C151.83475,145.740355 151.604541,153.556713 150.816291,161.32721 C148.891865,179.950797 147.918541,195.101218 134.705338,209.033603 C118.181057,226.456807 100.012347,230.406596 79.3992171,215.366505 C71.399296,209.541117 66.1149036,206.019406 59.6971891,198.59645 C55.4794529,193.715482 50.2172826,190.577716 45.6662164,186.001256 C40.404046,180.705449 32.5152349,174.173954 25.4086383,171.477506 C17.4353836,168.454483 11.9287713,172.580799 8.01769872,174.354895 C5.98660764,175.277248 3.21774605,177.055756 0.968879335,175.281661 C0.0784816693,174.645055 -0.24366161,173.477677 0.195553627,172.479296 C1.36192915,169.684114 3.13608034,167.179477 5.39105795,165.144604 C17.5598269,154.111673 37.1729668,153.851296 51.8439332,161.614066 C57.3861008,164.553239 63.3993748,167.902837 69.8126449,168.317675 C74.328156,168.613357 78.9147774,167.770441 82.4214095,164.760658 C85.3013811,162.289281 86.8658101,158.838181 87.5946918,155.179661 C88.6156748,150.046065 88.244494,144.735267 86.5191469,139.790929 C84.1325037,132.681308 79.8525459,126.22925 77.0836844,119.21672 C67.6482218,95.3061519 64.5949186,68.0548128 79.7503247,45.7109213 L81.8569706,42.6217007 L84.5813882,45.216646 Z" id="Path" fill="#4580C1"></path>
                        <path d="M27.9997239,172.55432 C38.6307302,177.850127 49.9150634,189.65095 60.7816229,202.466802 C74.9592609,219.183899 110.398911,243.818227 139.634179,205.114706 C167.189463,168.653076 154.207368,117.552954 152.607384,111.736392 C152.549607,111.5378 152.487385,111.34362 152.425164,111.145027 C151.496284,109.962297 126.936526,78.8450191 104.425637,74.2685594 C98.4256961,79.4407974 97.2612632,88.549585 105.252295,104.256065 C118.692163,130.673315 129.434279,169.200309 105.545626,192.863739 C101.992295,196.474508 97.633487,199.204755 92.821307,200.833928 C75.8348078,206.398939 66.8437853,196.169205 56.2216678,186.301352 C47.5017538,178.167875 38.0218473,174.032733 27.9997239,172.55432 Z" id="Path" fill="#FCCF3B"></path>
                        <path d="M142.936368,200.383785 C136.118658,199.50115 124.438773,196.892966 114.55887,188.860992 C114.55887,188.860992 121.56769,201.050174 139.651956,205.105879 C140.820834,203.556856 141.909712,201.968114 142.936368,200.383785 Z" id="Path" fill="#ECA93D"></path>
                        <path d="M95.1546173,202.722766 C99.2001771,211.214097 105.040809,218.740171 112.278893,224.788628 C114.592169,224.254257 116.848426,223.500559 119.016604,222.53791 C112.536668,219.581085 101.585665,213.327619 95.1546173,202.722766 Z" id="Path" fill="#ECA93D"></path>
                        <path d="M59.0483066,200.43233 C59.6349675,201.107545 60.217184,201.782761 60.7949561,202.466802 C61.0571757,202.775724 61.3282842,203.08906 61.6082814,203.402395 C61.1638413,200.60003 61.2482849,197.87269 62.3727183,195.983852 C61.1596036,197.386408 60.0486545,198.872997 59.0483066,200.43233 L59.0483066,200.43233 Z" id="Path" fill="#ECA93D"></path>
                        <path d="M70.8393015,212.241979 C72.0659561,213.234943 73.3459434,214.210254 74.6703748,215.150259 C73.7814947,210.92244 73.3770542,206.522508 74.8081512,204.055544 C72.9459474,207.263921 71.55485,209.911824 70.8393015,212.241979 Z" id="Path" fill="#ECA93D"></path>
                        <path d="M47.7017519,188.19019 C48.6084096,189.105187 49.5165488,190.034896 50.4261694,190.979315 C50.3940516,189.011831 50.6060145,187.047905 51.0572743,185.131861 C49.8590887,186.0616 48.7370623,187.084251 47.7017519,188.19019 L47.7017519,188.19019 Z" id="Path" fill="#EBB148"></path>
                        <path d="M122.172129,168.613357 C136.176435,164.160466 149.354083,166.79513 155.15847,168.573639 C155.436986,167.049623 155.684391,165.532963 155.900685,164.023658 C134.28312,158.992642 122.172129,168.613357 122.172129,168.613357 Z" id="Path" fill="#ECA93D"></path>
                        <path d="M156.554012,135.077661 C156.396976,133.232955 156.216237,131.467686 156.011795,129.781854 L156.011795,129.781854 C133.118687,129.234621 121.332137,140.280791 121.332137,140.280791 C135.007558,132.866662 149.527414,133.916997 156.554012,135.077661 Z" id="Path" fill="#ECA93D"></path>
                        <path d="M147.509657,105.288748 C146.620776,104.282544 145.616342,103.179251 144.527464,102.005347 C120.19437,102.005347 113.625546,113.228045 113.625546,113.228045 C123.722952,106.928129 135.641144,104.135609 147.509657,105.288748 L147.509657,105.288748 Z" id="Path" fill="#ECA93D"></path>
                        <path d="M156.220682,131.595668 C155.636552,126.141587 154.738799,120.725138 153.531819,115.372846 C152.939233,115.025677 152.358498,114.66821 151.789614,114.300446 C144.011913,109.265016 109.847806,88.677567 99.8167935,82.7727425 C99.6071211,84.2804415 99.5713346,85.8069694 99.7101279,87.3227231 C110.345579,101.850886 133.927568,126.582304 156.220682,131.595668 Z" id="Path" fill="#ECA93D"></path>
                        <path d="M79.4392167,190.56889 C83.1280692,185.409891 89.3368969,183.507814 93.6879651,184.152137 C109.287811,186.513184 103.941197,204.783718 99.9501255,215.520966 C96.8390451,223.950125 95.0835069,234.643242 94.9946189,239.555102 C94.7901764,250.234979 98.7990258,253.540446 93.7012983,257.604977 C89.2568977,261.135515 76.7459099,266.056202 66.2349024,264.57779 C57.5905432,262.441814 57.7372085,244.718514 71.6792932,240.464216 C75.7059202,232.260129 75.7192534,223.800077 75.6081434,214.947254 C75.5414773,208.962992 75.2837021,196.389864 79.4392167,190.56889" id="Path" fill="#4580C1"></path>
                        <path d="M74.4925988,264.586616 C75.7281422,264.440981 76.9547967,264.242388 78.1636737,263.990838 C77.3414596,258.827426 78.5725586,254.017068 82.7902948,249.723051 C77.0614624,252.816685 75.0703709,258.26254 74.4925988,264.586616 Z" id="Path" fill="#2D578A"></path>
                        <path d="M66.0882372,264.533658 C65.1371355,259.127522 66.2971241,253.032931 70.6304147,248.646237 C65.2971339,251.528039 63.1949324,256.448726 62.4660507,262.221155 C63.4037272,263.345202 64.6691621,264.15309 66.0882372,264.533658 Z" id="Path" fill="#2D578A"></path>
                        <path d="M83.5273478,167.526506 C83.5273478,167.526506 83.7351739,176.553438 89.7666499,179.690928 C95.680659,182.766377 100.609753,179.7574 105.068979,176.190056 C111.037203,171.412917 107.599036,157.382841 98.6263686,147.575968 C92.0863026,140.42374 89.7357817,148.356343 87.3643916,156.588588 C86.1727272,160.725433 83.5273478,162.878241 83.2653061,167.313795 L83.5273478,167.526506 Z" id="Path" fill="#2D578A"></path>
                        <path d="M61.8144406,128.629847 C65.5575149,135.386055 87.6797033,138.653619 91.1617358,145.507102 C91.6484239,144.339799 101.107872,151.228655 101.107872,151.228655 C95.0640898,139.582155 79.2334518,124.385109 79.2334518,124.385109 C102.882071,101.989695 96.046315,87.2127009 74.8753807,90.1398015 C70.1323835,91.9084423 64.0443572,95.4457239 63.6284601,102.285942 C66.1503896,111.394442 57.1909033,120.295127 61.8144406,128.629847 Z" id="Path" fill="#2D578A" fill-rule="nonzero"></path>
                        <path d="M75.0595701,122.703526 C88.0969235,114.413534 104.475238,95.2735359 87.5557503,83.136845 C80.8469922,78.3195671 71.4770932,82.077222 67.9482864,85.5721972 C60.7922777,92.6690003 53.4752588,107.672907 49.476839,124.658041 C47.7951769,131.781557 45.6752093,130.254453 50.8185906,135.695039 C62.4471047,148.072148 80.3371265,158.223159 99.7701627,164.776794 C97.3997348,165.13297 95.0785045,165.27544 92.7662192,164.661037 C91.4244675,169.558454 91.5631152,172.75068 94.7385941,175.186032 C90.4941864,173.569885 88.8617219,170.818426 89.5102352,164.331574 L83.0877174,161.437646 C83.14586,168.792676 85.3239701,174.794239 92.4263088,178.983757 C96.9480118,178.983757 101.559165,177.380966 104.595996,174.85657 C112.051663,168.668015 100.266611,150.658875 99.3318572,149.946524 C84.1253386,138.37081 80.3818516,122.017887 61.422901,123.96795 C64.6341599,121.207588 70.855415,121.002786 75.0595701,122.716883" id="Path" fill="#4580C1"></path>
                        <path d="M86.7439728,39.4572655 C86.7439728,39.4572655 93.3072946,0.689833441 109.376575,0.0107153859 C119.941706,-0.433152624 125.259725,13.0604349 125.259725,13.0604349 C125.259725,13.0604349 133.817304,12.4922838 143.518257,18.4889406 C143.518257,18.4889406 146.465326,13.1625245 151.495285,14.8714164 C156.525245,16.5803082 161.954056,27.8234849 159.959799,46.3061488 C164.805854,47.0368568 169.051193,49.9495058 171.482173,54.2114381 C171.482173,54.2114381 169.297354,57.4472359 165.96916,57.7357501 C162.640967,58.0242643 148.277884,52.7821831 144.378003,56.2088442 C140.478123,59.6355052 138.767493,62.2099397 139.241683,68.4995494 C139.241683,68.4995494 123.45603,66.9726434 116.325453,57.9266134 C109.194876,48.8805833 103.194378,31.3566743 86.7439728,39.4572655 Z" id="Path" fill="#4580C1"></path>
                        <path d="M141.386618,42.2536339 C141.386618,42.2536339 145.335247,29.2438625 152.908992,25.5997062 C152.908992,25.5997062 153.290117,36.0794299 154.951998,44.4063938 C150.477524,43.4163287 145.947507,42.6974371 141.386618,42.2536339 L141.386618,42.2536339 Z" id="Path" fill="#F1F1F1" fill-rule="nonzero"></path>
                        <path d="M107.058805,15.5727278 C107.058805,15.5727278 116.808507,20.259974 123.2699,40.5536194 C123.2699,40.5536194 107.88753,38.0546425 101.133646,38.5784068 C101.133646,38.5784068 107.369023,27.0245225 107.058805,15.5727278 Z" id="Path" fill="#F1F1F1" fill-rule="nonzero"></path>
                        <path d="M115.341182,24.7813411 C117.720995,24.7813411 119.653209,27.4445492 119.653209,30.7291724 C119.653209,34.0137957 117.73429,36.6814425 115.341182,36.6814425 C112.948073,36.6814425 111.029155,34.0182344 111.029155,30.7291724 C111.029155,27.4401105 112.956936,24.7813411 115.341182,24.7813411" id="Path" fill="#2D578C"></path>
                        <path d="M150.266358,39.9666193 C152.140959,39.9666193 153.665458,37.9514585 153.665458,35.461359 C153.665458,32.9712594 152.123233,30.9560987 150.266358,30.9560987 C149.906592,30.9645868 149.55229,31.0461294 149.224912,31.1957874 C147.743338,31.9380432 146.831826,33.4792986 146.893847,35.1373353 C146.893847,35.2438637 146.871689,35.350392 146.871689,35.461359 C146.853962,37.9514585 148.374029,39.9666193 150.266358,39.9666193 Z" id="Path" fill="#2D578C"></path>
                        <path d="M104.794215,47.4398487 C102.837096,45.9937158 94.3160321,42.2262494 88.9330699,47.4398487 C83.6150509,52.610911 89.7070028,64.9254931 90.3469307,62.10785 C90.9868586,59.2902069 90.5007957,61.0323879 93.9619397,61.5428361 C93.9619397,61.5428361 96.0460743,77.3044474 123.2699,95.9469039 C150.493725,114.58936 159.652512,112.236783 165.573239,110.674368 C171.493967,109.111953 179.623174,104.785956 177.336426,99.9966203 C175.049677,95.2072845 158.080765,80.8496462 158.080765,80.8496462 C158.080765,80.8496462 153.232505,85.0131281 141.386618,80.8496462 C129.54073,76.6861643 112.283616,66.2079503 102.099609,51.9464711 C102.099609,51.9464711 102.101899,49.3555221 106.139162,51.3041026 C106.749983,49.841803 106.301668,48.5537184 104.794215,47.4398487 Z" id="Path" fill="#F68B52"></path>
                        <path d="M101.133646,70.9097527 C101.133646,70.9097527 124.27146,63.9720957 143.810748,82.4503209 L140.76175,80.7858159 C140.76175,80.7858159 154.757003,80.0933818 156.715807,82.0375237 C158.674611,83.9816656 169.740522,90.2224498 171.194114,106.66776 C171.615124,111.461534 160.283312,114.16469 135.09806,101.603226 C119.383314,93.7512005 101.133646,70.9097527 101.133646,70.9097527 Z" id="Path" fill="#F26B24"></path>
                        <path d="M131.765435,74.096725 C131.951566,74.1943759 132.14656,74.2875882 132.350417,74.3852392 L131.765435,74.096725 Z" id="Path" fill="#C56428"></path>
                        <path d="M158.080765,81.6824293 C158.080765,81.6824293 154.690528,95.6065687 149.456711,94.0663467 C147.684038,93.5470212 148.415266,89.5921572 147.684038,86.8845623 C146.952811,84.1769675 144.985144,78.9748344 144.985144,78.9748344 L158.080765,81.6824293 Z" id="Path" fill="#ECEDF1"></path>
                        <path d="M184.014971,76.4048386 C184.014971,76.4048386 182.915914,90.6973885 177.50483,90.0227092 C175.674545,89.7963365 175.754315,85.7748923 174.602078,83.2226513 C173.44984,80.6704102 170.65788,75.8544423 170.65788,75.8544423 L184.014971,76.4048386 Z" id="Path" fill="#ECEDF1"></path>
                        <path d="M189.776158,63.870006 C189.075952,53.8163956 175.825222,49.3910315 166.106542,56.4707263 C158.156104,54.6952542 149.319329,49.3688381 141.368891,57.3584623 C135.745086,62.9911474 138.962487,68.4196531 138.962487,68.4196531 C138.962487,68.4196531 122.436743,65.7564451 116.719873,57.3229529 C111.003003,48.8894607 103.628683,37.6063358 95.5231358,36.8073734 C91.2642889,36.3635054 84.089395,35.7642836 79.9324769,43.8826295 C75.7755588,52.0009754 73.6970997,66.6796905 104.457408,89.8895488 C135.217716,113.099407 148.774232,119.353507 155.483799,119.345445 C164.041378,119.345445 164.559885,116.14878 174.39822,114.763912 C179.419316,114.058162 183.230563,105.500387 177.721982,98.114423 C172.213401,90.7284593 160.530333,82.9501537 160.530333,82.9501537 C160.530333,82.9501537 173.148486,93.6357948 175.435234,98.4251306 C177.721982,103.214466 170.968098,106.232769 165.042938,107.790746 C159.117779,109.348722 151.53517,111.017666 124.306913,92.3885257 C97.0786563,73.7593853 94.1714726,55.1258062 94.1714726,55.1258062 C90.7103286,54.615358 90.3247723,62.0989726 90.3247723,62.0989726 C90.3247723,62.0989726 86.3362581,53.4257917 91.6764354,48.2547294 C98.1201017,42.0095065 104.794215,49.7239325 104.794215,49.7239325 L104.351047,49.7239325 C100.313785,47.775352 99.7642559,51.2552772 99.7642559,51.2552772 C109.957126,65.5167563 129.279261,78.1092918 141.125148,82.2727737 C152.971035,86.4362556 159.206413,81.7534481 159.206413,81.7534481 C159.206413,81.7534481 171.783527,81.5448302 176.046806,80.4218441 C180.310085,79.298858 190.72897,77.4967539 189.776158,63.870006 Z" id="Path" fill="#FCCF3B"></path>
                        <path d="M150.294299,62.8047228 C153.059669,61.9169868 155.16915,65.6454781 151.539602,67.2789123 C151.029959,68.6549032 151.854251,70.155177 154.092251,70.6878186 C147.001559,72.1525831 146.731227,64.09194 150.294299,62.8047228" id="Path" fill="#ECA93D"></path>
                        <path d="M181.542092,61.6551046 C179.259776,60.9182837 177.50483,63.9987277 180.513942,65.3480865 C180.95711,66.4843886 180.256904,67.7227803 178.408893,68.1622097 C184.24985,69.3695307 184.484729,62.7203879 181.542092,61.6551046" id="Path" fill="#ECA93D"></path>
                    </g>
                    <rect id="Rectangle-4-2" fill="#2E578C" fill-rule="nonzero" x="10.9037901" y="0" width="290" height="14"></rect>
                    <rect id="Rectangle-4-2-Copy" fill="#2E578C" fill-rule="nonzero" x="0" y="323.174927" width="307.28863" height="19.8250729"></rect>
                    <rect id="Rectangle-4-2-Copy-2" fill="#2E578C" fill-rule="nonzero" x="0" y="214.137026" width="307.28863" height="28.7463557"></rect>
                    <rect id="Rectangle-4-2-Copy-3" fill="#2E578C" fill-rule="nonzero" x="0" y="264.690962" width="307.28863" height="9.91253644"></rect>
                    <rect id="Rectangle-4-2-Copy-4" fill="#2E578C" fill-rule="nonzero" transform="translate(4.956268, 278.568513) rotate(-90.000000) translate(-4.956268, -278.568513) " x="-59.4752187" y="273.612245" width="128.862974" height="9.91253644"></rect>
                    <rect id="Rectangle-4-2-Copy-5" fill="#2E578C" fill-rule="nonzero" transform="translate(302.332362, 278.568513) rotate(-90.000000) translate(-302.332362, -278.568513) " x="237.900875" y="273.612245" width="128.862974" height="9.91253644"></rect>
                </g>
                <g id="drone" transform="translate(198.000000, 0.000000)">
                    <ellipse id="Oval" stroke="#FFFFFF" stroke-width="2" fill-rule="nonzero" cx="185" cy="31.5" rx="37" ry="16.5"></ellipse>
                    <ellipse id="Oval" stroke="#FFFFFF" stroke-width="2" fill-rule="nonzero" cx="39" cy="79" rx="38" ry="17"></ellipse>
                    <ellipse id="Oval" stroke="#FFFFFF" stroke-width="2" fill-rule="nonzero" cx="149" cy="85.5" rx="37" ry="16.5"></ellipse>
                    <g id="Group-10" transform="translate(100.791240, 137.014598) rotate(-8.000000) translate(-100.791240, -137.014598) translate(65.791240, 103.014598)">
                        <polygon id="Rectangle" fill="#2E578B" transform="translate(35.098742, 33.953422) rotate(12.000000) translate(-35.098742, -33.953422) " points="6.09874171 5.95342215 64.0987417 6.73071801 64.0987417 61.9534221 6.09874171 61.1761263"></polygon>
                        <polygon id="Rectangle" fill="#FBCE3B" transform="translate(40.724098, 11.037252) rotate(12.000000) translate(-40.724098, -11.037252) " points="33.7222327 7.03725227 47.5017512 7.14454831 47.7259628 15.0372523 33.9577019 14.9711187"></polygon>
                        <path d="M18.5172376,36.8274821 C19.1981099,36.8274821 19.6991291,37.3670413 19.6991291,37.9836804 C19.6991291,38.6388594 19.1981099,39.1398786 18.5172376,39.1398786 C17.8363653,39.1398786 17.3481927,38.6388594 17.3481927,37.9836804 C17.3481927,37.3670413 17.8363653,36.8274821 18.5172376,36.8274821 Z M27.3814242,35.4015043 L29.462581,35.8511369 C29.064335,38.0093737 27.3300376,39.2683451 25.1204143,39.2683451 C22.5639315,39.2683451 20.5470079,37.3028081 20.5470079,34.7720186 C20.5470079,32.2540757 22.5639315,30.275692 25.1204143,30.275692 C27.2401111,30.275692 29.0386417,31.5346635 29.4497344,33.5772804 L27.3685775,34.1039929 C27.0987979,32.8193282 26.2252259,32.2155358 25.1204143,32.2155358 C23.7586697,32.2155358 22.6667046,33.3075008 22.6667046,34.7720186 C22.6667046,36.2365363 23.7586697,37.341348 25.1204143,37.341348 C26.2123793,37.341348 27.0859513,36.7247089 27.3814242,35.4015043 Z M34.9480994,30.275692 C37.5174288,30.275692 39.5343525,32.2669223 39.5343525,34.7848652 C39.5343525,37.2899614 37.5174288,39.2683451 34.9480994,39.2683451 C32.37877,39.2683451 30.3618463,37.2899614 30.3618463,34.7848652 C30.3618463,32.2669223 32.37877,30.275692 34.9480994,30.275692 Z M34.9480994,37.3285014 C36.3483839,37.3285014 37.4146557,36.249383 37.4146557,34.7848652 C37.4146557,33.3075008 36.3483839,32.2155358 34.9480994,32.2155358 C33.5478148,32.2155358 32.4815431,33.3075008 32.4815431,34.7848652 C32.4815431,36.249383 33.5478148,37.3285014 34.9480994,37.3285014 Z M50.659549,30.4683917 L50.659549,39.0756454 L48.6040854,39.0756454 L48.6040854,34.4893923 L46.1889157,39.0756454 L45.2125705,39.0756454 L42.7845542,34.463699 L42.7845542,39.0756454 L40.7290907,39.0756454 L40.7290907,30.4683917 L42.8102475,30.4683917 L45.7007431,35.9282168 L48.5912388,30.4683917 L50.659549,30.4683917 Z" id=".COM" fill="#FFFFFF" fill-rule="nonzero" transform="translate(34.003871, 34.772019) rotate(12.000000) translate(-34.003871, -34.772019) "></path>
                    </g>
                    <path d="M71.4723032,167.093259 C71.4723032,170.730842 71.952143,159.854977 73.5061603,157.230839 C77.1348987,151.103296 75.496663,149.616975 76.2077141,146.954167 C76.9187653,144.29136 81.6800539,144.125277 82.7739947,147.860418 C83.8679355,151.595559 83.6254462,153.440786 83.5692241,156.578206 C83.5403406,158.190022 83.5837216,159.351116 83.5692241,162.418685 C87.464763,161.329208 97.8153969,163.634193 102.196855,166.806291 C103.805068,167.970608 83.6429236,171.866782 81.1368133,174.332409 C81.1368133,174.332409 72.2901207,173.772341 71.4723032,167.093259 Z" id="Path" fill="#4580C1"></path>
                    <polygon id="Path" fill="#FBCE3B" fill-rule="nonzero" points="128.154036 68.9336396 80.1141719 68.9336396 94.668776 55.0676434 142.696552 55.0676434"></polygon>
                    <path d="M80.4,67.5979381 L82.6,67.5979381 L82.6,95.1783505 C82.6,95.7858637 82.1075132,96.2783505 81.5,96.2783505 C80.8924868,96.2783505 80.4,95.7858637 80.4,95.1783505 L80.4,67.5979381 Z" id="Rectangle-Copy-14" fill="#ECA93F"></path>
                    <path d="M125.5,67.5979381 L127.7,67.5979381 L127.7,95.1783505 C127.7,95.7858637 127.207513,96.2783505 126.6,96.2783505 C125.992487,96.2783505 125.5,95.7858637 125.5,95.1783505 L125.5,67.5979381 Z" id="Rectangle-Copy-17" fill="#ECA93F"></path>
                    <path d="M93.6,55.4639175 L95.8,55.4639175 L95.8,88.5597938 C95.8,89.167307 95.3075132,89.6597938 94.7,89.6597938 C94.0924868,89.6597938 93.6,89.167307 93.6,88.5597938 L93.6,55.4639175 Z" id="Rectangle-Copy-15" fill="#ECA93F"></path>
                    <polygon id="Path" fill="#ECA93F" fill-rule="nonzero" points="80.1141719 68.9336396 78.9294948 58.9670764 94.3423854 42.7275123 94.668776 55.0676434"></polygon>
                    <polygon id="Path" fill="#ECA93F" fill-rule="nonzero" points="94.3423854 48.4490867 143.37351 49.6896602 142.696552 55.0676434 94.668776 55.0676434"></polygon>
                    <polygon id="Path" fill="#ECA93F" fill-rule="nonzero" points="78.9294948 58.9819588 38.1306667 77.5466506 38.1306667 82.5965374 80.8515729 68.948522"></polygon>
                    <polygon id="Path" fill="#ECA93F" fill-rule="nonzero" points="130.003583 64.9009962 153.636682 83.5262382 144.824135 84.6282519 120.236042 68.9336396"></polygon>
                    <path d="M141.846387,45.6842028 C137.204688,37.7508993 133.448324,33.4162689 130.577295,32.6803117 C126.270752,31.5763759 109.327772,29.2362661 103.605831,29.9974478 C99.7912037,30.5049024 95.7771996,32.8766237 91.5638184,37.1126118 C83.9138328,44.2257591 79.7023916,48.4709605 78.9294948,49.848216 C78.0302376,51.4506382 76.553399,56.9772745 78.9294948,58.9670764 C85.2176514,53.0089345 88.4862866,49.9866468 88.7354004,49.9002134 C91.0251976,49.105737 95.7470884,48.7715252 102.901073,48.8975779 L143.37351,49.9002134 L141.846387,45.6842028 Z" id="Path-5" fill="#FBCE3B"></path>
                    <path d="M58.2692966,14.4108761 L51.5754883,17.8548093 L86.7991354,52.9819588 L91.1470215,49.9002134 L99.3991699,49.848216 C88.1907227,41.8820308 74.4807649,30.0695842 58.2692966,14.4108761 Z" id="Path" fill="#ECA93F" fill-rule="nonzero"></path>
                    <polygon id="Path" fill="#ECA93F" fill-rule="nonzero" points="186.166504 28.5157055 189.037891 32.5203417 142.696552 55.0676434 135.041748 50.5"></polygon>
                    <path d="M32.2054127,81.9381443 C28.9167782,89.0581575 22.2053093,89.95486 12.071006,84.6282519 C9.16930752,87.4091156 26.066297,93.550695 36.0595703,92.8476563 C59.4911198,91.1992188 28.2747297,91.1992188 34.0991254,84.6282519 C33.0211572,83.8457754 32.3899196,82.9490729 32.2054127,81.9381443 Z" id="Path-6" fill="#FFFFFF"></path>
                    <path d="M50.4647355,67.9381443 C47.1761009,75.0581575 40.464632,75.95486 30.3303288,70.6282519 C27.4286302,73.4091156 44.3256197,79.550695 54.318893,78.8476563 C77.7504425,77.1992188 46.5340524,77.1992188 52.3584481,70.6282519 C51.2804799,69.8457754 50.6492424,68.9490729 50.4647355,67.9381443 Z" id="Path-6-Copy-4" fill="#FFFFFF" transform="translate(46.580479, 73.420714) scale(-1, -1) translate(-46.580479, -73.420714) "></path>
                    <path d="M141.464735,87 C138.176101,94.1200132 131.464632,95.0167157 121.330329,89.6901076 C118.42863,92.4709712 135.32562,98.6125506 145.318893,97.9095119 C168.750443,96.2610744 137.534052,96.2610744 143.358448,89.6901076 C142.28048,88.9076311 141.649242,88.0109286 141.464735,87 Z" id="Path-6-Copy" fill="#FFFFFF"></path>
                    <path d="M159.724058,73 C156.435424,80.1200132 149.723955,81.0167157 139.589651,75.6901076 C136.687953,78.4709712 153.584942,84.6125506 163.578216,83.9095119 C187.009765,82.2610744 155.793375,82.2610744 161.617771,75.6901076 C160.539803,74.9076311 159.908565,74.0109286 159.724058,73 Z" id="Path-6-Copy-5" fill="#FFFFFF" transform="translate(155.839802, 78.482570) scale(-1, -1) translate(-155.839802, -78.482570) "></path>
                    <path d="M180.464735,33 C177.176101,40.1200132 170.464632,41.0167157 160.330329,35.6901076 C157.42863,38.4709712 174.32562,44.6125506 184.318893,43.9095119 C207.750443,42.2610744 176.534052,42.2610744 182.358448,35.6901076 C181.28048,34.9076311 180.649242,34.0109286 180.464735,33 Z" id="Path-6-Copy-2" fill="#FFFFFF"></path>
                    <path d="M198.724058,19 C195.435424,26.1200132 188.723955,27.0167157 178.589651,21.6901076 C175.687953,24.4709712 192.584942,30.6125506 202.578216,29.9095119 C226.009765,28.2610744 194.793375,28.2610744 200.617771,21.6901076 C199.539803,20.9076311 198.908565,20.0109286 198.724058,19 Z" id="Path-6-Copy-6" fill="#FFFFFF" transform="translate(194.839802, 24.482570) scale(-1, -1) translate(-194.839802, -24.482570) "></path>
                    <path d="M47.4647355,18 C44.1761009,25.1200132 37.464632,26.0167157 27.3303288,20.6901076 C24.4286302,23.4709712 41.3256197,29.6125506 51.318893,28.9095119 C74.7504425,27.2610744 43.5340524,27.2610744 49.3584481,20.6901076 C48.2804799,19.9076311 47.6492424,19.0109286 47.4647355,18 Z" id="Path-6-Copy-3" fill="#FFFFFF"></path>
                    <path d="M65.7240582,4 C62.4354236,11.1200132 55.7239547,12.0167157 45.5896515,6.69010758 C42.687953,9.47097124 59.5849424,15.6125506 69.5782157,14.9095119 C93.0097652,13.2610744 61.7933751,13.2610744 67.6177708,6.69010758 C66.5398026,5.90763111 65.9085651,5.01092858 65.7240582,4 Z" id="Path-6-Copy-7" fill="#FFFFFF" transform="translate(61.839802, 9.482570) scale(-1, -1) translate(-61.839802, -9.482570) "></path>
                    <ellipse id="Oval" fill="#ECA93F" fill-rule="nonzero" cx="40.4757865" cy="79.0101524" rx="8.92134375" ry="4.44438481"></ellipse>
                    <ellipse id="Oval" fill="#ECA93F" fill-rule="nonzero" cx="148.559495" cy="84.6282519" rx="8.92134375" ry="4.44438481"></ellipse>
                    <ellipse id="Oval" stroke="#FFFFFF" stroke-width="2" fill-rule="nonzero" cx="53" cy="16.5" rx="35" ry="15.5"></ellipse>
                    <path d="M63.2627448,16.1338637 C63.2627448,18.5558718 59.2614375,20.5661385 54.341401,20.5661385 C49.4213646,20.5661385 45.4200573,18.5800919 45.4200573,16.1338637 C45.4200573,13.6876356 49.409276,11.6894789 54.341401,11.6894789 C59.273526,11.6894789 63.2627448,13.6755255 63.2627448,16.1338637 Z" id="Path" fill="#ECA93F" fill-rule="nonzero"></path>
                    <path d="M139.8,54.3608247 L142,54.3608247 L142,87.456701 C142,88.0642143 141.507513,88.556701 140.9,88.556701 C140.292487,88.556701 139.8,88.0642143 139.8,87.456701 L139.8,54.3608247 Z" id="Rectangle-Copy-16" fill="#ECA93F"></path>
                    <ellipse id="Oval" fill="#ECA93F" fill-rule="nonzero" cx="187.47251" cy="30.7143523" rx="8.92134375" ry="4.44438481"></ellipse>
                </g>
                <rect id="Rectangle-Copy-7" fill="#2D578A" x="323" y="405" width="30" height="12" rx="3"></rect>
                <rect id="Rectangle-Copy-8" fill="#2D578A" x="274" y="405" width="41" height="12" rx="3"></rect>
                <rect id="Rectangle-Copy-9" fill="#2D578A" x="304" y="388" width="25" height="12" rx="3"></rect>
                <rect id="Rectangle-Copy-5" fill="#2D578A" x="12" y="0" width="35" height="12" rx="3"></rect>
                <rect id="Rectangle-Copy-6" fill="#2D578A" x="0" y="20" width="25" height="12" rx="3"></rect>
            </g>
        </g>
    </g>
</svg>