<?xml version="1.0" encoding="UTF-8"?>
<svg width="436px" height="447px" viewBox="0 0 436 447" version="1.1" xmlns="http://www.w3.org/2000/svg" xmlns:xlink="http://www.w3.org/1999/xlink">
    <!-- Generator: sketchtool 55.2 (78181) - https://sketchapp.com -->
    <title>DA381A3C-9AEC-45D6-BCDE-C0E82606BD1C</title>
    <desc>Created with sketchtool.</desc>
    <g id="Page-1" stroke="none" stroke-width="1" fill="none" fill-rule="evenodd">
        <g id="Transfer-XL" transform="translate(-999.000000, -1826.000000)" fill-rule="nonzero">
            <g id="transfer-checklist-image" transform="translate(999.000000, 1826.000000)">
                <ellipse id="Oval" fill="#EBEFF3" cx="221" cy="406" rx="153" ry="41"></ellipse>
                <circle id="Oval" fill="#4580C1" cx="221.125" cy="214.804196" r="214.804196"></circle>
                <polygon id="Path" fill="#CED8DF" points="91.0690559 379.987762 130.95542 296.423077 206.920455 323.013986"></polygon>
                <polygon id="Path" fill="#FFFFFF" points="17 231.857517 396.833042 182.475524 203.120629 383.787587"></polygon>
                <polygon id="Path" fill="#EBEEF2" points="81.9038462 284.787587 91.0690559 380.050699 122.69493 317.84528 396.833042 182.538462"></polygon>
                <g id="PlantPower" transform="translate(75.704545, 96.000000)">
                    <g id="Rectangle-Copy-2" fill="#2D578A">
                        <path d="M5.61713287,87.9152098 L183.902098,0.944055944 C186.117751,-0.138032496 188.672673,-0.294999595 191.004124,0.507727804 C193.335575,1.3104552 195.252315,3.00703255 196.332168,5.22377622 L241.458042,97.7255245 L46.4711538,192.854895 L1.34527972,100.34528 C-0.90457431,95.7329877 1.0072582,90.1700128 5.61713287,87.9152098 Z" id="path-3"></path>
                    </g>
                    <g id="Rectangle-Copy-2-2" transform="translate(57.430070, 70.804196)" fill="#F58A51">
                        <polygon id="path-3-2" points="40.7910839 96.8050699 171.259615 0.73951049 184.027972 26.9213287 0.511363636 132.348776"></polygon>
                    </g>
                    <g id="Rectangle-Copy-2-3" transform="translate(28.321678, 114.860140)" fill="#FBCD3B">
                        <polygon id="path-3-3" points="66.7054196 55.5655594 18.2596154 77.9396853 0.605769231 41.7666084 141.222902 0.228146853"></polygon>
                    </g>
                    <path d="M48.0524476,146.08479 L85.6966783,127.722902 C87.6931572,126.746642 89.9959142,126.604391 92.0973705,127.327505 C94.1988269,128.050618 95.9264651,129.579732 96.8994755,131.577797 L96.8994755,131.577797 C98.9279103,135.735903 97.2021727,140.751108 93.0445804,142.780594 L55.4003497,161.142483 C51.2422439,163.170917 46.2270393,161.44518 44.1975524,157.287587 L44.1975524,157.287587 C42.1691177,153.129482 43.8948553,148.114277 48.0524476,146.08479 Z" id="Rectangle-4-Copy-7" fill="#F58A51"></path>
                    <path d="M42.6037467,143.648455 L259.55567,143.648455 L259.55567,162.899329 C259.55567,170.124894 253.698192,175.982371 246.472628,175.982371 L55.6867887,175.982371 C48.4612241,175.982371 42.6037467,170.124894 42.6037467,162.899329 L42.6037467,143.648455 Z" id="Path" fill="#FFFFFF" transform="translate(151.079708, 159.815413) rotate(-26.010000) translate(-151.079708, -159.815413) "></path>
                    <path d="M157.877622,156.823427 L174.15472,148.877622 C174.372738,148.77212 174.623754,148.757612 174.852474,148.837295 C175.081195,148.916979 175.268858,149.084316 175.374126,149.302448 L175.374126,149.302448 C175.479846,149.518344 175.495297,149.767438 175.417068,149.994745 C175.338839,150.222051 175.173363,150.408879 174.957168,150.513986 L158.672203,158.45979 C158.220284,158.680592 157.674908,158.494109 157.452797,158.042832 L157.452797,158.042832 C157.347294,157.824814 157.332787,157.573799 157.41247,157.345078 C157.492154,157.116357 157.659491,156.928694 157.877622,156.823427 L157.877622,156.823427 Z" id="Rectangle-7-Copy-11" fill="#4580C1"></path>
                    <path d="M138.09965,166.468531 L154.384615,158.530594 C154.836534,158.309792 155.38191,158.496275 155.604021,158.947552 L155.604021,158.947552 C155.709524,159.16557 155.724031,159.416586 155.644348,159.645306 C155.564665,159.874027 155.397327,160.06169 155.179196,160.166958 L138.902098,168.104895 C138.685397,168.21312 138.434347,168.22993 138.205152,168.15156 C137.975957,168.07319 137.78776,167.906187 137.682692,167.687937 L137.682692,167.687937 C137.46189,167.236018 137.648373,166.690643 138.09965,166.468531 Z" id="Rectangle-7-Copy-19" fill="#4580C1"></path>
                    <path d="M122.908217,169.827797 L129.925699,166.405594 C130.142564,166.300413 130.392433,166.286113 130.619881,166.365867 C130.847329,166.445622 131.033551,166.612837 131.137238,166.83042 L131.137238,166.83042 C131.245156,167.045961 131.261766,167.295871 131.183323,167.523799 C131.10488,167.751727 130.937989,167.938483 130.72028,168.041958 L123.710664,171.503497 C123.493963,171.611722 123.242914,171.628531 123.013719,171.550161 C122.784524,171.471791 122.596327,171.304788 122.491259,171.086538 L122.491259,171.086538 C122.372463,170.865606 122.349847,170.605516 122.428725,170.367395 C122.507602,170.129273 122.681018,169.934119 122.908217,169.827797 L122.908217,169.827797 Z" id="Rectangle-7-Copy-9" fill="#4580C1"></path>
                    <path d="M133.410839,164.706294 L146.273601,158.412587 C146.491619,158.307085 146.742635,158.292577 146.971355,158.37226 C147.200076,158.451944 147.387739,158.619281 147.493007,158.837413 L147.493007,158.837413 C147.598727,159.053309 147.614178,159.302403 147.535949,159.52971 C147.45772,159.757016 147.292244,159.943844 147.076049,160.048951 L134.213287,166.342657 C133.761368,166.56346 133.215992,166.376976 132.993881,165.925699 L132.993881,165.925699 C132.773079,165.47378 132.959562,164.928405 133.410839,164.706294 L133.410839,164.706294 Z" id="Rectangle-7-Copy-13" fill="#4580C1"></path>
                    <path d="M149.475524,156.870629 L170.716783,146.509615 C171.168702,146.288813 171.714078,146.475296 171.936189,146.926573 L171.936189,146.926573 C172.041692,147.144591 172.056199,147.395607 171.976516,147.624327 C171.896833,147.853048 171.729495,148.040711 171.511364,148.145979 L150.270105,158.506993 C150.052087,158.612496 149.801072,158.627003 149.572351,158.54732 C149.34363,158.467637 149.155967,158.300299 149.050699,158.082168 L149.050699,158.082168 C148.945518,157.865304 148.931218,157.615434 149.010972,157.387986 C149.090727,157.160538 149.257942,156.974316 149.475524,156.870629 Z" id="Rectangle-7-Copy-20" fill="#4580C1"></path>
                    <path d="M36.6136364,128.234266 L74.1162587,109.935315 C76.5344235,108.759437 79.4481088,109.762336 80.6302448,112.177448 L80.6302448,112.177448 C81.8061222,114.595612 80.8032233,117.509298 78.3881119,118.691434 L40.9090909,136.958916 C38.4909261,138.134794 35.5772409,137.131895 34.3951049,134.716783 L34.3951049,134.716783 C33.2369626,132.312869 34.2254542,129.424511 36.6136364,128.234266 Z" id="Rectangle-7-Copy-9-2" fill="#FFFFFF"></path>
                    <path d="M90.5113636,101.910839 L115.772727,89.583042 C116.933794,89.0161349 118.272562,88.933889 119.49429,89.3544114 C120.716018,89.7749339 121.720544,90.6637482 122.286713,91.8251748 L122.286713,91.8251748 C123.462591,94.2433396 122.459692,97.1570249 120.04458,98.3391608 L94.7753497,110.666958 C93.615439,111.233538 92.2778218,111.315574 91.0573678,110.894982 C89.8369138,110.474391 88.8338266,109.585703 88.2692308,108.424825 L88.2692308,108.424825 C87.7023237,107.263759 87.6200778,105.924991 88.0406002,104.703263 C88.4611227,103.481534 89.349937,102.477008 90.5113636,101.910839 L90.5113636,101.910839 Z" id="Rectangle-7-Copy-13-2" fill="#FFFFFF"></path>
                    <path d="M29.722028,110.509615 L135.84965,58.736014 C138.267815,57.5601365 141.1815,58.5630354 142.363636,60.9781469 L142.363636,60.9781469 C142.930216,62.1380575 143.012252,63.4756748 142.591661,64.6961287 C142.171069,65.9165827 141.282381,66.9196699 140.121503,67.4842657 L33.9938811,119.257867 C32.8343138,119.826615 31.4958949,119.909792 30.2748315,119.48899 C29.053768,119.068188 28.050752,118.178108 27.4877622,117.015734 L27.4877622,117.015734 C26.9206363,115.856789 26.8374463,114.519942 27.2565144,113.299628 C27.6755825,112.079313 28.5625362,111.075623 29.722028,110.509615 L29.722028,110.509615 Z" id="Rectangle-7-Copy-20-2" fill="#FFFFFF"></path>
                    <path d="M19.3374126,93.0367133 L40.5786713,82.6914336 C41.4370086,82.2714764 42.4272176,82.2104935 43.3305999,82.5219538 C44.2339821,82.833414 44.9762108,83.4916915 45.3933566,84.3513986 L45.3933566,84.3513986 C45.8133138,85.2097359 45.8742967,86.1999449 45.5628365,87.1033271 C45.2513762,88.0067093 44.5930987,88.7489381 43.7333916,89.1660839 L22.4921329,99.5113636 C21.6337956,99.9313208 20.6435866,99.9923037 19.7402043,99.6808434 C18.8368221,99.3693832 18.0945934,98.7111057 17.6774476,97.8513986 L17.6774476,97.8513986 C16.8074811,96.0634014 17.5503766,93.9086525 19.3374126,93.0367133 Z" id="Rectangle-7-Copy-20-3" fill="#FBCD3B"></path>
                    <path d="M124.505245,173.076923 L134.732517,168.104895 C135.184436,167.884093 135.729812,168.070576 135.951923,168.521853 L135.951923,168.521853 C136.057426,168.739871 136.071933,168.990886 135.99225,169.219607 C135.912567,169.448328 135.745229,169.635991 135.527098,169.741259 L125.299825,174.713287 C125.083124,174.821512 124.832075,174.838321 124.60288,174.759951 C124.373685,174.681582 124.185487,174.514578 124.08042,174.296329 L124.08042,174.296329 C123.974917,174.078311 123.960409,173.827295 124.040093,173.598575 C124.119776,173.369854 124.287113,173.182191 124.505245,173.076923 Z" id="Rectangle-7-Copy-14" fill="#4580C1"></path>
                    <path d="M86.3496503,187.662587 L110.926573,175.688811 C111.143275,175.580586 111.394324,175.563777 111.623519,175.642146 C111.852714,175.720516 112.040911,175.88752 112.145979,176.105769 L112.145979,176.105769 C112.366781,176.557688 112.180298,177.103064 111.729021,177.325175 L87.1756993,189.298951 C86.7237804,189.519753 86.1784049,189.33327 85.9562937,188.881993 L85.9562937,188.881993 C85.7320601,188.436335 85.9072629,187.893206 86.3496503,187.662587 L86.3496503,187.662587 Z" id="Rectangle-7-Copy-10" fill="#4580C1"></path>
                    <path d="M70.5288462,195.380245 L83.1162587,189.228147 C83.3321551,189.122427 83.5812496,189.106976 83.808556,189.185205 C84.0358624,189.263434 84.2226898,189.42891 84.3277972,189.645105 L84.3277972,189.645105 C84.4360225,189.861806 84.4528318,190.112855 84.3744619,190.34205 C84.2960921,190.571245 84.1290888,190.759443 83.9108392,190.86451 L71.3234266,197.024476 C71.1065623,197.129657 70.8566926,197.143957 70.6292448,197.064202 C70.4017969,196.984448 70.2155752,196.817233 70.1118881,196.59965 L70.1118881,196.59965 C70.0036628,196.382949 69.9868535,196.1319 70.0652234,195.902705 C70.1435933,195.67351 70.3105965,195.485313 70.5288462,195.380245 Z" id="Rectangle-7-Copy-9-3" fill="#4580C1"></path>
                    <path d="M84.5716783,192.327797 L109.125,180.346154 C109.576919,180.125352 110.122294,180.311835 110.344406,180.763112 L110.344406,180.763112 C110.565208,181.215031 110.378725,181.760406 109.927448,181.982517 L85.3741259,193.964161 C84.924103,194.167109 84.3942776,193.975396 84.1783217,193.531469 L84.1783217,193.531469 C83.9644535,193.089746 84.1382334,192.55798 84.5716783,192.327797 L84.5716783,192.327797 Z" id="Rectangle-7-Copy-13-3" fill="#4580C1"></path>
                    <path d="M72.1258741,198.660839 L80.9370629,194.357517 C81.3889818,194.136715 81.9343574,194.323198 82.1564685,194.774476 L82.1564685,194.774476 C82.3772708,195.226394 82.1907875,195.77177 81.7395105,195.993881 L72.9204545,200.297203 C72.7035903,200.402385 72.4537206,200.416684 72.2262727,200.33693 C71.9988249,200.257175 71.8126031,200.08996 71.7089161,199.872378 L71.7089161,199.872378 C71.6009983,199.656836 71.5843882,199.406927 71.6628309,199.178999 C71.7412736,198.951071 71.9081649,198.764314 72.1258741,198.660839 L72.1258741,198.660839 Z" id="Rectangle-7-Copy-14-2" fill="#4580C1"></path>
                    <polygon id="Rectangle-34" fill="#FBCD3B" transform="translate(117.848970, 174.641231) rotate(-26.010000) translate(-117.848970, -174.641231) " points="117.546086 170.086161 118.151855 170.086161 118.151855 179.196301 117.546086 179.196301"></polygon>
                    <path d="M208.313811,121.059441 C209.564685,123.616259 203.082168,129.343531 193.838287,133.859266 C184.594406,138.375 176.090035,139.948427 174.839161,137.391608 C173.588287,134.83479 180.070804,129.09965 189.322552,124.591783 C198.574301,120.083916 207.070804,118.502622 208.313811,121.059441" id="Fill-11" fill="#CED8DF"></path>
                    <path d="M164.926573,105.608392 C165.588666,103.812499 166.426656,102.08645 167.428322,100.45542 C166.356834,102.04723 165.514661,103.781893 164.926573,105.608392" id="Fill-13" fill="#83CDBF"></path>
                    <path d="M200.273601,110.13986 C195.136364,98.881993 188.842657,94.4055944 184.44493,92.5725524 C177.748464,91.8102206 171.18553,94.8444019 167.428322,100.439685 C166.426656,102.070716 165.588666,103.796765 164.926573,105.592657 C162.998615,111.832923 163.562533,118.577382 166.5,124.410839 C166.743881,124.898601 166.995629,125.378497 167.286713,125.842657 C179.32046,123.082095 190.600494,117.71065 200.328671,110.108392" id="Fill-15" fill="#F9FCFF"></path>
                    <path d="M204.443182,121.940559 C203.369534,117.874235 201.961774,113.903562 200.234266,110.069056 C190.530411,117.687462 179.272456,123.082794 167.255245,125.874126 C169.136284,129.221689 171.730837,132.114373 174.854895,134.347028 C178.898601,135.456294 184.633741,135.133741 192.611014,131.129371 C198.708042,128.234266 202.342657,125.032343 204.443182,121.940559 Z" id="Fill-17" fill="#EBEEF2"></path>
                    <path d="M200.273601,110.13986 C201.382867,109.258741 202.492133,108.322552 203.585664,107.347028 C203.467657,107.079545 203.341783,106.804196 203.208042,106.560315 C199.274476,98.4886364 191.942308,93.375 184.44493,92.5961538 C188.842657,94.3977273 195.136364,98.8898601 200.273601,110.163462" id="Fill-19" fill="#F1F8F9"></path>
                    <path d="M204.451049,122.011364 C205.004434,121.206768 205.483671,120.35362 205.882867,119.462413 C206.099782,115.293083 205.311944,111.132652 203.585664,107.331294 C202.492133,108.306818 201.382867,109.243007 200.273601,110.124126 C201.992961,113.963981 203.390252,117.940075 204.451049,122.011364" id="Fill-21" fill="#B6B9C2"></path>
                    <path d="M181.022727,94.3583916 C181.502622,95.3339161 179.653846,97.222028 176.90035,98.5673077 C174.146853,99.9125874 171.519231,100.203671 171.047203,99.2202797 C170.575175,98.2368881 172.408217,96.3566434 175.16958,95.0113636 C177.930944,93.6660839 180.542832,93.375 181.022727,94.3583916" id="Fill-23" fill="#F8F5F9"></path>
                    <path d="M179.921329,94.8933566 C180.298951,95.6800699 178.859266,97.1276224 176.711538,98.173951 C174.563811,99.2202797 172.518357,99.4484266 172.140734,98.6853147 C171.763112,97.9222028 173.210664,96.451049 175.358392,95.4047203 C177.506119,94.3583916 179.551573,94.1302448 179.921329,94.8933566" id="Fill-25" fill="#4C3D32"></path>
                    <path d="M220.759615,124.686189 C220.44493,124.827797 220.130245,124.977273 219.823427,125.134615 C209.761364,130.043706 202.680944,136.203671 203.994755,138.902098 C204.257136,139.374901 204.699927,139.721186 205.222028,139.861888 C208.313811,140.947552 216.157343,139.027972 224.590909,134.913462 C234.645105,130.004371 241.725524,123.836538 240.411713,121.138112 C239.097902,118.439685 230.444056,120.123252 220.759615,124.686189 Z" id="Path" fill="#CED8DF"></path>
                    <path d="M225.188811,99.0157343 C225.188811,99.0157343 210.902098,91.597028 206.905594,86.5384615 C203.632867,82.4318182 206.488636,73.9038462 207.692308,70.8041958 C205.867133,73.7701049 202.185315,76.8382867 197.221154,79.2456294 C193.644862,81.1010651 189.692149,82.1154783 185.664336,82.2115385 C189.361888,83.3994755 196.387238,86.4991259 197.504371,91.1486014 C199.01486,97.4423077 196.064685,113.23951 196.064685,113.23951 C196.064685,113.23951 193.193182,129.996503 206.000874,136.384615 C211.878554,136.153695 217.646235,134.718469 222.946678,132.167832 L223.253497,132.026224 L223.552448,131.876748 C228.830614,129.260446 233.514203,125.586412 237.312063,121.083042 C240.167832,107.055944 225.188811,99.0078671 225.188811,99.0078671" id="Fill-43" fill="#FFFFFF"></path>
                    <path d="M225.188811,99.0157343 C225.188811,99.0157343 210.902098,91.597028 206.905594,86.5384615 C203.632867,82.4318182 206.488636,73.9038462 207.692308,70.8041958 C205.910632,73.4185072 203.576884,75.6099213 200.855769,77.2237762 C199.762238,81.0786713 198.951923,86.3103147 201.296329,89.2604895 C205.308566,94.3033217 219.587413,101.722028 219.587413,101.722028 C219.587413,101.722028 234.534965,109.770105 231.718531,123.797203 C228.528474,127.587395 224.693175,130.783478 220.38986,133.237762 C221.223776,132.907343 222.073427,132.545455 222.938811,132.136364 L223.245629,131.994755 L223.54458,131.84528 C228.822747,129.228977 233.506336,125.554944 237.304196,121.051573 C240.159965,107.024476 225.180944,98.9763986 225.180944,98.9763986" id="Fill-45" fill="#EBEEF2"></path>
                    <path d="M207.369755,69.5690559 C208.777972,72.4562937 204.671329,77.3653846 198.188811,80.527972 C191.706294,83.6905594 185.310315,83.9108392 183.894231,81.0236014 C182.478147,78.1363636 186.600524,73.2351399 193.083042,70.0725524 C199.565559,66.909965 205.961538,66.6818182 207.369755,69.5690559" id="Fill-47" fill="#4F4C4A"></path>
                    <path d="M197.661713,68.3968531 C197.092705,69.568506 196.799378,70.8548383 196.804196,72.1573427 C195.059756,69.225329 193.056116,66.4555138 190.817308,63.8811189 C190.494755,63.5192308 190.172203,63.1809441 189.857517,62.8505245 C190.284421,61.7066899 190.189567,60.4333438 189.597902,59.3653846 C189.200019,60.1448597 188.934173,60.9849302 188.811189,61.8513986 C185.79021,59.0270979 182.800699,57.5166084 179.787587,55.8251748 C179.939209,53.9898037 179.670145,52.1440292 179.000874,50.4283217 C178.124753,51.7326064 177.799564,53.3302738 178.096154,54.8732517 C174.348892,52.7145467 171.106064,49.7801763 168.58479,46.2666084 C167.537289,44.8274924 166.761446,43.2091546 166.295455,41.4912587 C169.221755,40.3921253 171.184436,37.6225657 171.251748,34.4973776 C169.045043,35.9870317 167.248635,38.0079897 166.027972,40.3741259 C165.949301,39.965035 165.878497,39.5874126 165.823427,39.1704545 C167.870325,38.2610711 169.152773,36.1923039 169.056818,33.9545455 C168.54248,34.329952 168.072658,34.7628218 167.656469,35.2447552 C168.089668,34.3623928 168.243363,33.3688674 168.097028,32.3968531 C167.859194,32.613029 167.638268,32.8471053 167.436189,33.097028 C168.117331,32.0185552 168.333005,30.7103237 168.034091,29.4702797 C167.8044,29.7159585 167.593987,29.9789751 167.40472,30.256993 C167.397209,29.4497434 167.194789,28.6562564 166.814685,27.9440559 C166.111103,29.414282 165.783989,31.0363348 165.862762,32.6643357 C165.862762,32.7508741 165.799825,32.8531469 165.768357,32.9632867 C165.697981,31.5998638 165.31005,30.2717371 164.63549,29.0847902 C163.863189,30.7338517 164.205981,32.6899642 165.493007,33.9781469 C165.414336,34.2928322 165.335664,34.638986 165.26486,35.0087413 C165.004824,33.3938196 164.341921,31.8704961 163.337413,30.5795455 C163.03397,31.5991986 163.083871,32.6914581 163.479021,33.6791958 C163.114735,33.108449 162.687205,32.5806339 162.204545,32.1057692 C162.017014,33.1969787 162.156618,34.3192813 162.605769,35.3312937 C161.993388,34.6232369 161.292745,33.9966241 160.520979,33.4667832 C160.513694,36.2187732 162.240713,38.6769387 164.832168,39.6031469 C164.832168,39.9807692 164.832168,40.3898601 164.887238,40.7596154 C163.266332,38.5399789 161.097973,36.7781868 158.593531,35.645979 C159.216304,38.8321363 161.766418,41.2879177 164.973776,41.7902098 C165.203947,43.6500158 165.757752,45.4552067 166.61014,47.1241259 C167.705127,49.0860835 169.116599,50.8537462 170.787587,52.3557692 C169.110709,52.300252 167.44088,52.5977656 165.886364,53.229021 C167.723639,54.4269337 170.072426,54.5116838 171.991259,53.4493007 C175.342657,56.3916084 179.504371,59.1923077 183.272727,61.8671329 C181.998289,61.9377951 180.745212,62.2251248 179.567308,62.7167832 C181.209397,63.7812816 183.272835,63.9610955 185.074301,63.1966783 C186.592657,64.3138112 188.008741,65.4073427 189.22028,66.4851399 C192.02434,69.090636 194.274555,72.2345152 195.836538,75.729021 C195.546789,75.5141253 195.235713,75.3295887 194.908217,75.1783217 C195.073358,76.178135 195.70425,77.0397711 196.607517,77.4991259 C197.098365,78.662179 197.498168,79.8615876 197.803322,81.0865385 L200.163462,79.284965 C200.163462,79.284965 199.951049,77.7666084 197.197552,72.9912587 C198.251597,71.6881309 198.433816,69.8844718 197.661713,68.3968531 L197.661713,68.3968531 Z" id="Path" fill="#F58A51"></path>
                    <path d="M184.256119,81.6215035 C184.522883,81.7686223 184.8019,81.8923372 185.090035,81.9912587 C185.369926,82.0942479 185.656407,82.1783526 185.947552,82.243007 C186.529131,82.3756316 187.121648,82.4546338 187.717657,82.479021 C188.896739,82.5331781 190.077983,82.440687 191.234266,82.2036713 C192.394763,81.9695123 193.536073,81.6486832 194.648601,81.2438811 L195.47465,80.9291958 L196.261364,80.583042 L197.048077,80.229021 L197.83479,79.8435315 C199.988335,78.8427288 201.999015,77.5595977 203.813811,76.027972 C204.254516,75.6383539 204.674663,75.226084 205.072552,74.7928322 C205.466835,74.3576378 205.82964,73.8949301 206.158217,73.4082168 C206.490497,72.9104185 206.777485,72.3838356 207.015734,71.8347902 C207.135227,71.5589507 207.235125,71.27503 207.314685,70.9851399 C207.406583,70.6934384 207.467238,70.392801 207.495629,70.0882867 C207.579409,70.7106792 207.544708,71.3433021 207.393357,71.9527972 C207.2589,72.5698993 207.052965,73.1692238 206.77972,73.7386364 C206.504933,74.3109605 206.181174,74.8584539 205.812063,75.375 C205.438867,75.8873478 205.034243,76.3760488 204.600524,76.8382867 C203.726254,77.7424611 202.761397,78.5544166 201.721154,79.2613636 L200.934441,79.7727273 C200.659091,79.9379371 200.399476,80.1031469 200.147727,80.2604895 L199.361014,80.7089161 L198.527098,81.1337413 L197.677448,81.5270979 L196.81993,81.8968531 L195.946678,82.2272727 L195.057692,82.5262238 C193.857146,82.9109843 192.621082,83.1745374 191.368007,83.3129371 C190.740999,83.379724 190.110144,83.4033811 189.479895,83.3837413 C188.845521,83.3683329 188.213724,83.2972558 187.591783,83.1713287 C186.972188,83.0496095 186.36798,82.8596402 185.79021,82.6048951 C185.210471,82.3681122 184.677642,82.0297658 184.216783,81.6057692" id="Fill-49" fill="#FFFFFF"></path>
                    <path d="M151.520979,47.8951049 C150.057692,48.7683566 151.520979,49.7045455 151.520979,49.7045455 C150.99267,49.7714874 150.528553,50.0878344 150.273111,50.555105 C150.01767,51.0223757 150.001922,51.5838309 150.230769,52.0646853 C149.915835,52.5063077 149.83653,53.0739413 150.018368,53.5849685 C150.200206,54.0959957 150.620247,54.4859478 151.143357,54.6293706 C151.143357,54.6293706 149.522727,55.3295455 150.836538,56.4152098 C152.016608,57.3986014 162.637238,62.7089161 166.405594,56.2106643 C166.916484,55.3892516 167.268731,54.4792806 167.444056,53.527972 C167.444056,53.527972 167.444056,53.4414336 167.444056,53.4178322 C167.447196,53.381186 167.447196,53.3443385 167.444056,53.3076923 C167.411893,52.4134107 167.231101,51.5307195 166.909091,50.6958042 C164.375874,43.4659091 152.850524,47.1083916 151.520979,47.8951049 Z" id="Path" fill="#FBCD3B"></path>
                    <path d="M184.72028,37.5104895 C184.241789,36.7190581 183.452154,36.1656964 182.544937,35.9860494 C181.637719,35.8064023 180.69679,36.017078 179.952797,36.5664336 C179.952797,36.5664336 179.457168,34.9222028 178.261364,36.0708042 C177.065559,37.2194056 170.740385,47.013986 176.884615,51.3409091 C177.58229,51.8657611 178.364528,52.2675231 179.197552,52.5288462 L179.307692,52.5288462 L179.417832,52.5288462 C180.286842,52.6006786 181.161746,52.5262187 182.006119,52.3085664 C189.322552,50.6407343 187.088287,39.0288462 186.47465,37.6520979 C185.79021,36.1888112 184.72028,37.5104895 184.72028,37.5104895 Z" id="Path" fill="#FBCD3B"></path>
                    <path d="M193.366259,52.4895105 C193.076347,52.0683017 192.624307,51.7866508 192.118442,51.7120396 C191.612578,51.6374283 191.098472,51.7765797 190.699301,52.0961538 C190.699301,52.0961538 190.384615,51.1993007 189.747378,51.868007 C189.11014,52.5367133 185.868881,58.1617133 189.401224,60.3723776 C189.804037,60.6394167 190.24784,60.8387293 190.715035,60.9624126 L190.770105,60.9624126 L190.833042,60.9624126 C191.315142,60.98462 191.79734,60.9206822 192.256993,60.7736014 C196.269231,59.6564685 194.719406,53.2762238 194.341783,52.5288462 C193.964161,51.7814685 193.366259,52.4895105 193.366259,52.4895105 Z" id="Path" fill="#FBCD3B"></path>
                    <path d="M184.130245,69.0734266 C177.301573,74.013986 173.832168,82.2508741 174.31993,90.5979021 C174.386717,91.6959807 174.520709,92.7889367 174.721154,93.8706294 C174.500874,93.6267483 174.280594,93.3828671 174.052448,93.1468531 C170.339161,85.8225524 166.232517,78.1993007 159.207168,73.6442308 C158.774476,73.361014 157.987762,74.2263986 158.491259,74.548951 C164.47028,78.4825175 168.301573,84.6188811 171.582168,90.8811189 C167.406923,87.3464833 162.16454,85.3182464 156.697552,85.1223776 C154.471421,85.0749317 152.251043,85.3667377 150.112762,85.9877622 C149.710351,86.1184293 149.374591,86.4005806 149.176573,86.7744755 C149.050699,87.0812937 149.129371,87.2307692 149.483392,87.1284965 C158.923951,84.4064685 168.608392,88.9379371 174.524476,96.333042 C170.85066,94.0413309 166.627842,92.7804638 162.298951,92.6826923 C156.85813,92.6631286 151.607081,94.6810358 147.579545,98.3391608 C147.437937,98.465035 146.926573,98.9291958 147.131119,99.1652098 C147.335664,99.4012238 147.917832,98.9449301 148.012238,98.8347902 C151.878118,95.4384435 156.925573,93.7003782 162.062937,93.9965035 C166.639529,94.2785547 171.042335,95.8525439 174.76049,98.5358392 C175.004371,98.7089161 175.484266,98.4020979 175.806818,98.0559441 L175.909091,98.1975524 C176.082168,98.4571678 176.892483,97.9300699 177.175699,97.458042 C177.52972,97.6232517 178.615385,96.7736014 178.481643,96.3723776 C176.29458,89.5909091 177.466783,81.1337413 183.532343,76.7045455 C183.70542,76.5708042 184.319056,76.0987762 184.201049,75.8155594 C184.083042,75.5323427 183.642483,75.8155594 183.469406,75.909965 C180.263523,78.234817 177.915464,81.5536282 176.79021,85.3505245 C176.111388,87.7286942 175.88719,90.2135575 176.129371,92.6748252 C174.744755,84.2491259 177.073427,75.020979 184.22465,69.8601399 C184.397727,69.7263986 185.011364,69.2465035 184.893357,68.9711538 C184.77535,68.6958042 184.303322,68.9475524 184.130245,69.0734266 Z" id="Path" fill="#4580C1"></path>
                    <path d="M180.715909,61.4895105 C176.95542,56.2421329 168.52972,61.8513986 167.648601,62.7954545 C166.767483,63.7395105 168.089161,64.2508741 168.089161,64.2508741 C167.624012,64.8930799 167.450265,65.7012461 167.610379,66.4778769 C167.770494,67.2545076 168.249719,67.9280534 168.930944,68.3339161 C168.930944,68.3339161 167.798077,69.2701049 169.104021,69.8444056 C170.409965,70.4187063 180.251748,72.2045455 181.620629,65.9108392 C181.805634,65.1841042 181.861554,64.4305222 181.785839,63.6844406 C181.788395,63.6530239 181.788395,63.6214516 181.785839,63.590035 C181.785839,63.590035 181.785839,63.4956294 181.785839,63.4956294 C181.542991,62.7721833 181.181406,62.0942105 180.715909,61.4895105 Z" id="Path" fill="#FBCD3B"></path>
                    <path d="M176.971454,11.9110424 L187.694356,11.9110424 C188.104949,11.9110424 188.4378,12.2438937 188.4378,12.6544865 C188.4378,13.0650793 188.104949,13.3979305 187.694356,13.3979305 L176.971454,13.3979305 C176.560861,13.3979305 176.22801,13.0650793 176.22801,12.6544865 C176.22801,12.2438937 176.560861,11.9110424 176.971454,11.9110424 Z" id="Rectangle" fill="#FFFFFF" transform="translate(182.332905, 12.654486) rotate(-26.010000) translate(-182.332905, -12.654486) "></path>
                    <path d="M178.638101,15.3259718 L189.361003,15.3259718 C189.771595,15.3259718 190.104447,15.658823 190.104447,16.0694158 C190.104447,16.4800087 189.771595,16.8128599 189.361003,16.8128599 L178.638101,16.8128599 C178.227508,16.8128599 177.894656,16.4800087 177.894656,16.0694158 C177.894656,15.658823 178.227508,15.3259718 178.638101,15.3259718 Z" id="Rectangle" fill="#FFFFFF" transform="translate(183.999552, 16.069416) rotate(-26.010000) translate(-183.999552, -16.069416) "></path>
                    <path d="M180.308197,18.7479715 L191.031099,18.7479715 C191.441692,18.7479715 191.774543,19.0808227 191.774543,19.4914156 C191.774543,19.9020084 191.441692,20.2348596 191.031099,20.2348596 L180.308197,20.2348596 C179.897604,20.2348596 179.564753,19.9020084 179.564753,19.4914156 C179.564753,19.0808227 179.897604,18.7479715 180.308197,18.7479715 Z" id="Rectangle" fill="#FFFFFF" transform="translate(185.669648, 19.491416) rotate(-26.010000) translate(-185.669648, -19.491416) "></path>
                </g>
                <polygon id="Path" fill="#FFFFFF" points="321.812063 219.506119 125.322552 316.492133 194.026224 337.277098 330.363636 235.649476"></polygon>
                <polygon id="Path" fill="#CED8DF" points="19.5218531 136.966783 29.5839161 115.882867 48.7482517 122.585664"></polygon>
                <polygon id="Path" fill="#FFFFFF" points="0.829545455 99.590035 96.666958 87.1284965 47.7963287 137.918706"></polygon>
                <polygon id="Path" fill="#EBEEF2" points="17.2089161 112.924825 19.5218531 136.966783 27.4991259 121.271853 96.666958 87.1284965"></polygon>
                <polygon id="Path" fill="#FFFFFF" points="77.7386364 96.4746503 28.159965 120.941434 53.0673077 119.714161 79.8942308 100.549825"></polygon>
                <path d="M55.6634615,106.159091 L37.5061189,114.938811 C36.874024,115.244175 36.1464236,115.285569 35.4837747,115.053863 C34.8211258,114.822157 34.2778575,114.336384 33.9737762,113.703671 L26.1066434,97.3557692 C25.3224208,95.7240106 26.0046324,93.7652894 27.6328671,92.9737762 L44.6494755,84.7447552 C45.4329325,84.3659183 46.3348102,84.3138932 47.1566321,84.6001292 C47.9784539,84.8863652 48.6528727,85.4874056 49.0314685,86.270979 L56.8986014,102.618881 C57.2042903,103.252129 57.2458934,103.980878 57.014258,104.644801 C56.7826227,105.308724 56.2967244,105.853433 55.6634615,106.159091 Z" id="Path" fill="#2D578A"></path>
                <polygon id="Path" fill="#CED8DF" points="98.9248252 60.1835664 104.699301 45.7867133 117.68007 49.4134615"></polygon>
                <polygon id="Path" fill="#FFFFFF" points="84.9527972 36.2124126 147.913462 23.8846154 117.695804 59.6092657"></polygon>
                <polygon id="Path" fill="#EBEEF2" points="96.368007 44.3548951 98.9248252 60.1835664 103.542832 49.4449301 147.913462 23.8846154"></polygon>
                <polygon id="Path" fill="#FFFFFF" points="135.774476 30.8784965 103.967657 49.201049 120.417832 47.3286713 137.379371 33.4825175"></polygon>
                <path d="M121.558566,38.2342657 L109.907343,44.8426573 C109.059468,45.3154415 107.989002,45.0171151 107.507867,44.173951 L101.583916,33.6791958 C101.290319,33.1709791 101.214969,32.5655526 101.375035,32.0008737 C101.535101,31.4361949 101.916949,30.9603677 102.433566,30.6818182 L113.361014,24.5061189 C114.398012,23.9099105 115.721756,24.2610363 116.326923,25.2928322 L122.250874,35.7875874 C122.493543,36.2016171 122.55686,36.6967078 122.426197,37.1584826 C122.295534,37.6202574 121.982194,38.0087701 121.558566,38.2342657 L121.558566,38.2342657 Z" id="Path" fill="#2D578A"></path>
                <polygon id="Path" fill="#CED8DF" points="287.523601 82.5891608 303.98951 63.6293706 322.500874 75.965035"></polygon>
                <polygon id="Path" fill="#FFFFFF" points="277.925699 38.6984266 383.109266 52.8199301 317.284965 91.541958"></polygon>
                <polygon id="Path" fill="#EBEEF2" points="291.653846 57.0917832 287.523601 82.5891608 300.299825 68.6171329 383.109266 52.8199301"></polygon>
                <polygon id="Path" fill="#FFFFFF" points="360.451923 57.138986 301.094406 68.4676573 327.874126 74.2106643 361.624126 61.9615385"></polygon>
                <path d="M334.348776,60.9309441 L312.659091,64.8645105 C311.094791,65.1605274 309.579796,64.1551851 309.244755,62.5987762 L305.311189,43.4737762 C305.130238,42.55438 305.328003,41.6008665 305.859677,40.8292734 C306.39135,40.0576804 307.211927,39.5333212 308.13549,39.375 L328.464161,35.6695804 C330.401845,35.3097025 332.275336,36.5528931 332.696678,38.4781469 L336.630245,57.6031469 C336.786222,58.3488207 336.630821,59.1258495 336.200052,59.7541778 C335.769283,60.3825062 335.100537,60.8075959 334.348776,60.9309441 L334.348776,60.9309441 Z" id="Path" fill="#2D578A"></path>
                <polygon id="Path" fill="#FFFFFF" points="150.187063 72.2832168 117.593531 76.5157343 123.163462 81.0629371 123.950175 89.229021 129.701049 86.4047203 133.563811 89.5594406"></polygon>
                <polygon id="Path" fill="#FFFFFF" points="322.618881 111.917832 290.017483 116.158217 295.587413 120.70542 296.374126 128.871503 302.125 126.039336 305.995629 129.194056"></polygon>
            </g>
        </g>
    </g>
</svg>