<?xml version="1.0" encoding="UTF-8"?>
<svg width="72px" height="72px" viewBox="0 0 72 72" version="1.1" xmlns="http://www.w3.org/2000/svg" xmlns:xlink="http://www.w3.org/1999/xlink">
    <!-- Generator: sketchtool 55.2 (78181) - https://sketchapp.com -->
    <title>166F692E-911B-4033-8028-F625017AF885</title>
    <desc>Created with sketchtool.</desc>
    <g id="Page-1" stroke="none" stroke-width="1" fill="none" fill-rule="evenodd">
        <g id="Domain-Register---XL" transform="translate(-813.000000, -4463.000000)" fill-rule="nonzero">
            <g id="xl_product-toolkit-copy" transform="translate(472.000000, 3822.000000)">
                <g id="Group-2" transform="translate(0.000000, 641.000000)">
                    <g id="KB-01-Copy" transform="translate(341.000000, 0.000000)">
                        <g id="color-icon_study">
                            <g id="icon_cloud-storage" fill="#FF8D4E">
                                <g id="Oval">
                                    <circle cx="35.94" cy="35.94" r="35.94"></circle>
                                </g>
                            </g>
                            <path d="M54.65,56 L16.56,56 C13.03,56 10.18,55.69 10.18,51.92 L10.18,26.55 C10.18,22.79 13,22 16.56,22 L54.65,19.72 C58.18,19.72 61.03,28.85 61.03,26.53 L61.03,51.92 C61,55.69 58.18,56 54.65,56 Z" id="Path" fill="#EBEEF2"></path>
                            <path d="M35.6701782,20.91 L35.6701782,55.54 C34,53.81 30.58,50.35 23,50.35 C19.4307091,50.3309401 15.8817385,50.8881048 12.49,52 C12.3160442,52.0589759 12.1336801,52.0893699 11.95,52.09 C11.5894538,52.0929169 11.2379949,51.9769355 10.95,51.76 C10.505543,51.4326876 10.2451757,50.911953 10.2499341,50.36 L10.2499341,19.17 C10.2472507,18.6903309 10.4426402,18.2308038 10.79,17.9 C13.17,15.67 18.4,14 23,14 C29.24,14 32.87,17.47 34.82,19.33 L35.16,19.65 C35.4928349,19.9841218 35.6767246,20.4384375 35.6701782,20.91 Z M35.67,20.91 L35.67,55.54 C37.37,53.81 40.75,50.35 48.38,50.35 C51.9223898,50.340552 55.4435044,50.8975835 58.81,52 C58.9839558,52.0589759 59.1663199,52.0893699 59.35,52.09 C59.710314,52.0914444 60.0613152,51.975614 60.35,51.76 C60.794457,51.4326876 61.0548243,50.911953 61.0500659,50.36 L61.0500659,19.17 C61.0481062,18.6912749 60.8534587,18.2334928 60.51,17.9 C58.12,15.67 52.9,14 48.34,14 C42.09,14 38.46,17.47 36.51,19.33 C36.4,19.45 36.28,19.55 36.18,19.65 C35.8324582,19.9773849 35.633772,20.4325568 35.63,20.91 L35.67,20.91 Z" id="Shape" fill="#FFFFFF"></path>
                            <path d="M23.36,31.28 C23.0922829,25.1886074 26.6304878,19.5698634 32.2395154,17.1791426 C37.8485429,14.7884218 44.3521746,16.1270606 48.5610959,20.5386043 C52.7700172,24.950148 53.8016133,31.5094915 51.15,37 L63.82,49.7 C62.9338858,52.6172089 60.6486612,54.8986811 57.73,55.78 L45.28,43.31 C40.8576018,45.8588996 35.4264588,45.9185825 30.9491156,43.4674822 C26.4717724,41.0163819 23.5956364,36.4089186 23.36,31.31 L23.36,31.28 Z" id="Path" fill="#FBCE3B"></path>
                            <circle id="Oval" fill="#ECA93F" transform="translate(37.981625, 30.634351) rotate(-71.580000) translate(-37.981625, -30.634351) " cx="37.981625" cy="30.6343507" r="10.45"></circle>
                            <path d="M51.15,37 L63.82,49.7 C62.9338858,52.6172089 60.6486612,54.8986811 57.73,55.78 L45.28,43.31 C47.8231321,41.8403521 49.8676837,39.6425463 51.15,37 L51.15,37 Z" id="Path" fill="#4480C5"></path>
                            <path d="M48,46 L45.31,43.3 C47.8405328,41.8283324 49.8740475,39.6346436 51.15,37 L54.06,39.92 L48,46 Z" id="Path" fill="#3A679D"></path>
                        </g>
                    </g>
                </g>
            </g>
        </g>
    </g>
</svg>