<?xml version="1.0" encoding="UTF-8"?>
<svg width="72px" height="72px" viewBox="0 0 72 72" version="1.1" xmlns="http://www.w3.org/2000/svg" xmlns:xlink="http://www.w3.org/1999/xlink">
    <!-- Generator: sketchtool 55.2 (78181) - https://sketchapp.com -->
    <title>645E7598-F3CA-46A8-B868-B643C40230E5</title>
    <desc>Created with sketchtool.</desc>
    <g id="Page-1" stroke="none" stroke-width="1" fill="none" fill-rule="evenodd">
        <g id="Domain-Register---XL" transform="translate(-472.000000, -4468.000000)" fill-rule="nonzero">
            <g id="xl_product-toolkit-copy" transform="translate(472.000000, 3822.000000)">
                <g id="Group-2" transform="translate(0.000000, 641.000000)">
                    <g id="KB-01" transform="translate(0.000000, 5.000000)">
                        <g id="color-icon_blog">
                            <g id="icon_cloud-storage" fill="#4480C5">
                                <g id="Oval">
                                    <circle cx="35.94" cy="35.94" r="35.94"></circle>
                                </g>
                            </g>
                            <path d="M53.17,15.88 L50.11,15.88 L50.11,12.82 C50.0173106,11.2005847 48.6770657,9.93485708 47.055,9.93485708 C45.4329343,9.93485708 44.0926894,11.2005847 44,12.82 L44,15.88 L37.88,15.88 L37.88,12.82 C37.7873106,11.2005847 36.4470657,9.93485708 34.825,9.93485708 C33.2029343,9.93485708 31.8626894,11.2005847 31.77,12.82 L31.77,15.88 L25.65,15.88 L25.65,12.82 C25.5573106,11.2005847 24.2170657,9.93485708 22.595,9.93485708 C20.9729343,9.93485708 19.6326894,11.2005847 19.54,12.82 L19.54,15.88 L16.48,15.88 C15.6693541,15.8799956 14.8920554,16.2027064 14.3197811,16.7768569 C13.7475068,17.3510075 13.4273421,18.1293585 13.4299836,18.94 L13.4299836,55.63 C13.4299836,56.4343888 13.7528131,57.2051268 14.326283,57.7691956 C14.899753,58.3332643 15.6757229,58.6434065 16.48,58.6304173 L45,58.6304173 C46.69,58.6304173 56.23,49.63 56.23,47.95 L56.23,18.94 C56.23,17.2500087 54.8599913,15.88 53.17,15.88 Z" id="Path" fill="#FFFFFF"></path>
                            <path d="M53.17,15.88 L50.11,15.88 L50.11,12.82 C50.0173106,11.2005847 48.6770657,9.93485708 47.055,9.93485708 C45.4329343,9.93485708 44.0926894,11.2005847 44,12.82 L44,15.88 L37.88,15.88 L37.88,12.82 C37.7873106,11.2005847 36.4470657,9.93485708 34.825,9.93485708 C33.2029343,9.93485708 31.8626894,11.2005847 31.77,12.82 L31.77,15.88 L25.65,15.88 L25.65,12.82 C25.5573106,11.2005847 24.2170657,9.93485708 22.595,9.93485708 C20.9729343,9.93485708 19.6326894,11.2005847 19.54,12.82 L19.54,15.88 L16.48,15.88 C15.6693541,15.8799956 14.8920554,16.2027064 14.3197811,16.7768569 C13.7475068,17.3510075 13.4273421,18.1293585 13.4299836,18.94 L13.4299836,23.23 L56.23,23.23 L56.23,18.94 C56.23,17.2500087 54.8599913,15.88 53.17,15.88 Z" id="Path" fill="#EBEEF2"></path>
                            <path d="M67.45,38.18 C67.797354,37.8400913 67.9952338,37.3759732 68,36.89 C67.9944916,32.866128 64.733872,29.6055084 60.71,29.6 C60.2299304,29.6 59.7694967,29.7905758 59.43,30.13 L39.43,50.18 C39.0872392,50.5221731 38.8932093,50.9856891 38.89,51.47 L38.89,58.760029 L46.18,58.760029 C46.6635322,58.7627368 47.1280568,58.5718856 47.47,58.23 L67.45,38.18 Z" id="Path" fill="#FF8D4E"></path>
                            <rect id="Rectangle" fill="#ECA93F" x="18.38" y="13.32" width="7.56" height="8.64" rx="3.09"></rect>
                            <rect id="Rectangle" fill="#ECA93F" x="31.05" y="13.32" width="7.56" height="8.64" rx="3.09"></rect>
                            <rect id="Rectangle" fill="#ECA93F" x="43.22" y="13.32" width="7.56" height="8.64" rx="3.09"></rect>
                            <rect id="Rectangle" fill="#FBCE3B" x="18.38" y="9" width="7.56" height="11" rx="3.48"></rect>
                            <rect id="Rectangle" fill="#FBCE3B" x="31.05" y="9" width="7.56" height="11" rx="3.48"></rect>
                            <rect id="Rectangle" fill="#FBCE3B" x="43.22" y="9" width="7.56" height="11" rx="3.48"></rect>
                            <rect id="Rectangle" fill="#4480C5" x="18.38" y="30.6" width="29.16" height="3.36" rx="1.68"></rect>
                            <rect id="Rectangle" fill="#FF8D4E" x="18.38" y="38.12" width="19.44" height="3.36" rx="1.68"></rect>
                            <rect id="Rectangle" fill="#4480C5" x="18.38" y="45.64" width="16.2" height="3.36" rx="1.68"></rect>
                            <path d="M57.5,32.17 C56.9871378,32.1772977 56.4966817,32.3813561 56.13,32.74 L34.94,53.93 C34.580216,54.2910324 34.3787501,54.7803066 34.3799942,55.29 L34.3799942,63 L42.08,63 C42.5914746,62.9953882 43.0817441,62.7949861 43.45,62.44 L64.64,41.24 C64.999784,40.8789676 65.2012499,40.3896934 65.2000058,39.88 C65.2000058,35.6257868 61.7542097,32.1755178 57.5,32.17 L57.5,32.17 Z" id="Path" fill="#FBCE3B"></path>
                            <path d="M34.94,53.93 C34.580216,54.2910324 34.3787501,54.7803066 34.3799942,55.29 L34.3799942,63 L42.08,63 C42.5914746,62.9953882 43.0817441,62.7949861 43.45,62.44 C43.5167044,60.219191 42.6498596,58.0720272 41.06,56.52 C39.4251077,54.9075459 37.2357094,53.9809868 34.94,53.93 Z" id="Path" fill="#ECA93F"></path>
                        </g>
                    </g>
                </g>
            </g>
        </g>
    </g>
</svg>