<?xml version="1.0" encoding="UTF-8"?>
<svg width="260px" height="386px" viewBox="0 0 260 386" version="1.1" xmlns="http://www.w3.org/2000/svg" xmlns:xlink="http://www.w3.org/1999/xlink">
    <!-- Generator: sketchtool 55.2 (78181) - https://sketchapp.com -->
    <title>67C3DD4C-4CE8-44F7-B753-A8FEC1491F8E</title>
    <desc>Created with sketchtool.</desc>
    <g id="Page-1" stroke="none" stroke-width="1" fill="none" fill-rule="evenodd">
        <g id="Domain-Register---XL" transform="translate(-1514.000000, -224.000000)">
            <g id="Customer-Window-Search" transform="translate(1514.000000, 224.000000)">
                <g id="hero_graphic_02" transform="translate(37.000000, 39.000000)">
                    <polygon id="Rectangle" fill="#2E578C" fill-rule="nonzero" points="4 3 154 3 154 258 4 258"></polygon>
                    <polygon id="Rectangle-2" fill="#2E578C" fill-rule="nonzero" points="27 261 131 261 120.112419 274 37.8875807 274"></polygon>
                    <g id="Rectangle-3" transform="translate(13.000000, 11.000000)" fill="#FBCD3B" fill-rule="nonzero">
                        <polygon id="path-1-2" points="0 0 132 0 132 241 0 241"></polygon>
                    </g>
                    <g id="binoculars" transform="translate(9.000000, 65.000000)">
                        <path d="M30.6692754,48.935249 C30.6692754,48.935249 42.6727536,87.9236678 48.7681159,94.6847507 C48.7681159,94.6847507 55.2034783,84.8217559 64.5362319,87.7806543 L41.7956522,50.4492188 L30.6692754,48.935249 Z" id="Path" fill="#102038" fill-rule="nonzero"></path>
                        <path d="M39.4057971,15.287642 C39.4057971,15.287642 13.9057971,43.6437523 31.1373913,83.8354564 C32.9211594,87.9877772 26.5942029,98.1367989 34.4782609,105.534045 C34.4782609,105.534045 24.6231884,138.081928 44.826087,138.081928 C49.2608696,138.081928 45.1118841,91.326401 47.2898551,90.7395528 C47.2898551,90.7395528 38.4202899,67.3395975 38.9524638,47.3423754 L39.4057971,15.287642 Z" id="Path" fill="#142747" fill-rule="nonzero"></path>
                        <path d="M102.226957,48.935249 C102.226957,48.935249 94.7187616,91.1932505 89.2984718,94.6847507 C89.2984718,94.6847507 77.7568116,84.7625779 67.9855072,86.3012051 L91.1005797,50.4492188 L102.226957,48.935249 Z" id="Path" fill="#102038" fill-rule="nonzero"></path>
                        <path d="M95.2898551,51.5538742 C98.0827738,76.001935 86.0861412,94.6847507 89.2984718,94.6847507 C91.4491476,95.4146124 60.6491497,141.533976 91.6336419,140.054527 C112.191573,139.068228 101.121918,103.068296 101.121918,103.068296 C106.920309,97.6436492 100.890912,85.663338 102.920349,80.8896484 C114.532202,53.5934941 105.926036,33.1686215 98.0827738,21.8837879 C93.5640076,15.3822171 89.2984718,11.9144978 89.2984718,11.9144978 C89.2984718,11.9144978 94.1316425,41.4153583 95.2898551,51.5538742 Z" id="Path" fill="#142747" fill-rule="nonzero"></path>
                        <path d="M92.7850121,169.930091 L92.7850121,165.259963 C92.7850121,163.791947 91.5665886,162.601886 90.0635869,162.601886 L50.6811817,162.601886 C50.2493464,162.602893 49.8235108,162.503139 49.4391212,162.310927 C48.6522775,161.914834 47.7171859,161.918057 46.9332242,162.319565 C46.1492626,162.721074 45.6147744,163.4705 45.5008807,164.32791 C43.4257309,179.97062 42.0927879,221.498681 43.8750942,195.687224 C43.9783752,194.296702 58.9984004,190.818846 60.4258025,190.819914 L78.364993,190.819914 C79.7806254,190.817852 92.6944821,194.309174 92.8102572,195.687224 C94.875309,220.260875 93.9715333,178.387609 92.8102572,170.270364 C92.7952908,170.157494 92.7868624,170.043889 92.7850121,169.930091 Z" id="Path" fill="#FF6B17" fill-rule="nonzero"></path>
                        <path d="M101.246377,55.4793461 C101.246377,55.4793461 141.165039,79.2417665 124.574219,102 C112.405439,118.692359 92.1849985,99.7089844 92.3768116,101.835422" id="Path" stroke="#D3A977" stroke-width="9.3632"></path>
                        <path d="M32.9704348,55.4793461 C11.0898438,51.5538742 -11.7279952,94.1205203 8.88378906,109.81415 C26.3301525,123.097656 41.3472464,102.821721 41.3472464,102.821721" id="Path" stroke="#D3A977" stroke-width="9.3632"></path>
                        <path d="M99.2318841,97.3921428 C93.8115942,87.0359982 76.8550725,83.8354564 76.8550725,83.8354564 L57.7263768,83.9587438 C57.7263768,83.9587438 43.3478261,87.2875046 35.9565217,99.1230984 C36.942029,104.054596 40.6675362,108.088561 43.017971,107.851849 C41.4366064,110.257784 40.5938127,113.074497 40.5936232,115.954299 C40.5973575,119.417792 41.818386,122.769591 44.0428986,125.422774 L43.6336232,167.361168 C49.0547826,173.925781 52.4942029,175.948242 67.9855072,175.948242 C83.4768116,175.948242 89.8192882,171.663656 93.1574889,169.652344 L90.0510145,124.594283 C91.713415,122.325275 92.7684748,119.668529 93.115942,116.876489 C93.3918841,114.346631 93.1701449,110.332392 91.6376812,107.999794 C94.1457971,107.915958 100.217391,101.337341 99.2318841,97.3921428 Z" id="Path" fill="#2E578B" fill-rule="nonzero"></path>
                        <path d="M53.5724638,85.3592891 L53.602029,86.4738075 C53.602029,92.4803714 59.6826087,97.3921428 67.1133333,97.3921428 L67.1133333,97.3921428 C74.5489855,97.3921428 80.6295652,92.4606454 80.6295652,86.4738075 L80.6295652,85.0535362 L76.6037681,83.5297035 L57.7805797,83.554361 L53.5724638,85.3592891 Z" id="Path" fill="#EBEEF2" fill-rule="nonzero"></path>
                        <rect id="Rectangle" fill="#C1996A" fill-rule="nonzero" x="57.6278261" y="65.0316567" width="18.975942" height="28.4202197" rx="9.244928"></rect>
                        <ellipse id="Oval" fill="#D3A977" fill-rule="nonzero" cx="67.1478261" cy="44.7138872" rx="33.6944928" ry="33.7215795"></ellipse>
                        <ellipse id="Oval" fill="#E29C83" fill-rule="nonzero" cx="29.7231884" cy="44.9210101" rx="4.97188406" ry="6.63286405"></ellipse>
                        <ellipse id="Oval" fill="#3B356B" fill-rule="nonzero" cx="53.1881159" cy="45.8826521" rx="2.20753623" ry="3.05259691"></ellipse>
                        <ellipse id="Oval" fill="#3B356B" fill-rule="nonzero" cx="77.4956522" cy="45.8826521" rx="2.20753623" ry="3.05259691"></ellipse>
                        <path d="M37.9915942,35.8470548 L37.824058,43.1703285 C37.824058,43.1703285 35.9565217,38.9588297 34.4782609,38.9588297 L31.2605797,38.9588297 C31.2605797,38.9588297 34.9217391,17.6202403 47.8466667,13.2164131 C60.7715942,8.81258591 37.9915942,35.8470548 37.9915942,35.8470548 Z" id="Path" fill="#151515" fill-rule="nonzero"></path>
                        <path d="M96.2843478,35.8470548 L96.4469565,43.1703285 C96.4469565,43.1703285 98.3292754,38.9588297 99.8124638,38.9588297 L103.015362,38.9588297 C103.015362,38.9588297 99.3492754,17.6202403 86.4292754,13.2164131 C73.5092754,8.81258591 96.2843478,35.8470548 96.2843478,35.8470548 Z" id="Path" fill="#151515" fill-rule="nonzero"></path>
                        <path d="M28.5652174,35.9999313 C28.5652174,35.9999313 39.8107246,35.2142423 45.9011594,33 C49.514686,31.684934 51.124058,28.7422973 50.7292754,24.1720898 C54.9998068,23.8433233 57.2993237,26.309072 57.6278261,31.5693359 C63.5408696,34.0350847 74.8377186,33.4520482 81.7362693,30 C87.5214167,38.2068462 90.7794718,42.4835313 91.5104348,42.8300552 C94.9405024,44.4561302 98.7606957,43.1657217 102.971014,38.9588297 C105.927536,29.5889846 101,0 64.5362319,0 C27.5797101,0 28.5652174,35.9999313 28.5652174,35.9999313 Z" id="Path" fill="#142747" fill-rule="nonzero"></path>
                        <path d="M65.4057971,62.5017985 C64.9130435,62.1171417 55.5507246,61.7374164 54.5652174,62.5017985 C53.5797101,63.2661806 55.2057971,67.0683651 59.9855072,67.0683651 C63.9275362,67.0683651 65.8985507,62.8815238 65.4057971,62.5017985 Z" id="Path" fill="#3B356B" fill-rule="nonzero"></path>
                        <path d="M23.7176718,62.8874609 C23.7176718,62.8874609 25.2960183,57.4282932 24.290702,54.5877507 L18.1582731,58.7992495 C18.1582731,58.7992495 22.179538,41.9088708 18.8569679,38.0869603 C15.9415508,34.7483365 6.98920987,39.0732598 5.72753802,51.4414553 C5.22487991,56.2151448 6.34580749,67.537863 14.4788157,66.7290974 C17.9866796,66.8557916 21.3709446,65.4485702 23.7176718,62.8874609 L23.7176718,62.8874609 Z" id="Path" fill="#D3A977" fill-rule="nonzero"></path>
                        <path d="M88.8900575,60.8874609 C88.8900575,60.8874609 87.3428112,55.4282932 88.3283184,52.5877507 L94.3300575,56.7992495 C94.3300575,56.7992495 90.3880286,39.9088708 93.64513,36.0869603 C96.503101,32.7483365 105.279043,37.0732598 106.515855,49.4414553 C107.008608,54.2151448 105.909768,65.537863 97.9370141,64.7290974 C94.5016683,64.8528335 91.1883048,63.4458699 88.8900575,60.8874609 L88.8900575,60.8874609 Z" id="Path" fill="#D3A977" fill-rule="nonzero"></path>
                    </g>
                    <g id="Group-10" transform="translate(22.000000, 98.000000)" fill-rule="nonzero">
                        <path d="M-2.84217094e-14,16.7670913 C-2.84217094e-14,24.6574872 12.1907246,33.5341826 22.6666667,33.5341826 C33.1426087,33.5341826 38.9275362,25.7572111 38.9275362,16.7670913 C38.9275362,7.77697145 33.1426087,3.55271368e-15 22.6666667,3.55271368e-15 C12.1907246,3.55271368e-15 -2.84217094e-14,7.39724615 -2.84217094e-14,16.7670913 Z" id="Path" fill="#FCCF3B"></path>
                        <ellipse id="Oval" fill="#ECA93D" cx="3.94202899" cy="16.7670913" rx="1.97101449" ry="1.97259897"></ellipse>
                        <path d="M51.4828986,17.4427064 C51.4828986,23.9078996 47.9449275,17.4427064 43.5988406,17.4427064 C39.2527536,17.4427064 35.7147826,23.9078996 35.7147826,17.4427064 C35.7147826,10.9775133 39.2133333,7.89039589 43.5791304,7.89039589 C47.9449275,7.89039589 51.4828986,10.9775133 51.4828986,17.4427064 Z" id="Path" fill="#FCCF3B"></path>
                        <path d="M54.2472464,24.1643374 C54.2472464,30.6295306 49.3197101,22.6454362 43.4066667,22.6454362 C37.4936232,22.6454362 32.9011594,30.6295306 32.9011594,24.1643374 C32.9011594,17.6991443 37.675942,12.4569625 43.5692754,12.4569625 C49.4626087,12.4569625 54.2472464,17.6991443 54.2472464,24.1643374 Z" id="Path" fill="#ECA93D"></path>
                        <ellipse id="Oval" fill="#FCCF3B" cx="22.4055072" cy="16.7917488" rx="16.6797101" ry="16.6931188"></ellipse>
                        <path d="M88.2028986,16.7670913 C88.2028986,24.6574872 76.0121739,33.5341826 65.5362319,33.5341826 C55.0602899,33.5341826 49.2753623,25.7572111 49.2753623,16.7670913 C49.2753623,7.77697145 55.0602899,3.55271368e-15 65.5362319,3.55271368e-15 C76.0121739,3.55271368e-15 88.2028986,7.39724615 88.2028986,16.7670913 Z" id="Path" fill="#FCCF3B"></path>
                        <ellipse id="Oval" fill="#D3A977" cx="64.8611594" cy="16.7917488" rx="13.6492754" ry="13.6602479"></ellipse>
                        <ellipse id="Oval" fill="#D3A977" cx="22.4055072" cy="16.7917488" rx="13.6492754" ry="13.6602479"></ellipse>
                        <ellipse id="Oval" fill="#3B356B" cx="21.4664142" cy="19.1813371" rx="4.89304348" ry="6.76108298"></ellipse>
                        <ellipse id="Oval" fill="#3B356B" cx="63.8432258" cy="19.1813371" rx="4.89304348" ry="6.76108298"></ellipse>
                        <ellipse id="Oval" fill="#ECA93D" cx="84.2608696" cy="16.7670913" rx="1.97101449" ry="1.97259897"></ellipse>
                        <path d="M12.3188406,15.7808557 L12.1710145,15.7808557 C11.9083056,15.7443735 11.6713521,15.6035204 11.5137094,15.3900676 C11.3560667,15.1766149 11.2910425,14.9085815 11.3333333,14.6465474 C11.9295652,10.6668289 13.9942029,7.80162894 17.3055072,6.36656319 C17.6285478,6.22561482 18.0021843,6.2678518 18.2856714,6.47736388 C18.5691585,6.68687596 18.7194278,7.03183325 18.6798743,7.38229369 C18.6403208,7.73275412 18.4169536,8.03547441 18.093913,8.17642275 C15.4084058,9.36984512 13.7971014,11.618608 13.3043478,14.9424372 C13.230662,15.4287204 12.8102572,15.7863517 12.3188406,15.7808557 L12.3188406,15.7808557 Z" id="Path" fill="#EBEEF2"></path>
                        <ellipse id="Oval" fill="#EBEEF2" cx="20.2028986" cy="6.41094666" rx="1" ry="1"></ellipse>
                        <path d="M54.6956522,15.7808557 L54.5478261,15.7808557 C54.2851172,15.7443735 54.0481637,15.6035204 53.890521,15.3900676 C53.7328783,15.1766149 53.6678541,14.9085815 53.7101449,14.6465474 C54.3063768,10.6668289 56.3710145,7.80162894 59.6823188,6.36656319 C60.0053594,6.22561482 60.3789959,6.2678518 60.662483,6.47736388 C60.9459701,6.68687596 61.0962394,7.03183325 61.0566859,7.38229369 C61.0171324,7.73275412 60.7937652,8.03547441 60.4707246,8.17642275 C57.7852174,9.36984512 56.173913,11.618608 55.6811594,14.9424372 C55.6074736,15.4287204 55.1870688,15.7863517 54.6956522,15.7808557 L54.6956522,15.7808557 Z" id="Path" fill="#EBEEF2"></path>
                        <ellipse id="Oval" fill="#EBEEF2" cx="62.5797101" cy="6.41094666" rx="1" ry="1"></ellipse>
                    </g>
                    <g id="Group-7" transform="translate(26.000000, 11.000000)">
                        <path d="M0,0 L106,0 L106,40.7096774 C106,42.5268724 104.526872,44 102.709677,44 L3.29032258,44 C1.4731276,44 -6.65636218e-16,42.5268724 0,40.7096774 L0,0 Z" id="Rectangle" fill="#ECA93F"></path>
                        <rect id="Rectangle" fill="#FBCD3B" x="6" y="8.67741935" width="94" height="3" rx="1.09677419"></rect>
                        <rect id="Rectangle-Copy-2" fill="#FBCD3B" x="6" y="31.7096774" width="94" height="3" rx="1.09677419"></rect>
                        <rect id="Rectangle-Copy" fill="#FBCD3B" x="6" y="19.6451613" width="94" height="3" rx="1.09677419"></rect>
                        <rect id="Rectangle" fill="#ECA93F" x="102.721649" y="40.5806452" width="1.09278351" height="25.2258065"></rect>
                        <ellipse id="Oval" fill="#ECA93F" cx="103.268041" cy="65.2580645" rx="2.73195876" ry="2.74193548"></ellipse>
                    </g>
                    <rect id="Rectangle-4-2" fill="#2E578C" fill-rule="nonzero" x="0" y="0" width="160" height="14"></rect>
                    <rect id="Rectangle-4-2-Copy" fill="#2E578C" fill-rule="nonzero" x="0" y="252" width="160" height="14"></rect>
                </g>
                <rect id="Rectangle" fill="#2D578A" x="224" y="20" width="30" height="12" rx="3"></rect>
                <rect id="Rectangle-Copy-13" fill="#2D578A" x="0" y="128" width="30" height="12" rx="3"></rect>
                <rect id="Rectangle-Copy-11" fill="#2D578A" x="235" y="0" width="25" height="12" rx="3"></rect>
                <rect id="Rectangle-Copy-18" fill="#2D578A" x="7" y="10" width="25" height="12" rx="3"></rect>
                <rect id="Rectangle-Copy-7" fill="#2D578A" x="230" y="344" width="30" height="12" rx="3"></rect>
                <rect id="Rectangle-Copy-8" fill="#2D578A" x="181" y="344" width="41" height="12" rx="3"></rect>
                <rect id="Rectangle-Copy-12" fill="#2D578A" x="20" y="151" width="25" height="12" rx="3"></rect>
                <rect id="Rectangle-Copy-9" fill="#2D578A" x="211" y="327" width="25" height="12" rx="3"></rect>
                <rect id="Rectangle-Copy-19" fill="#2D578A" x="24" y="374" width="25" height="12" rx="3"></rect>
            </g>
        </g>
    </g>
</svg>