<?xml version="1.0" encoding="UTF-8"?>
<svg width="353px" height="417px" viewBox="0 0 353 417" version="1.1" xmlns="http://www.w3.org/2000/svg" xmlns:xlink="http://www.w3.org/1999/xlink">
    <!-- Generator: sketchtool 55.2 (78181) - https://sketchapp.com -->
    <title>038FC41B-4B1D-4688-B356-CEFE744A7DD8</title>
    <desc>Created with sketchtool.</desc>
    <g id="Page-1" stroke="none" stroke-width="1" fill="none" fill-rule="evenodd">
        <g id="Domain-Register---XL" transform="translate(-53.000000, -217.000000)">
            <g id="Snappy-Window-Search" transform="translate(53.000000, 217.000000)">
                <g id="hero_graphic_02" transform="translate(181.000000, 201.500000) scale(-1, 1) translate(-181.000000, -201.500000) translate(26.000000, 30.000000)">
                    <polygon id="Rectangle" fill="#2E578C" fill-rule="nonzero" points="19.8425656 7.95626822 293.428571 7.95626822 293.428571 338.043732 19.8425656 338.043732"></polygon>
                    <g id="Rectangle-3" transform="translate(29.755102, 12.912536)" fill="#FF8D4E" fill-rule="nonzero">
                        <polygon id="path-1-2" points="0 0 256.734694 0 256.734694 320.174927 0 320.174927"></polygon>
                    </g>
                    <rect id="Rectangle" fill="#FF6B17" x="104.099125" y="255.769679" width="69.3877551" height="69.3877551"></rect>
                    <rect id="Rectangle" fill="#FF6B17" x="66.4314869" y="182.41691" width="69.3877551" height="69.3877551"></rect>
                    <rect id="Rectangle" fill="#FF6B17" x="29.755102" y="108.072886" width="90.2040816" height="69.3877551"></rect>
                    <path d="M37.9924198,145.252187 C38.7804665,145.252187 39.3603499,145.876676 39.3603499,146.590379 C39.3603499,147.348688 38.7804665,147.928571 37.9924198,147.928571 C37.2043732,147.928571 36.6393586,147.348688 36.6393586,146.590379 C36.6393586,145.876676 37.2043732,145.252187 37.9924198,145.252187 Z M45.3822157,140.167055 C47.3597668,140.167055 49.0250729,141.772886 49.0250729,144.122157 C49.0250729,146.486297 47.3597668,148.077259 45.3822157,148.077259 C44.4008746,148.077259 43.6276968,147.765015 43.0626822,147.214869 L43.0626822,147.854227 L40.6836735,147.854227 L40.6836735,136.405248 L43.0626822,136.405248 L43.0626822,141.029446 C43.6276968,140.4793 44.4008746,140.167055 45.3822157,140.167055 Z M44.8915452,146.055102 C45.9323615,146.055102 46.6906706,145.281924 46.6906706,144.122157 C46.6906706,142.977259 45.9323615,142.189213 44.8915452,142.189213 C43.9250729,142.189213 43.0626822,142.977259 43.0626822,144.122157 C43.0626822,145.281924 43.9250729,146.055102 44.8915452,146.055102 Z M57.7233236,140.390087 L57.7233236,147.854227 L55.3443149,147.854227 L55.3443149,147.140525 C54.7793003,147.735277 53.9912536,148.077259 53.054519,148.077259 C51.3148688,148.077259 50.155102,146.843149 50.155102,144.969679 L50.155102,140.390087 L52.519242,140.390087 L52.519242,144.46414 C52.519242,145.341399 53.0396501,145.936152 53.7979592,145.936152 C54.7346939,145.936152 55.3443149,145.296793 55.3443149,143.854519 L55.3443149,140.390087 L57.7233236,140.390087 Z M58.9425656,145.906414 L61.2620991,145.430612 C61.3661808,146.069971 61.9460641,146.307872 62.5854227,146.307872 C63.2099125,146.307872 63.551895,146.040233 63.551895,145.71312 C63.551895,145.46035 63.3586006,145.267055 62.8084548,145.162974 L61.2918367,144.865598 C59.9090379,144.612828 59.1209913,143.869388 59.1209913,142.694752 C59.1209913,141.163265 60.4443149,140.167055 62.3326531,140.167055 C64.1912536,140.167055 65.4253644,141.014577 65.7227405,142.308163 L63.551895,142.739359 C63.477551,142.278426 63.0314869,141.862099 62.3029155,141.862099 C61.6635569,141.862099 61.4553936,142.174344 61.4553936,142.441983 C61.4553936,142.650146 61.5446064,142.858309 62.0204082,142.962391 L63.7749271,143.319242 C65.1874636,143.616618 65.841691,144.46414 65.841691,145.564431 C65.841691,147.214869 64.4142857,148.077259 62.4516035,148.077259 C60.6970845,148.077259 59.1953353,147.437901 58.9425656,145.906414 Z M68.4139942,136.836443 C69.2169096,136.836443 69.796793,137.460933 69.796793,138.189504 C69.796793,138.947813 69.2169096,139.512828 68.4139942,139.512828 C67.6110787,139.512828 67.0460641,138.947813 67.0460641,138.189504 C67.0460641,137.460933 67.6110787,136.836443 68.4139942,136.836443 Z M69.6034985,147.854227 L67.2244898,147.854227 L67.2244898,140.390087 L69.6034985,140.390087 L69.6034985,147.854227 Z M76.116035,140.167055 C77.8556851,140.167055 79.0154519,141.401166 79.0154519,143.274636 L79.0154519,147.854227 L76.651312,147.854227 L76.651312,143.780175 C76.651312,142.902915 76.1309038,142.308163 75.3725948,142.308163 C74.4358601,142.308163 73.8262391,142.947522 73.8262391,144.389796 L73.8262391,147.854227 L71.4472303,147.854227 L71.4472303,140.390087 L73.8262391,140.390087 L73.8262391,141.10379 C74.3912536,140.509038 75.1793003,140.167055 76.116035,140.167055 Z M87.9516035,144.122157 L87.9516035,144.731778 L82.4798834,144.731778 C82.6731778,145.623907 83.2827988,146.174052 84.0857143,146.174052 C84.6358601,146.174052 85.2752187,146.040233 85.6766764,145.311662 L87.7880466,145.742857 C87.148688,147.31895 85.7956268,148.077259 84.0857143,148.077259 C81.9297376,148.077259 80.145481,146.486297 80.145481,144.122157 C80.145481,141.772886 81.9297376,140.167055 84.1005831,140.167055 C86.2119534,140.167055 87.9069971,141.683673 87.9516035,144.122157 Z M84.1005831,142.1 C83.4314869,142.1 82.7475219,142.516327 82.5244898,143.274636 L85.6023324,143.274636 C85.3793003,142.47172 84.7845481,142.1 84.1005831,142.1 Z M88.6801749,145.906414 L90.9997085,145.430612 C91.1037901,146.069971 91.6836735,146.307872 92.3230321,146.307872 C92.9475219,146.307872 93.2895044,146.040233 93.2895044,145.71312 C93.2895044,145.46035 93.0962099,145.267055 92.5460641,145.162974 L91.0294461,144.865598 C89.6466472,144.612828 88.8586006,143.869388 88.8586006,142.694752 C88.8586006,141.163265 90.1819242,140.167055 92.0702624,140.167055 C93.928863,140.167055 95.1629738,141.014577 95.4603499,142.308163 L93.2895044,142.739359 C93.2151603,142.278426 92.7690962,141.862099 92.0405248,141.862099 C91.4011662,141.862099 91.1930029,142.174344 91.1930029,142.441983 C91.1930029,142.650146 91.2822157,142.858309 91.7580175,142.962391 L93.5125364,143.319242 C94.9250729,143.616618 95.5793003,144.46414 95.5793003,145.564431 C95.5793003,147.214869 94.151895,148.077259 92.1892128,148.077259 C90.4346939,148.077259 88.9329446,147.437901 88.6801749,145.906414 Z M96.3376093,145.906414 L98.6571429,145.430612 C98.7612245,146.069971 99.3411079,146.307872 99.9804665,146.307872 C100.604956,146.307872 100.946939,146.040233 100.946939,145.71312 C100.946939,145.46035 100.753644,145.267055 100.203499,145.162974 L98.6868805,144.865598 C97.3040816,144.612828 96.516035,143.869388 96.516035,142.694752 C96.516035,141.163265 97.8393586,140.167055 99.7276968,140.167055 C101.586297,140.167055 102.820408,141.014577 103.117784,142.308163 L100.946939,142.739359 C100.872595,142.278426 100.426531,141.862099 99.6979592,141.862099 C99.0586006,141.862099 98.8504373,142.174344 98.8504373,142.441983 C98.8504373,142.650146 98.9396501,142.858309 99.4154519,142.962391 L101.169971,143.319242 C102.582507,143.616618 103.236735,144.46414 103.236735,145.564431 C103.236735,147.214869 101.809329,148.077259 99.8466472,148.077259 C98.0921283,148.077259 96.590379,147.437901 96.3376093,145.906414 Z" id=".business" fill="#FF8D4E" fill-rule="nonzero" transform="translate(69.938047, 142.241254) scale(-1, 1) translate(-69.938047, -142.241254) "></path>
                    <rect id="Rectangle" fill="#FF6B17" x="29.755102" y="182.41691" width="31.7201166" height="69.3877551"></rect>
                    <path d="M88.0655977,211.666181 C88.8536443,211.666181 89.4335277,212.290671 89.4335277,213.004373 C89.4335277,213.762682 88.8536443,214.342566 88.0655977,214.342566 C87.277551,214.342566 86.7125364,213.762682 86.7125364,213.004373 C86.7125364,212.290671 87.277551,211.666181 88.0655977,211.666181 Z M92.0653061,203.250437 C92.8682216,203.250437 93.448105,203.874927 93.448105,204.603499 C93.448105,205.361808 92.8682216,205.926822 92.0653061,205.926822 C91.2623907,205.926822 90.6973761,205.361808 90.6973761,204.603499 C90.6973761,203.874927 91.2623907,203.250437 92.0653061,203.250437 Z M93.2548105,214.268222 L90.8758017,214.268222 L90.8758017,206.804082 L93.2548105,206.804082 L93.2548105,214.268222 Z M99.7673469,206.58105 C101.506997,206.58105 102.666764,207.81516 102.666764,209.68863 L102.666764,214.268222 L100.302624,214.268222 L100.302624,210.194169 C100.302624,209.31691 99.7822157,208.722157 99.0239067,208.722157 C98.087172,208.722157 97.477551,209.361516 97.477551,210.80379 L97.477551,214.268222 L95.0985423,214.268222 L95.0985423,206.804082 L97.477551,206.804082 L97.477551,207.517784 C98.0425656,206.923032 98.8306122,206.58105 99.7673469,206.58105 Z M107.082799,206.804082 L109.134694,206.804082 L109.134694,208.69242 L107.082799,208.69242 L107.082799,214.268222 L104.718659,214.268222 L104.718659,208.69242 L103.648105,208.69242 L103.648105,206.804082 L104.718659,206.804082 L104.718659,205.540233 C104.718659,203.785714 105.923032,202.670554 107.722157,202.670554 C108.227697,202.670554 108.718367,202.774636 109.194169,202.96793 L108.68863,204.811662 C108.465598,204.737318 108.227697,204.70758 108.049271,204.70758 C107.484257,204.70758 107.082799,205.034694 107.082799,205.629446 L107.082799,206.804082 Z M113.53586,206.610787 C115.751312,206.610787 117.624781,208.18688 117.624781,210.536152 C117.624781,212.900292 115.751312,214.476385 113.53586,214.476385 C111.275802,214.476385 109.402332,212.900292 109.402332,210.536152 C109.402332,208.18688 111.275802,206.610787 113.53586,206.610787 Z M113.53586,212.469096 C114.457726,212.469096 115.334985,211.710787 115.334985,210.536152 C115.334985,209.376385 114.457726,208.603207 113.53586,208.603207 C112.569388,208.603207 111.692128,209.376385 111.692128,210.536152 C111.692128,211.710787 112.569388,212.469096 113.53586,212.469096 Z" id=".info" fill="#FF8D4E" fill-rule="nonzero" transform="translate(102.168659, 208.573469) scale(-1, 1) translate(-102.168659, -208.573469) "></path>
                    <path d="M126.273469,297.905248 C127.061516,297.905248 127.641399,298.529738 127.641399,299.24344 C127.641399,300.001749 127.061516,300.581633 126.273469,300.581633 C125.485423,300.581633 124.920408,300.001749 124.920408,299.24344 C124.920408,298.529738 125.485423,297.905248 126.273469,297.905248 Z M132.60758,292.849854 C134.823032,292.849854 136.696501,294.425948 136.696501,296.775219 C136.696501,299.139359 134.823032,300.715452 132.60758,300.715452 C130.347522,300.715452 128.474052,299.139359 128.474052,296.775219 C128.474052,294.425948 130.347522,292.849854 132.60758,292.849854 Z M132.60758,298.708163 C133.529446,298.708163 134.406706,297.949854 134.406706,296.775219 C134.406706,295.615452 133.529446,294.842274 132.60758,294.842274 C131.641108,294.842274 130.763848,295.615452 130.763848,296.775219 C130.763848,297.949854 131.641108,298.708163 132.60758,298.708163 Z M142.881924,292.939067 C143.090087,292.939067 143.238776,292.953936 143.417201,292.998542 L143.31312,295.377551 L142.881924,295.377551 C141.216618,295.377551 140.309621,296.239942 140.309621,298.172886 L140.309621,300.507289 L137.930612,300.507289 L137.930612,293.043149 L140.309621,293.043149 L140.309621,294.470554 C140.844898,293.578426 141.662682,292.939067 142.881924,292.939067 Z M152.279009,293.043149 L152.279009,300.655977 C152.279009,302.960641 150.316327,304.22449 147.892711,304.22449 C146.182799,304.22449 144.889213,303.629738 144.160641,302.425364 L146.138192,301.206122 C146.688338,301.875219 147.119534,302.127988 147.892711,302.127988 C148.963265,302.127988 149.9,301.592711 149.9,300.418076 L149.9,299.86793 C149.334985,300.418076 148.561808,300.730321 147.580466,300.730321 C145.602915,300.730321 143.937609,299.139359 143.937609,296.775219 C143.937609,294.425948 145.602915,292.820117 147.580466,292.820117 C148.561808,292.820117 149.334985,293.132362 149.9,293.682507 L149.9,293.043149 L152.279009,293.043149 Z M148.071137,298.708163 C149.037609,298.708163 149.9,297.934985 149.9,296.775219 C149.9,295.630321 149.037609,294.842274 148.071137,294.842274 C147.030321,294.842274 146.272012,295.630321 146.272012,296.775219 C146.272012,297.934985 147.030321,298.708163 148.071137,298.708163 Z" id=".org" fill="#FF8D4E" fill-rule="nonzero" transform="translate(138.599708, 298.522303) scale(-1, 1) translate(-138.599708, -298.522303) "></path>
                    <rect id="Rectangle" fill="#FF6B17" x="29.755102" y="255.769679" width="69.3877551" height="69.3877551"></rect>
                    <path d="M49.3868805,297.905248 C50.1749271,297.905248 50.7548105,298.529738 50.7548105,299.24344 C50.7548105,300.001749 50.1749271,300.581633 49.3868805,300.581633 C48.5988338,300.581633 48.0338192,300.001749 48.0338192,299.24344 C48.0338192,298.529738 48.5988338,297.905248 49.3868805,297.905248 Z M56.7469388,292.820117 C58.4865889,292.820117 59.6463557,294.054227 59.6463557,295.927697 L59.6463557,300.507289 L57.2822157,300.507289 L57.2822157,296.433236 C57.2822157,295.555977 56.7618076,294.961224 56.0034985,294.961224 C55.0667638,294.961224 54.4571429,295.600583 54.4571429,297.042857 L54.4571429,300.507289 L52.0781341,300.507289 L52.0781341,293.043149 L54.4571429,293.043149 L54.4571429,293.756851 C55.0221574,293.162099 55.8102041,292.820117 56.7469388,292.820117 Z M68.5825073,296.775219 L68.5825073,297.38484 L63.1107872,297.38484 C63.3040816,298.276968 63.9137026,298.827114 64.7166181,298.827114 C65.2667638,298.827114 65.9061224,298.693294 66.3075802,297.964723 L68.4189504,298.395918 C67.7795918,299.972012 66.4265306,300.730321 64.7166181,300.730321 C62.5606414,300.730321 60.7763848,299.139359 60.7763848,296.775219 C60.7763848,294.425948 62.5606414,292.820117 64.7314869,292.820117 C66.8428571,292.820117 68.5379009,294.336735 68.5825073,296.775219 Z M64.7314869,294.753061 C64.0623907,294.753061 63.3784257,295.169388 63.1553936,295.927697 L66.2332362,295.927697 C66.0102041,295.124781 65.4154519,294.753061 64.7314869,294.753061 Z M74.7976676,298.306706 L75.3478134,300.180175 C74.76793,300.49242 74.158309,300.730321 73.3107872,300.730321 C71.4521866,300.730321 70.3370262,299.719242 70.3370262,297.75656 L70.3370262,294.931487 L68.983965,294.931487 L68.983965,293.043149 L70.3370262,293.043149 L70.3370262,290.54519 L72.716035,290.54519 L72.716035,293.043149 L74.9166181,293.043149 L74.9166181,294.931487 L72.716035,294.931487 L72.716035,297.518659 C72.716035,298.291837 73.0877551,298.604082 73.7122449,298.604082 C74.0393586,298.604082 74.4854227,298.485131 74.7976676,298.306706 Z" id=".net" fill="#FF8D4E" fill-rule="nonzero" transform="translate(61.690816, 295.637755) scale(-1, 1) translate(-61.690816, -295.637755) "></path>
                    <g id="Group-7" transform="translate(41.650146, 12.912536)">
                        <path d="M0,0 L232.944606,0 L232.944606,80.2915452 C232.944606,81.933908 231.613208,83.2653061 229.970845,83.2653061 L2.97376093,83.2653061 C1.33139812,83.2653061 1.62176489e-14,81.933908 0,80.2915452 L0,0 Z" id="Rectangle" fill="#FF6B17"></path>
                        <rect id="Rectangle" fill="#FF8D4E" x="8.34985423" y="6.93877551" width="220" height="3" rx="0.991253644"></rect>
                        <rect id="Rectangle-Copy-2" fill="#FF8D4E" x="8.34985423" y="38.0874636" width="220" height="3" rx="0.991253644"></rect>
                        <rect id="Rectangle-Copy" fill="#FF8D4E" x="8.34985423" y="22.0874636" width="220" height="3" rx="0.991253644"></rect>
                        <rect id="Rectangle-Copy-2" fill="#FF8D4E" x="8.34985423" y="53.0874636" width="220" height="3" rx="0.991253644"></rect>
                        <rect id="Rectangle-Copy-3" fill="#FF8D4E" x="8.34985423" y="68.0874636" width="220" height="3" rx="0.991253644"></rect>
                        <rect id="Rectangle" fill="#FF6B17" x="229.970845" y="71.3702624" width="1" height="29.7376093"></rect>
                        <circle id="Oval" fill="#FF6B17" cx="230.466472" cy="102.594752" r="2.47813411"></circle>
                    </g>
                    <g id="snapp" transform="translate(124.500000, 199.931487) scale(-1, 1) translate(-124.500000, -199.931487) translate(0.000000, 67.431487)">
                        <g id="Group-6" transform="translate(190.000000, 87.068513) rotate(18.000000) translate(-190.000000, -87.068513) translate(150.000000, 21.568513)">
                            <path d="M50.6654775,80.7953192 C50.6654775,80.7953192 40.8517094,91.5865964 31.1090555,96.9017031 C23.2642635,101.192265 0.218798084,108.650415 0.218798084,108.650415 C0.218798084,108.650415 12.3126672,110.771089 5.55236771,118.940605 C8.29915607,115.325617 12.2993333,128.174932 20.2996877,130.814589 C24.6198791,132.232846 41.8073073,120.238064 42.0784304,120.193324 C51.0121595,114.050528 57.8124608,99.8008521 60.5014688,96.1187538 C62.5993396,93.2509227 64.0571819,91.3807926 64.0571819,91.3807926 L50.6654775,80.7953192 Z" id="Path" fill="#4580C1"></path>
                            <path d="M56.3553985,94.3178577 L62.2619725,92.9579404 C62.2619725,92.9579404 78.6186388,85.2517424 78.164287,71.1992637 C78.164287,71.1992637 78.3187666,69.2772473 74.2886658,68.1077184 C74.2886658,68.1077184 76.1333342,62.0787518 71.267226,59.2274585 C71.267226,59.2274585 68.4138964,54.6944009 65.7241335,54.6944009 C65.7241335,54.6944009 58.0001522,66.0814417 61.530466,71.611772 C61.530466,71.611772 59.681254,76.9698461 62.2029067,80.655222 C62.2029067,80.655222 60.8398512,86.6841886 58.6725929,88.5291431 C56.5053346,90.3740975 56.4917041,91.5436264 56.4917041,91.5436264 L56.3553985,94.3178577 Z" id="Path" fill="#2D578A"></path>
                            <path d="M56.3553985,94.3178577 L62.2619725,92.9579404 C62.2619725,92.9579404 78.6186388,85.2517424 78.164287,71.1992637 C66.1770979,81.7703538 68.4448106,79.5503146 64.4147098,78.3807857 C64.4147098,78.3807857 76.1333342,62.0787518 71.267226,59.2274585 C71.267226,59.2274585 68.4138964,54.6944009 65.7241335,54.6944009 C65.7241335,54.6944009 72.1489008,71.6408379 74.6705535,75.3262138 C74.0062871,85.0790096 69.4157959,88.2946882 67.830122,88.5458343 C66.244448,88.7969803 56.4917041,91.5436264 56.4917041,91.5436264 L56.3553985,94.3178577 Z" id="Path" fill="#4580C1"></path>
                            <path d="M65.1253444,45.8889407 L64.951163,49.6112484 L63.7914815,50.4674693 C63.7914815,50.4674693 59.2077599,86.3431255 61.5317067,87.8708039 C63.8556536,89.3984822 69.9107498,88.6459091 70.1995242,87.744624 C72.0330129,82.0665274 71.3546221,52.9865614 70.6578964,50.4043794 C70.4791313,49.7554541 69.3790381,49.6427934 69.3790381,49.6427934 L69.5532195,46.0376527 L65.1253444,45.8889407 Z" id="Path" fill="#D8D8D8" fill-rule="nonzero"></path>
                            <path d="M64.5362222,46.3573167 L64.3866669,50.3130311 C65.9374222,49.7708576 67.6445671,49.8020683 69.1724351,50.4005266 C69.1724351,50.4005266 69.1724351,47.7250084 69.2351518,46.5507276 C67.6659353,46.6211241 66.0932652,46.556392 64.5362222,46.3573167 L64.5362222,46.3573167 Z" id="Path" fill="#ADADAD" fill-rule="nonzero"></path>
                            <path d="M69.9782157,46.5714033 L64.014841,46.6026944 C64.014841,46.6026944 56.4136695,44.7252297 56.4225261,21.5698311 C56.4271309,0.703151401 64.7372664,0.703151401 64.7372664,0.703151401 L70.1598999,0.510101813 C70.1598999,0.510101813 62.758449,5.17330557 62.6372969,21.6190028 C62.484735,42.3381673 69.9782157,46.5714033 69.9782157,46.5714033 Z" id="Path" fill="#D8D8D8" fill-rule="nonzero"></path>
                            <path d="M67.5826833,44.5665803 L71.8187392,45.1962666 C71.8187392,45.1962666 77.5128077,43.4535433 77.5128077,21.9377834 C77.5128077,0.422023489 68.9901025,1.53949494 68.9901025,1.53949494 L67.0077572,2.04058333 C67.0077572,2.04058333 72.761618,6.71445203 72.8490068,21.9954307 C72.963992,41.2319036 67.5826833,44.5665803 67.5826833,44.5665803 Z" id="Path" fill="#D6D6D6" fill-rule="nonzero"></path>
                            <ellipse id="Oval" fill="#FFFFFF" fill-rule="nonzero" cx="69.0045486" cy="23.469588" rx="6.06060606" ry="20.6203704"></ellipse>
                            <path d="M69.6974279,6.18832068 C69.6974279,6.18832068 64.9173792,10.4975041 65.7556713,23.9784441 C65.7556713,23.9784441 67.7845166,19.4107097 69.5056909,18.567017 C69.5056909,18.562481 69.2649048,11.5770679 69.6974279,6.18832068 Z" id="Path" fill="#F1F1F1" fill-rule="nonzero"></path>
                            <path d="M75.0407859,39.988504 C73.433782,44.4193186 71.7232458,46.288917 69.6390923,46.3870821 C67.6449672,46.4807851 65.6958561,43.7098528 64.205889,38.9756189 C61.3069801,29.7391777 61.4555267,15.2062845 64.5434948,6.52313743 C67.6314629,-2.16000968 72.4794828,-1.7048807 75.3783917,7.53602253 C78.2773005,16.7769258 78.1872723,31.3276671 75.0407859,39.988504 Z M74.9237492,8.81663056 C72.2589137,0.338737687 68.212145,-0.107467201 65.3762559,7.88852439 C62.5403668,15.884516 62.4053244,29.2081939 65.0656585,37.6950109 C67.7259926,46.1818279 71.7772627,46.6191087 74.6131518,38.6231171 C77.4490409,30.6271255 77.5840832,17.3034475 74.9237492,8.81663056 L74.9237492,8.81663056 Z" id="Shape" fill="#F1F1F1" fill-rule="nonzero"></path>
                            <path d="M48.5849218,82.6886523 C48.5849218,82.6886523 52.0180783,68.7840176 53.7833046,66.2460493 C58.7268646,59.1469633 57.1191651,53.2265424 58.6620007,52.5581806 C60.2048362,51.8898188 63.4937637,53.7235759 63.1509113,57.5666561 C62.808059,61.4097364 60.5940199,65.0448044 60.9368723,68.7162783 C61.2797246,72.3877521 65.7136393,84.86986 58.0782251,92.0321693 C58.0782251,92.0321693 49.4420527,89.3632382 48.5849218,82.6886523 Z" id="Path" fill="#4580C1"></path>
                            <path d="M77.2866067,66.9108862 C79.4566896,60.5919822 73.0245637,58.1501772 73.0245637,58.1501772 C73.8144739,56.9811799 72.0784075,52.9190274 69.3354226,54.1828082 C67.9943114,54.7966446 64.218367,60.6867658 63.6020634,62.7855446 C62.9857598,64.8843234 65.0386583,67.4163985 65.0386583,67.4163985 L63.9102152,70.2824728 C63.5022396,73.4825463 66.0802982,75.9108108 66.0802982,75.9108108 C65.056019,77.1249431 64.7478672,81.6474729 67.8163646,82.1981203 C70.8848619,82.7487676 76.8525901,78.1946432 76.8525901,78.1946432 C77.5687174,76.980511 82.4948058,68.264937 77.2866067,66.9108862 Z" id="Path" fill="#4580C1" fill-rule="nonzero"></path>
                        </g>
                        <path d="M136.856428,191.725141 C132.225363,201.729802 112.590001,188.684465 117.443286,198.587624 C125.816537,215.662187 134.705338,218.318644 136.856428,225.723947 C141.238607,240.834649 139.236961,257.167896 145.099125,260.111482 C153.987927,264.577612 169.167221,263.668676 179.967114,256.634079 C179.900448,250.014321 179.967114,241.512849 162.883382,238.075802 C162.883382,229.568513 159.609538,219.702994 157.054007,211.137026 C154.831807,203.718484 150.909623,185.736466 144.687462,181.839635 L136.856428,191.725141 Z" id="Path" fill="#4580C1"></path>
                        <path d="M169.958324,261.104623 C169.891658,254.864397 167.98501,252.388608 160.345086,249.153752 C166.367248,254.401014 166.491692,257.097462 165.376147,261.83721 C167.109463,261.647443 169.016111,261.422371 169.958324,261.104623 Z" id="Path" fill="#2D578A"></path>
                        <path d="M179.967114,256.634079 C179.047123,252.32241 178.14491,250.159956 172.269412,247.158998 C175.060496,249.753944 178.233798,252.843164 177.531583,258.090426 C178.399031,257.703197 179.216689,257.214271 179.967114,256.634079 L179.967114,256.634079 Z" id="Path" fill="#2D578A"></path>
                        <path d="M58.8349754,158.661654 C58.7641008,160.667605 58.1499695,162.617492 57.0572152,164.306101 C55.2794549,167.117292 54.2439096,166.781891 58.6927546,169.195896 C61.5060602,170.722854 65.0838027,171.777602 69.2659837,172.45723 C75.5325885,173.47226 74.0659363,172.774979 71.3015192,166.962831 C70.1065124,164.347306 68.6770666,161.843782 67.0304502,159.482504 C60.9771765,151.053345 59.1060838,151.627057 58.852753,158.661654" id="Path" fill="#4580C1"></path>
                        <path d="M36.6396387,155.757786 C34.3641056,159.967953 37.8529601,160.612276 42.3506935,162.187778 C44.0236636,162.765678 45.7579958,163.15068 47.5195314,163.335203 C52.5817037,163.878023 51.2706056,163.14985 49.057294,159.085318 C47.7038583,156.591048 46.2096421,154.174667 44.5817826,151.847716 C35.7374254,139.217216 39.9640504,149.596998 36.6396387,155.757786" id="Path" fill="#4580C1"></path>
                        <path d="M17.484272,153.864535 C17.5093033,154.832281 17.4736793,155.800636 17.3776064,156.76399 C17.0442764,160.268048 16.6487247,159.676683 21.0175705,160.060629 C22.9569993,160.264443 24.9136433,160.245192 26.8486241,160.003258 C32.4219025,159.173582 30.4041446,157.245025 27.4886178,154.027823 C26.4861371,152.919716 25.3837877,151.904881 24.195317,150.995973 C13.1865366,142.580054 17.3331624,148.502531 17.484272,153.864535" id="Path" fill="#4580C1"></path>
                        <path d="M91.2035451,30.542848 C91.2035451,30.542848 59.6483007,46.6862324 59.9416312,51.7922727 C60.2349616,56.8983131 68.8304324,56.2054451 72.3059537,63.1076466 C72.3059537,63.1076466 52.9905886,76.3471636 54.2439096,82.4241018 C55.4972305,88.5010401 67.8615531,86.2900408 71.0570771,91.1180513 C71.0570771,91.1180513 68.0037739,103.201317 70.7815243,107.618903 C73.5592747,112.036488 73.141501,108.22792 77.0303516,113.885607 C77.0303516,113.885607 74.9459277,68.7653335 91.2035451,30.542848 Z" id="Path" fill="#4580C1"></path>
                        <path d="M84.5813882,45.216646 C95.6435013,55.7023434 109.763362,62.3044492 122.53657,70.4070336 C131.260928,75.9367385 139.198627,82.1372456 145.434121,90.4295964 C153.096268,100.615198 148.696312,112.614614 150.442961,125.103891 C151.038511,129.353776 151.331841,133.652206 151.505173,137.937397 C151.83475,145.740355 151.604541,153.556713 150.816291,161.32721 C148.891865,179.950797 147.918541,195.101218 134.705338,209.033603 C118.181057,226.456807 100.012347,230.406596 79.3992171,215.366505 C71.399296,209.541117 66.1149036,206.019406 59.6971891,198.59645 C55.4794529,193.715482 50.2172826,190.577716 45.6662164,186.001256 C40.404046,180.705449 32.5152349,174.173954 25.4086383,171.477506 C17.4353836,168.454483 11.9287713,172.580799 8.01769872,174.354895 C5.98660764,175.277248 3.21774605,177.055756 0.968879335,175.281661 C0.0784816693,174.645055 -0.24366161,173.477677 0.195553627,172.479296 C1.36192915,169.684114 3.13608034,167.179477 5.39105795,165.144604 C17.5598269,154.111673 37.1729668,153.851296 51.8439332,161.614066 C57.3861008,164.553239 63.3993748,167.902837 69.8126449,168.317675 C74.328156,168.613357 78.9147774,167.770441 82.4214095,164.760658 C85.3013811,162.289281 86.8658101,158.838181 87.5946918,155.179661 C88.6156748,150.046065 88.244494,144.735267 86.5191469,139.790929 C84.1325037,132.681308 79.8525459,126.22925 77.0836844,119.21672 C67.6482218,95.3061519 64.5949186,68.0548128 79.7503247,45.7109213 L81.8569706,42.6217007 L84.5813882,45.216646 Z" id="Path" fill="#4580C1"></path>
                        <path d="M27.9997239,172.55432 C38.6307302,177.850127 49.9150634,189.65095 60.7816229,202.466802 C74.9592609,219.183899 110.398911,243.818227 139.634179,205.114706 C167.189463,168.653076 154.207368,117.552954 152.607384,111.736392 C152.549607,111.5378 152.487385,111.34362 152.425164,111.145027 C151.496284,109.962297 126.936526,78.8450191 104.425637,74.2685594 C98.4256961,79.4407974 97.2612632,88.549585 105.252295,104.256065 C118.692163,130.673315 129.434279,169.200309 105.545626,192.863739 C101.992295,196.474508 97.633487,199.204755 92.821307,200.833928 C75.8348078,206.398939 66.8437853,196.169205 56.2216678,186.301352 C47.5017538,178.167875 38.0218473,174.032733 27.9997239,172.55432 Z" id="Path" fill="#FCCF3B"></path>
                        <path d="M142.936368,200.383785 C136.118658,199.50115 124.438773,196.892966 114.55887,188.860992 C114.55887,188.860992 121.56769,201.050174 139.651956,205.105879 C140.820834,203.556856 141.909712,201.968114 142.936368,200.383785 Z" id="Path" fill="#ECA93D"></path>
                        <path d="M95.1546173,202.722766 C99.2001771,211.214097 105.040809,218.740171 112.278893,224.788628 C114.592169,224.254257 116.848426,223.500559 119.016604,222.53791 C112.536668,219.581085 101.585665,213.327619 95.1546173,202.722766 Z" id="Path" fill="#ECA93D"></path>
                        <path d="M59.0483066,200.43233 C59.6349675,201.107545 60.217184,201.782761 60.7949561,202.466802 C61.0571757,202.775724 61.3282842,203.08906 61.6082814,203.402395 C61.1638413,200.60003 61.2482849,197.87269 62.3727183,195.983852 C61.1596036,197.386408 60.0486545,198.872997 59.0483066,200.43233 L59.0483066,200.43233 Z" id="Path" fill="#ECA93D"></path>
                        <path d="M70.8393015,212.241979 C72.0659561,213.234943 73.3459434,214.210254 74.6703748,215.150259 C73.7814947,210.92244 73.3770542,206.522508 74.8081512,204.055544 C72.9459474,207.263921 71.55485,209.911824 70.8393015,212.241979 Z" id="Path" fill="#ECA93D"></path>
                        <path d="M47.7017519,188.19019 C48.6084096,189.105187 49.5165488,190.034896 50.4261694,190.979315 C50.3940516,189.011831 50.6060145,187.047905 51.0572743,185.131861 C49.8590887,186.0616 48.7370623,187.084251 47.7017519,188.19019 L47.7017519,188.19019 Z" id="Path" fill="#EBB148"></path>
                        <path d="M122.172129,168.613357 C136.176435,164.160466 149.354083,166.79513 155.15847,168.573639 C155.436986,167.049623 155.684391,165.532963 155.900685,164.023658 C134.28312,158.992642 122.172129,168.613357 122.172129,168.613357 Z" id="Path" fill="#ECA93D"></path>
                        <path d="M156.554012,135.077661 C156.396976,133.232955 156.216237,131.467686 156.011795,129.781854 L156.011795,129.781854 C133.118687,129.234621 121.332137,140.280791 121.332137,140.280791 C135.007558,132.866662 149.527414,133.916997 156.554012,135.077661 Z" id="Path" fill="#ECA93D"></path>
                        <path d="M147.509657,105.288748 C146.620776,104.282544 145.616342,103.179251 144.527464,102.005347 C120.19437,102.005347 113.625546,113.228045 113.625546,113.228045 C123.722952,106.928129 135.641144,104.135609 147.509657,105.288748 L147.509657,105.288748 Z" id="Path" fill="#ECA93D"></path>
                        <path d="M156.220682,131.595668 C155.636552,126.141587 154.738799,120.725138 153.531819,115.372846 C152.939233,115.025677 152.358498,114.66821 151.789614,114.300446 C144.011913,109.265016 109.847806,88.677567 99.8167935,82.7727425 C99.6071211,84.2804415 99.5713346,85.8069694 99.7101279,87.3227231 C110.345579,101.850886 133.927568,126.582304 156.220682,131.595668 Z" id="Path" fill="#ECA93D"></path>
                        <path d="M79.4392167,190.56889 C83.1280692,185.409891 89.3368969,183.507814 93.6879651,184.152137 C109.287811,186.513184 103.941197,204.783718 99.9501255,215.520966 C96.8390451,223.950125 95.0835069,234.643242 94.9946189,239.555102 C94.7901764,250.234979 98.7990258,253.540446 93.7012983,257.604977 C89.2568977,261.135515 76.7459099,266.056202 66.2349024,264.57779 C57.5905432,262.441814 57.7372085,244.718514 71.6792932,240.464216 C75.7059202,232.260129 75.7192534,223.800077 75.6081434,214.947254 C75.5414773,208.962992 75.2837021,196.389864 79.4392167,190.56889" id="Path" fill="#4580C1"></path>
                        <path d="M74.4925988,264.586616 C75.7281422,264.440981 76.9547967,264.242388 78.1636737,263.990838 C77.3414596,258.827426 78.5725586,254.017068 82.7902948,249.723051 C77.0614624,252.816685 75.0703709,258.26254 74.4925988,264.586616 Z" id="Path" fill="#2D578A"></path>
                        <path d="M66.0882372,264.533658 C65.1371355,259.127522 66.2971241,253.032931 70.6304147,248.646237 C65.2971339,251.528039 63.1949324,256.448726 62.4660507,262.221155 C63.4037272,263.345202 64.6691621,264.15309 66.0882372,264.533658 Z" id="Path" fill="#2D578A"></path>
                        <path d="M83.5273478,167.526506 C83.5273478,167.526506 83.7351739,176.553438 89.7666499,179.690928 C95.680659,182.766377 100.609753,179.7574 105.068979,176.190056 C111.037203,171.412917 107.599036,157.382841 98.6263686,147.575968 C92.0863026,140.42374 89.7357817,148.356343 87.3643916,156.588588 C86.1727272,160.725433 83.5273478,162.878241 83.2653061,167.313795 L83.5273478,167.526506 Z" id="Path" fill="#2D578A"></path>
                        <path d="M61.8144406,128.629847 C65.5575149,135.386055 87.6797033,138.653619 91.1617358,145.507102 C91.6484239,144.339799 101.107872,151.228655 101.107872,151.228655 C95.0640898,139.582155 79.2334518,124.385109 79.2334518,124.385109 C102.882071,101.989695 96.046315,87.2127009 74.8753807,90.1398015 C70.1323835,91.9084423 64.0443572,95.4457239 63.6284601,102.285942 C66.1503896,111.394442 57.1909033,120.295127 61.8144406,128.629847 Z" id="Path" fill="#2D578A" fill-rule="nonzero"></path>
                        <path d="M75.0595701,122.703526 C88.0969235,114.413534 104.475238,95.2735359 87.5557503,83.136845 C80.8469922,78.3195671 71.4770932,82.077222 67.9482864,85.5721972 C60.7922777,92.6690003 53.4752588,107.672907 49.476839,124.658041 C47.7951769,131.781557 45.6752093,130.254453 50.8185906,135.695039 C62.4471047,148.072148 80.3371265,158.223159 99.7701627,164.776794 C97.3997348,165.13297 95.0785045,165.27544 92.7662192,164.661037 C91.4244675,169.558454 91.5631152,172.75068 94.7385941,175.186032 C90.4941864,173.569885 88.8617219,170.818426 89.5102352,164.331574 L83.0877174,161.437646 C83.14586,168.792676 85.3239701,174.794239 92.4263088,178.983757 C96.9480118,178.983757 101.559165,177.380966 104.595996,174.85657 C112.051663,168.668015 100.266611,150.658875 99.3318572,149.946524 C84.1253386,138.37081 80.3818516,122.017887 61.422901,123.96795 C64.6341599,121.207588 70.855415,121.002786 75.0595701,122.716883" id="Path" fill="#4580C1"></path>
                        <path d="M86.7439728,39.4572655 C86.7439728,39.4572655 93.3072946,0.689833441 109.376575,0.0107153859 C119.941706,-0.433152624 125.259725,13.0604349 125.259725,13.0604349 C125.259725,13.0604349 133.817304,12.4922838 143.518257,18.4889406 C143.518257,18.4889406 146.465326,13.1625245 151.495285,14.8714164 C156.525245,16.5803082 161.954056,27.8234849 159.959799,46.3061488 C164.805854,47.0368568 169.051193,49.9495058 171.482173,54.2114381 C171.482173,54.2114381 169.297354,57.4472359 165.96916,57.7357501 C162.640967,58.0242643 148.277884,52.7821831 144.378003,56.2088442 C140.478123,59.6355052 138.767493,62.2099397 139.241683,68.4995494 C139.241683,68.4995494 123.45603,66.9726434 116.325453,57.9266134 C109.194876,48.8805833 103.194378,31.3566743 86.7439728,39.4572655 Z" id="Path" fill="#4580C1"></path>
                        <path d="M141.386618,42.2536339 C141.386618,42.2536339 145.335247,29.2438625 152.908992,25.5997062 C152.908992,25.5997062 153.290117,36.0794299 154.951998,44.4063938 C150.477524,43.4163287 145.947507,42.6974371 141.386618,42.2536339 L141.386618,42.2536339 Z" id="Path" fill="#F1F1F1" fill-rule="nonzero"></path>
                        <path d="M107.058805,15.5727278 C107.058805,15.5727278 116.808507,20.259974 123.2699,40.5536194 C123.2699,40.5536194 107.88753,38.0546425 101.133646,38.5784068 C101.133646,38.5784068 107.369023,27.0245225 107.058805,15.5727278 Z" id="Path" fill="#F1F1F1" fill-rule="nonzero"></path>
                        <path d="M119.317261,30.5697338 C120.068481,32.0100821 120.417538,33.4722037 120.364431,34.9560987 C120.364455,37.0585603 119.696547,38.8152598 118.588167,39.8074201 C117.5,39.8074201 115.1875,39.5176098 113.546312,39.2681962 C112.616403,38.1766633 112.029155,36.5486831 112.029155,34.7291724 C112.029155,31.4401105 113.956936,28.7813411 116.341182,28.7813411 C116.709054,28.7813411 118.19043,28.4092114 119.317261,30.5697338 Z" id="Path" fill="#2D578C"></path>
                        <path d="M152.100631,43.8098034 C152.952023,43.4905912 153.994735,42.4885202 154.457642,41.5685131 C154.268616,40.2964489 153.948059,38.1661083 153.746155,36.4318859 C153.260193,35.4864514 152.199021,34.9560987 151.266358,34.9560987 C150.906592,34.9645868 150.55229,35.0461294 150.224912,35.1957874 C148.743338,35.9380432 147.831826,37.4792986 147.893847,39.1373353 C147.893847,39.2438637 147.871689,39.350392 147.871689,39.461359 C147.859878,41.120539 148.5308,42.5688605 149.539667,43.3506919 C149.600801,43.3980678 151.650748,43.7932493 152.100631,43.8098034 Z" id="Path" fill="#2D578C"></path>
                        <path d="M104.794215,47.4398487 C102.837096,45.9937158 94.3160321,42.2262494 88.9330699,47.4398487 C83.6150509,52.610911 89.7070028,64.9254931 90.3469307,62.10785 C90.9868586,59.2902069 90.5007957,61.0323879 93.9619397,61.5428361 C93.9619397,61.5428361 96.0460743,77.3044474 123.2699,95.9469039 C150.493725,114.58936 159.652512,112.236783 165.573239,110.674368 C171.493967,109.111953 179.623174,104.785956 177.336426,99.9966203 C175.049677,95.2072845 158.080765,80.8496462 158.080765,80.8496462 C158.080765,80.8496462 153.232505,85.0131281 141.386618,80.8496462 C129.54073,76.6861643 112.283616,66.2079503 102.099609,51.9464711 C102.099609,51.9464711 102.101899,49.3555221 106.139162,51.3041026 C106.749983,49.841803 106.301668,48.5537184 104.794215,47.4398487 Z" id="Path" fill="#F68B52"></path>
                        <path d="M101.133646,70.9097527 C101.133646,70.9097527 124.27146,63.9720957 143.810748,82.4503209 L140.76175,80.7858159 C140.76175,80.7858159 154.757003,80.0933818 156.715807,82.0375237 C158.674611,83.9816656 169.740522,90.2224498 171.194114,106.66776 C171.615124,111.461534 160.283312,114.16469 135.09806,101.603226 C119.383314,93.7512005 101.133646,70.9097527 101.133646,70.9097527 Z" id="Path" fill="#F26B24"></path>
                        <path d="M131.765435,74.096725 C131.951566,74.1943759 132.14656,74.2875882 132.350417,74.3852392 L131.765435,74.096725 Z" id="Path" fill="#C56428"></path>
                        <path d="M158.080765,81.6824293 C158.080765,81.6824293 154.690528,95.6065687 149.456711,94.0663467 C147.684038,93.5470212 148.415266,89.5921572 147.684038,86.8845623 C146.952811,84.1769675 144.985144,78.9748344 144.985144,78.9748344 L158.080765,81.6824293 Z" id="Path" fill="#ECEDF1"></path>
                        <path d="M184.014971,76.4048386 C184.014971,76.4048386 182.915914,90.6973885 177.50483,90.0227092 C175.674545,89.7963365 175.754315,85.7748923 174.602078,83.2226513 C173.44984,80.6704102 170.65788,75.8544423 170.65788,75.8544423 L184.014971,76.4048386 Z" id="Path" fill="#ECEDF1"></path>
                        <path d="M189.776158,63.870006 C189.075952,53.8163956 175.825222,49.3910315 166.106542,56.4707263 C158.156104,54.6952542 149.319329,49.3688381 141.368891,57.3584623 C135.745086,62.9911474 138.962487,68.4196531 138.962487,68.4196531 C138.962487,68.4196531 122.436743,65.7564451 116.719873,57.3229529 C111.003003,48.8894607 103.628683,37.6063358 95.5231358,36.8073734 C91.2642889,36.3635054 84.089395,35.7642836 79.9324769,43.8826295 C75.7755588,52.0009754 73.6970997,66.6796905 104.457408,89.8895488 C135.217716,113.099407 148.774232,119.353507 155.483799,119.345445 C164.041378,119.345445 164.559885,116.14878 174.39822,114.763912 C179.419316,114.058162 183.230563,105.500387 177.721982,98.114423 C172.213401,90.7284593 160.530333,82.9501537 160.530333,82.9501537 C160.530333,82.9501537 173.148486,93.6357948 175.435234,98.4251306 C177.721982,103.214466 170.968098,106.232769 165.042938,107.790746 C159.117779,109.348722 151.53517,111.017666 124.306913,92.3885257 C97.0786563,73.7593853 94.1714726,55.1258062 94.1714726,55.1258062 C90.7103286,54.615358 90.3247723,62.0989726 90.3247723,62.0989726 C90.3247723,62.0989726 86.3362581,53.4257917 91.6764354,48.2547294 C98.1201017,42.0095065 104.794215,49.7239325 104.794215,49.7239325 L104.351047,49.7239325 C100.313785,47.775352 99.7642559,51.2552772 99.7642559,51.2552772 C109.957126,65.5167563 129.279261,78.1092918 141.125148,82.2727737 C152.971035,86.4362556 159.206413,81.7534481 159.206413,81.7534481 C159.206413,81.7534481 171.783527,81.5448302 176.046806,80.4218441 C180.310085,79.298858 190.72897,77.4967539 189.776158,63.870006 Z" id="Path" fill="#FCCF3B"></path>
                        <path d="M150.294299,62.8047228 C153.059669,61.9169868 155.16915,65.6454781 151.539602,67.2789123 C151.029959,68.6549032 151.854251,70.155177 154.092251,70.6878186 C147.001559,72.1525831 146.731227,64.09194 150.294299,62.8047228" id="Path" fill="#ECA93D"></path>
                        <path d="M181.542092,61.6551046 C179.259776,60.9182837 177.50483,63.9987277 180.513942,65.3480865 C180.95711,66.4843886 180.256904,67.7227803 178.408893,68.1622097 C184.24985,69.3695307 184.484729,62.7203879 181.542092,61.6551046" id="Path" fill="#ECA93D"></path>
                    </g>
                    <rect id="Rectangle-4-2" fill="#2E578C" fill-rule="nonzero" x="12.9037901" y="0" width="290" height="14"></rect>
                    <rect id="Rectangle-4-2-Copy" fill="#2E578C" fill-rule="nonzero" x="2" y="323.174927" width="307.28863" height="19.8250729"></rect>
                    <rect id="Rectangle-4-2-Copy-2" fill="#2E578C" fill-rule="nonzero" x="2" y="214.137026" width="307.28863" height="28.7463557"></rect>
                    <rect id="Rectangle-4-2-Copy-3" fill="#2E578C" fill-rule="nonzero" x="2" y="264.690962" width="307.28863" height="9.91253644"></rect>
                    <rect id="Rectangle-4-2-Copy-4" fill="#2E578C" fill-rule="nonzero" transform="translate(6.956268, 278.568513) rotate(-90.000000) translate(-6.956268, -278.568513) " x="-57.4752187" y="273.612245" width="128.862974" height="9.91253644"></rect>
                    <rect id="Rectangle-4-2-Copy-5" fill="#2E578C" fill-rule="nonzero" transform="translate(304.332362, 278.568513) rotate(-90.000000) translate(-304.332362, -278.568513) " x="239.900875" y="273.612245" width="128.862974" height="9.91253644"></rect>
                </g>
                <g id="Group-13" transform="translate(9.000000, 32.000000)">
                    <g id="Group-8" transform="translate(16.000000, 203.000000)" fill-rule="nonzero">
                        <path d="M16.5,9.09494702e-13 L67,9.09494702e-13 L67,28 C67,29.6568542 65.6568542,31 64,31 L4,31 L16.5,9.09494702e-13 Z" id="Rectangle-2" fill="#FBCD3B"></path>
                        <path d="M0.5,28 L0.5,9.09494702e-13 L16.5,9.09494702e-13 L16.5,31 L3.5,31 C1.84314575,31 0.5,29.6568542 0.5,28 Z" id="Rectangle-2" fill="#ECA93F"></path>
                    </g>
                    <path d="M73,200.34248 C78.8209635,193.759146 86.4013672,192.300813 95.7412109,195.96748 C90.3920115,206.071646 82.8116079,207.52998 73,200.34248 Z" id="Path-41" fill="#FFFFFF" transform="translate(84.370605, 199.411921) rotate(12.000000) translate(-84.370605, -199.411921) "></path>
                    <path d="M25,159.85973 C30.3752738,153.777479 37.3752738,152.430144 46,155.817728 C41.0603691,165.152829 34.0603691,166.500163 25,159.85973 Z" id="Path-41-Copy-8" fill="#FFFFFF" transform="translate(35.500000, 159.000000) rotate(12.000000) translate(-35.500000, -159.000000) "></path>
                    <path d="M12,121.85973 C17.3752738,115.777479 24.3752738,114.430144 33,117.817728 C28.0603691,127.152829 21.0603691,128.500163 12,121.85973 Z" id="Path-41-Copy-12" fill="#FFFFFF" transform="translate(22.500000, 121.000000) rotate(-9.000000) translate(-22.500000, -121.000000) "></path>
                    <path d="M1,43.8597301 C6.37527376,37.7774786 13.3752738,36.4301444 22,39.8177275 C17.0603691,49.1528288 10.0603691,50.500163 1,43.8597301 Z" id="Path-41-Copy-17" fill="#FFFFFF" transform="translate(11.500000, 43.000000) rotate(-9.000000) translate(-11.500000, -43.000000) "></path>
                    <path d="M45,131.85973 C50.3752738,125.777479 57.3752738,124.430144 66,127.817728 C61.0603691,137.152829 54.0603691,138.500163 45,131.85973 Z" id="Path-41-Copy-13" fill="#FFFFFF" transform="translate(55.500000, 131.000000) rotate(-9.000000) translate(-55.500000, -131.000000) "></path>
                    <path d="M32,89.3016606 C36.8633429,83.7986711 43.1966763,82.5796545 51,85.6446106 C46.5308102,94.0906546 40.1974768,95.3096713 32,89.3016606 Z" id="Path-41-Copy-9" fill="#FFFFFF" transform="translate(41.500000, 88.523810) rotate(32.000000) translate(-41.500000, -88.523810) "></path>
                    <path d="M43,19.3016606 C47.8633429,13.7986711 54.1966763,12.5796545 62,15.6446106 C57.5308102,24.0906546 51.1974768,25.3096713 43,19.3016606 Z" id="Path-41-Copy-16" fill="#FFFFFF" transform="translate(52.500000, 18.523810) rotate(32.000000) translate(-52.500000, -18.523810) "></path>
                    <path d="M102,242.34248 C107.820964,235.759146 115.401367,234.300813 124.741211,237.96748 C119.392012,248.071646 111.811608,249.52998 102,242.34248 Z" id="Path-41-Copy-11" fill="#FFFFFF" transform="translate(113.370605, 241.411921) rotate(7.000000) translate(-113.370605, -241.411921) "></path>
                    <path d="M55,311.34248 C60.8209635,304.759146 68.4013672,303.300813 77.7412109,306.96748 C72.3920115,317.071646 64.8116079,318.52998 55,311.34248 Z" id="Path-41-Copy-5" fill="#FFFFFF" transform="translate(66.370605, 310.411921) rotate(-19.000000) translate(-66.370605, -310.411921) "></path>
                    <path d="M57,356.34248 C62.8209635,349.759146 70.4013672,348.300813 79.7412109,351.96748 C74.3920115,362.071646 66.8116079,363.52998 57,356.34248 Z" id="Path-41-Copy-6" fill="#FFFFFF" transform="translate(68.370605, 355.411921) rotate(-19.000000) translate(-68.370605, -355.411921) "></path>
                    <path d="M76,291.273757 C80.8633429,285.799731 87.1966763,284.58713 95,287.635955 C90.5308102,296.037546 84.1974768,297.250147 76,291.273757 Z" id="Path-41-Copy-7" fill="#FFFFFF" transform="translate(85.500000, 290.500000) rotate(26.000000) translate(-85.500000, -290.500000) "></path>
                    <path d="M62.3482035,254.206829 C66.1876848,249.949253 71.1876848,249.006119 77.3482035,251.377427 C73.8198957,257.911998 68.8198957,258.855132 62.3482035,254.206829 Z" id="Path-41-Copy-3" fill="#FFFFFF" transform="translate(69.848203, 253.605018) rotate(-19.000000) translate(-69.848203, -253.605018) "></path>
                    <path d="M49,289.101811 C52.8394813,284.844235 57.8394813,283.901101 64,286.272409 C60.4716922,292.80698 55.4716922,293.750114 49,289.101811 Z" id="Path-41-Copy-15" fill="#FFFFFF" transform="translate(56.500000, 288.500000) rotate(-19.000000) translate(-56.500000, -288.500000) "></path>
                    <path d="M94,218.101811 C97.8394813,213.844235 102.839481,212.901101 109,215.272409 C105.471692,221.80698 100.471692,222.750114 94,218.101811 Z" id="Path-41-Copy-10" fill="#FFFFFF" transform="translate(101.500000, 217.500000) rotate(-19.000000) translate(-101.500000, -217.500000) "></path>
                    <path d="M89.4003517,332.830135 C94.2636947,327.356109 100.597028,326.143508 108.400352,329.192333 C103.931162,337.593924 97.5978286,338.806525 89.4003517,332.830135 Z" id="Path-41-Copy-4" fill="#FFFFFF" transform="translate(98.900352, 332.056378) rotate(31.000000) translate(-98.900352, -332.056378) "></path>
                    <path d="M44.5939443,224.635716 C49.969218,218.553464 56.969218,217.20613 65.5939443,220.593713 C60.6543134,229.928815 53.6543134,231.276149 44.5939443,224.635716 Z" id="Path-41-Copy" fill="#FFFFFF" transform="translate(55.093944, 223.775986) rotate(-16.000000) translate(-55.093944, -223.775986) "></path>
                    <path d="M18,248.85973 C23.3752738,242.777479 30.3752738,241.430144 39,244.817728 C34.0603691,254.152829 27.0603691,255.500163 18,248.85973 Z" id="Path-41-Copy-14" fill="#FFFFFF" transform="translate(28.500000, 248.000000) rotate(-16.000000) translate(-28.500000, -248.000000) "></path>
                    <path d="M6,208.34248 C11.8209635,201.759146 19.4013672,200.300813 28.7412109,203.96748 C23.3920115,214.071646 15.8116079,215.52998 6,208.34248 Z" id="Path-41-Copy-2" fill="#FFFFFF" transform="translate(17.370605, 207.411921) rotate(-25.000000) translate(-17.370605, -207.411921) "></path>
                    <path d="M73.7939453,211.423569 L73.7939453,198.429514 C73.7939453,194.893925 70.9325503,192.025247 67.3969727,192.01626 C63.872991,192.007303 61.0089781,194.856793 61.0000206,198.380774 C61.0000069,198.386181 61,198.391587 61,198.396993 L61,209.52993 C61,216.331938 65.4767538,222.322677 72,224.25 L75.1751103,225.188101 C79.7164237,226.529852 84.5707525,224.457666 86.7431641,220.25 C89.0421492,215.797178 93.634321,213 98.6456037,213 L106.250071,213 C110.254135,213 113.500071,216.245936 113.500071,220.25 L113.500071,220.427699 C113.500071,224.333623 110.333694,227.5 106.42777,227.5 C104.209001,227.5 102.410333,229.298668 102.410333,231.517437 C102.410333,232.24173 102.606142,232.952552 102.977036,233.574676 L103.677734,234.75 C105.033744,237.024518 104.289146,239.967642 102.014628,241.323652 C101.272136,241.766307 100.423785,242 99.5593555,242 L87.3115234,242 C81.2363912,242 76.3115234,246.924868 76.3115234,253 C76.3115234,259.075132 81.2363912,264 87.3115234,264 L94.3554687,264 C97.1168925,264 99.3554687,266.238576 99.3554687,269 C99.3554687,271.761424 97.1168925,274 94.3554688,274 L87.8334961,274 C81.4700863,274 76.3115234,279.158563 76.3115234,285.521973 L76.3115234,316.607546 C76.3115234,320.521811 79.4846616,323.694949 83.3989258,323.694949 L85.8338113,323.694949 C88.4033254,323.694949 90.4863281,325.777951 90.4863281,328.347465 C90.4863281,330.91698 88.4033254,332.999982 85.8338113,332.999982 L65.0000089,332.999982 C62.2385802,332.999982 60,335.238562 60,337.999991 C60,340.76142 62.2385802,343 65.0000089,343 L69.262207,343 C74.3775827,343 78.5244141,347.146831 78.5244141,352.262207 L78.5244141,363" id="Path-40" stroke="#FFFFFF" stroke-width="2" stroke-linecap="round"></path>
                    <path d="M39.7939453,202.51626 L39.7939453,198.429514 C39.7939453,194.893925 36.9325503,192.025247 33.3969727,192.01626 C29.8282034,192.007189 26.8933509,194.826201 26.7587757,198.392444 L26.1887806,213.497315 C26.0932826,216.028011 28.0674008,218.156962 30.5980971,218.25246 C30.7320363,218.257514 30.8661327,218.256693 31,218.25 C33.6268022,218.11866 35.8627183,220.141632 35.9940584,222.768434 C35.9980188,222.847643 36,222.926938 36,223.006246 L36,237.374942 C36,242.306165 39.9975459,246.303711 44.9287688,246.303711 L45.009393,246.303711 C49.8960883,246.303711 53.8575375,250.26516 53.8575375,255.151855 C53.8575375,260.038551 49.8960883,264 45.009393,264 L38,264 C35.2385763,264 33,266.238576 33,269 C33,271.787966 35.2108056,274.073694 37.9972245,274.166574 L54.1019433,274.703398 C59.0634401,274.868781 63,278.938746 63,283.902999 L63,310.411921" id="Path-40-Copy" stroke="#FFFFFF" stroke-width="2" stroke-linecap="round"></path>
                    <path d="M39.7939453,202.51626 L39.7939453,198.429514 C39.7939453,194.893925 36.9325503,192.025247 33.3969727,192.01626 C29.8282034,192.007189 26.8933509,194.826201 26.7587757,198.392444 L26.1887806,213.497315 C26.0932826,216.028011 28.0674008,218.156962 30.5980971,218.25246 C30.7320363,218.257514 30.8661327,218.256693 31,218.25 C33.6268022,218.11866 35.8627183,220.141632 35.9940584,222.768434 C35.9980188,222.847643 36,222.926938 36,223.006246 L36,237.374942 C36,242.306165 39.9975459,246.303711 44.9287688,246.303711 C48.1992683,246.303711 50.850532,243.652447 50.850532,240.381948 C50.850532,239.5906 50.6919214,238.807279 50.3840716,238.078266" id="Path-40-Copy" stroke="#FFFFFF" stroke-width="2" stroke-linecap="round"></path>
                    <path d="M39.7939453,202.51626 L39.7939453,192.301815 C39.7939453,192.122286 39.7944288,191.942756 39.7953957,191.76323 L39.9124194,170.035572 C39.9214631,168.356434 41.285222,167 42.9643844,167 C44.6409086,167 46,165.640909 46,163.964384 L46,130.12793 C46,126.400008 42.9779221,123.37793 39.25,123.37793 C35.5220779,123.37793 32.5,120.355852 32.5,116.62793 L32.5,34.25 C32.5,30.7982203 29.7017797,28 26.25,28 C22.7982203,28 20,30.7982203 20,34.25 L20,37 C20,41.9705627 24.0294373,46 29,46 L31.8112548,46 C38.3344308,46 43.6225097,40.7119211 43.6225097,34.1887452 L43.6225097,8.81125484 C43.6225097,3.94493316 39.6775765,-8.93928789e-16 34.8112548,0 C30.2498839,8.37910248e-16 26.5521621,3.69772175 26.5521621,8.25909269 C26.5521621,8.43714671 26.55792,8.61515418 26.5694268,8.792836" id="Path-40-Copy" stroke="#FFFFFF" stroke-width="2" stroke-linecap="round"></path>
                    <rect id="Rectangle" fill="#FBCD3B" x="66" y="203" width="11" height="12"></rect>
                    <path d="M46,204.01626 L46,195.961289 C46,193.79149 47.7589697,192.03252 49.9287688,192.03252 C52.0985679,192.03252 53.8575375,193.79149 53.8575375,195.961289 L53.8575375,209.268182 C53.8575375,214.726784 58.2826089,219.151855 63.7412109,219.151855 L63.7412109,219.151855" id="Path-42" stroke="#FFFFFF" stroke-width="2"></path>
                    <rect id="Rectangle-Copy-10" fill="#FBCD3B" x="35" y="203" width="13" height="12"></rect>
                </g>
                <rect id="Rectangle-Copy-7" fill="#2D578A" x="323" y="405" width="30" height="12" rx="3"></rect>
                <rect id="Rectangle-Copy-8" fill="#2D578A" x="274" y="405" width="41" height="12" rx="3"></rect>
                <rect id="Rectangle-Copy-9" fill="#2D578A" x="304" y="388" width="25" height="12" rx="3"></rect>
                <rect id="Rectangle-Copy-5" fill="#2D578A" x="12" y="0" width="35" height="12" rx="3"></rect>
                <rect id="Rectangle-Copy-6" fill="#2D578A" x="0" y="20" width="25" height="12" rx="3"></rect>
            </g>
        </g>
    </g>
</svg>