<?xml version="1.0" encoding="UTF-8"?>
<svg width="51px" height="51px" viewBox="0 0 51 51" version="1.1" xmlns="http://www.w3.org/2000/svg" xmlns:xlink="http://www.w3.org/1999/xlink">
    <!-- Generator: sketchtool 57.1 (101010) - https://sketch.com -->
    <title>76F253FA-9517-4B0B-8393-6FEEF3F3F6F8</title>
    <desc>Created with sketchtool.</desc>
    <g id="Cloud-hosting---hero-01" stroke="none" stroke-width="1" fill="none" fill-rule="evenodd">
        <g id="XL-HG-Cloud-hosting" transform="translate(-406.000000, -408.000000)" fill="#316690">
            <g id="xl_icons-copy" transform="translate(364.000000, 408.000000)">
                <g id="checklist" transform="translate(42.000000, 0.000000)">
                    <path d="M11.6821316,49.8372895 C11.5425526,49.8372895 11.4025263,49.7934474 11.2839737,49.7062105 L8.04055263,47.3154737 L4.79713158,49.7062105 C4.56047368,49.8811316 4.23792105,49.8806842 4.00081579,49.7066579 L0.356552632,47.0224474 C0.184763158,46.8958421 0.0836578947,46.6954211 0.0836578947,46.4820263 L0.0836578947,1.08665789 C0.0836578947,0.715789474 0.383842105,0.415605263 0.754710526,0.415605263 L37.1875,0.415605263 C37.5583684,0.415605263 37.8585526,0.715789474 37.8585526,1.08665789 L37.8585526,46.4820263 C37.8585526,46.6954211 37.757,46.8958421 37.5852105,47.0224474 L33.9391579,49.7066579 C33.7029474,49.8806842 33.3799474,49.8806842 33.1432895,49.7066579 L29.8962895,47.3154737 L26.6510789,49.7066579 C26.4144211,49.8806842 26.0918684,49.8806842 25.8552105,49.7066579 L22.6095526,47.3154737 L19.3643421,49.7066579 C19.1276842,49.8806842 18.8046842,49.8806842 18.5684737,49.7066579 L15.3241579,47.3154737 L12.0807368,49.7062105 C11.9621842,49.7938947 11.8221579,49.8372895 11.6821316,49.8372895 L11.6821316,49.8372895 Z M29.8962895,45.8109737 C30.0358684,45.8109737 30.1758947,45.8548158 30.2944474,45.9416053 L33.5414474,48.3332368 L36.5164474,46.1429211 L36.5164474,1.75771053 L1.42576316,1.75771053 L1.42576316,46.1429211 L4.39852632,48.3323421 L7.64239474,45.9416053 C7.87905263,45.7666842 8.20205263,45.7666842 8.43871053,45.9416053 L11.6821316,48.3323421 L14.9255526,45.9416053 C15.1622105,45.7666842 15.4852105,45.7666842 15.7218684,45.9416053 L18.9661842,48.3323421 L22.2113947,45.9411579 C22.4480526,45.7671316 22.7706053,45.7671316 23.0072632,45.9411579 L26.2529211,48.3323421 L29.4981316,45.9411579 C29.6166842,45.8548158 29.7567105,45.8109737 29.8962895,45.8109737 L29.8962895,45.8109737 Z" id="Shape"></path>
                    <path d="M46.3804737,50.5539737 C46.1465,50.5539737 45.9295263,50.4322895 45.8078421,50.2323158 L42.041,44.0590789 C41.9765789,43.9539474 41.9425789,43.8327105 41.9425789,43.7096842 L41.9425789,8.55905263 C41.9425789,8.18818421 42.2427632,7.888 42.6136316,7.888 L50.1468684,7.888 C50.5177368,7.888 50.8179211,8.18818421 50.8179211,8.55905263 L50.8179211,43.7096842 C50.8179211,43.8327105 50.7839211,43.9539474 50.7195,44.0590789 L46.9531053,50.2323158 C46.8314211,50.4318421 46.6144474,50.5539737 46.3804737,50.5539737 L46.3804737,50.5539737 Z M43.2846842,43.5208947 L46.3804737,48.5945 L49.4758158,43.5208947 L49.4758158,9.23010526 L43.2846842,9.23010526 L43.2846842,43.5208947 L43.2846842,43.5208947 Z" id="Shape"></path>
                    <path d="M50.1468684,6.07078947 L42.6136316,6.07078947 C42.2427632,6.07078947 41.9425789,5.77060526 41.9425789,5.39973684 L41.9425789,3.41565789 C41.9425789,1.83018421 43.2327895,0.539973684 44.8187105,0.539973684 L47.9417895,0.539973684 C49.5277105,0.539973684 50.8179211,1.83018421 50.8179211,3.41565789 L50.8179211,5.39973684 C50.8179211,5.77015789 50.5172895,6.07078947 50.1468684,6.07078947 L50.1468684,6.07078947 Z M43.2846842,4.72868421 L49.4758158,4.72868421 L49.4758158,3.41565789 C49.4758158,2.57013158 48.7877632,1.88207895 47.9417895,1.88207895 L44.8187105,1.88207895 C43.9727368,1.88207895 43.2846842,2.57013158 43.2846842,3.41565789 L43.2846842,4.72868421 L43.2846842,4.72868421 Z" id="Shape"></path>
                    <path d="M50.1468684,9.23010526 L42.6136316,9.23010526 C42.2427632,9.23010526 41.9425789,8.92992105 41.9425789,8.55905263 L41.9425789,5.39973684 C41.9425789,5.02886842 42.2427632,4.72868421 42.6136316,4.72868421 L50.1468684,4.72868421 C50.5177368,4.72868421 50.8179211,5.02886842 50.8179211,5.39973684 L50.8179211,8.55905263 C50.8179211,8.92992105 50.5172895,9.23010526 50.1468684,9.23010526 L50.1468684,9.23010526 Z M43.2846842,7.888 L49.4758158,7.888 L49.4758158,6.07078947 L43.2846842,6.07078947 L43.2846842,7.888 L43.2846842,7.888 Z" id="Shape"></path>
                    <path d="M43.0220789,44.2420526 L42.2051842,43.1768684 L45.7094211,40.4881842 L45.7094211,8.55860526 L47.0515263,8.55860526 L47.0515263,40.8187895 C47.0515263,41.0277105 46.9544474,41.2241053 46.7889211,41.3511579 L43.0220789,44.2420526 L43.0220789,44.2420526 Z" id="Shape"></path>
                    <polygon id="Rectangle-path" transform="translate(48.230926, 42.263379) rotate(-52.496386) translate(-48.230926, -42.263379) " points="47.5596626 39.8896866 48.9021899 39.8896866 48.9021899 44.6370709 47.5596626 44.6370709"></polygon>
                    <path d="M8.80868421,12.9070263 C6.71186842,12.9070263 5.00605263,11.2012105 5.00605263,9.10439474 C5.00605263,7.00757895 6.71186842,5.30176316 8.80868421,5.30176316 C10.9055,5.30176316 12.6113158,7.00757895 12.6113158,9.10439474 C12.6113158,11.2012105 10.9055,12.9070263 8.80868421,12.9070263 L8.80868421,12.9070263 Z M8.80868421,6.64386842 C7.45181579,6.64386842 6.34815789,7.74752632 6.34815789,9.10439474 C6.34815789,10.4612632 7.45181579,11.5649211 8.80868421,11.5649211 C10.1655526,11.5649211 11.2692105,10.4612632 11.2692105,9.10439474 C11.2692105,7.74752632 10.1655526,6.64386842 8.80868421,6.64386842 L8.80868421,6.64386842 Z" id="Shape"></path>
                    <path d="M8.80868421,22.1004474 C6.71186842,22.1004474 5.00605263,20.3946316 5.00605263,18.2978158 C5.00605263,16.201 6.71186842,14.4951842 8.80868421,14.4951842 C10.9055,14.4951842 12.6113158,16.201 12.6113158,18.2978158 C12.6113158,20.3946316 10.9055,22.1004474 8.80868421,22.1004474 L8.80868421,22.1004474 Z M8.80868421,15.8372895 C7.45181579,15.8372895 6.34815789,16.9409474 6.34815789,18.2978158 C6.34815789,19.6546842 7.45181579,20.7583421 8.80868421,20.7583421 C10.1655526,20.7583421 11.2692105,19.6546842 11.2692105,18.2978158 C11.2692105,16.9409474 10.1655526,15.8372895 8.80868421,15.8372895 L8.80868421,15.8372895 Z" id="Shape"></path>
                    <path d="M8.80868421,31.2934211 C6.71186842,31.2934211 5.00605263,29.5876053 5.00605263,27.4907895 C5.00605263,25.3939737 6.71186842,23.6881579 8.80868421,23.6881579 C10.9055,23.6881579 12.6113158,25.3939737 12.6113158,27.4907895 C12.6113158,29.5876053 10.9055,31.2934211 8.80868421,31.2934211 L8.80868421,31.2934211 Z M8.80868421,25.0302632 C7.45181579,25.0302632 6.34815789,26.1339211 6.34815789,27.4907895 C6.34815789,28.8476579 7.45181579,29.9513158 8.80868421,29.9513158 C10.1655526,29.9513158 11.2692105,28.8476579 11.2692105,27.4907895 C11.2692105,26.1343684 10.1655526,25.0302632 8.80868421,25.0302632 L8.80868421,25.0302632 Z" id="Shape"></path>
                    <path d="M8.80868421,40.4872895 C6.71186842,40.4872895 5.00605263,38.7810263 5.00605263,36.6846579 C5.00605263,34.5878421 6.71186842,32.8820263 8.80868421,32.8820263 C10.9055,32.8820263 12.6113158,34.5878421 12.6113158,36.6846579 C12.6113158,38.7810263 10.9055,40.4872895 8.80868421,40.4872895 L8.80868421,40.4872895 Z M8.80868421,34.2241316 C7.45181579,34.2241316 6.34815789,35.3282368 6.34815789,36.6846579 C6.34815789,38.0410789 7.45181579,39.1451842 8.80868421,39.1451842 C10.1655526,39.1451842 11.2692105,38.0410789 11.2692105,36.6846579 C11.2692105,35.3282368 10.1655526,34.2241316 8.80868421,34.2241316 L8.80868421,34.2241316 Z" id="Shape"></path>
                    <rect id="Rectangle-path" x="16.2640789" y="8.23202632" width="15.2105263" height="1.34210526"></rect>
                    <rect id="Rectangle-path" x="16.2640789" y="17.6267632" width="15.2105263" height="1.34210526"></rect>
                    <rect id="Rectangle-path" x="16.2640789" y="26.8197368" width="15.2105263" height="1.34210526"></rect>
                    <rect id="Rectangle-path" x="16.2640789" y="36.0136053" width="15.2105263" height="1.34210526"></rect>
                    <path d="M8.99344737,10.7355 C8.81584211,10.7355 8.64494737,10.6648158 8.51878947,10.5391053 L6.98655263,9.00686842 L7.93542105,8.058 L8.95676316,9.07934211 L12.5240789,4.94610526 L13.5400526,5.82294737 L9.50121053,10.5028684 C9.37952632,10.6442368 9.20415789,10.7283421 9.01760526,10.7350526 C9.00955263,10.7350526 9.0015,10.7355 8.99344737,10.7355 L8.99344737,10.7355 Z" id="Shape"></path>
                    <path d="M8.99344737,19.9378684 C8.81584211,19.9378684 8.64494737,19.8671842 8.51878947,19.7414737 L6.98655263,18.2092368 L7.93542105,17.2603684 L8.95676316,18.2817105 L12.5240789,14.1484737 L13.5400526,15.0253158 L9.50121053,19.7052368 C9.37952632,19.8466053 9.20415789,19.9307105 9.01760526,19.9374211 C9.00955263,19.9374211 9.0015,19.9378684 8.99344737,19.9378684 L8.99344737,19.9378684 Z" id="Shape"></path>
                    <path d="M8.99344737,28.9930526 C8.81584211,28.9930526 8.64494737,28.9223684 8.51878947,28.7966579 L6.98655263,27.2644211 L7.93542105,26.3155526 L8.95676316,27.3368947 L12.5240789,23.2036579 L13.5400526,24.0805 L9.50121053,28.7604211 C9.37952632,28.9017895 9.20415789,28.9858947 9.01760526,28.9926053 C9.00955263,28.9930526 9.0015,28.9930526 8.99344737,28.9930526 L8.99344737,28.9930526 Z" id="Shape"></path>
                    <path d="M8.99344737,38.3457368 C8.81584211,38.3457368 8.64494737,38.2755 8.51878947,38.1493421 L6.98655263,36.6175526 L7.93542105,35.6686842 L8.95676316,36.6895789 L12.5240789,32.5563421 L13.5400526,33.4336316 L9.50121053,38.1135526 C9.37952632,38.2544737 9.20415789,38.3385789 9.01760526,38.3452895 C9.00955263,38.3457368 9.0015,38.3457368 8.99344737,38.3457368 L8.99344737,38.3457368 Z" id="Shape"></path>
                    <rect id="Rectangle-path" x="43.7987105" y="44.7824737" width="5.16307895" height="1.34210526"></rect>
                </g>
            </g>
        </g>
    </g>
</svg>