<?xml version="1.0" encoding="UTF-8"?>
<svg width="361px" height="146px" viewBox="0 0 361 146" version="1.1" xmlns="http://www.w3.org/2000/svg" xmlns:xlink="http://www.w3.org/1999/xlink">
    <!-- Generator: sketchtool 57.1 (101010) - https://sketch.com -->
    <title>631C8B5F-4EB9-4913-8165-090BB78CAC12</title>
    <desc>Created with sketchtool.</desc>
    <g id="Cloud-hosting---hero-01" stroke="none" stroke-width="1" fill="none" fill-rule="evenodd">
        <g id="XL-HG-Cloud-hosting" transform="translate(-1219.000000, -222.000000)">
            <g id="xl_corner-graphic_cloud-copy" transform="translate(1219.000000, 222.000000)">
                <path d="M112,71.0946923 L132.022544,59.3451111 C134.811928,53.8212495 140.137227,51.0593187 147.998442,51.0593187 C159.790265,51.0593187 175.831524,14.1228076 187.952942,14.1228076 C200.074361,14.1228076 198.894159,32.3668826 205.27427,32.3668826 C211.654381,32.3668826 241.727735,0 269.272507,0 C287.635688,0 290.676121,23.6982308 278.393807,71.0946923 L112,71.0946923 Z" id="Path-5" fill="#1D4E76"></path>
                <path d="M360.787611,71.3320366 C360.167658,65.1970134 354.466161,61.5470848 343.68312,60.3822507 C327.50856,58.6349996 330.500974,59.5086252 317.161968,59.5086252 C303.822961,59.5086252 323.200513,35 298.140265,35 C273.080018,35 242.061683,71.3320366 224.755188,71.3320366 C213.217524,71.3320366 258.561665,71.3320366 360.787611,71.3320366 Z" id="Path-7" fill="#3D7098"></path>
                <path d="M0,145.554939 L170.461475,145.554939 C166.823592,136.356873 162.319331,131.757839 156.948691,131.757839 C148.89273,131.757839 149.948037,140.752611 144.545417,140.752611 C139.142798,140.752611 118.09972,117 105.902026,117 C93.7043315,117 96.8477052,137.873133 85.2307375,137.873133 C73.6137698,137.873133 68.8114416,131.757839 58.2309698,131.757839 C47.650498,131.757839 46.2895642,140.752611 39.1244468,140.752611 C31.9593293,140.752611 26.7965525,137.873133 18.3198403,137.873133 C12.6686988,137.873133 6.56208538,140.433735 0,145.554939 Z" id="Path-7" fill="#3D7098" transform="translate(85.230737, 131.277470) scale(-1, 1) translate(-85.230737, -131.277470) "></path>
                <g id="zepplin" transform="translate(171.500000, 85.500000) scale(-1, 1) translate(-171.500000, -85.500000) translate(86.000000, 42.000000)" fill-rule="nonzero">
                    <polygon id="Shape" fill="#316690" points="120 19.9307438 129.2904 0 162 6.18181818 144.5644 34"></polygon>
                    <polygon id="Shape" fill="#316690" points="120 56.0692562 129.191757 76 161 70.5206612 144.303581 42"></polygon>
                    <path d="M120,55.5783051 L125.165217,66 C135.782609,63.2881356 146.973913,58.6779661 153,54.6101695 L145.174696,42 L120,55.5783051 Z" id="Shape" fill="#234461"></path>
                    <path d="M67,71.0713657 L67,84.1877081 C67,85.7309726 68.0559811,86.9790772 69.3682136,86.9987545 C75.6618608,87.0409202 90.0147556,86.0233214 99.5411129,82.2874408 C106.682361,79.4763944 111.047083,76.2183916 113.826425,72.9491447 C116.205902,70.1380983 117,67.3467292 117,61.7471248 L117,58 L67,71.0713657 Z" id="Shape" fill="#316690"></path>
                    <path d="M164,37.006931 C164,56.3332409 106.791893,72 63.7152841,72 C20.6386753,72 8,56.3387857 8,37.006931 C8,17.6750762 20.6358798,2 63.7152841,2 C106.794688,2 164,17.680621 164,37.006931 Z" id="Shape" fill="#FFFFFF"></path>
                    <path d="M164,37.5807671 C164,57.142443 106.791893,73 63.7152841,73 C20.6386753,73 8,57.1480553 8,37.5807671 C8,33.0151601 25.0248911,56.8674402 68.1042955,56.8674402 C139.390785,56.8674402 164,35.2600806 164,37.5807671 Z" id="Shape" fill="#B1D0E9"></path>
                    <path d="M113,41.7142857 L113,42.8571429 C113,44.6342857 116.303149,46 119.406022,46.2857143 C127.281676,47.0114286 149.30643,48 149.30643,48 L162,38 L113,41.7142857 Z" id="Shape" fill="#B1D0E9"></path>
                    <circle id="Oval" fill="#B1D0E9" cx="77" cy="81" r="2"></circle>
                    <circle id="Oval" fill="#B1D0E9" cx="88" cy="79" r="2"></circle>
                    <circle id="Oval" fill="#B1D0E9" cx="98" cy="76" r="2"></circle>
                    <ellipse id="Oval" fill="#B1D0E9" cx="16.5" cy="38" rx="8.5" ry="17"></ellipse>
                    <ellipse id="Oval" fill="#316690" cx="14" cy="37" rx="7" ry="16"></ellipse>
                    <ellipse id="Oval" fill="#F8FFFC" cx="9" cy="37.5" rx="3" ry="6.5"></ellipse>
                    <path d="M10,40 L6.28571429,40 C6.28571429,40 6,39.6688673 6,37.0198059 C6,35.7449451 8.85714286,36.0264078 8.85714286,36.0264078 L10,40 Z" id="Shape" fill="#E5E5E5"></path>
                    <polygon id="Shape" fill="#F8FFFC" points="10 40 0 37.5014343 10 35"></polygon>
                    <path d="M113,33.1846138 L113,43.814724 C113,44.1434274 113.133122,44.4573731 113.367589,44.6815572 C113.602055,44.9057412 113.916797,45.0200281 114.23662,44.9971136 L169.929004,41.0482172 C171.318465,40.9484976 171.376823,38.8543858 169.981804,38.686287 L114.28942,32.0079224 C113.9619,31.9689163 113.63372,32.075154 113.387428,32.2999129 C113.141137,32.5246718 113,32.846561 113,33.1846138 L113,33.1846138 Z" id="Shape" fill="#316690"></path>
                </g>
            </g>
        </g>
    </g>
</svg>