<?xml version="1.0" encoding="UTF-8"?>
<svg width="45px" height="45px" viewBox="0 0 45 45" version="1.1" xmlns="http://www.w3.org/2000/svg" xmlns:xlink="http://www.w3.org/1999/xlink">
    <!-- Generator: sketchtool 57.1 (101010) - https://sketch.com -->
    <title>42D9C97C-3DF8-442C-9BBC-2B8ADEE2BAA3@1x</title>
    <desc>Created with sketchtool.</desc>
    <g id="Cloud-hosting---hero-01" stroke="none" stroke-width="1" fill="none" fill-rule="evenodd">
        <g id="XL-HG-Cloud-hosting" transform="translate(-1511.000000, -545.000000)" fill="#316690">
            <g id="xl_icons-copy" transform="translate(364.000000, 408.000000)">
                <g id="edit-tools" transform="translate(1147.000000, 137.000000)">
                    <path d="M12.2729464,22.4417411 L0.608705357,10.7775 C0.491383929,10.6605804 0.426294643,10.5014732 0.426294643,10.3359375 C0.426294643,10.1704018 0.491785714,10.0116964 0.608705357,9.894375 L9.96227679,0.542008929 C10.2061607,0.298125 10.6011161,0.298125 10.845,0.542008929 L22.5092411,12.20625 L21.6265179,13.0889732 L10.4034375,1.86589286 L1.93258929,10.3355357 L13.1556696,21.5586161 L12.2729464,22.4417411 L12.2729464,22.4417411 Z" id="Shape"></path>
                    <path d="M34.6958036,44.6058482 C34.5358929,44.6058482 34.3763839,44.5447768 34.2542411,44.4226339 L21.9117857,32.0809821 L22.7953125,31.1978571 L34.6958036,43.0983482 L43.1666518,34.6287054 L31.4541964,22.91625 L32.3369196,22.0335268 L44.4905357,34.1871429 C44.6078571,34.3040625 44.6741518,34.4631696 44.6741518,34.6287054 C44.6741518,34.7946429 44.6082589,34.9533482 44.4905357,35.0702679 L35.1373661,44.4226339 C35.0152232,44.5447768 34.8557143,44.6058482 34.6958036,44.6058482 L34.6958036,44.6058482 Z" id="Shape"></path>
                    <polygon id="Rectangle-path" transform="translate(12.644737, 5.835900) rotate(-45.000000) translate(-12.644737, -5.835900) " points="10.8276786 5.21173161 14.4617956 5.21173161 14.4617956 6.46006785 10.8276786 6.46006785"></polygon>
                    <polygon id="Rectangle-path" transform="translate(16.394554, 9.487714) rotate(-45.000000) translate(-16.394554, -9.487714) " points="14.5778972 8.86334527 18.2112105 8.86334527 18.2112105 10.1120833 14.5778972 10.1120833"></polygon>
                    <polygon id="Rectangle-path" transform="translate(35.453521, 28.596056) rotate(-45.000000) translate(-35.453521, -28.596056) " points="33.6364622 27.9718879 37.2705792 27.9718879 37.2705792 29.2202241 33.6364622 29.2202241"></polygon>
                    <polygon id="Rectangle-path" transform="translate(39.231599, 32.323342) rotate(-45.000000) translate(-39.231599, -32.323342) " points="37.4145403 31.6991736 41.0486572 31.6991736 41.0486572 32.9475098 37.4145403 32.9475098"></polygon>
                    <path d="M10.2897321,34.6889732 C10.24875,34.6889732 10.2073661,34.6849554 10.1659821,34.6769196 L2.1515625,33.0533036 C1.92575893,33.0075 1.74375,32.8419643 1.67705357,32.6217857 C1.61116071,32.4012054 1.67102679,32.1625446 1.83375,31.9998214 L27.4001786,6.43419643 C27.6336161,6.19995536 28.0490625,6.19995536 28.2829018,6.43419643 L33.1011161,11.2532143 C33.3454018,11.4970982 33.3454018,11.8924554 33.1011161,12.1359375 L10.7308929,34.5065625 C10.6131696,34.6246875 10.4540625,34.6889732 10.2897321,34.6889732 L10.2897321,34.6889732 Z M3.54013393,32.0604911 L10.0860268,33.3867857 L31.7784375,11.6947768 L27.8417411,7.75848214 L3.54013393,32.0604911 L3.54013393,32.0604911 Z" id="Shape"></path>
                    <path d="M11.9133482,42.7037946 C11.8530804,42.7037946 11.7928125,42.6949554 11.73375,42.6772768 C11.5131696,42.6105804 11.3476339,42.4289732 11.3014286,42.2031696 L9.67861607,34.1883482 C9.63683036,33.9834375 9.70111607,33.7712946 9.84857143,33.6230357 L32.2187946,11.2528125 C32.4626786,11.0089286 32.8576339,11.0089286 33.1015179,11.2528125 L37.9209375,16.0718304 C38.0374554,16.18875 38.1033482,16.3478571 38.1033482,16.5133929 C38.1033482,16.6789286 38.0374554,16.8376339 37.9209375,16.9549554 L12.3545089,42.5205804 C12.2367857,42.6395089 12.0760714,42.7037946 11.9133482,42.7037946 L11.9133482,42.7037946 Z M10.9683482,34.2695089 L12.2946429,40.8154018 L36.59625,16.5133929 L32.6607589,12.5775 L10.9683482,34.2695089 L10.9683482,34.2695089 Z" id="Shape"></path>
                    <path d="M0.728839286,44.3020982 C0.564910714,44.3020982 0.405,44.2370089 0.286875,44.1192857 C0.148258929,43.9802679 0.0831696429,43.7841964 0.110892857,43.5893304 L1.71,32.4044196 C1.73450893,32.2348661 1.82732143,32.0825893 1.9659375,31.9833482 C2.10616071,31.8845089 2.28013393,31.8467411 2.44888393,31.8804911 L10.4110714,33.4522768 C10.6581696,33.5012946 10.8518304,33.6941518 10.9020536,33.94125 L12.5256696,41.9556696 C12.5594196,42.1240179 12.5232589,42.2991964 12.4232143,42.4398214 C12.324375,42.5800446 12.1720982,42.6732589 12.0021429,42.6977679 L0.816830357,44.2956696 C0.787098214,44.2996875 0.757366071,44.3020982 0.728839286,44.3020982 L0.728839286,44.3020982 Z M2.85227679,33.2325 L1.46450893,42.94125 L11.1700446,41.5546875 L9.76058036,34.5965625 L2.85227679,33.2325 L2.85227679,33.2325 Z" id="Shape"></path>
                    <path d="M37.4299554,17.0871429 C37.2700446,17.0871429 37.1105357,17.0264732 36.9883929,16.9043304 L27.4005804,7.31691964 C27.1566964,7.07303571 27.1566964,6.67808036 27.4005804,6.43419643 L29.8394196,3.99455357 C30.0724554,3.7603125 30.4875,3.7603125 30.7217411,3.99455357 L40.3099554,13.5827679 C40.5538393,13.8266518 40.5538393,14.2224107 40.3099554,14.4658929 L37.8715179,16.9047321 C37.749375,17.0264732 37.5894643,17.0871429 37.4299554,17.0871429 L37.4299554,17.0871429 Z M28.7240625,6.87535714 L37.4295536,15.5800446 L38.9856696,14.0239286 L30.2801786,5.3184375 L28.7240625,6.87535714 L28.7240625,6.87535714 Z" id="Shape"></path>
                    <path d="M39.8683929,14.6483036 C39.7088839,14.6483036 39.5489732,14.5876339 39.4268304,14.4654911 L29.8390179,4.87727679 C29.7212946,4.76035714 29.6554018,4.60165179 29.6554018,4.43571429 C29.6554018,4.27017857 29.7212946,4.11147321 29.8390179,3.99415179 L32.0251339,1.80763393 C32.6615625,1.17200893 33.5133482,0.822053571 34.425,0.822053571 C35.3603571,0.822053571 36.2406696,1.186875 36.9032143,1.84982143 L42.4534821,7.40169643 C43.8095089,8.75651786 43.8283929,10.9450446 42.4960714,12.2785714 L40.3091518,14.4654911 C40.1878125,14.5876339 40.0283036,14.6483036 39.8683929,14.6483036 L39.8683929,14.6483036 Z M31.1629018,4.43571429 L39.8683929,13.1412054 L41.6133482,11.3958482 C42.4587054,10.5488839 42.440625,9.15308036 41.5711607,8.28441964 L36.0208929,2.73294643 C35.5933929,2.30625 35.0276786,2.07040179 34.4254018,2.07040179 C33.8476339,2.07040179 33.3084375,2.29098214 32.9086607,2.69035714 L31.1629018,4.43571429 L31.1629018,4.43571429 Z" id="Shape"></path>
                    <polygon id="Rectangle-path" transform="translate(3.536824, 41.062039) rotate(-44.991897) translate(-3.536824, -41.062039) " points="2.91265581 38.0667556 4.16099207 38.0667556 4.16099207 44.0573232 2.91265581 44.0573232"></polygon>
                </g>
            </g>
        </g>
    </g>
</svg>