<?xml version="1.0" encoding="UTF-8"?>
<svg width="49px" height="47px" viewBox="0 0 49 47" version="1.1" xmlns="http://www.w3.org/2000/svg" xmlns:xlink="http://www.w3.org/1999/xlink">
    <!-- Generator: sketchtool 57.1 (101010) - https://sketch.com -->
    <title>1758F6D6-EA4F-49B0-95C2-9259383D662E</title>
    <desc>Created with sketchtool.</desc>
    <g id="Cloud-hosting---hero-01" stroke="none" stroke-width="1" fill="none" fill-rule="evenodd">
        <g id="XL-HG-Cloud-hosting" transform="translate(-364.000000, -542.000000)" fill="#316690">
            <g id="xl_icons-copy" transform="translate(364.000000, 408.000000)">
                <g id="edit-blueprints-2" transform="translate(0.000000, 134.000000)">
                    <path d="M48.5944541,14.0740038 L39.3630264,23.2692013 L39.3630264,11.8353375 C39.3890727,11.7300221 39.3879691,11.6231677 39.3630264,11.5220297 L39.3630264,11.0334895 L38.9019186,11.0334895 C37.1117871,10.2314217 35.9589071,8.46480574 35.9589071,6.50470851 C35.9589071,3.76628889 38.1953574,1.53861586 40.944346,1.53861586 C43.6933346,1.53861586 45.9297849,3.76628889 45.9297849,6.50470851 C45.9297849,6.55637681 45.937069,6.60606632 45.9483263,6.65421677 C45.937069,6.70236722 45.9297849,6.75205673 45.9297849,6.80372503 C45.9297849,8.5217508 44.5268163,9.91921327 42.8020213,9.91921327 C41.0772263,9.91921327 39.6742577,8.52153093 39.6742577,6.80372503 C39.6742577,6.74150321 39.6627796,6.6823595 39.6466662,6.62519458 C39.770938,5.77695509 40.5039869,5.12307633 41.3893405,5.12307633 C42.3614414,5.12307633 43.1525427,5.91085292 43.1525427,6.87935862 C43.1525427,7.24367506 43.4489849,7.53895387 43.8147368,7.53895387 C44.1804887,7.53895387 44.476931,7.24367506 44.476931,6.87935862 C44.476931,5.18353922 43.0918416,3.80388582 41.3893405,3.80388582 C39.6868394,3.80388582 38.30175,5.18353922 38.30175,6.87935862 C38.30175,6.98115615 38.3269133,7.0765776 38.3684108,7.16276471 C38.5529423,9.44034712 40.4688906,11.2384038 42.802242,11.2384038 C45.2572164,11.2384038 47.2543939,9.24906449 47.2543939,6.80372503 C47.2543939,6.75205673 47.2471097,6.70236722 47.2358524,6.65421677 C47.2471097,6.60606632 47.2543939,6.55637681 47.2543939,6.50470851 C47.2543939,3.03897519 44.4239554,0.219425354 40.9445667,0.219425354 L6.31004787,0.219425354 C2.83065918,0.219425354 0.000220731376,3.03897519 0.000220731376,6.50470851 C0.000220731376,8.77921281 1.22770792,10.8461645 3.17698671,11.9569229 L3.17698671,46.5584103 L39.3632472,46.5584103 L39.3632472,42.2980846 L48.5946748,42.2980846 L48.5946748,14.0740038 L48.5944541,14.0740038 Z M1.32438826,6.50514824 C1.32438826,3.76672862 3.56083857,1.53905559 6.30982714,1.53905559 L37.0835335,1.53905559 C35.5951418,2.68982944 34.6345189,4.4872265 34.6345189,6.50514824 C34.6345189,8.24801877 35.3547654,9.87040322 36.5683465,11.0339292 L33.9974881,11.0339292 L33.9974881,6.02650196 C33.9974881,5.66218551 33.7010459,5.3669067 33.335294,5.3669067 C32.9695421,5.3669067 32.6730999,5.66218551 32.6730999,6.02650196 L32.6730999,11.0337094 L30.3671192,11.0337094 L30.3671192,6.02650196 C30.3671192,5.66218551 30.0706769,5.3669067 29.704925,5.3669067 C29.3391731,5.3669067 29.0427309,5.66218551 29.0427309,6.02650196 L29.0427309,11.0337094 L26.7400612,11.0337094 L26.7400612,6.02650196 C26.7400612,5.66218551 26.4436189,5.3669067 26.0778671,5.3669067 C25.7121152,5.3669067 25.4156729,5.66218551 25.4156729,6.02650196 L25.4156729,11.0337094 L23.1125617,11.0337094 L23.1125617,6.02650196 C23.1125617,5.66218551 22.8161195,5.3669067 22.4503676,5.3669067 C22.0846157,5.3669067 21.7881735,5.66218551 21.7881735,6.02650196 L21.7881735,11.0337094 L19.4850623,11.0337094 L19.4850623,6.02650196 C19.4850623,5.66218551 19.18862,5.3669067 18.8228682,5.3669067 C18.4571163,5.3669067 18.160674,5.66218551 18.160674,6.02650196 L18.160674,11.0337094 L15.8575628,11.0337094 L15.8575628,6.02650196 C15.8575628,5.66218551 15.5611206,5.3669067 15.1953687,5.3669067 C14.8296168,5.3669067 14.5331746,5.66218551 14.5331746,6.02650196 L14.5331746,11.0337094 L12.0757722,11.0337094 L12.0757722,6.02650196 C12.0757722,5.66218551 11.7793299,5.3669067 11.413578,5.3669067 C11.0478261,5.3669067 10.7513839,5.66218551 10.7513839,6.02650196 L10.7513839,11.0337094 L8.44827272,11.0337094 L8.44827272,6.02650196 C8.44827272,5.66218551 8.15183048,5.3669067 7.78607859,5.3669067 C7.42032669,5.3669067 7.12388446,5.66218551 7.12388446,6.02650196 L7.12388446,11.0337094 L4.82121473,11.0337094 L4.82121473,6.02650196 C4.82121473,5.66218551 4.52477249,5.3669067 4.1590206,5.3669067 C3.79326871,5.3669067 3.49682647,5.66218551 3.49682647,6.02650196 L3.49682647,10.6032135 C2.15411751,9.68901453 1.32438826,8.16732828 1.32438826,6.50514824 L1.32438826,6.50514824 Z M38.0386382,45.2396596 L4.50115424,45.2396596 L4.50115424,12.3531198 L38.0386382,12.3531198 L38.0386382,24.5470572 C38.0386382,24.5600292 38.0417284,24.5721218 38.0423906,24.584874 L20.2589465,42.2985243 L38.0386382,42.2985243 L38.0386382,45.2396596 L38.0386382,45.2396596 Z M47.2700658,40.9793338 L23.4560198,40.9793338 L47.2700658,17.2589694 L47.2700658,40.9793338 L47.2700658,40.9793338 Z" id="Shape"></path>
                    <path d="M43.7370394,37.4603932 L43.7370394,24.6114777 L30.8377185,37.4603932 L43.7370394,37.4603932 L43.7370394,37.4603932 Z M34.0347917,36.1412027 L38.0386382,32.1530699 L38.0386382,36.1412027 L34.0347917,36.1412027 L34.0347917,36.1412027 Z M42.4126511,36.1412027 L39.3630264,36.1412027 L39.3630264,30.8338794 L42.4126511,27.7962234 L42.4126511,36.1412027 L42.4126511,36.1412027 Z" id="Shape"></path>
                    <path d="M28.3626575,25.7681879 C28.4920061,25.8970288 28.6615278,25.9614493 28.8308288,25.9614493 C29.0001297,25.9614493 29.1696514,25.8970288 29.299,25.7684077 C29.5576972,25.5107258 29.5576972,25.0932021 29.299,24.8355202 L27.3415542,22.8857566 L30.8152039,19.4257398 C31.073901,19.1682778 31.073901,18.7505341 30.8152039,18.4930721 C30.5565067,18.2353902 30.1375585,18.2353902 29.8788614,18.4930721 L26.4052117,21.9530889 L21.5676628,17.1345257 C21.3089657,16.8768439 20.8900175,16.8770637 20.6313203,17.1343059 C20.3726232,17.3919877 20.3726232,17.8095115 20.6313203,18.0671934 L25.4688692,22.8857566 L15.7176191,32.5985166 L12.0305222,28.9258902 L15.9829383,24.9885463 L16.9172942,25.9192352 C17.0466428,26.0480761 17.2161645,26.1124966 17.3854654,26.1124966 C17.5547664,26.1124966 17.7242881,26.0480761 17.8536367,25.9192352 C18.1123339,25.6617732 18.1123339,25.2440295 17.8536367,24.9865675 L12.2444109,19.399356 C11.9857138,19.1416741 11.5667656,19.1416741 11.3080684,19.399356 C11.0493713,19.656818 11.0493713,20.0745616 11.3080684,20.3320237 L15.0465958,24.0558786 L11.0941797,27.9932225 L9.44001879,26.3455536 C9.18132162,26.0878717 8.76237347,26.0878717 8.50367629,26.3455536 C8.24497912,26.6030156 8.24497912,27.0207592 8.50367629,27.2782213 L14.7812766,33.5311842 L9.48880043,38.8028894 C9.23010325,39.0603514 9.23010325,39.478095 9.48880043,39.7355571 C9.61814901,39.864398 9.78767071,39.9288185 9.95697168,39.9288185 C10.1262726,39.9288185 10.2957943,39.864398 10.4251429,39.7355571 L26.4052117,23.8184243 L28.3626575,25.7681879 L28.3626575,25.7681879 Z" id="Shape"></path>
                </g>
            </g>
        </g>
    </g>
</svg>