<?xml version="1.0" encoding="UTF-8"?>
<svg width="50px" height="45px" viewBox="0 0 50 45" version="1.1" xmlns="http://www.w3.org/2000/svg" xmlns:xlink="http://www.w3.org/1999/xlink">
    <!-- Generator: sketchtool 57.1 (101010) - https://sketch.com -->
    <title>2DB4808F-3034-4D7B-9152-1D73024048B3</title>
    <desc>Created with sketchtool.</desc>
    <g id="Cloud-hosting---hero-01" stroke="none" stroke-width="1" fill="none" fill-rule="evenodd">
        <g id="XL-HG-Cloud-hosting" transform="translate(-398.000000, -671.000000)" fill="#316690">
            <g id="xl_icons-copy" transform="translate(364.000000, 408.000000)">
                <g id="laptop-chart" transform="translate(34.000000, 263.000000)">
                    <path d="M30.3732143,39.32865 L1.59642857,39.32865 C1.73928571,40.82715 2.24821429,42.91965 3.35982143,43.08165 L30.3732143,43.08165 L46.3375,43.08165 C46.6633929,43.08165 46.9178571,42.96915 47.1455357,42.72615 C47.8419643,41.99715 48.0517857,40.39065 48.0964286,39.32865 L30.3732143,39.32865 L30.3732143,39.32865 Z M2.55178571,39.06765 L47.1008929,39.06765 L47.1008929,37.78965 L48.8598214,37.78965 C49.2660714,37.78965 49.6008929,38.11365 49.61875,38.52315 C49.6366071,38.89665 49.7392857,42.21765 48.2482143,43.78815 C47.7348214,44.32815 47.0741071,44.61615 46.3375,44.61615 L3.31071429,44.61615 C3.28392857,44.61615 3.25714286,44.61615 3.23035714,44.61165 C0.176785714,44.28315 0.0339285714,39.15315 0.0294642857,38.56815 C0.025,38.36115 0.105357143,38.16315 0.248214286,38.01915 C0.391071429,37.87515 0.5875,37.78965 0.788392857,37.78965 L2.55178571,37.78965 L2.55178571,39.06765 L2.55178571,39.06765 Z" id="Shape"></path>
                    <polygon id="Shape" points="47.1008929 37.78965 47.1008929 39.06765 2.55178571 39.06765 2.55178571 37.78965 4.07410714 37.78965"></polygon>
                    <polygon id="Shape" points="47.1008929 9.77715 47.1008929 37.78965 4.07410714 37.78965 4.07410714 37.53315 45.5741071 37.53315 45.5741071 35.62065 46.3375 35.62065 46.3375 34.85115 46.3375 34.08615 45.5741071 34.08615 45.5741071 14.12865 46.3375 14.12865 46.3375 13.35915 46.3375 12.59415 45.5741071 12.59415 45.5741071 11.31615 37.5383929 11.31615 37.5383929 9.77715"></polygon>
                    <polygon id="Rectangle-path" points="45.5741071 34.85115 46.3375 34.85115 46.3375 35.62065 45.5741071 35.62065"></polygon>
                    <polygon id="Rectangle-path" points="45.5741071 34.08615 46.3375 34.08615 46.3375 34.85115 45.5741071 34.85115"></polygon>
                    <polygon id="Rectangle-path" points="45.5741071 13.35915 46.3375 13.35915 46.3375 14.12865 45.5741071 14.12865"></polygon>
                    <polygon id="Rectangle-path" points="45.5741071 12.59415 46.3375 12.59415 46.3375 13.35915 45.5741071 13.35915"></polygon>
                    <polygon id="Rectangle-path" points="37.5383929 34.85115 45.5741071 34.85115 45.5741071 35.62065 37.5383929 35.62065"></polygon>
                    <polygon id="Rectangle-path" points="37.5383929 34.08615 45.5741071 34.08615 45.5741071 34.85115 37.5383929 34.85115"></polygon>
                    <polygon id="Rectangle-path" points="37.5383929 13.35915 45.5741071 13.35915 45.5741071 14.12865 37.5383929 14.12865"></polygon>
                    <polygon id="Rectangle-path" points="37.5383929 12.59415 45.5741071 12.59415 45.5741071 13.35915 37.5383929 13.35915"></polygon>
                    <polygon id="Shape" points="40.80625 5.94315 37.5383929 5.94315 37.5383929 9.77715 36.0116071 9.77715 36.0116071 4.40415 37.1276786 4.40415 35.2660714 2.52765 33.4089286 4.40415 34.525 4.40415 34.525 9.77715 33.0026786 9.77715 33.0026786 5.94315 29.7303571 5.94315 35.2660714 0.35865"></polygon>
                    <polygon id="Rectangle-path" points="33.0026786 34.85115 37.5383929 34.85115 37.5383929 35.62065 33.0026786 35.62065"></polygon>
                    <polygon id="Shape" points="37.5383929 34.08615 37.5383929 34.85115 33.0026786 34.85115 33.0026786 34.08615 34.525 34.08615 36.0116071 34.08615"></polygon>
                    <polygon id="Rectangle-path" points="36.0116071 14.12865 37.5383929 14.12865 37.5383929 34.08615 36.0116071 34.08615"></polygon>
                    <polygon id="Rectangle-path" points="36.0116071 13.35915 37.5383929 13.35915 37.5383929 14.12865 36.0116071 14.12865"></polygon>
                    <polygon id="Rectangle-path" points="36.0116071 12.59415 37.5383929 12.59415 37.5383929 13.35915 36.0116071 13.35915"></polygon>
                    <rect id="Rectangle-path" x="36.0116071" y="11.31615" width="1.52678571" height="1.278"></rect>
                    <rect id="Rectangle-path" x="36.0116071" y="9.77715" width="1.52678571" height="1.539"></rect>
                    <polygon id="Rectangle-path" points="33.0026786 14.12865 34.525 14.12865 34.525 34.08615 33.0026786 34.08615"></polygon>
                    <polygon id="Rectangle-path" points="33.0026786 13.35915 34.525 13.35915 34.525 14.12865 33.0026786 14.12865"></polygon>
                    <polygon id="Rectangle-path" points="33.0026786 12.59415 34.525 12.59415 34.525 13.35915 33.0026786 13.35915"></polygon>
                    <rect id="Rectangle-path" x="33.0026786" y="11.31615" width="1.52232143" height="1.278"></rect>
                    <rect id="Rectangle-path" x="33.0026786" y="9.77715" width="1.52232143" height="1.539"></rect>
                    <polygon id="Rectangle-path" points="29.7169643 34.85115 33.0026786 34.85115 33.0026786 35.62065 29.7169643 35.62065"></polygon>
                    <polygon id="Rectangle-path" points="29.7169643 34.08615 33.0026786 34.08615 33.0026786 34.85115 29.7169643 34.85115"></polygon>
                    <polygon id="Rectangle-path" points="4.07410714 13.35915 33.0026786 13.35915 33.0026786 14.12865 4.07410714 14.12865"></polygon>
                    <polygon id="Rectangle-path" points="4.07410714 12.59415 33.0026786 12.59415 33.0026786 13.35915 4.07410714 13.35915"></polygon>
                    <polygon id="Rectangle-path" points="25.1767857 34.85115 29.7169643 34.85115 29.7169643 35.62065 25.1767857 35.62065"></polygon>
                    <polygon id="Shape" points="29.7169643 34.08615 29.7169643 34.85115 25.1767857 34.85115 25.1767857 34.08615 26.7035714 34.08615 28.1946429 34.08615"></polygon>
                    <polygon id="Shape" points="29.7169643 16.68465 29.7169643 34.08615 28.1946429 34.08615 28.1946429 18.22365 26.7035714 18.22365 26.7035714 34.08615 25.1767857 34.08615 25.1767857 16.68465"></polygon>
                    <polygon id="Rectangle-path" points="21.9044643 34.85115 25.1767857 34.85115 25.1767857 35.62065 21.9044643 35.62065"></polygon>
                    <polygon id="Rectangle-path" points="21.9044643 34.08615 25.1767857 34.08615 25.1767857 34.85115 21.9044643 34.85115"></polygon>
                    <polygon id="Rectangle-path" points="17.3642857 34.85115 21.9044643 34.85115 21.9044643 35.62065 17.3642857 35.62065"></polygon>
                    <polygon id="Shape" points="21.9044643 34.08615 21.9044643 34.85115 17.3642857 34.85115 17.3642857 34.08615 18.8910714 34.08615 20.3776786 34.08615"></polygon>
                    <polygon id="Shape" points="21.9044643 20.01015 21.9044643 34.08615 20.3776786 34.08615 20.3776786 21.54915 18.8910714 21.54915 18.8910714 34.08615 17.3642857 34.08615 17.3642857 20.01015"></polygon>
                    <path d="M30.3732143,40.43565 C30.7928571,40.43565 31.1321429,40.77765 31.1321429,41.20515 C31.1321429,41.62815 30.7928571,41.97015 30.3732143,41.97015 L20.7482143,41.97015 C20.3241071,41.97015 19.9848214,41.62815 19.9848214,41.20515 C19.9848214,40.77765 20.3241071,40.43565 20.7482143,40.43565 L30.3732143,40.43565 L30.3732143,40.43565 Z" id="Shape"></path>
                    <polygon id="Rectangle-path" points="14.0919643 34.85115 17.3642857 34.85115 17.3642857 35.62065 14.0919643 35.62065"></polygon>
                    <polygon id="Rectangle-path" points="14.0919643 34.08615 17.3642857 34.08615 17.3642857 34.85115 14.0919643 34.85115"></polygon>
                    <polygon id="Rectangle-path" points="9.55178571 34.85115 14.0919643 34.85115 14.0919643 35.62065 9.55178571 35.62065"></polygon>
                    <polygon id="Shape" points="14.0919643 34.08615 14.0919643 34.85115 9.55178571 34.85115 9.55178571 34.08615 11.0741071 34.08615 12.5651786 34.08615"></polygon>
                    <polygon id="Shape" points="14.0919643 24.10515 14.0919643 34.08615 12.5651786 34.08615 12.5651786 25.64415 11.0741071 25.64415 11.0741071 34.08615 9.55178571 34.08615 9.55178571 24.10515"></polygon>
                    <polygon id="Rectangle-path" points="4.07410714 34.85115 9.55178571 34.85115 9.55178571 35.62065 4.07410714 35.62065"></polygon>
                    <polygon id="Rectangle-path" points="4.07410714 34.08615 9.55178571 34.08615 9.55178571 34.85115 4.07410714 34.85115"></polygon>
                    <polygon id="Rectangle-path" points="3.31071429 34.85115 4.07410714 34.85115 4.07410714 35.62065 3.31071429 35.62065"></polygon>
                    <polygon id="Rectangle-path" points="3.31071429 34.08615 4.07410714 34.08615 4.07410714 34.85115 3.31071429 34.85115"></polygon>
                    <polygon id="Rectangle-path" points="3.31071429 13.35915 4.07410714 13.35915 4.07410714 14.12865 3.31071429 14.12865"></polygon>
                    <polygon id="Rectangle-path" points="3.31071429 12.59415 4.07410714 12.59415 4.07410714 13.35915 3.31071429 13.35915"></polygon>
                    <polygon id="Shape" points="3.31071429 34.08615 3.31071429 34.85115 3.31071429 35.62065 4.07410714 35.62065 4.07410714 37.53315 4.07410714 37.78965 2.55178571 37.78965 2.55178571 14.12865 3.31071429 14.12865 4.07410714 14.12865 4.07410714 34.08615"></polygon>
                    <polygon id="Shape" points="3.31071429 12.59415 3.31071429 13.35915 3.31071429 14.12865 2.55178571 14.12865 2.55178571 9.77715 33.0026786 9.77715 33.0026786 11.31615 4.07410714 11.31615 4.07410714 12.59415"></polygon>
                </g>
            </g>
        </g>
    </g>
</svg>