<?xml version="1.0" encoding="UTF-8"?>
<svg width="53px" height="52px" viewBox="0 0 53 52" version="1.1" xmlns="http://www.w3.org/2000/svg" xmlns:xlink="http://www.w3.org/1999/xlink">
    <!-- Generator: sketchtool 57.1 (101010) - https://sketch.com -->
    <title>3376860F-A19E-4E20-880E-C6F5B0CE7DC0@1x</title>
    <desc>Created with sketchtool.</desc>
    <g id="Cloud-hosting---hero-01" stroke="none" stroke-width="1" fill="none" fill-rule="evenodd">
        <g id="XL-HG-Cloud-hosting" transform="translate(-1466.000000, -418.000000)" fill="#316690">
            <g id="xl_icons-copy" transform="translate(364.000000, 408.000000)">
                <g id="web-design" transform="translate(1102.000000, 10.000000)">
                    <ellipse id="Oval" cx="5.09776984" cy="4.1057871" rx="1.0832035" ry="1.08226598"></ellipse>
                    <ellipse id="Oval" cx="8.56364936" cy="4.1057871" rx="1.0832035" ry="1.08226598"></ellipse>
                    <ellipse id="Oval" cx="12.0295289" cy="4.1057871" rx="1.0832035" ry="1.08226598"></ellipse>
                    <path d="M52.4026116,47.9943071 C51.7558952,47.1699003 51.0048772,46.1730458 50.1351552,45.0188299 C48.1157925,42.3390437 45.6847986,39.1133666 43.1292932,36.1316228 L43.1292932,2.83830811 C43.1292932,1.38259886 41.9441111,0.198442508 40.4871408,0.198442508 L2.6414555,0.198442508 C1.18518212,0.198442508 0.000232297555,1.38259886 0.000232297555,2.83830811 L0.000232297555,7.34422958 C0.000232297555,7.34492587 0,7.34562216 0,7.34562216 L0.000232297555,7.34817522 L0.000232297555,37.5121328 C0.000232297555,38.9673779 1.18494983,40.15107 2.6414555,40.15107 L34.8497438,40.15107 C38.4173696,43.4115617 42.7980369,46.7583932 46.0460213,49.2392727 C47.1652309,50.0940841 48.1318211,50.8323831 48.9237234,51.4576511 C49.3581199,51.8006897 49.9021607,51.9896162 50.4554935,51.9896162 C51.1161478,51.9896162 51.7375437,51.7324533 52.2049264,51.2654752 C53.0881217,50.3830443 53.1731426,48.9767716 52.4026116,47.9943071 L52.4026116,47.9943071 Z M2.6414555,1.55783172 L40.4869085,1.55783172 C41.1935577,1.55783172 41.7687264,2.13227056 41.7687264,2.83854021 L41.7687264,6.6667399 L1.36056678,6.6667399 L1.36056678,2.83854021 C1.36056678,2.13227056 1.93503863,1.55783172 2.6414555,1.55783172 L2.6414555,1.55783172 Z M1.36056678,37.5121328 L1.36056678,8.02589701 L41.7684941,8.02589701 L41.7684941,34.5828429 C38.8887014,31.391516 35.9173833,28.6755227 33.2473552,27.516897 L30.0639495,24.3369428 C30.019813,24.2928445 29.969869,24.2587263 29.9180667,24.22925 C29.924571,24.1231819 29.9336306,24.0178101 29.9336306,23.9105815 C29.9336306,22.555138 29.4051537,21.2806961 28.4459971,20.3221375 C27.7679205,19.6446478 26.9093488,19.2807205 26.0001361,18.8954403 C24.3296844,18.1873139 22.2508536,17.3062756 19.9852555,14.0093448 C19.8342621,13.7895494 19.5680491,13.6783752 19.3060175,13.7247945 C19.043289,13.7712138 18.8318982,13.9668711 18.7656934,14.2249625 C18.6757942,14.5751961 16.6153149,22.8554708 21.2628921,27.4990255 C22.222281,28.4575841 23.4978269,28.9853715 24.8544446,28.9853715 C24.9982368,28.9853715 25.1404029,28.9763198 25.2821044,28.9644828 C25.3030112,28.9932628 25.3246148,29.0218107 25.3501676,29.0473413 L28.4048804,32.0991782 C28.9438107,33.8566129 30.5833669,36.0443545 33.4057822,38.7912166 L2.6414555,38.7912166 C1.93503863,38.7919129 1.36056678,38.2179383 1.36056678,37.5121328 L1.36056678,37.5121328 Z M28.4764281,29.8037438 C28.3983761,29.8817282 28.3437862,29.9789767 28.3110322,30.0841164 L26.8185204,28.5928964 C27.4192419,28.3413037 27.9714132,27.9734308 28.4457648,27.4994897 C28.9421847,27.0034995 29.3205974,26.4218657 29.5726402,25.7891706 L29.5828613,25.7787263 L31.0440129,27.2381491 L28.4764281,29.8037438 L28.4764281,29.8037438 Z M27.4838206,26.538146 C26.7815851,27.2400058 25.8475166,27.6264465 24.8542123,27.6264465 C23.8609079,27.6264465 22.9270718,27.2400058 22.2248363,26.538146 C19.2161183,23.5320321 19.4614246,18.5226934 19.8112647,16.0443669 C21.9509574,18.6556847 23.9540593,19.5046937 25.4686393,20.1469047 C26.3202422,20.5078147 26.9929759,20.7930613 27.4838206,21.2834812 C28.1862884,21.9853411 28.5730638,22.918369 28.5730638,23.9108136 C28.5730638,24.9032583 28.1862884,25.8362862 27.4838206,26.538146 L27.4838206,26.538146 Z M51.2427499,50.3043635 C51.0322883,50.514643 50.7528344,50.6304591 50.4554935,50.6304591 C50.2034507,50.6304591 49.9653457,50.5478328 49.7671959,50.3913997 C48.9666985,49.759401 47.9961593,49.0180847 46.8723037,48.1597919 C43.4570651,45.5512593 38.7799861,41.97883 35.1614871,38.5881322 C31.4540181,35.1143438 30.0583744,32.9581673 29.6813555,31.6259334 C29.675548,31.5939041 29.6657915,31.5628032 29.6553382,31.5317022 C29.5624191,31.1673107 29.5477844,30.8669779 29.5830936,30.6204914 L31.7743564,28.4311251 C36.9761956,29.8153486 44.5082115,39.8112807 49.0484672,45.8365059 C49.9223706,46.9965242 50.6773377,47.9980206 51.3319522,48.8328717 C51.6785401,49.2745514 51.640211,49.9072464 51.2427499,50.3043635 L51.2427499,50.3043635 Z" id="Shape"></path>
                    <path d="M5.32913821,23.8646264 L14.6382304,23.8646264 C15.0138556,23.8646264 15.3183977,23.5603479 15.3183977,23.1850479 C15.3183977,22.8097478 15.0138556,22.5054693 14.6382304,22.5054693 L5.32913821,22.5054693 C4.95351306,22.5054693 4.64897097,22.8097478 4.64897097,23.1850479 C4.64897097,23.5603479 4.95351306,23.8646264 5.32913821,23.8646264 L5.32913821,23.8646264 Z" id="Shape"></path>
                    <path d="M5.17651871,26.8744539 L16.4290123,26.8744539 C16.8046374,26.8744539 17.1091795,26.5701753 17.1091795,26.1948753 C17.1091795,25.8195753 16.8046374,25.5152967 16.4290123,25.5152967 L5.17651871,25.5152967 C4.80089357,25.5152967 4.49635147,25.8195753 4.49635147,26.1948753 C4.49611917,26.5701753 4.80066127,26.8744539 5.17651871,26.8744539 L5.17651871,26.8744539 Z" id="Shape"></path>
                    <path d="M18.2195618,28.5248921 L5.02366692,28.5248921 C4.64804178,28.5248921 4.34349968,28.8291706 4.34349968,29.2044706 C4.34349968,29.5797707 4.64804178,29.8840492 5.02366692,29.8840492 L18.2195618,29.8840492 C18.595187,29.8840492 18.8997291,29.5797707 18.8997291,29.2044706 C18.8997291,28.8291706 18.5954193,28.5248921 18.2195618,28.5248921 L18.2195618,28.5248921 Z" id="Shape"></path>
                    <path d="M5.54610412,20.854799 L14.4212645,20.854799 C14.7968896,20.854799 15.1014317,20.5505205 15.1014317,20.1752205 L15.1014317,17.5903617 C15.1014317,17.2150617 14.7968896,16.9107832 14.4212645,16.9107832 L5.54610412,16.9107832 C5.17047898,16.9107832 4.86593688,17.2150617 4.86593688,17.5903617 L4.86593688,20.1752205 C4.86593688,20.5505205 5.17024668,20.854799 5.54610412,20.854799 L5.54610412,20.854799 Z M6.22627136,18.2699403 L13.7410973,18.2699403 L13.7410973,19.4954098 L6.22627136,19.4954098 L6.22627136,18.2699403 L6.22627136,18.2699403 Z" id="Shape"></path>
                </g>
            </g>
        </g>
    </g>
</svg>