<?xml version="1.0" encoding="UTF-8"?>
<svg width="55px" height="41px" viewBox="0 0 55 41" version="1.1" xmlns="http://www.w3.org/2000/svg" xmlns:xlink="http://www.w3.org/1999/xlink">
    <!-- Generator: sketchtool 57.1 (101010) - https://sketch.com -->
    <title>A5063BBF-7A9C-4E1A-B42B-D2E50FF5DFD6</title>
    <desc>Created with sketchtool.</desc>
    <g id="Cloud-hosting---hero-01" stroke="none" stroke-width="1" fill="none" fill-rule="evenodd">
        <g id="XL-HG-Cloud-hosting" transform="translate(-1474.000000, -675.000000)" fill="#316690">
            <g id="xl_icons-copy" transform="translate(364.000000, 408.000000)">
                <g id="webpage-3col" transform="translate(1110.000000, 267.000000)">
                    <path d="M0,0 L0,40.6623895 L54.9427876,40.6623895 L54.9427876,0 L0,0 L0,0 Z M53.4832576,1.47754881 L53.4832576,8.53604572 L1.45952992,8.53604572 L1.45952992,1.47754881 L53.4832576,1.47754881 L53.4832576,1.47754881 Z M1.45952992,39.1848406 L1.45952992,10.0135945 L53.4832576,10.0135945 L53.4832576,39.1848406 L1.45952992,39.1848406 L1.45952992,39.1848406 Z" id="Shape"></path>
                    <path d="M9.16025303,16.0419937 L42.7277384,16.0419937 C43.1308119,16.0419937 43.4575034,15.711269 43.4575034,15.3032193 C43.4575034,14.8951695 43.1308119,14.5644449 42.7277384,14.5644449 L9.16025303,14.5644449 C8.75717952,14.5644449 8.43048807,14.8951695 8.43048807,15.3032193 C8.43048807,15.711269 8.75717952,16.0419937 9.16025303,16.0419937 L9.16025303,16.0419937 Z" id="Shape"></path>
                    <path d="M21.3604636,31.778381 L32.7949075,31.778381 L32.7949075,21.8462979 L21.3604636,21.8462979 L21.3604636,31.778381 L21.3604636,31.778381 Z M22.8199936,23.3238467 L31.3353776,23.3238467 L31.3353776,30.3008322 L22.8199936,30.3008322 L22.8199936,23.3238467 L22.8199936,23.3238467 Z" id="Shape"></path>
                    <path d="M5.45669586,31.778381 L16.8911398,31.778381 L16.8911398,21.8462979 L5.45669586,21.8462979 L5.45669586,31.778381 L5.45669586,31.778381 Z M6.91622578,23.3238467 L15.4316098,23.3238467 L15.4316098,30.3008322 L6.91622578,30.3008322 L6.91622578,23.3238467 L6.91622578,23.3238467 Z" id="Shape"></path>
                    <path d="M37.3666418,31.778381 L48.8010857,31.778381 L48.8010857,21.8462979 L37.3666418,21.8462979 L37.3666418,31.778381 L37.3666418,31.778381 Z M38.8261717,23.3238467 L47.3415557,23.3238467 L47.3415557,30.3008322 L38.8261717,30.3008322 L38.8261717,23.3238467 L38.8261717,23.3238467 Z" id="Shape"></path>
                    <path d="M8.06682187,7.56135603 C9.4803766,7.56135603 10.6302429,6.39704756 10.6302429,4.96579529 C10.6302429,3.53478927 9.48013334,2.37072706 8.06682187,2.37072706 C6.65326714,2.37072706 5.50315756,3.53503552 5.50315756,4.96579529 C5.50315756,6.39704756 6.65326714,7.56135603 8.06682187,7.56135603 L8.06682187,7.56135603 Z M8.06682187,3.84827587 C8.6756891,3.84827587 9.170713,4.34965743 9.170713,4.96579529 C9.170713,5.5821794 8.67544585,6.08380722 8.06682187,6.08380722 C7.45795464,6.08380722 6.96268748,5.5821794 6.96268748,4.96579529 C6.96268748,4.34965743 7.45795464,3.84827587 8.06682187,3.84827587 L8.06682187,3.84827587 Z" id="Shape"></path>
                    <path d="M36.7414764,5.7609628 L40.8159975,5.7609628 C41.219071,5.7609628 41.5457624,5.43023813 41.5457624,5.0221884 C41.5457624,4.61413867 41.219071,4.28341399 40.8159975,4.28341399 L36.7414764,4.28341399 C36.3384029,4.28341399 36.0117115,4.61413867 36.0117115,5.0221884 C36.0117115,5.42999187 36.3384029,5.7609628 36.7414764,5.7609628 L36.7414764,5.7609628 Z" id="Shape"></path>
                    <path d="M44.733619,5.7609628 L48.8081401,5.7609628 C49.2112136,5.7609628 49.537905,5.43023813 49.537905,5.0221884 C49.537905,4.61413867 49.2112136,4.28341399 48.8081401,4.28341399 L44.733619,4.28341399 C44.3305455,4.28341399 44.0038541,4.61413867 44.0038541,5.0221884 C44.0038541,5.42999187 44.3305455,5.7609628 44.733619,5.7609628 L44.733619,5.7609628 Z" id="Shape"></path>
                    <path d="M16.110048,33.949639 L6.23730111,33.949639 C5.8342276,33.949639 5.50753615,34.2803636 5.50753615,34.6884134 C5.50753615,35.0964631 5.8342276,35.4271878 6.23730111,35.4271878 L16.110048,35.4271878 C16.5131215,35.4271878 16.839813,35.0964631 16.839813,34.6884134 C16.839813,34.2803636 16.5128783,33.949639 16.110048,33.949639 L16.110048,33.949639 Z" id="Shape"></path>
                    <path d="M32.0135725,33.949639 L22.1410689,33.949639 C21.7379954,33.949639 21.4113039,34.2803636 21.4113039,34.6884134 C21.4113039,35.0964631 21.7379954,35.4271878 22.1410689,35.4271878 L32.0135725,35.4271878 C32.416646,35.4271878 32.7433375,35.0964631 32.7433375,34.6884134 C32.7433375,34.2803636 32.4168893,33.949639 32.0135725,33.949639 L32.0135725,33.949639 Z" id="Shape"></path>
                    <path d="M48.0199939,33.949639 L38.1477335,33.949639 C37.74466,33.949639 37.4179686,34.2803636 37.4179686,34.6884134 C37.4179686,35.0964631 37.74466,35.4271878 38.1477335,35.4271878 L48.0199939,35.4271878 C48.4230674,35.4271878 48.7497589,35.0964631 48.7497589,34.6884134 C48.7497589,34.2803636 48.4230674,33.949639 48.0199939,33.949639 L48.0199939,33.949639 Z" id="Shape"></path>
                </g>
            </g>
        </g>
    </g>
</svg>