<?xml version="1.0" encoding="UTF-8"?>
<svg width="450px" height="480px" viewBox="0 0 450 480" version="1.1" xmlns="http://www.w3.org/2000/svg" xmlns:xlink="http://www.w3.org/1999/xlink">
    <!-- Generator: sketchtool 54.1 (76490) - https://sketchapp.com -->
    <title>738CF7BF-5F88-44A8-A518-9864530EDA94</title>
    <desc>Created with sketchtool.</desc>
    <defs>
        <polygon id="path-1" points="0.675140836 0.563753229 63.0673321 0.563753229 63.0673321 104.714166 0.675140836 104.714166"></polygon>
        <polygon id="path-3" points="0 0.126682 166.155895 0.126682 166.155895 200.861898 0 200.861898"></polygon>
        <polygon id="path-5" points="0.851975587 0.597692942 47.4741579 0.597692942 47.4741579 90.21 0.851975587 90.21"></polygon>
    </defs>
    <g id="Page-1" stroke="none" stroke-width="1" fill="none" fill-rule="evenodd">
        <g id="XL-HG-Global-Directory" transform="translate(-1035.000000, -1056.000000)">
            <g id="SnappyWorld" transform="translate(1035.000000, 1043.000000)">
                <g id="Group" transform="translate(227.614159, 156.885328) scale(-1, 1) rotate(-5.000000) translate(-227.614159, -156.885328) translate(92.114159, 11.385328)">
                    <g id="Group-86">
                        <path d="M160.177976,213.078154 C151.924452,221.057374 143.670928,231.945624 135.417404,239.923874 C139.378163,260.729404 131.624588,269.892994 140.969263,277.350354 C144.344645,280.041134 164.860021,285.763164 176.354962,279.131274 C176.6161,268.333234 170.69923,265.123504 164.392108,261.068904 C158.018974,247.375414 160.306119,226.567944 160.177976,213.078154" id="Fill-1" fill="#4580C2"></path>
                        <path d="M164.909046,282.146131 C163.436381,276.385301 160.340581,271.434421 153.28208,268.464281 C158.865975,272.652741 160.911396,277.264121 160.527941,282.169411 C161.987014,282.230521 163.454825,282.228581 164.909046,282.146131" id="Fill-3" fill="#2E578B"></path>
                        <path d="M174.762794,279.93618 C173.26586,274.27332 170.158411,269.41556 163.195046,266.48325 C169.241029,271.01897 171.14666,276.05327 170.300144,281.41543 C171.866003,281.06138 173.363908,280.57153 174.762794,279.93618" id="Fill-5" fill="#2E578B"></path>
                        <g id="Group-9" transform="translate(209.827801, 133.897428) scale(-1, 1) rotate(113.000000) translate(-209.827801, -133.897428) translate(178.277631, 81.517428)">
                            <mask id="mask-2" fill="white">
                                <use xlink:href="#path-1"></use>
                            </mask>
                            <g id="Clip-8"></g>
                            <path d="M2.96367728,5.428993 C-1.28443166,11.607893 -3.1890911,24.620443 30.7239431,43.662513 C30.7239431,43.662513 16.4681205,68.252013 11.9666394,72.749903 C7.46515835,77.247793 4.61399382,89.242813 9.11547489,95.240323 C13.6179267,101.236863 16.9185598,103.936373 16.9185598,103.936373 C16.9185598,103.936373 28.1727479,106.035453 32.9741982,103.336913 C32.9741982,103.336913 42.5023493,94.116093 36.2000817,79.272183 C36.2000817,79.272183 64.7864766,49.360293 62.98569,40.363543 C61.1849034,31.367763 16.4681205,-14.212537 2.96367728,5.428993" id="Fill-7" fill="#4580C2" mask="url(#mask-2)"></path>
                        </g>
                        <path d="M183.758087,179.182086 C183.758087,179.182086 172.173836,188.720096 169.262484,190.374916 C169.262484,190.374916 174.515344,188.662866 175.999658,187.465886 C175.999658,187.465886 181.137967,193.740816 177.369421,199.046716 C177.369421,199.046716 184.278423,195.109486 179.653653,185.981786 C179.653653,185.981786 183.327064,181.227816 183.897879,179.801916 L183.758087,179.182086 Z" id="Fill-10" fill="#2E578B"></path>
                        <path d="M64.4651502,173.645811 C64.3904006,175.747801 63.7826958,177.824571 62.4964197,179.867391 C60.5461338,182.966541 59.4161524,182.596001 64.2884693,185.257681 C67.3697073,186.941601 71.2887237,188.104631 75.875633,188.851531 C82.7380374,189.971881 81.1333473,189.204611 78.1055018,182.794851 C76.6454571,179.692791 75.0980426,176.890461 73.4244275,174.546941 C66.790155,165.254341 64.7408502,165.886781 64.4651502,173.645811" id="Fill-12" fill="#4580C2"></path>
                        <path d="M40.1436587,170.440252 C37.6526515,175.081702 41.4726489,175.809202 46.4032123,177.531922 C48.2263267,178.167272 50.1154537,178.588252 52.0667103,178.794862 C57.6127447,179.393352 56.174057,178.592132 53.751004,174.109762 C52.3152286,171.450992 50.6979184,168.790282 48.8456807,166.132482 C39.1544395,152.207162 43.7850336,163.647342 40.1436587,170.440252" id="Fill-14" fill="#4580C2"></path>
                        <path d="M19.1568744,168.357759 C19.1859977,169.375289 19.1481375,170.440349 19.0413523,171.553909 C18.6743995,175.417419 18.2424049,174.765579 23.0302644,175.192379 C25.3144967,175.398019 27.5453364,175.405779 29.4160187,175.127389 C35.5221899,174.212679 33.2952333,172.086439 30.1169178,168.540119 C29.0461536,167.349929 27.8521011,166.227639 26.5114616,165.195559 C14.4476476,155.910719 18.9947551,162.441729 19.1568744,168.357759" id="Fill-16" fill="#4580C2"></path>
                        <path d="M99.9311323,32.387718 C99.9311323,32.387718 65.3696208,50.187218 65.6744439,55.816128 C65.9782963,61.445038 75.4190777,60.683588 79.2245135,68.290328 C79.2245135,68.290328 58.0616308,82.894648 59.4323643,89.588618 C60.802127,96.282588 74.3521966,93.847888 77.8547508,99.173188 C77.8547508,99.173188 74.5084913,112.496138 77.5528399,117.363598 C80.5981594,122.232998 80.1380123,118.036778 84.4006828,124.274848 C84.4006828,124.274848 82.1174214,74.527428 99.9311323,32.387718" id="Fill-18" fill="#4580C2"></path>
                        <g id="Group-22" transform="translate(0.000000, 45.590000)">
                            <mask id="mask-4" fill="white">
                                <use xlink:href="#path-3"></use>
                            </mask>
                            <g id="Clip-21"></g>
                            <path d="M92.6759524,2.973632 C104.792188,14.537002 120.26342,21.813942 134.260046,30.747642 C143.817321,36.847002 152.517401,43.680652 159.349712,52.825812 C167.743027,64.054532 162.924103,77.284362 164.83847,91.056422 C165.490831,95.740552 165.809245,100.481912 165.999516,105.206782 C166.346083,113.806802 166.125717,122.448532 165.247166,131.017512 C163.136703,151.551442 162.072734,168.255812 147.592662,183.616732 C129.489661,202.823702 109.58296,207.179002 86.9978928,190.599762 C78.2463612,184.173512 72.4401593,180.293512 65.4068985,172.097012 C60.7898953,166.714482 55.0205828,163.258372 50.0337145,158.213402 C44.2682851,152.377882 35.6245095,145.171752 27.8398693,142.198702 C19.1028994,138.864812 13.0714778,143.416052 8.78356711,145.371572 C6.5585521,146.387162 3.52682353,148.350442 1.06105646,146.391042 C0.0174739399,145.564602 -0.238810512,144.389932 0.214541151,143.302562 C1.45324933,140.328542 3.31810703,137.581502 5.909104,135.216642 C19.2388078,123.037322 40.7307831,122.762812 56.8068078,131.333732 C62.8790019,134.573532 69.4899758,138.265352 76.4892595,138.725132 C81.4382676,139.051052 86.4649376,138.119852 90.3082336,134.800512 C93.4642213,132.074812 95.1951121,128.274352 95.9765855,124.239152 C97.1094793,118.386172 96.6736016,112.919252 94.795153,107.273852 C92.182799,99.435282 87.4881338,92.318392 84.4593176,84.589432 C74.1225114,58.222892 70.7733396,28.181992 87.3852318,3.545932 L89.6917918,0.126682 L92.6759524,2.973632 Z" id="Fill-20" fill="#4580C2" mask="url(#mask-4)"></path>
                        </g>
                        <path d="M30.6928783,188.960753 C42.3421716,194.780753 54.7040132,207.812703 66.6115325,221.940753 C82.1439235,240.370753 120.974901,267.530753 153.010457,224.850753 C183.184068,184.651043 168.977755,128.309563 167.223566,121.894953 C167.157553,121.678643 167.089599,121.461363 167.021645,121.245053 C166.004273,119.939433 139.098289,85.634413 114.451297,80.585563 C107.879154,86.291103 106.601615,96.332543 115.355088,113.648983 C130.079794,142.775173 141.851405,185.250503 115.677385,211.343503 C111.746719,215.259393 107.10933,218.361453 101.737064,220.131703 C83.1263472,226.265983 73.2729867,214.985853 61.6353427,204.109243 C52.0460328,195.147413 41.6597171,190.589383 30.6928783,188.960753" id="Fill-23" fill="#FBCF3B"></path>
                        <path d="M156.61106,219.642726 C149.142892,218.693096 136.34226,215.797646 125.520067,206.938636 C125.520067,206.938636 133.196951,220.377986 153.011428,224.848716 C154.29285,223.141516 155.485932,221.403276 156.61106,219.642726" id="Fill-25" fill="#ECA93E"></path>
                        <path d="M104.257971,222.225448 C104.257971,222.225448 110.037962,235.794778 123.019158,246.553048 C125.472305,245.985598 127.937101,245.166918 130.402868,244.070818 C123.305536,240.809678 111.302881,233.915888 104.257971,222.225448" id="Fill-27" fill="#ECA93E"></path>
                        <path d="M64.6974565,219.697143 C65.3381677,220.441133 65.9769372,221.188033 66.6118237,221.940753 C66.899173,222.282193 67.1972007,222.627513 67.5010531,222.973803 C67.0399353,219.882413 67.1069187,216.877353 68.3388315,214.791853 C68.3388315,214.791853 66.434172,216.953983 64.6974565,219.697143" id="Fill-29" fill="#ECA93E"></path>
                        <path d="M77.6185614,232.719199 C78.9601716,233.813359 80.3629407,234.886179 81.81619,235.926019 C80.8211462,231.264199 80.3978886,226.413229 81.9656893,223.691409 C79.9251214,227.232879 78.3767362,230.125419 77.6185614,232.719199" id="Fill-31" fill="#ECA93E"></path>
                        <path d="M52.2651366,206.199108 C53.2592097,207.205968 54.2552242,208.232228 55.2522096,209.274978 C55.2259987,207.229248 55.4104458,205.055478 55.9424302,202.828358 C55.9424302,202.828358 54.1193158,204.201878 52.2651366,206.199108" id="Fill-33" fill="#EDB248"></path>
                        <path d="M133.859893,184.616608 C149.202983,179.705498 163.642282,182.612588 170.003767,184.572958 C170.311502,182.892918 170.582348,181.220638 170.815334,179.558058 C147.13038,174.006748 133.859893,184.616608 133.859893,184.616608" id="Fill-35" fill="#ECA93E"></path>
                        <path d="M171.533319,147.638656 C171.363434,145.609416 171.161512,143.664566 170.939205,141.812836 C170.939205,141.811866 170.939205,141.810896 170.939205,141.809926 C145.855364,141.199796 132.927561,153.380086 132.927561,153.380086 C147.925056,145.202986 163.833136,146.361166 171.533319,147.638656" id="Fill-37" fill="#ECA93E"></path>
                        <path d="M161.622295,114.798336 C160.644725,113.686716 159.550662,112.470336 158.355639,111.178296 C131.693319,111.185086 124.497939,123.551616 124.497939,123.551616 C139.891509,113.823486 155.2744,114.127096 161.622295,114.798336" id="Fill-39" fill="#ECA93E"></path>
                        <path d="M171.165493,143.804149 C170.336451,136.093619 169.116188,129.854579 168.219192,125.915409 C167.575569,125.529349 166.935828,125.136499 166.312591,124.731039 C157.792104,119.183609 120.360012,96.483669 109.366963,89.973999 C109.140772,91.504659 109.100971,93.176939 109.249499,94.990839 C120.902675,111.006509 146.738866,138.274179 171.165493,143.804149" id="Fill-41" fill="#ECA93E"></path>
                        <g id="Group-45" transform="translate(66.012662, 200.790000)">
                            <mask id="mask-6" fill="white">
                                <use xlink:href="#path-5"></use>
                            </mask>
                            <g id="Clip-44"></g>
                            <path d="M20.2233672,8.110655 C24.1375298,2.333335 30.8950906,0.072265 35.6761547,0.698885 C52.8200313,2.935705 47.4001976,23.199005 43.284114,35.130975 C40.0553182,44.493415 38.407914,56.324505 38.4253879,61.738075 C38.4583943,73.515815 42.926869,77.063105 37.4410227,81.663815 C32.6803448,85.655365 19.0671749,91.381275 7.51592985,89.999995 C-2.00251351,87.848535 -2.26462261,68.283635 12.9076111,63.292015 C17.125626,54.155585 16.9353542,44.825155 16.6062617,35.073745 C16.3868667,28.476775 15.8102266,14.622265 20.2233672,8.110655" id="Fill-43" fill="#4580C2" mask="url(#mask-6)"></path>
                        </g>
                        <path d="M82.5742678,290.60618 C83.9255858,290.41703 85.2662253,290.16483 86.5835662,289.86316 C85.56037,284.1906 86.7932535,278.85754 91.3131793,274.02306 C85.1079891,277.57229 83.0586842,283.6183 82.5742678,290.60618" id="Fill-46" fill="#2E578B"></path>
                        <path d="M73.3685109,290.744017 C72.1977569,284.806647 73.3238553,278.063207 77.9631863,273.103597 C72.1831953,276.409357 70.0086606,281.881127 69.3446508,288.262757 C70.3872626,289.462647 71.7376098,290.339527 73.3685109,290.744017" id="Fill-48" fill="#2E578B"></path>
                        <path d="M82.1937242,184.137719 C82.1937242,184.137719 80.2143151,195.471199 87.9028487,199.274569 C94.4128621,202.494969 102.405248,202.583239 106.401926,197.791439 C111.920779,191.173129 120.104408,177.506799 97.9513349,164.195489 C84.2682692,155.972799 83.5644577,183.909769 83.5644577,183.909769 L82.1937242,184.137719 Z" id="Fill-50" fill="#2E578B"></path>
                        <path d="M84.0854724,129.790753 C86.9754679,136.045313 89.5732603,140.885613 89.7014025,141.317263 C89.7014025,141.317263 107.592775,119.178953 104.258165,115.518173 C100.570193,111.468423 86.8764489,124.889343 84.0854724,129.790753" id="Fill-52" fill="#2E578B"></path>
                        <path d="M101.491652,97.385284 C120.675126,115.869604 80.8228936,140.399934 80.8228936,140.399934 C85.1622554,143.138244 90.6442186,152.494864 94.7544776,159.340154 C98.8647366,166.186414 100.463602,165.044724 105.488331,170.750264 C110.512088,176.454834 96.1892822,184.922934 96.1892822,184.922934 C96.1892822,184.922934 48.241762,159.036544 48.3941736,142.453424 C48.4126183,140.399934 59.5250733,121.948594 70.7744074,110.506474 C76.4252854,104.760194 92.316863,88.545674 101.491652,97.385284" id="Fill-54" fill="#4580C2"></path>
                        <path d="M82.8786056,175.694257 C82.8786056,175.694257 79.2974187,193.335647 89.8429414,198.472767 C89.8429414,198.472767 98.3925519,199.037307 102.73968,195.923607 C102.73968,195.923607 113.55799,179.345337 105.487942,170.750167 C97.4188651,162.154997 82.8786056,175.694257 82.8786056,175.694257" id="Fill-56" fill="#4580C2"></path>
                        <path d="M82.6506678,176.949437 C82.6506678,176.949437 96.5201221,184.379637 98.9295843,185.056697 C98.9295843,185.056697 95.3639298,185.677497 91.8429309,183.994547 C91.8429309,183.994547 88.2772764,190.743807 92.4108339,194.971067 C92.4108339,194.971067 86.0376998,193.836167 88.321932,183.225337 L82.5361164,177.254017 L82.6506678,176.949437 Z" id="Fill-58" fill="#2E578B"></path>
                        <path d="M95.0887152,43.239593 C95.0887152,43.239593 102.298657,0.741953 119.959956,0.011543 C131.565565,-0.468607 137.410598,14.316133 137.410598,14.316133 C137.410598,14.316133 146.81546,13.690483 157.474564,20.268053 C157.474564,20.268053 160.714038,14.420893 166.252306,16.300753 C171.790574,18.179643 177.747246,30.500583 175.553296,50.757093 C175.553296,50.757093 183.599075,51.488473 188.197633,59.424043 C188.197633,59.424043 185.793996,62.974243 182.136117,63.287553 C178.47921,63.600863 162.699272,57.857493 158.415244,61.616243 C154.130246,65.375963 152.249856,68.194783 152.772132,75.086633 C152.772132,75.086633 135.425364,73.415323 127.588302,63.496103 C119.750269,53.576883 113.167448,34.364093 95.0887152,43.239593" id="Fill-60" fill="#4580C2"></path>
                        <path d="M155.13024,46.3078 C155.13024,46.3078 159.469602,32.04589 167.805642,28.0524 C167.805642,28.0524 168.224046,39.53817 170.051044,48.66587 C170.051044,48.66587 164.037096,47.22057 155.13024,46.3078" id="Fill-62" fill="#F1F1F2"></path>
                        <path d="M117.409829,17.060457 C117.409829,17.060457 128.143682,22.194667 135.22354,44.443557 C135.22354,44.443557 118.323328,41.706217 110.900786,42.276577 C110.900786,42.276577 117.752512,29.611287 117.409829,17.060457" id="Fill-64" fill="#F1F1F2"></path>
                        <path d="M121.86316,26.92526 C124.479397,26.92526 126.60248,29.84399 126.60248,33.44754 C126.60248,37.04915 124.479397,39.96885 121.86316,39.96885 C119.246922,39.96885 117.12578,37.04915 117.12578,33.44754 C117.12578,29.84399 119.246922,26.92526 121.86316,26.92526" id="Fill-66" fill="#2E578B"></path>
                        <path d="M161.900033,44.262652 C163.960987,44.262652 165.63169,42.052022 165.63169,39.324382 C165.63169,36.597712 163.960987,34.387082 161.900033,34.387082 C161.498132,34.387082 161.11856,34.492812 160.75549,34.648012 C159.96625,35.700462 158.995476,36.670462 158.193616,38.967422 C158.186821,39.087702 158.166435,39.202162 158.166435,39.324382 C158.166435,42.052022 159.838108,44.262652 161.900033,44.262652" id="Fill-68" fill="#2E578B"></path>
                        <path d="M114.897562,54.484512 C114.897562,54.484512 107.589572,46.041632 100.509714,52.887892 C94.6491486,58.554632 99.0253997,68.062572 99.0253997,68.062572 C99.0253997,68.062572 99.4476866,59.859282 103.25021,60.418002 C103.25021,60.418002 106.447941,80.841352 136.365268,101.264702 C166.282594,121.688052 174.618634,119.862512 181.127677,118.151432 C187.635749,116.439382 195.05829,113.130712 192.545926,107.882042 C190.033562,102.634342 174.732215,89.626642 174.732215,89.626642 C174.732215,89.626642 167.88146,94.760852 154.863375,90.197002 C141.84626,85.633152 120.606686,71.827142 109.416569,56.196562 C109.416569,56.196562 110.01942,52.379612 114.45683,54.515552" id="Fill-70" fill="#F68B51"></path>
                        <path d="M110.901175,77.722414 C110.901175,77.722414 136.326728,70.115674 157.794434,90.349874 L154.445262,88.524334 C154.445262,88.524334 169.822329,87.763854 171.95415,89.893004 C174.085,92.023124 186.265307,98.868414 187.864172,116.895864 C188.330144,122.147444 175.874137,125.110794 148.202212,111.343584 C130.953491,102.761024 110.901175,77.722414 110.901175,77.722414" id="Fill-72" fill="#F36A23"></path>
                        <path d="M144.561225,81.215966 C144.765088,81.319756 144.977687,81.424516 145.203878,81.529276 C144.989337,81.423546 144.774795,81.317816 144.561225,81.215966" id="Fill-74" fill="#C56428"></path>
                        <path d="M173.476324,89.51257 C173.476324,89.51257 169.749521,104.78037 163.998653,103.09063 C162.057104,102.52027 162.857023,98.18437 162.057104,95.21714 C161.258157,92.25088 159.088476,86.54631 159.088476,86.54631 L173.476324,89.51257 Z" id="Fill-76" fill="#FFFFFF"></path>
                        <path d="M201.972922,83.742719 C201.972922,83.742719 200.76722,99.411129 194.818315,98.673929 C192.810753,98.423669 192.897152,94.015989 191.62835,91.218509 C190.359548,88.420059 187.293842,83.140349 187.293842,83.140349 L201.972922,83.742719 Z" id="Fill-78" fill="#FFFFFF"></path>
                        <path d="M182.294354,61.891044 C173.557384,59.951044 163.849639,54.131044 155.112669,62.861044 C148.931749,69.036064 152.465368,74.984104 152.465368,74.984104 C152.465368,74.984104 134.309944,72.055674 128.030004,62.813514 C121.749094,53.572324 113.641186,41.211614 104.73433,40.336674 C100.056168,39.876894 92.1744504,39.195954 87.6059859,48.095704 C83.0384921,56.994484 80.7552307,73.082904 114.555655,98.526004 C148.355109,123.970074 163.270087,130.826034 170.621762,130.816334 C180.023712,130.802754 180.595498,127.310754 191.404101,125.795614 C196.922954,125.022524 201.109904,115.640684 195.058096,107.540214 C189.006288,99.439744 177.87234,91.6918144 176.32927,90.8970375 C174.786199,90.1022605 190.034338,102.633954 192.545732,107.882624 C195.058096,113.130324 187.635555,116.439964 181.127483,118.151044 C174.61844,119.862124 166.2824,121.688634 136.365074,101.264314 C106.447747,80.840964 103.250987,60.417614 103.250987,60.417614 C99.4484632,59.858894 99.0252056,68.062184 99.0252056,68.062184 C99.0252056,68.062184 94.6489544,58.554244 100.50952,52.887504 C107.589378,46.041244 114.897368,54.484124 114.897368,54.484124 L114.457607,54.516134 C110.019226,52.379224 109.416375,56.196174 109.416375,56.196174 C120.607463,71.827724 141.846066,85.633734 154.864151,90.197584 C167.881266,94.761434 174.732021,89.626254 174.732021,89.626254 C174.732021,89.626254 188.549053,89.398304 193.231099,88.144094 C197.913144,86.888914 209.347896,84.939214 208.304313,70.002184 C207.534489,58.981044 192.972873,54.131044 182.294354,61.891044 Z" id="Fill-80" fill="#FBCF3B"></path>
                        <path d="M164.91953,68.833722 C167.958054,67.855962 170.29762,71.949362 166.289293,73.739012 C165.726243,75.246392 166.631976,76.895392 169.091918,77.478362 C161.315044,79.080802 161.003426,70.247012 164.91953,68.833722" id="Fill-82" fill="#ECA93E"></path>
                        <path d="M199.256404,67.577184 C196.748894,66.769174 194.818994,70.146714 198.126423,71.624024 C198.591424,72.867564 197.843927,74.228474 195.813067,74.709594 C202.231828,76.030734 202.489083,68.742154 199.256404,67.577184" id="Fill-84" fill="#ECA93E"></path>
                    </g>
                </g>
                <g id="graphic" transform="translate(0.000000, 174.579151)">
                    <ellipse id="Oval-7" fill="#CDD8DF" fill-rule="nonzero" cx="228.909266" cy="292.760618" rx="198.503861" ry="25.1930502"></ellipse>
                    <rect id="Rectangle-23" fill="#4480C5" fill-rule="nonzero" x="0" y="0" width="450" height="304.054054" rx="151.592664"></rect>
                    <g id="Group-6" transform="translate(26.000000, 1.000000)">
                        <g id="Group-2-Copy">
                            <g id="land" fill="#2E578B" fill-rule="nonzero">
                                <path d="M154.357798,72.4925201 L213.975427,72.4925201 C219.578619,72.4925201 224.120904,77.0348049 224.120904,82.6379972 L224.120904,82.6379972 C224.120904,88.2411895 219.578619,92.7834743 213.975427,92.7834743 L154.357798,92.7834743 C148.754606,92.7834743 144.212321,88.2411895 144.212321,82.6379972 L144.212321,82.6379972 C144.212321,77.0348049 148.754606,72.4925201 154.357798,72.4925201 Z" id="Rectangle-2-Copy-15"></path>
                                <path d="M155.574415,73.9148442 L155.574415,73.9148442 C161.849526,73.9148442 166.936509,79.0018268 166.936509,85.2769379 L166.936509,86.9018956 C166.936509,93.1770067 161.849526,98.2639893 155.574415,98.2639893 L155.574415,98.2639893 C149.299304,98.2639893 144.212321,93.1770067 144.212321,86.9018956 L144.212321,85.2769379 C144.212321,79.0018268 149.299304,73.9148442 155.574415,73.9148442 Z" id="Rectangle-2-Copy-17"></path>
                                <path d="M186.549814,59.9917264 L237.189444,59.9917264 C243.507526,59.9917264 248.629344,65.1135441 248.629344,71.4316265 L248.629344,71.4316265 C248.629344,77.7497088 243.507526,82.8715265 237.189444,82.8715265 L186.549814,82.8715265 C180.231732,82.8715265 175.109914,77.7497088 175.109914,71.4316265 L175.109914,71.4316265 C175.109914,65.1135441 180.231732,59.9917264 186.549814,59.9917264 Z" id="Rectangle-2-Copy-32"></path>
                                <path d="M179.200132,47.8171539 L239.192258,47.8171539 C242.92772,47.8171539 245.95591,50.8453438 245.95591,54.5808053 L245.95591,54.5808053 C245.95591,58.3162668 242.92772,61.3444567 239.192258,61.3444567 L179.200132,61.3444567 C175.46467,61.3444567 172.43648,58.3162668 172.43648,54.5808053 L172.43648,54.5808053 C172.43648,50.8453438 175.46467,47.8171539 179.200132,47.8171539 Z" id="Rectangle-2-Copy-33"></path>
                                <path d="M168.506396,149.271925 L184.386865,149.271925 C188.122327,149.271925 191.150517,152.300115 191.150517,156.035576 L191.150517,156.035576 C191.150517,159.771038 188.122327,162.799228 184.386865,162.799228 L168.506396,162.799228 C164.770935,162.799228 161.742745,159.771038 161.742745,156.035576 L161.742745,156.035576 C161.742745,152.300115 164.770935,149.271925 168.506396,149.271925 Z" id="Rectangle-2-Copy-46"></path>
                                <path d="M239.940684,116.806398 L239.940684,116.806398 C245.477546,116.806398 249.966061,121.294912 249.966061,126.831775 L249.966061,129.777436 C249.966061,135.314299 245.477546,139.802813 239.940684,139.802813 L239.940684,139.802813 C234.403821,139.802813 229.915307,135.314299 229.915307,129.777436 L229.915307,126.831775 C229.915307,121.294912 234.403821,116.806398 239.940684,116.806398 Z" id="Rectangle-2-Copy-53"></path>
                                <path d="M229.246949,74.8717595 L229.246949,74.8717595 C234.783811,74.8717595 239.272325,79.3602736 239.272325,84.8971363 L239.272325,106.781021 C239.272325,112.317884 234.783811,116.806398 229.246949,116.806398 L229.246949,116.806398 C223.710086,116.806398 219.221572,112.317884 219.221572,106.781021 L219.221572,84.8971363 C219.221572,79.3602736 223.710086,74.8717595 229.246949,74.8717595 Z" id="Rectangle-2-Copy-59"></path>
                                <path d="M233.925458,110.042747 L233.925458,110.042747 C236.878451,110.042747 239.272325,112.436621 239.272325,115.389614 L239.272325,127.692294 C239.272325,130.645287 236.878451,133.039162 233.925458,133.039162 L233.925458,133.039162 C230.972464,133.039162 228.57859,130.645287 228.57859,127.692294 L228.57859,115.389614 C228.57859,112.436621 230.972464,110.042747 233.925458,110.042747 Z" id="Rectangle-2-Copy-57"></path>
                                <path d="M197.834101,180.384721 L197.834101,180.384721 C205.954833,180.384721 212.537987,186.967875 212.537987,195.088607 L212.537987,215.810149 C212.537987,223.930881 205.954833,230.514035 197.834101,230.514035 L197.834101,230.514035 C189.713369,230.514035 183.130215,223.930881 183.130215,215.810149 L183.130215,195.088607 C183.130215,186.967875 189.713369,180.384721 197.834101,180.384721 Z" id="Rectangle-2-Copy-47"></path>
                                <path d="M193.920031,38.3480419 L213.778624,38.3480419 C218.261178,38.3480419 221.895006,41.9818698 221.895006,46.4644236 L221.895006,46.4644236 C221.895006,50.9469774 218.261178,54.5808053 213.778624,54.5808053 L193.920031,54.5808053 C189.437477,54.5808053 185.803649,50.9469774 185.803649,46.4644236 L185.803649,46.4644236 C185.803649,41.9818698 189.437477,38.3480419 193.920031,38.3480419 Z" id="Rectangle-2-Copy-35"></path>
                                <path d="M207.899512,20.7625483 L233.217066,20.7625483 C235.084797,20.7625483 236.598892,22.2766432 236.598892,24.144374 L236.598892,24.144374 C236.598892,26.0121047 235.084797,27.5261997 233.217066,27.5261997 L207.899512,27.5261997 C206.031781,27.5261997 204.517686,26.0121047 204.517686,24.144374 L204.517686,24.144374 C204.517686,22.2766432 206.031781,20.7625483 207.899512,20.7625483 Z" id="Rectangle-2-Copy-38"></path>
                                <path d="M160.023268,47.8302027 L160.023268,47.8302027 C163.71451,47.8302027 166.706852,50.8225454 166.706852,54.5137872 L166.706852,54.673921 C166.706852,58.3651628 163.71451,61.3575055 160.023268,61.3575055 L160.023268,61.3575055 C156.332026,61.3575055 153.339683,58.3651628 153.339683,54.673921 L153.339683,54.5137872 C153.339683,50.8225454 156.332026,47.8302027 160.023268,47.8302027 Z" id="Rectangle-2-Copy-39"></path>
                                <path d="M161.42476,49.6570411 L161.42476,49.6570411 C164.377753,49.6570411 166.771627,52.0509152 166.771627,55.0039087 L166.771627,61.4911529 C166.771627,64.4441463 164.377753,66.8380205 161.42476,66.8380205 L161.42476,66.8380205 C158.471766,66.8380205 156.077892,64.4441463 156.077892,61.4911529 L156.077892,55.0039087 C156.077892,52.0509152 158.471766,49.6570411 161.42476,49.6570411 Z" id="Rectangle-2-Copy-135"></path>
                                <path d="M150.645639,47.8302027 L150.645639,47.8302027 C151.678211,47.8302027 152.515276,48.6672678 152.515276,49.6998398 L152.515276,50.3536769 C152.515276,51.3862489 151.678211,52.2233139 150.645639,52.2233139 L150.645639,52.2233139 C149.613067,52.2233139 148.776002,51.3862489 148.776002,50.3536769 L148.776002,49.6998398 C148.776002,48.6672678 149.613067,47.8302027 150.645639,47.8302027 Z" id="Rectangle-2-Copy-136"></path>
                                <path d="M58.4592821,119.076897 L58.4592821,119.076897 C59.4918541,119.076897 60.3289192,119.913962 60.3289192,120.946534 L60.3289192,121.600371 C60.3289192,122.632943 59.4918541,123.470008 58.4592821,123.470008 L58.4592821,123.470008 C57.4267101,123.470008 56.589645,122.632943 56.589645,121.600371 L56.589645,120.946534 C56.589645,119.913962 57.4267101,119.076897 58.4592821,119.076897 Z" id="Rectangle-2-Copy-139"></path>
                                <path d="M31.4041143,44.1765261 L35.0313045,44.1765261 C36.2444287,44.1765261 37.2278601,45.1599575 37.2278601,46.3730817 L37.2278601,46.3730817 C37.2278601,47.5862059 36.2444287,48.5696373 35.0313045,48.5696373 L31.4041143,48.5696373 C30.1909902,48.5696373 29.2075587,47.5862059 29.2075587,46.3730817 L29.2075587,46.3730817 C29.2075587,45.1599575 30.1909902,44.1765261 31.4041143,44.1765261 Z" id="Rectangle-2-Copy-140"></path>
                                <path d="M131.805097,38.6960111 L135.432288,38.6960111 C136.645412,38.6960111 137.628843,39.6794426 137.628843,40.8925667 L137.628843,40.8925667 C137.628843,42.1056909 136.645412,43.0891223 135.432288,43.0891223 L131.805097,43.0891223 C130.591973,43.0891223 129.608542,42.1056909 129.608542,40.8925667 L129.608542,40.8925667 C129.608542,39.6794426 130.591973,38.6960111 131.805097,38.6960111 Z" id="Rectangle-2-Copy-141"></path>
                                <path d="M400.248542,200.371203 L400.444882,200.371203 C405.189279,200.371203 409.035372,204.217296 409.035372,208.961692 L409.035372,208.961692 C409.035372,213.706089 405.189279,217.552182 400.444882,217.552182 L400.248542,217.552182 C395.504145,217.552182 391.658052,213.706089 391.658052,208.961692 L391.658052,208.961692 C391.658052,204.217296 395.504145,200.371203 400.248542,200.371203 Z" id="Rectangle-2-Copy-142"></path>
                                <path d="M259.151588,280.752089 L268.380499,280.752089 C271.368868,280.752089 273.79142,283.174641 273.79142,286.16301 L273.79142,286.16301 C273.79142,289.151379 271.368868,291.573931 268.380499,291.573931 L259.151588,291.573931 C256.163218,291.573931 253.740666,289.151379 253.740666,286.16301 L253.740666,286.16301 C253.740666,283.174641 256.163218,280.752089 259.151588,280.752089 Z" id="Rectangle-2-Copy-143"></path>
                                <path d="M245.179261,283.204633 L261.091757,283.204633 C264.080126,283.204633 266.502678,285.627185 266.502678,288.615554 L266.502678,288.615554 C266.502678,291.603924 264.080126,294.026475 261.091757,294.026475 L245.179261,294.026475 C242.190892,294.026475 239.76834,291.603924 239.76834,288.615554 L239.76834,288.615554 C239.76834,285.627185 242.190892,283.204633 245.179261,283.204633 Z" id="Rectangle-2-Copy-144"></path>
                                <path d="M103.524842,275.589588 L107.37938,275.589588 C113.697462,275.589588 118.81928,280.711405 118.81928,287.029488 L118.81928,287.029488 C118.81928,293.34757 113.697462,298.469388 107.37938,298.469388 L103.524842,298.469388 C97.2067598,298.469388 92.0849421,293.34757 92.0849421,287.029488 L92.0849421,287.029488 C92.0849421,280.711405 97.2067598,275.589588 103.524842,275.589588 Z" id="Rectangle-2-Copy-147"></path>
                                <path d="M238.229454,292.760618 L275.299628,292.760618 C278.287997,292.760618 280.710549,295.18317 280.710549,298.171539 L280.710549,298.171539 C280.710549,301.159908 278.287997,303.58246 275.299628,303.58246 L238.229454,303.58246 C235.241085,303.58246 232.818533,301.159908 232.818533,298.171539 L232.818533,298.171539 C232.818533,295.18317 235.241085,292.760618 238.229454,292.760618 Z" id="Rectangle-2-Copy-146"></path>
                                <path d="M365.138649,181.1894 L365.138649,181.1894 C366.171221,181.1894 367.008286,182.026465 367.008286,183.059037 L367.008286,183.712874 C367.008286,184.745446 366.171221,185.582511 365.138649,185.582511 L365.138649,185.582511 C364.106077,185.582511 363.269012,184.745446 363.269012,183.712874 L363.269012,183.059037 C363.269012,182.026465 364.106077,181.1894 365.138649,181.1894 Z" id="Rectangle-2-Copy-137"></path>
                                <path d="M328.455486,60.618071 L328.455486,60.618071 C331.408479,60.618071 333.802354,63.0119452 333.802354,65.9649386 L333.802354,87.7367301 C333.802354,90.6897236 331.408479,93.0835977 328.455486,93.0835977 L328.455486,93.0835977 C325.502493,93.0835977 323.108618,90.6897236 323.108618,87.7367301 L323.108618,65.9649386 C323.108618,63.0119452 325.502493,60.618071 328.455486,60.618071 Z" id="Rectangle-2-Copy-138"></path>
                                <path d="M226.733078,208.591975 L233.256529,208.591975 C236.99199,208.591975 240.02018,211.620165 240.02018,215.355626 L240.02018,215.355626 C240.02018,219.091088 236.99199,222.119278 233.256529,222.119278 L226.733078,222.119278 C222.997617,222.119278 219.969427,219.091088 219.969427,215.355626 L219.969427,215.355626 C219.969427,211.620165 222.997617,208.591975 226.733078,208.591975 Z" id="Rectangle-2-Copy-48"></path>
                                <path d="M234.199279,200.371203 L234.199279,200.371203 C237.521396,200.371203 240.214505,203.064311 240.214505,206.386429 L240.214505,214.646931 C240.214505,217.969048 237.521396,220.662157 234.199279,220.662157 L234.199279,220.662157 C230.877161,220.662157 228.184053,217.969048 228.184053,214.646931 L228.184053,206.386429 C228.184053,203.064311 230.877161,200.371203 234.199279,200.371203 Z" id="Rectangle-2-Copy-49"></path>
                                <path d="M228.770751,97.8681743 L235.070014,97.8681743 C244.035122,97.8681743 251.302777,105.13583 251.302777,114.100938 L251.302777,114.100938 C251.302777,123.066045 244.035122,130.333701 235.070014,130.333701 L228.770751,130.333701 C219.805643,130.333701 212.537987,123.066045 212.537987,114.100938 L212.537987,114.100938 C212.537987,105.13583 219.805643,97.8681743 228.770751,97.8681743 Z" id="Rectangle-2-Copy-50"></path>
                                <path d="M260.86797,93.8099835 L264.461773,93.8099835 C274.173972,93.8099835 282.047266,101.683277 282.047266,111.395477 L282.047266,111.395477 C282.047266,121.107677 274.173972,128.980971 264.461773,128.980971 L260.86797,128.980971 C251.15577,128.980971 243.282476,121.107677 243.282476,111.395477 L243.282476,111.395477 C243.282476,101.683277 251.15577,93.8099835 260.86797,93.8099835 Z" id="Rectangle-2-Copy-54"></path>
                                <path d="M273.496989,110.995313 L273.496989,110.995313 C280.879472,110.995313 286.864158,116.979998 286.864158,124.362482 L286.864158,132.799131 C286.864158,140.181614 280.879472,146.1663 273.496989,146.1663 L273.496989,146.1663 C266.114505,146.1663 260.12982,140.181614 260.12982,132.799131 L260.12982,124.362482 C260.12982,116.979998 266.114505,110.995313 273.496989,110.995313 Z" id="Rectangle-2-Copy-63"></path>
                                <path d="M282.488857,113.042747 L288.932241,113.042747 C294.535433,113.042747 299.077718,117.585032 299.077718,123.188224 L299.077718,123.188224 C299.077718,128.791416 294.535433,133.333701 288.932241,133.333701 L282.488857,133.333701 C276.885665,133.333701 272.34338,128.791416 272.34338,123.188224 L272.34338,123.188224 C272.34338,117.585032 276.885665,113.042747 282.488857,113.042747 Z" id="Rectangle-2-Copy-65"></path>
                                <path d="M263.539202,47.8171539 L300.555331,47.8171539 C316.172301,47.8171539 328.832358,60.4772101 328.832358,76.0941809 L328.832358,88.5293712 C328.832358,104.146342 316.172301,116.806398 300.555331,116.806398 L263.539202,116.806398 C247.922231,116.806398 235.262175,104.146342 235.262175,88.5293712 L235.262175,76.0941809 C235.262175,60.4772101 247.922231,47.8171539 263.539202,47.8171539 Z" id="Rectangle-2-Copy-66"></path>
                                <path d="M315.806729,87.1072267 L315.806729,87.1072267 C328.408986,87.1072267 338.625134,97.3233747 338.625134,109.925632 L338.625134,120.920809 C338.625134,133.523067 328.408986,143.739215 315.806729,143.739215 L315.806729,143.739215 C303.204471,143.739215 292.988323,133.523067 292.988323,120.920809 L292.988323,109.925632 C292.988323,97.3233747 303.204471,87.1072267 315.806729,87.1072267 Z" id="Rectangle-2-Copy-68"></path>
                                <path d="M337.179225,88.984556 L337.179225,88.984556 C343.823461,88.984556 349.209677,94.3707729 349.209677,101.015008 L349.209677,121.594203 C349.209677,128.238438 343.823461,133.624655 337.179225,133.624655 L337.179225,133.624655 C330.53499,133.624655 325.148773,128.238438 325.148773,121.594203 L325.148773,101.015008 C325.148773,94.3707729 330.53499,88.984556 337.179225,88.984556 Z" id="Rectangle-2-Copy-72"></path>
                                <path d="M243.488448,32.9371208 L280.504577,32.9371208 C296.121548,32.9371208 308.781604,45.597177 308.781604,61.2141478 L308.781604,61.4747656 C308.781604,77.0917364 296.121548,89.7517926 280.504577,89.7517926 L243.488448,89.7517926 C227.871477,89.7517926 215.211421,77.0917364 215.211421,61.4747656 L215.211421,61.2141478 C215.211421,45.597177 227.871477,32.9371208 243.488448,32.9371208 Z" id="Rectangle-2-Copy-67"></path>
                                <path d="M242.242807,18.2432432 L242.242807,18.2432432 C248.887043,18.2432432 254.273259,23.6294601 254.273259,30.2736954 L254.273259,63.0274629 C254.273259,69.6716982 248.887043,75.0579151 242.242807,75.0579151 L242.242807,75.0579151 C235.598572,75.0579151 230.212355,69.6716982 230.212355,63.0274629 L230.212355,30.2736954 C230.212355,23.6294601 235.598572,18.2432432 242.242807,18.2432432 Z" id="Rectangle-2-Copy-70"></path>
                                <path d="M239.377413,2.60617761 L287.529702,2.60617761 C303.146672,2.60617761 315.806729,15.2662338 315.806729,30.8832046 L315.806729,31.1438224 C315.806729,46.7607932 303.146672,59.4208494 287.529702,59.4208494 L239.377413,59.4208494 C223.760442,59.4208494 211.100386,46.7607932 211.100386,31.1438224 L211.100386,30.8832046 C211.100386,15.2662338 223.760442,2.60617761 239.377413,2.60617761 Z" id="Rectangle-2-Copy-150"></path>
                                <path d="M266.212635,24.8207391 L273.820993,24.8207391 C289.437963,24.8207391 302.09802,37.4807953 302.09802,53.0977661 L302.09802,53.3583839 C302.09802,68.9753547 289.437963,81.6354109 273.820993,81.6354109 L266.212635,81.6354109 C250.595665,81.6354109 237.935608,68.9753547 237.935608,53.3583839 L237.935608,53.0977661 C237.935608,37.4807953 250.595665,24.8207391 266.212635,24.8207391 Z" id="Rectangle-2-Copy-71"></path>
                                <path d="M274.187099,18.0570877 L311.294904,18.0570877 C318.765827,18.0570877 324.822207,24.1134675 324.822207,31.5843905 L324.822207,31.5843905 C324.822207,39.0553136 318.765827,45.1116933 311.294904,45.1116933 L274.187099,45.1116933 C266.716176,45.1116933 260.659796,39.0553136 260.659796,31.5843905 L260.659796,31.5843905 C260.659796,24.1134675 266.716176,18.0570877 274.187099,18.0570877 Z" id="Rectangle-2-Copy-73"></path>
                                <path d="M264.814067,32.9371208 L304.627333,32.9371208 C311.351164,32.9371208 316.801906,38.3878626 316.801906,45.1116933 L316.801906,45.1116933 C316.801906,51.8355241 311.351164,57.2862659 304.627333,57.2862659 L264.814067,57.2862659 C258.090236,57.2862659 252.639494,51.8355241 252.639494,45.1116933 L252.639494,45.1116933 C252.639494,38.3878626 258.090236,32.9371208 264.814067,32.9371208 Z" id="Rectangle-2-Copy-74"></path>
                                <path d="M318.260867,34.5843905 L330.720264,34.5843905 C335.94991,34.5843905 340.189376,38.8238563 340.189376,44.0535025 L340.189376,44.0535025 C340.189376,49.2831486 335.94991,53.5226145 330.720264,53.5226145 L318.260867,53.5226145 C313.031221,53.5226145 308.791755,49.2831486 308.791755,44.0535025 L308.791755,44.0535025 C308.791755,38.8238563 313.031221,34.5843905 318.260867,34.5843905 Z" id="Rectangle-2-Copy-75"></path>
                                <path d="M317.577282,50.8171539 L337.403849,50.8171539 C342.633495,50.8171539 346.872961,55.0566197 346.872961,60.2862659 L346.872961,60.2862659 C346.872961,65.515912 342.633495,69.7553778 337.403849,69.7553778 L317.577282,69.7553778 C312.347636,69.7553778 308.10817,65.515912 308.10817,60.2862659 L308.10817,60.2862659 C308.10817,55.0566197 312.347636,50.8171539 317.577282,50.8171539 Z" id="Rectangle-2-Copy-76"></path>
                                <path d="M355.888187,67.4026475 L355.888187,67.4026475 C359.948553,67.4026475 363.24013,70.6942245 363.24013,74.7545905 L363.24013,78.9889285 C363.24013,83.0492945 359.948553,86.3408715 355.888187,86.3408715 L355.888187,86.3408715 C351.827821,86.3408715 348.536244,83.0492945 348.536244,78.9889285 L348.536244,74.7545905 C348.536244,70.6942245 351.827821,67.4026475 355.888187,67.4026475 Z" id="Rectangle-2-Copy-77"></path>
                                <path d="M362.908488,89.7517926 L362.908488,89.7517926 C366.230606,89.7517926 368.923714,92.444901 368.923714,95.7670187 L368.923714,110.791172 C368.923714,114.11329 366.230606,116.806398 362.908488,116.806398 L362.908488,116.806398 C359.58637,116.806398 356.893262,114.11329 356.893262,110.791172 L356.893262,95.7670187 C356.893262,92.444901 359.58637,89.7517926 362.908488,89.7517926 Z" id="Rectangle-2-Copy-78"></path>
                                <path d="M360.323128,88.3990623 L361.483697,88.3990623 C365.592705,88.3990623 368.923714,91.7300712 368.923714,95.8390789 L368.923714,95.8390789 C368.923714,99.9480866 365.592705,103.279095 361.483697,103.279095 L360.323128,103.279095 C356.21412,103.279095 352.883111,99.9480866 352.883111,95.8390789 L352.883111,95.8390789 C352.883111,91.7300712 356.21412,88.3990623 360.323128,88.3990623 Z" id="Rectangle-2-Copy-86"></path>
                                <path d="M355.015226,129 L355.015226,129 C358.337344,129 361.030452,131.693108 361.030452,135.015226 L361.030452,139.217537 C361.030452,142.539655 358.337344,145.232763 355.015226,145.232763 L355.015226,145.232763 C351.693108,145.232763 349,142.539655 349,139.217537 L349,135.015226 C349,131.693108 351.693108,129 355.015226,129 Z" id="Rectangle-2-Copy-79"></path>
                                <path d="M338.015226,128 L338.015226,128 C341.337344,128 344.030452,130.693108 344.030452,134.015226 L344.030452,138.217537 C344.030452,141.539655 341.337344,144.232763 338.015226,144.232763 L338.015226,144.232763 C334.693108,144.232763 332,141.539655 332,138.217537 L332,134.015226 C332,130.693108 334.693108,128 338.015226,128 Z" id="Rectangle-2-Copy-151"></path>
                                <path d="M362.918639,147.919195 L362.918639,147.919195 C366.240756,147.919195 368.933865,150.612303 368.933865,153.934421 L368.933865,164.900383 C368.933865,168.222501 366.240756,170.915609 362.918639,170.915609 L362.918639,170.915609 C359.596521,170.915609 356.903413,168.222501 356.903413,164.900383 L356.903413,153.934421 C356.903413,150.612303 359.596521,147.919195 362.918639,147.919195 Z" id="Rectangle-2-Copy-83"></path>
                                <path d="M366.928789,156.035576 L366.928789,156.035576 C370.989155,156.035576 374.280732,159.327153 374.280732,163.387519 L374.280732,167.621857 C374.280732,171.682223 370.989155,174.9738 366.928789,174.9738 L366.928789,174.9738 C362.868423,174.9738 359.576846,171.682223 359.576846,167.621857 L359.576846,163.387519 C359.576846,159.327153 362.868423,156.035576 366.928789,156.035576 Z" id="Rectangle-2-Copy-84"></path>
                                <path d="M382.301034,166.857419 L382.301034,166.857419 C384.515779,166.857419 386.311184,168.652824 386.311184,170.867569 L386.311184,173.66911 C386.311184,175.883855 384.515779,177.679261 382.301034,177.679261 L382.301034,177.679261 C380.086289,177.679261 378.290883,175.883855 378.290883,173.66911 L378.290883,170.867569 C378.290883,168.652824 380.086289,166.857419 382.301034,166.857419 Z" id="Rectangle-2-Copy-85"></path>
                                <path d="M399.742407,174.9738 L408.971318,174.9738 C411.959687,174.9738 414.382239,177.396352 414.382239,180.384721 L414.382239,180.384721 C414.382239,183.373091 411.959687,185.795643 408.971318,185.795643 L399.742407,185.795643 C396.754038,185.795643 394.331486,183.373091 394.331486,180.384721 L394.331486,180.384721 C394.331486,177.396352 396.754038,174.9738 399.742407,174.9738 Z" id="Rectangle-2-Copy-87"></path>
                                <path d="M408.367013,176.326531 L408.367013,176.326531 C411.689131,176.326531 414.382239,179.019639 414.382239,182.341757 L414.382239,185.191338 C414.382239,188.513455 411.689131,191.206564 408.367013,191.206564 L408.367013,191.206564 C405.044896,191.206564 402.351787,188.513455 402.351787,185.191338 L402.351787,182.341757 C402.351787,179.019639 405.044896,176.326531 408.367013,176.326531 Z" id="Rectangle-2-Copy-88"></path>
                                <path d="M380.384032,188.501103 L382.881319,188.501103 C386.990326,188.501103 390.321335,191.832112 390.321335,195.94112 L390.321335,195.94112 C390.321335,200.050127 386.990326,203.381136 382.881319,203.381136 L380.384032,203.381136 C376.275024,203.381136 372.944015,200.050127 372.944015,195.94112 L372.944015,195.94112 C372.944015,191.832112 376.275024,188.501103 380.384032,188.501103 Z" id="Rectangle-2-Copy-91"></path>
                                <path d="M397.00492,192.559294 L397.00492,192.559294 C399.957913,192.559294 402.351787,194.953168 402.351787,197.906162 L402.351787,214.267032 C402.351787,217.220025 399.957913,219.6139 397.00492,219.6139 L397.00492,219.6139 C394.051926,219.6139 391.658052,217.220025 391.658052,214.267032 L391.658052,197.906162 C391.658052,194.953168 394.051926,192.559294 397.00492,192.559294 Z" id="Rectangle-2-Copy-92"></path>
                                <path d="M344.937014,241.257584 L350.155775,241.257584 C353.144144,241.257584 355.566696,243.680136 355.566696,246.668505 L355.566696,246.668505 C355.566696,249.656874 353.144144,252.079426 350.155775,252.079426 L344.937014,252.079426 C341.948645,252.079426 339.526093,249.656874 339.526093,246.668505 L339.526093,246.668505 C339.526093,243.680136 341.948645,241.257584 344.937014,241.257584 Z" id="Rectangle-2-Copy-94"></path>
                                <path d="M179.184118,264.253999 L196.433331,264.253999 C199.4217,264.253999 201.844252,266.676551 201.844252,269.66492 L201.844252,269.66492 C201.844252,272.653289 199.4217,275.075841 196.433331,275.075841 L179.184118,275.075841 C176.195749,275.075841 173.773197,272.653289 173.773197,269.66492 L173.773197,269.66492 C173.773197,266.676551 176.195749,264.253999 179.184118,264.253999 Z" id="Rectangle-2-Copy-97"></path>
                                <path d="M112.28422,249.373966 L112.28422,249.373966 C116.71371,249.373966 120.304521,252.964777 120.304521,257.394267 L120.304521,264.350079 C120.304521,268.779569 116.71371,272.370381 112.28422,272.370381 L112.28422,272.370381 C107.85473,272.370381 104.263918,268.779569 104.263918,264.350079 L104.263918,257.394267 C104.263918,252.964777 107.85473,249.373966 112.28422,249.373966 Z" id="Rectangle-2-Copy-100"></path>
                                <path d="M105.600635,257.490347 L105.600635,257.490347 C110.030125,257.490347 113.620937,261.081159 113.620937,265.510649 L113.620937,272.466461 C113.620937,276.895951 110.030125,280.486762 105.600635,280.486762 L105.600635,280.486762 C101.171145,280.486762 97.5803338,276.895951 97.5803338,272.466461 L97.5803338,265.510649 C97.5803338,261.081159 101.171145,257.490347 105.600635,257.490347 Z" id="Rectangle-2-Copy-101"></path>
                                <path d="M231.316077,269.66492 L248.56529,269.66492 C251.553659,269.66492 253.976211,272.087472 253.976211,275.075841 L253.976211,275.075841 C253.976211,278.06421 251.553659,280.486762 248.56529,280.486762 L231.316077,280.486762 C228.327708,280.486762 225.905156,278.06421 225.905156,275.075841 L225.905156,275.075841 C225.905156,272.087472 228.327708,269.66492 231.316077,269.66492 Z" id="Rectangle-2-Copy-98"></path>
                                <path d="M102.378943,265.606729 L120.852779,265.606729 C126.455971,265.606729 130.998256,270.149014 130.998256,275.752206 L130.998256,275.752206 C130.998256,281.355399 126.455971,285.897683 120.852779,285.897683 L102.378943,285.897683 C96.775751,285.897683 92.2334662,281.355399 92.2334662,275.752206 L92.2334662,275.752206 C92.2334662,270.149014 96.775751,265.606729 102.378943,265.606729 Z" id="Rectangle-2-Copy-99"></path>
                                <path d="M157.844688,269.66492 L240.496949,269.66492 C245.726595,269.66492 249.966061,273.904386 249.966061,279.134032 L249.966061,279.134032 C249.966061,284.363678 245.726595,288.603144 240.496949,288.603144 L157.844688,288.603144 C152.615042,288.603144 148.375576,284.363678 148.375576,279.134032 L148.375576,279.134032 C148.375576,273.904386 152.615042,269.66492 157.844688,269.66492 Z" id="Rectangle-2-Copy-96"></path>
                                <path d="M121.801372,276.428571 L232.428607,276.428571 C239.89953,276.428571 245.95591,282.484951 245.95591,289.955874 L245.95591,289.955874 C245.95591,297.426797 239.89953,303.483177 232.428607,303.483177 L121.801372,303.483177 C114.330449,303.483177 108.274069,297.426797 108.274069,289.955874 L108.274069,289.955874 C108.274069,282.484951 114.330449,276.428571 121.801372,276.428571 Z" id="Rectangle-2-Copy-95"></path>
                                <path d="M369.093999,215.555709 L374.120599,215.555709 C381.591522,215.555709 387.647901,221.612089 387.647901,229.083012 L387.647901,229.083012 C387.647901,236.553935 381.591522,242.610314 374.120599,242.610314 L369.093999,242.610314 C361.623075,242.610314 355.566696,236.553935 355.566696,229.083012 L355.566696,229.083012 C355.566696,221.612089 361.623075,215.555709 369.093999,215.555709 Z" id="Rectangle-2-Copy-93"></path>
                                <path d="M372.534501,193.912024 L388.398956,193.912024 C392.507964,193.912024 395.838973,197.243033 395.838973,201.352041 L395.838973,201.352041 C395.838973,205.461048 392.507964,208.792057 388.398956,208.792057 L372.534501,208.792057 C368.425493,208.792057 365.094484,205.461048 365.094484,201.352041 L365.094484,201.352041 C365.094484,197.243033 368.425493,193.912024 372.534501,193.912024 Z" id="Rectangle-2-Copy-90"></path>
                                <path d="M348.382893,200.675676 L388.148119,200.675676 C395.992589,200.675676 402.351787,207.034874 402.351787,214.879344 L402.351787,214.879344 C402.351787,222.723813 395.992589,229.083012 388.148119,229.083012 L348.382893,229.083012 C340.538424,229.083012 334.179225,222.723813 334.179225,214.879344 L334.179225,214.879344 C334.179225,207.034874 340.538424,200.675676 348.382893,200.675676 Z" id="Rectangle-2-Copy-89"></path>
                                <path d="M343.632324,172.055209 L350.123748,172.055209 C354.606302,172.055209 358.24013,175.689036 358.24013,180.17159 L358.24013,180.17159 C358.24013,184.654144 354.606302,188.287972 350.123748,188.287972 L343.632324,188.287972 C339.14977,188.287972 335.515942,184.654144 335.515942,180.17159 L335.515942,180.17159 C335.515942,175.689036 339.14977,172.055209 343.632324,172.055209 Z" id="Rectangle-2-Copy-80"></path>
                                <path d="M342.199527,169.314951 L342.199527,169.314951 C345.890769,169.314951 348.883111,172.307294 348.883111,175.998536 L348.883111,178.86413 C348.883111,182.555372 345.890769,185.547715 342.199527,185.547715 L342.199527,185.547715 C338.508285,185.547715 335.515942,182.555372 335.515942,178.86413 L335.515942,175.998536 C335.515942,172.307294 338.508285,169.314951 342.199527,169.314951 Z" id="Rectangle-2-Copy-81"></path>
                                <path d="M329.526093,135.744622 L329.526093,135.744622 C333.217335,135.744622 336.209677,138.736965 336.209677,142.428207 L336.209677,163.821104 C336.209677,167.512346 333.217335,170.504688 329.526093,170.504688 L329.526093,170.504688 C325.834851,170.504688 322.842508,167.512346 322.842508,163.821104 L322.842508,142.428207 C322.842508,138.736965 325.834851,135.744622 329.526093,135.744622 Z" id="Rectangle-2-Copy-82"></path>
                                <path d="M274.695323,132.778185 L274.695323,132.778185 C278.755689,132.778185 282.047266,136.069762 282.047266,140.130128 L282.047266,145.717196 C282.047266,149.777562 278.755689,153.069139 274.695323,153.069139 L274.695323,153.069139 C270.634957,153.069139 267.34338,149.777562 267.34338,145.717196 L267.34338,140.130128 C267.34338,136.069762 270.634957,132.778185 274.695323,132.778185 Z" id="Rectangle-2-Copy-64"></path>
                                <path d="M186.592108,110.042747 L213.086245,110.042747 C218.689438,110.042747 223.231723,114.585032 223.231723,120.188224 L223.231723,120.188224 C223.231723,125.791416 218.689438,130.333701 213.086245,130.333701 L186.592108,130.333701 C180.988916,130.333701 176.446631,125.791416 176.446631,120.188224 L176.446631,120.188224 C176.446631,114.585032 180.988916,110.042747 186.592108,110.042747 Z" id="Rectangle-2-Copy-51"></path>
                                <path d="M159.659404,8.68725869 L174.203156,8.68725869 C177.938618,8.68725869 180.966808,11.7154486 180.966808,15.4509101 L180.966808,15.4509101 C180.966808,19.1863716 177.938618,22.2145615 174.203156,22.2145615 L159.659404,22.2145615 C155.923943,22.2145615 152.895753,19.1863716 152.895753,15.4509101 L152.895753,15.4509101 C152.895753,11.7154486 155.923943,8.68725869 159.659404,8.68725869 Z" id="Rectangle-2-Copy-40"></path>
                                <path d="M154.447049,0.868725869 L191.714989,0.868725869 C195.45045,0.868725869 198.47864,3.89691575 198.47864,7.63237728 L198.47864,7.63237728 C198.47864,11.3678388 195.45045,14.3960287 191.714989,14.3960287 L154.447049,14.3960287 C150.711588,14.3960287 147.683398,11.3678388 147.683398,7.63237728 L147.683398,7.63237728 C147.683398,3.89691575 150.711588,0.868725869 154.447049,0.868725869 Z" id="Rectangle-2-Copy-149"></path>
                                <path d="M161.6885,17.3745174 L166.827193,17.3745174 C171.683293,17.3745174 175.61994,21.3111642 175.61994,26.1672642 L175.61994,26.1672642 C175.61994,31.0233642 171.683293,34.960011 166.827193,34.960011 L161.6885,34.960011 C156.8324,34.960011 152.895753,31.0233642 152.895753,26.1672642 L152.895753,26.1672642 C152.895753,21.3111642 156.8324,17.3745174 161.6885,17.3745174 Z" id="Rectangle-2-Copy-41"></path>
                                <path d="M104.352592,0.471594043 L128.836096,0.471594043 C133.692196,0.471594043 137.628843,4.40824089 137.628843,9.26434087 L137.628843,9.26434087 C137.628843,14.1204409 133.692196,18.0570877 128.836096,18.0570877 L104.352592,18.0570877 C99.4964924,18.0570877 95.5598456,14.1204409 95.5598456,9.26434087 L95.5598456,9.26434087 C95.5598456,4.40824089 99.4964924,0.471594043 104.352592,0.471594043 Z" id="Rectangle-2-Copy-148"></path>
                                <path d="M148.750689,27.7992278 L157.979601,27.7992278 C160.96797,27.7992278 163.390522,30.2217797 163.390522,33.2101489 L163.390522,33.2101489 C163.390522,36.1985181 160.96797,38.62107 157.979601,38.62107 L148.750689,38.62107 C145.76232,38.62107 143.339768,36.1985181 143.339768,33.2101489 L143.339768,33.2101489 C143.339768,30.2217797 145.76232,27.7992278 148.750689,27.7992278 Z" id="Rectangle-2-Copy-42"></path>
                                <path d="M139.082611,15.3516271 L141.627938,15.3516271 C144.616307,15.3516271 147.038859,17.774179 147.038859,20.7625483 L147.038859,20.7625483 C147.038859,23.7509175 144.616307,26.1734694 141.627938,26.1734694 L139.082611,26.1734694 C136.094242,26.1734694 133.67169,23.7509175 133.67169,20.7625483 L133.67169,20.7625483 C133.67169,17.774179 136.094242,15.3516271 139.082611,15.3516271 Z" id="Rectangle-2-Copy-129"></path>
                                <path d="M88.2985784,16.7043574 L98.8529972,16.7043574 C101.841366,16.7043574 104.263918,19.1269093 104.263918,22.1152785 L104.263918,22.1152785 C104.263918,25.1036478 101.841366,27.5261997 98.8529972,27.5261997 L88.2985784,27.5261997 C85.3102091,27.5261997 82.8876572,25.1036478 82.8876572,22.1152785 L82.8876572,22.1152785 C82.8876572,19.1269093 85.3102091,16.7043574 88.2985784,16.7043574 Z" id="Rectangle-2-Copy-130"></path>
                                <path d="M97.6443873,22.1152785 L114.8936,22.1152785 C117.881969,22.1152785 120.304521,24.5378304 120.304521,27.5261997 L120.304521,27.5261997 C120.304521,30.5145689 117.881969,32.9371208 114.8936,32.9371208 L97.6443873,32.9371208 C94.6560181,32.9371208 92.2334662,30.5145689 92.2334662,27.5261997 L92.2334662,27.5261997 C92.2334662,24.5378304 94.6560181,22.1152785 97.6443873,22.1152785 Z" id="Rectangle-2-Copy-131"></path>
                                <path d="M93.6342366,12.6461666 L120.240468,12.6461666 C123.228837,12.6461666 125.651389,15.0687185 125.651389,18.0570877 L125.651389,18.0570877 C125.651389,21.0454569 123.228837,23.4680088 120.240468,23.4680088 L93.6342366,23.4680088 C90.6458674,23.4680088 88.2233155,21.0454569 88.2233155,18.0570877 L88.2233155,18.0570877 C88.2233155,15.0687185 90.6458674,12.6461666 93.6342366,12.6461666 Z" id="Rectangle-2-Copy-132"></path>
                                <path d="M84.9695968,146.566464 L98.1606187,146.566464 C102.269626,146.566464 105.600635,149.897473 105.600635,154.006481 L105.600635,154.006481 C105.600635,158.115489 102.269626,161.446498 98.1606187,161.446498 L84.9695968,161.446498 C80.8605891,161.446498 77.5295803,158.115489 77.5295803,154.006481 L77.5295803,154.006481 C77.5295803,149.897473 80.8605891,146.566464 84.9695968,146.566464 Z" id="Rectangle-2-Copy-133"></path>
                                <path d="M100.333834,45.1116933 L113.54087,45.1116933 C117.276331,45.1116933 120.304521,48.1398832 120.304521,51.8753447 L120.304521,51.8753447 C120.304521,55.6108063 117.276331,58.6389961 113.54087,58.6389961 L100.333834,58.6389961 C96.598373,58.6389961 93.5701831,55.6108063 93.5701831,51.8753447 L93.5701831,51.8753447 C93.5701831,48.1398832 96.598373,45.1116933 100.333834,45.1116933 Z" id="Rectangle-2-Copy-120"></path>
                                <path d="M113.701004,38.3480419 L120.224454,38.3480419 C123.959916,38.3480419 126.988106,41.3762318 126.988106,45.1116933 L126.988106,45.1116933 C126.988106,48.8471549 123.959916,51.8753447 120.224454,51.8753447 L113.701004,51.8753447 C109.965542,51.8753447 106.937352,48.8471549 106.937352,45.1116933 L106.937352,45.1116933 C106.937352,41.3762318 109.965542,38.3480419 113.701004,38.3480419 Z" id="Rectangle-2-Copy-127"></path>
                                <path d="M131.860177,20.7625483 L134.92834,20.7625483 C138.663802,20.7625483 141.691992,23.7907381 141.691992,27.5261997 L141.691992,27.5261997 C141.691992,31.2616612 138.663802,34.2898511 134.92834,34.2898511 L131.860177,34.2898511 C128.124715,34.2898511 125.096525,31.2616612 125.096525,27.5261997 L125.096525,27.5261997 C125.096525,23.7907381 128.124715,20.7625483 131.860177,20.7625483 Z" id="Rectangle-2-Copy-128"></path>
                                <path d="M80.283081,35.6425814 L93.4901162,35.6425814 C97.2255777,35.6425814 100.253768,38.6707712 100.253768,42.4062328 L100.253768,42.4062328 C100.253768,46.1416943 97.2255777,49.1698842 93.4901162,49.1698842 L80.283081,49.1698842 C76.5476194,49.1698842 73.5194296,46.1416943 73.5194296,42.4062328 L73.5194296,42.4062328 C73.5194296,38.6707712 76.5476194,35.6425814 80.283081,35.6425814 Z" id="Rectangle-2-Copy-121"></path>
                                <path d="M89.6400993,26.1734694 L102.847134,26.1734694 C106.582596,26.1734694 109.610786,29.2016593 109.610786,32.9371208 L109.610786,32.9371208 C109.610786,36.6725823 106.582596,39.7007722 102.847134,39.7007722 L89.6400993,39.7007722 C85.9046378,39.7007722 82.8764479,36.6725823 82.8764479,32.9371208 L82.8764479,32.9371208 C82.8764479,29.2016593 85.9046378,26.1734694 89.6400993,26.1734694 Z" id="Rectangle-2-Copy-122"></path>
                                <path d="M102.31489,22.1152785 L110.223098,22.1152785 C112.837921,22.1152785 114.957654,24.2350115 114.957654,26.8498345 L114.957654,26.8498345 C114.957654,29.4646576 112.837921,31.5843905 110.223098,31.5843905 L102.31489,31.5843905 C99.7000667,31.5843905 97.5803338,29.4646576 97.5803338,26.8498345 L97.5803338,26.8498345 C97.5803338,24.2350115 99.7000667,22.1152785 102.31489,22.1152785 Z" id="Rectangle-2-Copy-123"></path>
                                <path d="M55.5297982,19.409818 L72.7950243,19.409818 C75.4098474,19.409818 77.5295803,21.5295509 77.5295803,24.144374 L77.5295803,24.144374 C77.5295803,26.759197 75.4098474,28.87893 72.7950243,28.87893 L55.5297982,28.87893 C52.9149752,28.87893 50.7952422,26.759197 50.7952422,24.144374 L50.7952422,24.144374 C50.7952422,21.5295509 52.9149752,19.409818 55.5297982,19.409818 Z" id="Rectangle-2-Copy-124"></path>
                                <path d="M44.836063,26.1734694 L62.1012891,26.1734694 C64.7161121,26.1734694 66.8358451,28.2932023 66.8358451,30.9080254 L66.8358451,30.9080254 C66.8358451,33.5228484 64.7161121,35.6425814 62.1012891,35.6425814 L44.836063,35.6425814 C42.22124,35.6425814 40.101507,33.5228484 40.101507,30.9080254 L40.101507,30.9080254 C40.101507,28.2932023 42.22124,26.1734694 44.836063,26.1734694 Z" id="Rectangle-2-Copy-125"></path>
                                <path d="M35.4790447,31.5843905 L43.3872525,31.5843905 C46.0020755,31.5843905 48.1218084,33.7041234 48.1218084,36.3189465 L48.1218084,36.3189465 C48.1218084,38.9337696 46.0020755,41.0535025 43.3872525,41.0535025 L35.4790447,41.0535025 C32.8642216,41.0535025 30.7444887,38.9337696 30.7444887,36.3189465 L30.7444887,36.3189465 C30.7444887,33.7041234 32.8642216,31.5843905 35.4790447,31.5843905 Z" id="Rectangle-2-Copy-126"></path>
                                <path d="M66.8358451,18.0570877 L66.8358451,18.0570877 C73.4800803,18.0570877 78.8662972,23.4433046 78.8662972,30.0875398 L78.8662972,52.0194652 C78.8662972,58.6637004 73.4800803,64.0499173 66.8358451,64.0499173 L66.8358451,64.0499173 C60.1916098,64.0499173 54.805393,58.6637004 54.805393,52.0194652 L54.805393,30.0875398 C54.805393,23.4433046 60.1916098,18.0570877 66.8358451,18.0570877 Z" id="Rectangle-2-Copy-119"></path>
                                <path d="M225.236798,24.8207391 L225.236798,24.8207391 C230.773661,24.8207391 235.262175,29.3092532 235.262175,34.8461159 L235.262175,55.3772708 C235.262175,60.9141335 230.773661,65.4026475 225.236798,65.4026475 L225.236798,65.4026475 C219.699935,65.4026475 215.211421,60.9141335 215.211421,55.3772708 L215.211421,34.8461159 C215.211421,29.3092532 219.699935,24.8207391 225.236798,24.8207391 Z" id="Rectangle-2-Copy-36"></path>
                                <path d="M197.227536,82.9881412 L214.48127,82.9881412 C220.05226,82.9881412 224.568439,87.5043209 224.568439,93.075311 L224.568439,93.075311 C224.568439,98.646301 220.05226,103.162481 214.48127,103.162481 L197.227536,103.162481 C191.656546,103.162481 187.140366,98.646301 187.140366,93.075311 L187.140366,93.075311 C187.140366,87.5043209 191.656546,82.9881412 197.227536,82.9881412 Z" id="Rectangle-2-Copy-31"></path>
                                <path d="M153.688995,112.748207 L216.285736,112.748207 L220.209818,126.311057 C223.850135,138.893126 216.601413,152.043967 204.019345,155.684283 C201.877079,156.304096 199.658097,156.61865 197.427969,156.61865 L153.688995,156.61865 C141.574507,156.61865 131.753774,146.797917 131.753774,134.683429 L131.753774,134.683429 C131.753774,122.56894 141.574507,112.748207 153.688995,112.748207 Z" id="Rectangle-2-Copy-16"></path>
                                <path d="M48.3732675,156.61865 L105.600635,156.61865 L105.600635,156.61865 C111.319999,163.8535 110.091455,174.354965 102.856605,180.074329 C99.9080621,182.40524 96.2593781,183.673255 92.5007807,183.673255 L48.3732675,183.673255 C40.9023444,183.673255 34.8459647,177.616876 34.8459647,170.145953 L34.8459647,170.145953 C34.8459647,162.67503 40.9023444,156.61865 48.3732675,156.61865 Z" id="Rectangle-2-Copy-56"></path>
                                <path d="M163.863689,102.635352 L168.67625,102.635352 C178.8737,102.635352 187.140366,110.902019 187.140366,121.099468 L187.140366,121.099468 C187.140366,131.296918 178.8737,139.563584 168.67625,139.563584 L155.323938,139.563584 C147.042141,139.563584 140.328418,132.849861 140.328418,124.568064 C140.328418,123.399973 140.464901,122.235882 140.735091,121.099468 L140.790647,120.865799 C143.331547,110.178825 152.878808,102.635352 163.863689,102.635352 Z" id="Rectangle-2-Copy-43"></path>
                                <path d="M27.6509039,51.8753447 L56.5622609,51.8753447 C68.1421916,51.8753447 77.5295803,61.2627334 77.5295803,72.8426641 L77.5295803,72.8426641 C77.5295803,84.4225948 68.1421916,93.8099835 56.5622609,93.8099835 L27.6509039,93.8099835 C16.0709731,93.8099835 6.68358451,84.4225948 6.68358451,72.8426641 L6.68358451,72.8426641 C6.68358451,61.2627334 16.0709731,51.8753447 27.6509039,51.8753447 Z" id="Rectangle-2-Copy-102"></path>
                                <path d="M59.0557444,39.7007722 L82.6362472,39.7007722 C93.8426318,39.7007722 102.927201,48.7853418 102.927201,59.9917264 L102.927201,59.9917264 C102.927201,71.198111 93.8426318,80.2826806 82.6362472,80.2826806 L59.0557444,80.2826806 C47.8493598,80.2826806 38.7647901,71.198111 38.7647901,59.9917264 L38.7647901,59.9917264 C38.7647901,48.7853418 47.8493598,39.7007722 59.0557444,39.7007722 Z" id="Rectangle-2-Copy-118"></path>
                                <path d="M55.0455937,137.097352 L65.2589275,137.097352 C76.465312,137.097352 85.5498817,146.181922 85.5498817,157.388307 L85.5498817,157.388307 C85.5498817,168.594691 76.465312,177.679261 65.2589275,177.679261 L55.0455937,177.679261 C43.8392091,177.679261 34.7546394,168.594691 34.7546394,157.388307 L34.7546394,157.388307 C34.7546394,146.181922 43.8392091,137.097352 55.0455937,137.097352 Z" id="Rectangle-2-Copy-103"></path>
                                <path d="M68.4127627,162.799228 L78.6260965,162.799228 C89.832481,162.799228 98.9170507,171.883797 98.9170507,183.090182 L98.9170507,183.090182 C98.9170507,194.296567 89.832481,203.381136 78.6260965,203.381136 L68.4127627,203.381136 C57.2063781,203.381136 48.1218084,194.296567 48.1218084,183.090182 L48.1218084,183.090182 C48.1218084,171.883797 57.2063781,162.799228 68.4127627,162.799228 Z" id="Rectangle-2-Copy-104"></path>
                                <path d="M72.1827127,181.737452 L72.1827127,181.737452 C80.3034446,181.737452 86.8865986,188.320606 86.8865986,196.441338 L86.8865986,221.142777 C86.8865986,229.263509 80.3034446,235.846663 72.1827127,235.846663 L72.1827127,235.846663 C64.0619807,235.846663 57.4788268,229.263509 57.4788268,221.142777 L57.4788268,196.441338 C57.4788268,188.320606 64.0619807,181.737452 72.1827127,181.737452 Z" id="Rectangle-2-Copy-105"></path>
                                <path d="M78.8662972,218.261169 L78.8662972,218.261169 C83.2957873,218.261169 86.8865986,221.851981 86.8865986,226.281471 L86.8865986,240.000934 C86.8865986,244.430424 83.2957873,248.021236 78.8662972,248.021236 L78.8662972,248.021236 C74.436807,248.021236 70.8459958,244.430424 70.8459958,240.000934 L70.8459958,226.281471 C70.8459958,221.851981 74.436807,218.261169 78.8662972,218.261169 Z" id="Rectangle-2-Copy-106"></path>
                                <path d="M85.5498817,229.083012 L85.5498817,229.083012 C89.9793718,229.083012 93.5701831,232.673823 93.5701831,237.103313 L93.5701831,250.822776 C93.5701831,255.252267 89.9793718,258.843078 85.5498817,258.843078 L85.5498817,258.843078 C81.1203915,258.843078 77.5295803,255.252267 77.5295803,250.822776 L77.5295803,237.103313 C77.5295803,232.673823 81.1203915,229.083012 85.5498817,229.083012 Z" id="Rectangle-2-Copy-108"></path>
                                <path d="M51.4636007,128.980971 L51.4636007,128.980971 C58.4769601,128.980971 64.1624113,134.666422 64.1624113,141.679781 L64.1624113,146.042226 C64.1624113,153.055586 58.4769601,158.741037 51.4636007,158.741037 L51.4636007,158.741037 C44.4502413,158.741037 38.7647901,153.055586 38.7647901,146.042226 L38.7647901,141.679781 C38.7647901,134.666422 44.4502413,128.980971 51.4636007,128.980971 Z" id="Rectangle-2-Copy-109"></path>
                                <path d="M17.581736,67.1188975 L39.373749,67.5694687 C47.6440389,67.7404651 54.2098137,74.5834797 54.0388173,82.8537697 C54.0244637,83.5479865 53.9618524,84.2403648 53.8514364,84.9258947 L53.8514364,84.9258947 C52.2734143,94.7232187 43.8172459,101.926365 33.8936522,101.926365 L17.5854937,101.926365 C7.87329369,101.926365 4.45436972e-13,94.0530714 0,84.3408715 L0,84.3408715 C-1.16506362e-15,74.827405 7.71218834,67.1152167 17.2256548,67.1152167 C17.344358,67.1152167 17.4630581,67.1164437 17.581736,67.1188975 Z" id="Rectangle-2-Copy-115"></path>
                                <path d="M22.0558289,80.2826806 L22.0558289,80.2826806 C26.8544432,80.2826806 30.7444887,84.1727262 30.7444887,88.9713405 L30.7444887,113.52866 C30.7444887,118.327274 26.8544432,122.217319 22.0558289,122.217319 L22.0558289,122.217319 C17.2572145,122.217319 13.367169,118.327274 13.367169,113.52866 L13.367169,88.9713405 C13.367169,84.1727262 17.2572145,80.2826806 22.0558289,80.2826806 Z" id="Rectangle-2-Copy-110"></path>
                                <path d="M32.7495641,111.395477 L32.7495641,111.395477 C37.5481784,111.395477 41.4382239,115.285523 41.4382239,120.084137 L41.4382239,122.997771 C41.4382239,127.796386 37.5481784,131.686431 32.7495641,131.686431 L32.7495641,131.686431 C27.9509497,131.686431 24.0609042,127.796386 24.0609042,122.997771 L24.0609042,120.084137 C24.0609042,115.285523 27.9509497,111.395477 32.7495641,111.395477 Z" id="Rectangle-2-Copy-111"></path>
                                <path d="M15.3722444,81.6354109 L15.3722444,81.6354109 C20.1708587,81.6354109 24.0609042,85.5254564 24.0609042,90.3240708 L24.0609042,93.2377053 C24.0609042,98.0363196 20.1708587,101.926365 15.3722444,101.926365 L15.3722444,101.926365 C10.57363,101.926365 6.68358451,98.0363196 6.68358451,93.2377053 L6.68358451,90.3240708 C6.68358451,85.5254564 10.57363,81.6354109 15.3722444,81.6354109 Z" id="Rectangle-2-Copy-116"></path>
                                <path d="M39.5052088,126.27551 L40.6978053,126.27551 C44.0597206,126.27551 46.7850915,129.000881 46.7850915,132.362796 L46.7850915,132.362796 C46.7850915,135.724712 44.0597206,138.450083 40.6978053,138.450083 L39.5052088,138.450083 C36.1432934,138.450083 33.4179225,135.724712 33.4179225,132.362796 L33.4179225,132.362796 C33.4179225,129.000881 36.1432934,126.27551 39.5052088,126.27551 Z" id="Rectangle-2-Copy-112"></path>
                                <path d="M50.3153197,104.462191 L50.3153197,104.462191 C52.8991889,104.462191 54.9938288,106.556831 54.9938288,109.1407 L54.9938288,113.310984 C54.9938288,115.894854 52.8991889,117.989494 50.3153197,117.989494 L50.3153197,117.989494 C47.7314504,117.989494 45.6368105,115.894854 45.6368105,113.310984 L45.6368105,109.1407 C45.6368105,106.556831 47.7314504,104.462191 50.3153197,104.462191 Z" id="Rectangle-2-Copy-113"></path>
                                <path d="M55.4737514,77.5772201 L55.4737514,77.5772201 C61.0106141,77.5772201 65.4991282,82.0657341 65.4991282,87.6025968 L65.4991282,89.1955278 C65.4991282,94.7323905 61.0106141,99.2209046 55.4737514,99.2209046 L55.4737514,99.2209046 C49.9368887,99.2209046 45.4483746,94.7323905 45.4483746,89.1955278 L45.4483746,87.6025968 C45.4483746,82.0657341 49.9368887,77.5772201 55.4737514,77.5772201 Z" id="Rectangle-2-Copy-117"></path>
                                <path d="M4.67850915,78.9299504 L4.67850915,78.9299504 C7.26237841,78.9299504 9.35701831,81.0245903 9.35701831,83.6084595 L9.35701831,108.069698 C9.35701831,110.653567 7.26237841,112.748207 4.67850915,112.748207 L4.67850915,112.748207 C2.0946399,112.748207 -5.71745698e-16,110.653567 -8.8817842e-16,108.069698 L0,83.6084595 C-3.16432722e-16,81.0245903 2.0946399,78.9299504 4.67850915,78.9299504 Z" id="Rectangle-2-Copy-114"></path>
                                <path d="M82.8764479,208.792057 L82.8764479,208.792057 C87.305938,208.792057 90.8967493,212.382869 90.8967493,216.812359 L90.8967493,230.531822 C90.8967493,234.961312 87.305938,238.552124 82.8764479,238.552124 L82.8764479,238.552124 C78.4469577,238.552124 74.8561465,234.961312 74.8561465,230.531822 L74.8561465,216.812359 C74.8561465,212.382869 78.4469577,208.792057 82.8764479,208.792057 Z" id="Rectangle-2-Copy-107"></path>
                                <path d="M174.890802,105.37561 L181.093985,105.37561 C192.30037,105.37561 201.38494,114.46018 201.38494,125.666564 L201.38494,125.666564 C201.38494,136.872949 192.30037,145.957518 181.093985,145.957518 L174.890802,145.957518 C163.684418,145.957518 154.599848,136.872949 154.599848,125.666564 L154.599848,125.666564 C154.599848,114.46018 163.684418,105.37561 174.890802,105.37561 Z" id="Rectangle-2-Copy-44"></path>
                                <path d="M194.574546,111.395477 L200.852223,111.395477 C213.950328,111.395477 224.568439,122.013589 224.568439,135.111693 L224.568439,185.075841 C224.568439,198.173946 213.950328,208.792057 200.852223,208.792057 L194.574546,208.792057 C181.476442,208.792057 170.85833,198.173946 170.85833,185.075841 L170.85833,135.111693 C170.85833,122.013589 181.476442,111.395477 194.574546,111.395477 Z" id="Rectangle-2-Copy-45"></path>
                                <path d="M245.052007,126.27551 L245.052007,126.27551 C249.850621,126.27551 253.740666,130.165556 253.740666,134.96417 L253.740666,141.935995 C253.740666,146.73461 249.850621,150.624655 245.052007,150.624655 L245.052007,150.624655 C240.253392,150.624655 236.363347,146.73461 236.363347,141.935995 L236.363347,134.96417 C236.363347,130.165556 240.253392,126.27551 245.052007,126.27551 Z" id="Rectangle-2-Copy-58"></path>
                                <path d="M240.18775,122.730574 L244.021754,122.730574 C248.130761,122.730574 251.46177,126.061583 251.46177,130.17059 L251.46177,130.17059 C251.46177,134.279598 248.130761,137.610607 244.021754,137.610607 L240.18775,137.610607 C236.078742,137.610607 232.747734,134.279598 232.747734,130.17059 L232.747734,130.17059 C232.747734,126.061583 236.078742,122.730574 240.18775,122.730574 Z" id="Rectangle-2-Copy-60"></path>
                                <path d="M225.905156,149.728635 L225.905156,149.728635 C233.28764,149.728635 239.272325,155.71332 239.272325,163.095804 L239.272325,178.296104 C239.272325,185.678588 233.28764,191.663273 225.905156,191.663273 L225.905156,191.663273 C218.522673,191.663273 212.537987,185.678588 212.537987,178.296104 L212.537987,163.095804 C212.537987,155.71332 218.522673,149.728635 225.905156,149.728635 Z" id="Rectangle-2-Copy-55"></path>
                                <path d="M221.226647,135.744622 L221.226647,135.744622 C226.025261,135.744622 229.915307,139.634668 229.915307,144.433282 L229.915307,179.599312 C229.915307,184.397926 226.025261,188.287972 221.226647,188.287972 L221.226647,188.287972 C216.428033,188.287972 212.537987,184.397926 212.537987,179.599312 L212.537987,144.433282 C212.537987,139.634668 216.428033,135.744622 221.226647,135.744622 Z" id="Rectangle-2-Copy-52"></path>
                                <path d="M172.967951,60.618071 L181.173699,60.618071 C184.452737,60.618071 187.110923,63.276257 187.110923,66.5552955 L187.110923,66.5552955 C187.110923,69.8343341 184.452737,72.4925201 181.173699,72.4925201 L172.967951,72.4925201 C169.688912,72.4925201 167.030726,69.8343341 167.030726,66.5552955 L167.030726,66.5552955 C167.030726,63.276257 169.688912,60.618071 172.967951,60.618071 Z" id="Rectangle-2-Copy-34"></path>
                                <path d="M228.136944,126.384251 L228.136944,126.384251 C230.846022,126.384251 233.042165,128.580393 233.042165,131.289472 L233.042165,135.041129 C233.042165,137.750208 230.846022,139.94635 228.136944,139.94635 L228.136944,139.94635 C225.427865,139.94635 223.231723,137.750208 223.231723,135.041129 L223.231723,131.289472 C223.231723,128.580393 225.427865,126.384251 228.136944,126.384251 Z" id="Rectangle-2-Copy-61"></path>
                                <path d="M234.420102,131.864766 L234.420102,131.864766 C237.890194,131.864766 240.70326,134.677831 240.70326,138.147924 L240.70326,145.676829 C240.70326,149.146921 237.890194,151.959987 234.420102,151.959987 L234.420102,151.959987 C230.950009,151.959987 228.136944,149.146921 228.136944,145.676829 L228.136944,138.147924 C228.136944,134.677831 230.950009,131.864766 234.420102,131.864766 Z" id="Rectangle-2-Copy-134"></path>
                                <path d="M247.99513,124.557412 L253.261931,124.557412 C255.129661,124.557412 256.643756,126.071507 256.643756,127.939238 L256.643756,127.939238 C256.643756,129.806969 255.129661,131.321064 253.261931,131.321064 L247.99513,131.321064 C246.127399,131.321064 244.613304,129.806969 244.613304,127.939238 L244.613304,127.939238 C244.613304,126.071507 246.127399,124.557412 247.99513,124.557412 Z" id="Rectangle-2-Copy-62"></path>
                                <path d="M253.187136,128.211089 L253.187136,128.211089 C255.401881,128.211089 257.197287,130.006495 257.197287,132.22124 L257.197287,135.02278 C257.197287,137.237526 255.401881,139.032931 253.187136,139.032931 L253.187136,139.032931 C250.972391,139.032931 249.176985,137.237526 249.176985,135.02278 L249.176985,132.22124 C249.176985,130.006495 250.972391,128.211089 253.187136,128.211089 Z" id="Rectangle-2-Copy-145"></path>
                                <path d="M201.908306,27.5261997 L217.820801,27.5261997 C220.809171,27.5261997 223.231723,29.9487516 223.231723,32.9371208 L223.231723,32.9371208 C223.231723,35.92549 220.809171,38.3480419 217.820801,38.3480419 L201.908306,38.3480419 C198.919936,38.3480419 196.497384,35.92549 196.497384,32.9371208 L196.497384,32.9371208 C196.497384,29.9487516 198.919936,27.5261997 201.908306,27.5261997 Z" id="Rectangle-2-Copy-37"></path>
                            </g>
                            <g id="blue" transform="translate(196.030726, 26.821562)"></g>
                            <path d="M245.526041,150.133149 C241.875096,152.481409 238.832642,148.479497 236.398678,138.127413 C233.964715,127.775329 228.488298,125.383307 219.969427,130.951346 L236.398678,114.509801 L245.526041,140.733591 L245.526041,150.133149 Z" id="Path-4" fill="#4480C5" fill-rule="nonzero"></path>
                            <g id="pin-03" transform="translate(85.000000, 156.000000)" fill-rule="nonzero">
                                <ellipse id="Oval-2-Copy-4" fill="#214777" cx="5.47641726" cy="16.4415449" rx="4.56368105" ry="1.82683832"></ellipse>
                                <path d="M5.47641726,15.5281257 C9.1273621,10.9474396 10.9528345,7.63039868 10.9528345,5.57700291 C10.9528345,2.49690925 8.500959,0 5.47641726,0 C2.45187552,0 0,2.49690925 0,5.57700291 C0,7.63039868 1.82547242,10.9474396 5.47641726,15.5281257 Z" id="Oval-5-Copy-4" fill="#FBCE3B"></path>
                            </g>
                            <g id="pin-03-copy" transform="translate(267.000000, 125.000000)" fill-rule="nonzero">
                                <ellipse id="Oval-2-Copy-4" fill="#214777" cx="5.47641726" cy="16.4415449" rx="4.56368105" ry="1.82683832"></ellipse>
                                <path d="M5.47641726,15.5281257 C9.1273621,10.9474396 10.9528345,7.63039868 10.9528345,5.57700291 C10.9528345,2.49690925 8.500959,0 5.47641726,0 C2.45187552,0 0,2.49690925 0,5.57700291 C0,7.63039868 1.82547242,10.9474396 5.47641726,15.5281257 Z" id="Oval-5-Copy-4" fill="#FBCE3B"></path>
                            </g>
                            <g id="pin-02" transform="translate(43.000000, 122.000000)" fill-rule="nonzero">
                                <ellipse id="Oval-2-Copy-3" fill="#214777" cx="5.47641726" cy="16.4415449" rx="4.56368105" ry="1.82683832"></ellipse>
                                <path d="M5.47641726,15.5281257 C9.1273621,10.9474396 10.9528345,7.63039868 10.9528345,5.57700291 C10.9528345,2.49690925 8.500959,0 5.47641726,0 C2.45187552,0 0,2.49690925 0,5.57700291 C0,7.63039868 1.82547242,10.9474396 5.47641726,15.5281257 Z" id="Oval-5-Copy-5" fill="#FBCE3B"></path>
                            </g>
                            <g id="pin-01" transform="translate(32.000000, 73.000000)" fill-rule="nonzero">
                                <ellipse id="Oval-2" fill="#214777" cx="5.47641726" cy="16.4415449" rx="4.56368105" ry="1.82683832"></ellipse>
                                <path d="M5.47641726,15.5281257 C9.1273621,10.9474396 10.9528345,7.63039868 10.9528345,5.57700291 C10.9528345,2.49690925 8.500959,0 5.47641726,0 C2.45187552,0 0,2.49690925 0,5.57700291 C0,7.63039868 1.82547242,10.9474396 5.47641726,15.5281257 Z" id="Oval-5-Copy-6" fill="#FBCE3B"></path>
                            </g>
                            <g id="pin-04" transform="translate(57.000000, 197.000000)" fill-rule="nonzero">
                                <ellipse id="Oval-2-Copy-5" fill="#214777" cx="5.47641726" cy="16.4415449" rx="4.56368105" ry="1.82683832"></ellipse>
                                <path d="M5.47641726,15.5281257 C9.1273621,10.9474396 10.9528345,7.63039868 10.9528345,5.57700291 C10.9528345,2.49690925 8.500959,0 5.47641726,0 C2.45187552,0 0,2.49690925 0,5.57700291 C0,7.63039868 1.82547242,10.9474396 5.47641726,15.5281257 Z" id="Oval-5-Copy" fill="#FBCE3B"></path>
                            </g>
                            <g id="pin-04" transform="translate(18.597239, 97.523557)" fill-rule="nonzero">
                                <ellipse id="Oval-2-Copy-5" fill="#214777" cx="5.47641726" cy="16.4415449" rx="4.56368105" ry="1.82683832"></ellipse>
                                <path d="M5.47641726,15.5281257 C9.1273621,10.9474396 10.9528345,7.63039868 10.9528345,5.57700291 C10.9528345,2.49690925 8.500959,0 5.47641726,0 C2.45187552,0 0,2.49690925 0,5.57700291 C0,7.63039868 1.82547242,10.9474396 5.47641726,15.5281257 Z" id="Oval-5-Copy" fill="#FBCE3B"></path>
                            </g>
                            <g id="pin-04" transform="translate(185.000000, 138.000000)" fill-rule="nonzero">
                                <ellipse id="Oval-2-Copy-5" fill="#214777" cx="5.47641726" cy="16.4415449" rx="4.56368105" ry="1.82683832"></ellipse>
                                <path d="M5.47641726,15.5281257 C9.1273621,10.9474396 10.9528345,7.63039868 10.9528345,5.57700291 C10.9528345,2.49690925 8.500959,0 5.47641726,0 C2.45187552,0 0,2.49690925 0,5.57700291 C0,7.63039868 1.82547242,10.9474396 5.47641726,15.5281257 Z" id="Oval-5-Copy" fill="#FBCE3B"></path>
                            </g>
                            <g id="pin-04-copy-2" transform="translate(209.000000, 81.000000)" fill-rule="nonzero">
                                <ellipse id="Oval-2-Copy-5" fill="#214777" cx="5.47641726" cy="16.4415449" rx="4.56368105" ry="1.82683832"></ellipse>
                                <path d="M5.47641726,15.5281257 C9.1273621,10.9474396 10.9528345,7.63039868 10.9528345,5.57700291 C10.9528345,2.49690925 8.500959,0 5.47641726,0 C2.45187552,0 0,2.49690925 0,5.57700291 C0,7.63039868 1.82547242,10.9474396 5.47641726,15.5281257 Z" id="Oval-5-Copy" fill="#FBCE3B"></path>
                            </g>
                            <g id="pin-04-copy-3" transform="translate(260.000000, 17.000000)" fill-rule="nonzero">
                                <ellipse id="Oval-2-Copy-5" fill="#214777" cx="5.47641726" cy="16.4415449" rx="4.56368105" ry="1.82683832"></ellipse>
                                <path d="M5.47641726,15.5281257 C9.1273621,10.9474396 10.9528345,7.63039868 10.9528345,5.57700291 C10.9528345,2.49690925 8.500959,0 5.47641726,0 C2.45187552,0 0,2.49690925 0,5.57700291 C0,7.63039868 1.82547242,10.9474396 5.47641726,15.5281257 Z" id="Oval-5-Copy" fill="#FBCE3B"></path>
                            </g>
                            <g id="pin-04-copy-4" transform="translate(337.000000, 111.000000)" fill-rule="nonzero">
                                <ellipse id="Oval-2-Copy-5" fill="#214777" cx="5.47641726" cy="16.4415449" rx="4.56368105" ry="1.82683832"></ellipse>
                                <path d="M5.47641726,15.5281257 C9.1273621,10.9474396 10.9528345,7.63039868 10.9528345,5.57700291 C10.9528345,2.49690925 8.500959,0 5.47641726,0 C2.45187552,0 0,2.49690925 0,5.57700291 C0,7.63039868 1.82547242,10.9474396 5.47641726,15.5281257 Z" id="Oval-5-Copy" fill="#FBCE3B"></path>
                            </g>
                            <g id="pin-04-copy-4" transform="translate(303.000000, 91.000000)" fill-rule="nonzero">
                                <ellipse id="Oval-2-Copy-5" fill="#214777" cx="5.47641726" cy="16.4415449" rx="4.56368105" ry="1.82683832"></ellipse>
                                <path d="M5.47641726,15.5281257 C9.1273621,10.9474396 10.9528345,7.63039868 10.9528345,5.57700291 C10.9528345,2.49690925 8.500959,0 5.47641726,0 C2.45187552,0 0,2.49690925 0,5.57700291 C0,7.63039868 1.82547242,10.9474396 5.47641726,15.5281257 Z" id="Oval-5-Copy" fill="#FBCE3B"></path>
                            </g>
                            <g id="pin-04-copy" transform="translate(152.000000, 75.000000)" fill-rule="nonzero">
                                <ellipse id="Oval-2-Copy-5" fill="#214777" cx="5.47641726" cy="16.4415449" rx="4.56368105" ry="1.82683832"></ellipse>
                                <path d="M5.47641726,15.5281257 C9.1273621,10.9474396 10.9528345,7.63039868 10.9528345,5.57700291 C10.9528345,2.49690925 8.500959,0 5.47641726,0 C2.45187552,0 0,2.49690925 0,5.57700291 C0,7.63039868 1.82547242,10.9474396 5.47641726,15.5281257 Z" id="Oval-5-Copy" fill="#FBCE3B"></path>
                            </g>
                            <g id="pin-04" transform="translate(337.000000, 163.000000)" fill-rule="nonzero">
                                <ellipse id="Oval-2-Copy-5" fill="#214777" cx="5.47641726" cy="16.4415449" rx="4.56368105" ry="1.82683832"></ellipse>
                                <path d="M5.47641726,15.5281257 C9.1273621,10.9474396 10.9528345,7.63039868 10.9528345,5.57700291 C10.9528345,2.49690925 8.500959,0 5.47641726,0 C2.45187552,0 0,2.49690925 0,5.57700291 C0,7.63039868 1.82547242,10.9474396 5.47641726,15.5281257 Z" id="Oval-5-Copy" fill="#FBCE3B"></path>
                            </g>
                            <g id="pin-04-copy-5" transform="translate(323.000000, 149.000000)" fill-rule="nonzero">
                                <ellipse id="Oval-2-Copy-5" fill="#214777" cx="5.47641726" cy="16.4415449" rx="4.56368105" ry="1.82683832"></ellipse>
                                <path d="M5.47641726,15.5281257 C9.1273621,10.9474396 10.9528345,7.63039868 10.9528345,5.57700291 C10.9528345,2.49690925 8.500959,0 5.47641726,0 C2.45187552,0 0,2.49690925 0,5.57700291 C0,7.63039868 1.82547242,10.9474396 5.47641726,15.5281257 Z" id="Oval-5-Copy" fill="#FBCE3B"></path>
                            </g>
                            <g id="pin-04" transform="translate(377.000000, 156.000000)" fill-rule="nonzero">
                                <ellipse id="Oval-2-Copy-5" fill="#214777" cx="5.47641726" cy="16.4415449" rx="4.56368105" ry="1.82683832"></ellipse>
                                <path d="M5.47641726,15.5281257 C9.1273621,10.9474396 10.9528345,7.63039868 10.9528345,5.57700291 C10.9528345,2.49690925 8.500959,0 5.47641726,0 C2.45187552,0 0,2.49690925 0,5.57700291 C0,7.63039868 1.82547242,10.9474396 5.47641726,15.5281257 Z" id="Oval-5-Copy" fill="#FBCE3B"></path>
                            </g>
                            <path d="M256.897772,126.833977 C256.17463,130.810112 255.993844,133.295196 256.355415,134.28923 C256.897772,135.78028 257.440129,140.998957 261.236627,140.998957 C265.033125,140.998957 262.321341,129.070553 261.778984,129.070553 C261.417413,129.070553 259.790342,128.325027 256.897772,126.833977 Z" id="Path-6" fill="#2E578B" fill-rule="nonzero"></path>
                        </g>
                    </g>
                </g>
                <g id="glove" transform="translate(121.000000, 77.000000) rotate(-8.000000) translate(-121.000000, -77.000000) translate(86.000000, 14.000000)">
                    <path d="M46.9469557,123.892908 C63.5626425,119.102735 77.7053061,103.135493 63.5626425,58.9409116 C55.9816874,35.2510927 48.4659609,17.4294515 41.015463,5.47598792 L41.0154553,5.47599269 C38.1878601,0.939442713 32.4444641,-0.811937422 27.5666408,1.37493705 L27.5666408,1.37493705 C23.0367912,3.40580448 20.8190338,8.56920684 22.4649797,13.2526695 L32.9661782,43.133342 C27.1008401,43.133342 24.2243313,46.0074456 21.3103823,49.600075 C15.4824843,49.600075 9.65458638,53.1927045 9.65458638,58.9409116 C2.36971394,65.0859942 -2.00120952,69.0002741 0.912739452,79.0596365 C5.28366292,93.4301543 6.74063741,90.5560508 11.1115609,107.800672 C15.4824843,125.045294 30.331269,128.683081 46.9469557,123.892908 Z" id="Path-18" fill="#FF8D4E" fill-rule="nonzero"></path>
                    <path d="M40.3257052,94.5047879 C41.7577596,94.5783844 42.9235986,94.3943932 43.8232225,93.9528144 C44.7228464,93.5112357 45.4939525,92.9316635 46.136541,92.214098 L48.9731101,92.214098 L48.9731101,107.062184 L51.6169027,107.062184 L51.6169027,111.422775 L40.3257052,111.422775 L40.3257052,107.062184 L42.9694978,107.062184 L42.9694978,98.6445889 C41.6659612,98.9205757 40.784697,98.9205757 40.3257052,98.6445889 L40.3257052,94.5047879 Z" id="Path-16-Copy" fill="#FFFFFF" fill-rule="nonzero"></path>
                    <path d="M59.6820438,85.8112057 L52.3974002,78.696881 L56.039722,73.0054212 C47.7837927,78.696881 40.7419706,80.5940342 34.9142558,78.696881 C29.0865409,76.7997277 26.6583264,74.9025744 27.6296122,73.0054212 C26.727704,77.7483043 29.1559185,81.0683226 34.9142558,82.9654758 C40.672593,84.8626291 45.529022,84.8626291 49.4835428,82.9654758 L59.6820438,85.8112057 Z" id="Path-19" fill="#FFFFFF" fill-rule="nonzero"></path>
                    <path d="M9.61645138,61.8003597 L18.6237231,86.5519659 C15.6212992,89.4639195 12.6188753,90.9198964 9.61645138,90.9198964 C5.11281554,90.9198964 11.1176633,93.83185 18.6237231,90.9198964 C23.6277629,88.9785939 20.625339,79.2720817 9.61645138,61.8003597 Z" id="Path-20" fill="#FFFFFF" fill-rule="nonzero"></path>
                    <path d="M33.1409769,81.0090365 C30.138553,84.3019525 27.1361292,85.9484106 24.1337053,85.9484106 C19.6300694,85.9484106 25.6349172,89.2413266 33.1409769,85.9484106 C34.7086729,85.2606607 35.4905492,83.7110611 35.4866058,81.2996118 L33.1409769,81.0090365 Z" id="Path-20-Copy" fill="#FFFFFF" fill-rule="nonzero"></path>
                    <path d="M22.5823949,50.5952982 L27.7440852,68.203252 C29.4646486,64.2903734 29.4646486,60.3774947 27.7440852,56.4646161 C26.0235218,52.5517375 24.3029584,50.5952982 22.5823949,50.5952982 Z" id="Path-21" fill="#FFFFFF" fill-rule="nonzero"></path>
                    <path d="M33.8735924,65.0018058 L38.2287686,59.0914437 L33.8735924,45.793129 L42.5839447,59.0914437 C46.4797365,57.9727922 50.3510042,57.9727922 54.1977478,59.0914437 C58.0444915,60.2100953 60.9479423,62.180216 62.9081002,65.0018058 C57.1011986,63.0316851 52.262114,62.0466248 48.3908463,62.0466248 C44.5195786,62.0466248 39.680494,63.0316851 33.8735924,65.0018058 Z" id="Path-23" fill="#FFFFFF" fill-rule="nonzero"></path>
                    <text id="#" font-family="GalanoGrotesqueAlt-Heavy, Galano Grotesque Alt" font-size="18.8814945" font-weight="600" fill="#FFFFFF">
                        <tspan x="24.1954231" y="110.160865">#</tspan>
                    </text>
                </g>
            </g>
        </g>
    </g>
</svg>
