<?xml version="1.0" encoding="UTF-8"?>
<svg width="484px" height="700px" viewBox="0 0 484 700" version="1.1" xmlns="http://www.w3.org/2000/svg" xmlns:xlink="http://www.w3.org/1999/xlink">
    <!-- Generator: sketchtool 52.5 (67469) - http://www.bohemiancoding.com/sketch -->
    <title>EF420E47-98DD-450A-903D-3BD27D811B51</title>
    <desc>Created with sketchtool.</desc>
    <g id="Page-1" stroke="none" stroke-width="1" fill="none" fill-rule="evenodd">
        <g id="Block-3---Templates---Blog" transform="translate(-1436.000000, -380.000000)">
            <g id="xl_right-graphic_blog" transform="translate(1436.000000, 380.000000)">
                <rect id="brick" fill="#3A679D" x="73" y="628" width="55.7711842" height="27.707381" rx="6"></rect>
                <rect id="brick" fill="#3A679D" x="311" y="226" width="43.7711842" height="27.707381" rx="6"></rect>
                <rect id="brick" fill="#3A679D" x="0" y="628" width="46.3303802" height="27.707381" rx="6"></rect>
                <rect id="brick" fill="#3A679D" x="73" y="579" width="80.3303802" height="27.707381" rx="6"></rect>
                <rect id="brick" fill="#3A679D" x="206" y="254" width="72" height="28" rx="6"></rect>
                <g id="shelf" transform="translate(186.000000, 330.000000)" fill-rule="nonzero">
                    <rect id="Rectangle-path" fill="#3A679D" x="-5.68434189e-14" y="0" width="298" height="370"></rect>
                    <polygon id="Rectangle-path" fill="#3A679D" points="17.3333333 19.5801887 297.555556 19.5801887 297.555556 191.641509 17.3333333 191.641509"></polygon>
                    <polygon id="Rectangle-path" fill="#4480C5" points="24.2978125 46 47.9867014 46 47.9867014 191.660377 24.2978125 191.660377"></polygon>
                    <rect id="Rectangle-path" fill="#4480C5" x="82" y="46" width="22.7777778" height="145.660377"></rect>
                    <polygon id="Rectangle-path" fill="#4480C5" points="57.6222222 63.2783019 70.3777778 63.2783019 70.3777778 117.900943 57.6222222 117.900943"></polygon>
                    <ellipse id="Oval" fill="#4480C5" cx="66.7333333" cy="163.419811" rx="6.37777778" ry="6.37264151"></ellipse>
                    <polygon id="Rectangle-path" fill="#3A679D" points="28.6666667 63.2783019 41.4222222 63.2783019 41.4222222 117.900943 28.6666667 117.900943"></polygon>
                    <ellipse id="Oval" fill="#3A679D" cx="35.0444444" cy="163.419811" rx="6.37777778" ry="6.37264151"></ellipse>
                    <polygon id="Rectangle-path" fill="#3A679D" points="86.4 63.2783019 99.1555556 63.2783019 99.1555556 117.900943 86.4 117.900943"></polygon>
                    <ellipse id="Oval" fill="#3A679D" cx="92.7777778" cy="163.419811" rx="6.37777778" ry="6.37264151"></ellipse>
                    <polygon id="Rectangle-path" fill="#4480C5" points="116 63 128.755556 63 128.755556 117.622642 116 117.622642"></polygon>
                    <ellipse id="Oval" fill="#4480C5" cx="122.377778" cy="163.372642" rx="6.37777778" ry="6.37264151"></ellipse>
                    <polygon id="Rectangle-path" fill="#4480C5" transform="translate(149.994012, 89.337129) rotate(-8.049062) translate(-149.994012, -89.337129) " points="143.861467 62.2945159 156.13726 62.2920835 156.126557 116.379742 143.850764 116.382174"></polygon>
                    <ellipse id="Oval" fill="#4480C5" cx="159.688889" cy="163.419811" rx="6.37777778" ry="6.37264151"></ellipse>
                    <polygon id="Rectangle-path" fill="#4480C5" transform="translate(188.738593, 122.070315) rotate(-13.690000) translate(-188.738593, -122.070315) " points="176.337772 46.8059944 200.61456 46.4438695 201.463094 197.69676 176.014092 191.497667"></polygon>
                    <polygon id="Rectangle-path" fill="#3A679D" transform="translate(181.455090, 90.885350) rotate(-13.690000) translate(-181.455090, -90.885350) " points="175.325749 63.8449434 187.602181 63.8409091 187.58443 117.925757 175.307999 117.929791"></polygon>
                    <ellipse id="Oval" fill="#3A679D" cx="198.133333" cy="161.599057" rx="6.37777778" ry="6.37264151"></ellipse>
                    <polygon id="Rectangle-path" fill="#4480C5" points="18.2444444 208.028302 182.244444 208.028302 182.244444 368.254717 18.2444444 368.254717"></polygon>
                    <path d="M148.081111,248.084906 L158.096667,248.084906 C158.853297,248.084906 159.466667,248.698276 159.466667,249.454906 L159.466667,305.889434 C159.466667,306.646064 158.853297,307.259434 158.096667,307.259434 L148.081111,307.259434 C147.324481,307.259434 146.711111,306.646064 146.711111,305.889434 L146.711111,249.454906 C146.711111,248.698276 147.324481,248.084906 148.081111,248.084906 Z" id="Rectangle-path" fill="#3A679D"></path>
                    <polygon id="Rectangle-path" fill="#4480C5" transform="translate(249.877778, 288.141509) rotate(-180.000000) translate(-249.877778, -288.141509) " points="201.377778 208.028302 298.377778 208.028302 298.377778 368.254717 201.377778 368.254717"></polygon>
                    <path d="M224.614444,248.084906 L234.63,248.084906 C235.38663,248.084906 236,248.698276 236,249.454906 L236,305.889434 C236,306.646064 235.38663,307.259434 234.63,307.259434 L224.614444,307.259434 C223.857814,307.259434 223.244444,306.646064 223.244444,305.889434 L223.244444,249.454906 C223.244444,248.698276 223.857814,248.084906 224.614444,248.084906 Z" id="Rectangle-path" fill="#3A679D" transform="translate(229.622222, 277.672170) rotate(180.000000) translate(-229.622222, -277.672170) "></path>
                </g>
                <g id="frame-plant" transform="translate(294.000000, 0.000000)" fill="#3A679D">
                    <path d="M190,18 L17,18 L17,173 L190,173 L190,190 L0,190 L0,0 L190,0 L190,18 Z" id="Combined-Shape"></path>
                    <path d="M103,176.420013 C103.254957,168.794382 103.557139,160.258305 103.896546,151.542847 C105.282916,115.680816 108.467234,101.538751 111.543243,91.2308006 C113.481994,84.7469294 114.879195,80.0496357 114.088531,72.3111455 L116.590495,72 C117.446146,80.3507443 116.980412,86.5535808 115.009167,93.0775998 C111.998145,103.194848 109.301222,115.600521 110.005238,151.000852 C110.117444,156.561689 110.37658,166.839793 110.641606,177 L103,176.420013 Z" id="Path"></path>
                    <path d="M113.860291,74 C113.860291,74 135.564133,57.6050967 103.289456,21 C89.3455911,57.062872 113.860291,74 113.860291,74 Z" id="Path"></path>
                    <path d="M110,101.924997 C110,101.924997 108.188896,71.0685421 58,80.9525613 C68.6215939,95.8532428 88.1921737,111.848831 110,101.924997 Z" id="Path"></path>
                    <path d="M114,87.0465692 C114,87.0465692 118.200271,60.1761529 162,67.1580005 C151.196211,83.2841291 147.602165,90.8090093 114,87.0465692 Z" id="Path"></path>
                    <path d="M107.01379,129 C107.01379,129 104.929782,91.6429489 152,90 C150.11239,110.04598 146.937278,126.485487 107.01379,129 Z" id="Path"></path>
                    <path d="M107,135.10299 C107,135.10299 62.503876,160.390047 30,114.125896 C66.703876,105.476848 105.806202,104.972078 107,135.10299 Z" id="Path"></path>
                    <path d="M107,156.329094 C107,156.329094 119.384009,115.81346 175,128.437897 C167.439031,144.126695 149.696088,174.632692 107,156.329094 Z" id="Path"></path>
                </g>
            </g>
        </g>
    </g>
</svg>