<?xml version="1.0" encoding="UTF-8"?>
<svg width="485px" height="700px" viewBox="0 0 485 700" version="1.1" xmlns="http://www.w3.org/2000/svg" xmlns:xlink="http://www.w3.org/1999/xlink">
    <!-- Generator: sketchtool 52.5 (67469) - http://www.bohemiancoding.com/sketch -->
    <title>1F474AFA-57B2-4ED5-9040-A38F4ADAC990</title>
    <desc>Created with sketchtool.</desc>
    <g id="Page-1" stroke="none" stroke-width="1" fill="none" fill-rule="evenodd">
        <g id="Block-3---Templates---Blog" transform="translate(0.000000, -380.000000)">
            <g id="xl_left-graphic_blog" transform="translate(0.000000, 380.000000)">
                <rect id="brick" fill="#3A679D" x="171" y="437" width="64.7711842" height="27.707381" rx="6"></rect>
                <rect id="brick" fill="#3A679D" x="139" y="378" width="64.7711842" height="27.707381" rx="6"></rect>
                <g id="table" transform="translate(122.000000, 524.000000)">
                    <polygon id="Path-75" fill="#3A679D" points="2.75407062 0 227 0 227 176 104.955772 100.879246 0 176"></polygon>
                    <polygon id="Path-2" fill="#4480C5" points="128 86.267837 198 34 198 128"></polygon>
                    <polygon id="Path-75" fill="#4480C5" points="28.6985458 23 167 23 27 124"></polygon>
                </g>
                <g id="table" transform="translate(0.000000, 574.000000)" fill="#3A679D">
                    <polygon id="Path-75" points="0 8.95283847e-13 98 0 98 126 0 126"></polygon>
                </g>
                <g id="Group" transform="translate(4.000000, 437.000000)" fill="#3A679D">
                    <path d="M48.2171766,149 C38.5942745,121.326564 38.5942745,94.8014813 48.2171766,69.4247519 C57.8400788,44.0480225 77.7676866,20.9064386 108,0 C102.508299,30.9710021 97.6751043,55.1862195 93.5004172,72.6456522 C89.3257302,90.1050848 74.2313166,115.556534 48.2171766,149 Z" id="Path-3"></path>
                    <path d="M13.8112997,120.510474 C21.4206695,108.6229 33.4955305,101.858666 50.0358827,100.217771 C45.0960658,114.447842 40.8587632,125.597863 37.3239748,133.667834 C34.8895739,139.225606 25.0096704,152.74134 10.9315378,158.75592 C5.24200919,145.14653 6.20192982,132.398048 13.8112997,120.510474 Z" id="Path-3-Copy" transform="translate(28.658142, 129.486845) scale(1, -1) rotate(15.000000) translate(-28.658142, -129.486845) "></path>
                    <path d="M54.1831627,151.057334 C48.9286157,139.933623 49.8234336,128.896085 56.8676164,117.944721 C63.9117992,106.993357 77.5071247,96.5526479 97.6535929,86.6225945 C93.0772989,99.7336807 89.1523695,110.006767 85.8788047,117.441854 C82.6052399,124.876941 72.0400259,136.082101 54.1831627,151.057334 Z" id="Path-3-Copy" transform="translate(74.234651, 118.839964) scale(-1, -1) rotate(15.000000) translate(-74.234651, -118.839964) "></path>
                    <path d="M11.3488573,148.837329 C5.74746644,132.493286 5.74746644,116.827466 11.3488573,101.839867 C16.9502481,86.8522685 28.5499004,73.1847558 46.1478141,60.837329 C42.9511521,79.1289276 40.1378002,93.4305325 37.7077585,103.742144 C35.2777168,114.053755 26.4914164,129.085483 11.3488573,148.837329 Z" id="Path-3" transform="translate(26.647814, 104.837329) scale(-1, 1) translate(-26.647814, -104.837329) "></path>
                </g>
                <path d="M165.537611,176.769072 L157.888775,261.842039 L157.888775,272.293457 L192.186938,272.293457 L192.186938,261.842039 L184.932682,176.769072 L184.932682,164.644979 L198.29021,164.644979 C193.850808,160.127631 189.398298,157.868958 184.932682,157.868958 C178.234257,157.868958 198.29021,146.42067 203.423449,111.855778 C193.284339,111.855778 184.267279,123.62962 176.372271,147.177303 C170.861985,118.221675 163.648213,101.300707 154.730954,96.4143978 C164.711578,91.8061197 171.109355,67 142.861124,67 C114.612894,67 122.293925,67 125.089619,82.8971562 C127.885312,98.7943124 127.88223,100.555674 144.750447,100.555674 C155.995925,100.555674 163.805907,116.096217 168.180391,147.177303 C159.2141,134.199285 144.850509,132.730548 125.089619,142.771093 C149.423465,142.771093 162.906129,148.679344 165.537611,160.495844 C161.97522,159.280442 158.373001,159.668113 154.730954,161.658859 C151.088907,163.649606 154.691126,166.312229 165.537611,169.646729 L165.537611,176.769072 Z" id="Path-63" fill="#3A679D" transform="translate(162.711725, 169.646729) scale(-1, 1) translate(-162.711725, -169.646729) "></path>
                <g id="frame-plant" transform="translate(59.000000, 179.000000) scale(-1, 1) translate(-59.000000, -179.000000) translate(0.000000, 84.000000)" fill="#3A679D">
                    <path d="M118,18 L17,18 L17,173 L118,173 L118,190 L0,190 L0,0 L118,0 L118,18 Z" id="Combined-Shape"></path>
                    <rect id="Rectangle" x="38" y="38" width="47" height="51"></rect>
                    <rect id="Rectangle" x="38" y="107" width="47" height="51"></rect>
                    <polygon id="Rectangle" points="104 38 118 38 118 89 104 89"></polygon>
                    <polygon id="Rectangle" points="104 107 118 107 118 158 104 158"></polygon>
                </g>
                <polygon id="Path-64" fill="#3A679D" points="0.265625 271.519531 323.095061 271.519531 326.37105 287.940989 287.749419 287.940989 284.225364 319 275.119059 319 275.119059 287.940989 0.265625 287.940989"></polygon>
                <rect id="Rectangle" stroke="#3A679D" stroke-width="16" fill="#4480C5" x="195" y="151.519531" width="95" height="120"></rect>
                <path d="M261.463088,236.343391 C261.811119,225.24238 255.911826,221.642174 255.413964,217.17083 C254.916102,212.699485 259.006213,205.094294 259.409488,198.699686 C259.812763,192.305077 259.266791,189.334945 255.12857,182.624924 C254.64152,177.401096 251.117167,172.192788 244.555511,167 C250.190294,172.678153 252.903961,177.886461 252.696512,182.624924 L243.272288,196.310813 C242.76312,203.457154 241.868838,207.030325 240.589441,207.030325 C238.670346,207.030325 238.203433,200.851999 238.203433,196.310813 C238.203433,191.769627 229.402853,185.074626 228.675677,182.624924 C228.190894,180.991789 231.096034,175.783481 237.3911,167 C226.219071,178.517054 220.430261,189.083616 220.024671,198.699686 C222.233314,206.40701 224.021011,206.500132 224.021011,217.17083 C224.021011,227.841528 217.799427,225.960319 219.20741,237.677885 C227.235921,240.939148 233.297151,246.882667 237.3911,255.508442 C240.079183,257.344842 242.516359,257.344842 244.702629,255.508442 C248.286428,247.570065 253.873247,241.181715 261.463088,236.343391 Z" id="Path-65" fill="#3A679D"></path>
                <path d="M9.09494702e-13,0 L40.7846628,0 C44.0983713,-6.08718376e-16 46.7846628,2.6862915 46.7846628,6 L46.7846628,21.707381 C46.7846628,25.0210895 44.0983713,27.707381 40.7846628,27.707381 L9.09494702e-13,27.707381 L9.09494702e-13,0 Z" id="brick" fill="#3A679D"></path>
                <rect id="brick" fill="#3A679D" x="420" y="649" width="64.7711842" height="27.707381" rx="6"></rect>
                <rect id="brick" fill="#3A679D" x="41" y="363.519531" width="57" height="28" rx="6"></rect>
                <rect id="brick" fill="#3A679D" x="385" y="603" width="46" height="28" rx="6"></rect>
            </g>
        </g>
    </g>
</svg>