<?xml version="1.0" encoding="UTF-8"?>
<svg width="484px" height="699px" viewBox="0 0 484 699" version="1.1" xmlns="http://www.w3.org/2000/svg" xmlns:xlink="http://www.w3.org/1999/xlink">
    <!-- Generator: sketchtool 52.5 (67469) - http://www.bohemiancoding.com/sketch -->
    <title>6A476CD3-7985-427D-A1B4-B7DB04A3020D</title>
    <desc>Created with sketchtool.</desc>
    <g id="Page-1" stroke="none" stroke-width="1" fill="none" fill-rule="evenodd">
        <g id="Block-3---Templates---Business" transform="translate(-1436.000000, -381.000000)">
            <g id="xl_right-graphic_business" transform="translate(1436.000000, 381.000000)">
                <rect id="brick" fill="#3A679D" x="177" y="338" width="43.7711842" height="27.707381" rx="6"></rect>
                <rect id="brick" fill="#3A679D" x="49" y="436.292619" width="46.3303802" height="27.707381" rx="6"></rect>
                <rect id="brick" fill="#3A679D" x="10" y="481" width="80.3303802" height="27.707381" rx="6"></rect>
                <g id="table" transform="translate(0.000000, 615.000000)" fill="#3A679D">
                    <polygon id="Path-75" points="1.77134058 0 146 0 146 83 0 83"></polygon>
                </g>
                <g id="Group" transform="translate(4.000000, 495.000000)" fill="#3A679D">
                    <g id="Group-3" transform="translate(93.806880, 72.988800) rotate(-11.000000) translate(-93.806880, -72.988800) translate(42.229585, 8.825642)">
                        <path d="M56.0545933,114.846324 C48.4771389,93.5814734 48.4771389,73.1990415 56.0545933,53.6990284 C63.6320476,34.1990153 79.3238354,16.416535 103.129957,0.351587457 C98.8055733,24.1503575 94.9997247,42.7578404 91.7124108,56.174036 C88.4250968,69.5902316 76.5391576,89.147661 56.0545933,114.846324 Z" id="Path-3"></path>
                        <path d="M11.0933789,123.253524 C6.02117512,112.725895 6.9536653,102.241173 13.8908494,91.7993597 C20.8280336,81.3575461 34.1600113,71.3591022 53.8867827,61.8040279 C49.3481336,74.280672 45.4606557,84.0587926 42.2243489,91.1383897 C38.9880421,98.2179867 28.6110521,108.923032 11.0933789,123.253524 Z" id="Path-3-Copy" transform="translate(30.883385, 92.528776) scale(1, -1) rotate(15.000000) translate(-30.883385, -92.528776) "></path>
                        <path d="M59.44363,123.172683 C55.3655751,114.6358 56.1215297,106.136007 61.7114937,97.6733041 C67.3014578,89.2106008 78.039277,81.109798 93.9249514,73.3708958 C90.2648879,83.4841926 87.1303985,91.4099981 84.5214833,97.1483122 C81.912568,102.886626 73.5532836,111.561416 59.44363,123.172683 Z" id="Path-3-Copy" transform="translate(75.394171, 98.271789) scale(-1, -1) rotate(15.000000) translate(-75.394171, -98.271789) "></path>
                        <path d="M26.2002137,115.28473 C21.1108786,100.870301 21.1108786,87.0540217 26.2002137,73.835892 C31.2895487,60.6177624 41.8288091,48.5638663 57.817995,37.6742039 C54.9135585,53.8062561 52.3573915,66.419382 50.1494941,75.5135818 C47.9415966,84.6077815 39.9585031,97.864831 26.2002137,115.28473 Z" id="Path-3" transform="translate(40.100604, 76.479467) scale(-1, 1) translate(-40.100604, -76.479467) "></path>
                    </g>
                    <g id="Group-2" transform="translate(0.000000, 35.347368)">
                        <path d="M23.6559993,92.6675183 C19.1503997,85.9729171 17.2510872,76.7403737 17.9580618,64.9698881 C18.6650365,53.1994026 28.1941694,45.0138507 46.5454603,40.4132325 C49.9816596,48.6810529 47.4477141,57.0722942 38.9436237,65.5869567 C30.4395333,74.1016191 25.3436585,83.1284729 23.6559993,92.6675183 Z" id="Path-3-Copy" transform="translate(32.921504, 66.540375) scale(-1, -1) rotate(4.000000) translate(-32.921504, -66.540375) "></path>
                        <path d="M22.7377413,92.9789474 C9.15753968,73.905389 5.07459418,55.7370889 10.4889048,38.4740472 C15.1752423,23.5320823 22.2779745,10.7073999 31.7971014,0 C31.7971014,12.9742159 31.7971014,25.7988982 31.7971014,38.4740472 C31.7971014,52.0920461 28.7773147,70.2603461 22.7377413,92.9789474 Z" id="Path-3" transform="translate(19.985507, 46.489474) scale(-1, 1) translate(-19.985507, -46.489474) "></path>
                        <path d="M1.56081241,90.6736842 C-0.520270805,85.2161562 -0.520270805,79.985097 1.56081241,74.9805067 C3.64189563,69.9759163 9.15898294,65.1438176 18.1120743,60.4842105 C19.359899,66.8744244 19.5323949,71.7911344 18.6295622,75.2343404 C17.7267294,78.6775465 12.0371462,83.8239944 1.56081241,90.6736842 Z" id="Path-3" transform="translate(9.599034, 75.578947) scale(-1, 1) translate(-9.599034, -75.578947) "></path>
                    </g>
                </g>
                <rect id="brick" fill="#3A679D" x="135" y="387" width="72" height="28" rx="6"></rect>
                <g id="frame-plant" transform="translate(205.000000, 0.000000)">
                    <path d="M279,17.9353741 L18,17.9353741 L18,276.935374 L279,276.935374 L279,293 L0,293 L0,0 L279,0 L279,17.9353741 Z" id="Combined-Shape" fill="#3A679D"></path>
                    <text id="SYNERGY" font-family="GalanoGrotesqueAlt-Bold, Galano Grotesque Alt" font-size="24" font-weight="bold" letter-spacing="16" fill="#3A679D">
                        <tspan x="60.764" y="242">SYNERG</tspan>
                        <tspan x="256.292" y="242">Y</tspan>
                    </text>
                    <rect id="Rectangle" fill="#3A679D" x="29" y="29" width="250" height="180"></rect>
                    <path d="M159.622177,82.9797497 L154.832225,81.2742121 C152.326481,80.376011 150.315546,78.4619479 149.293836,76.0026214 C148.272125,73.5432948 148.334412,70.7668295 149.465382,68.3558574 L151.650579,63.7640251 C153.362963,60.1521097 152.620033,55.8528724 149.795001,53.0260433 C146.969969,50.1992142 142.673465,49.4558116 139.063845,51.1692853 L134.474932,53.3558721 C132.061011,54.5025951 129.274725,54.5729557 126.806072,53.5495298 C124.337419,52.526104 122.417253,50.5045962 121.521086,47.9856149 L119.816632,43.2013631 C118.481425,39.4302118 114.916796,36.9097702 110.918511,36.9097702 C106.920226,36.9097702 103.355597,39.4302118 102.02039,43.2013631 L100.272232,47.9856149 C99.3661113,50.4897402 97.4465739,52.4953408 94.9855177,53.5093615 C92.5244615,54.5233822 89.7501465,54.4517737 87.3446081,53.3121403 L82.7556948,51.1255536 C79.1460755,49.4120799 74.8495711,50.1554825 72.0245391,52.9823116 C69.199507,55.8091406 68.456577,60.1083779 70.1689614,63.7202934 L72.3541582,68.3121256 C73.5001522,70.7275822 73.5704681,73.515641 72.5476928,75.9858644 C71.5249176,78.4560878 69.5046949,80.3774751 66.9873149,81.2742121 L62.1973635,82.9797497 C58.4286096,84.3158061 55.9097702,87.8827027 55.9097702,91.8835311 C55.9097702,95.8843596 58.4286096,99.4512562 62.1973635,100.787312 L67.0047965,102.466611 C69.5221765,103.363348 71.5423991,105.284735 72.5651744,107.754959 C73.5879497,110.225182 73.5176338,113.013241 72.3716397,115.428698 L70.186443,120.02053 C68.4740586,123.632445 69.2169886,127.931683 72.0420206,130.758512 C74.8670527,133.585341 79.163557,134.328743 82.7731764,132.61527 L87.3446081,130.454922 C89.7585291,129.308199 92.5448156,129.237838 95.0134687,130.261264 C97.4821218,131.28469 99.4022877,133.306198 100.298455,135.825179 L102.046612,140.618177 C103.381819,144.389329 106.946448,146.90977 110.944733,146.90977 C114.943018,146.90977 118.507648,144.389329 119.842855,140.618177 L121.547308,135.825179 C122.444362,133.313192 124.360135,131.297269 126.822249,130.274483 C129.284364,129.251698 132.063694,129.31723 134.474932,130.454922 L139.063845,132.641509 C142.673465,134.354982 146.969969,133.61158 149.795001,130.784751 C152.620033,127.957922 153.362963,123.658684 151.650579,120.046769 L149.465382,115.454937 C147.874559,112.096339 148.748638,104.653198 154.832225,102.49285 L159.622177,100.787312 C163.390931,99.4512562 165.90977,95.8843596 165.90977,91.8835311 C165.90977,87.8827027 163.390931,84.3158061 159.622177,82.9797497 Z M112.444053,113.668549 C103.055213,113.668549 95.4440533,106.05739 95.4440533,96.6685489 C95.4440533,87.2797082 103.055213,79.6685489 112.444053,79.6685489 C121.832894,79.6685489 129.444053,87.2797082 129.444053,96.6685489 C129.439173,106.055368 121.830872,113.663669 112.444053,113.668549 Z" id="Shape" fill="#4480C5" fill-rule="nonzero" transform="translate(110.909770, 91.909770) rotate(-19.000000) translate(-110.909770, -91.909770) "></path>
                    <path d="M278.585852,82.0841757 C274.749196,79.6962657 269.889644,79.3555961 265.683544,81.3522171 L259.133913,84.4730727 C255.688589,86.1097592 251.711799,86.210183 248.188358,84.7494752 C244.664916,83.2887674 241.924316,80.4035245 240.645241,76.8082512 L238.212521,69.979819 C236.306817,64.5973576 231.219119,61 225.512475,61 C219.805832,61 214.718134,64.5973576 212.81243,69.979819 L210.317332,76.8082512 C209.02405,80.3823208 206.284347,83.2448599 202.771749,84.692144 C199.25915,86.1394281 195.299446,86.0372233 191.866087,84.4106556 L185.316456,81.2897999 C180.164545,78.8442057 174.032261,79.905244 170.00017,83.9399 C165.968079,87.974556 164.907715,94.1107402 167.351755,99.2659286 L170.470627,105.819726 C172.106273,109.267241 172.206633,113.246561 170.746853,116.772244 C169.287074,120.297926 166.403665,123.04027 162.810677,124.320158 L155.974111,126.754425 C150.595071,128.661342 147,133.752276 147,139.46255 C147,145.172823 150.595071,150.263757 155.974111,152.170674 L162.835628,154.567491 C166.428616,155.847379 169.312025,158.589723 170.771804,162.115406 C172.231584,165.641088 172.131224,169.620408 170.495578,173.067924 L167.376706,179.621721 C164.932666,184.776909 165.99303,190.913093 170.025121,194.947749 C174.057212,198.982405 180.189496,200.043443 185.341407,197.597849 L191.866087,194.514444 C195.311411,192.877757 199.288201,192.777334 202.811642,194.238041 C206.335084,195.698749 209.075684,198.583992 210.354759,202.179265 L212.849856,209.020181 C214.755561,214.402642 219.843259,218 225.549902,218 C231.256545,218 236.344243,214.402642 238.249948,209.020181 L240.682668,202.179265 C241.963008,198.593974 244.697339,195.716703 248.211448,194.256909 C251.725556,192.797115 255.692419,192.890648 259.133913,194.514444 L265.683544,197.6353 C269.964533,199.66747 274.92245,199.278379 278.789803,196.773846 L278.585852,82.0841757 Z M226,168 C212.745166,168 202,157.254834 202,144 C202,130.745166 212.745166,120 226,120 C239.254834,120 250,130.745166 250,144 C249.99311,157.251979 239.251979,167.99311 226,168 Z" id="Shape" fill="#4480C5" fill-rule="nonzero"></path>
                    <rect id="Rectangle" fill="#3A679D" x="50" y="256" width="80" height="9" rx="4.5"></rect>
                    <rect id="Rectangle" fill="#3A679D" x="138" y="256" width="20" height="9" rx="4.5"></rect>
                    <rect id="Rectangle" fill="#3A679D" x="167" y="256" width="60" height="9" rx="4.5"></rect>
                    <path d="M240.5,256 L279,256 L279,265 L240.5,265 C238.014719,265 236,262.985281 236,260.5 L236,260.5 C236,258.014719 238.014719,256 240.5,256 Z" id="Rectangle" fill="#3A679D"></path>
                </g>
                <g id="chair" transform="translate(153.000000, 338.000000)">
                    <path d="M106,0 L330.789803,0 L331.211959,252.459771 C292.266194,237.293732 253.862207,237.978691 216,254.514648 C180.697917,238.266666 138.03125,239.428449 88,258 L88,18 C88,8.0588745 96.0588745,3.38005782e-14 106,3.19744231e-14 Z" id="Rectangle" fill="#3A679D"></path>
                    <g id="buttons" transform="translate(136.000000, 49.000000)" fill="#4480C5">
                        <circle id="Oval" cx="12" cy="12" r="12"></circle>
                        <circle id="Oval" cx="80" cy="12" r="12"></circle>
                        <circle id="Oval" cx="12" cy="74" r="12"></circle>
                        <circle id="Oval" cx="80" cy="74" r="12"></circle>
                        <circle id="Oval" cx="148" cy="74" r="12"></circle>
                        <circle id="Oval-Copy" cx="148" cy="12" r="12"></circle>
                        <circle id="Oval" cx="12" cy="138" r="12"></circle>
                        <circle id="Oval" cx="80" cy="138" r="12"></circle>
                        <circle id="Oval" cx="148" cy="138" r="12"></circle>
                    </g>
                    <path d="M78.0775914,169.721739 L12.5390625,169.721739 C5.91164547,169.721739 0.539062465,175.094322 0.539062461,181.721739 L0.5390625,199 C0.539062505,205.627417 5.91164551,211 12.5390625,211 L24.3083269,211 L24.3083269,361.254717 L330.789803,361.254717 L330.789803,269.707381 L78.0775914,269.707381 L78.0775914,169.721739 Z" id="Path-74" fill="#3A679D"></path>
                </g>
            </g>
        </g>
    </g>
</svg>