<?xml version="1.0" encoding="UTF-8"?>
<svg width="485px" height="699px" viewBox="0 0 485 699" version="1.1" xmlns="http://www.w3.org/2000/svg" xmlns:xlink="http://www.w3.org/1999/xlink">
    <!-- Generator: sketchtool 52.5 (67469) - http://www.bohemiancoding.com/sketch -->
    <title>15A4E9E8-C3FC-4883-BAEC-0F9C604DBF22</title>
    <desc>Created with sketchtool.</desc>
    <g id="Page-1" stroke="none" stroke-width="1" fill="none" fill-rule="evenodd">
        <g id="Block-3---Templates---eCommerce" transform="translate(-1435.000000, -381.000000)">
            <g id="xl_right-graphic_ecommerce" transform="translate(1435.000000, 381.000000)">
                <rect id="brick" fill="#3A679D" x="0" y="636" width="55.7711842" height="27.707381" rx="6"></rect>
                <rect id="brick" fill="#3A679D" x="421" y="50" width="43.7711842" height="27.707381" rx="6"></rect>
                <rect id="brick" fill="#3A679D" x="163" y="248" width="46.3303802" height="27.707381" rx="6"></rect>
                <rect id="brick" fill="#3A679D" x="62" y="588" width="80.3303802" height="27.707381" rx="6"></rect>
                <rect id="brick-copy" fill="#3A679D" x="376" y="0" width="72" height="28" rx="6"></rect>
                <path d="M484,128 L312.363636,128 C307.744528,128 304,131.744528 304,136.363636 L304,310.636364 C304,315.255472 307.744528,319 312.363636,319 L484,319 L484,330 L484,372 L484,391 L294.363636,391 C289.744528,391 286,387.255472 286,382.636364 L286,380.363636 C286,375.744528 289.744528,372 294.363636,372 L421.007763,372 C421.002605,371.879431 421,371.758202 421,371.636364 L421,356 L289.363636,356 C284.744528,356 281,352.255472 281,347.636364 L281,113.363636 C281,108.744528 284.744528,105 289.363636,105 L484,105 L484,128 Z" id="Combined-Shape" fill="#3A679D" fill-rule="nonzero"></path>
                <g id="Group-23" transform="translate(129.000000, 325.000000)">
                    <rect id="Rectangle" fill="#3A679D" x="22" y="77" width="333.251685" height="24.1032864"></rect>
                    <rect id="Rectangle" fill="#4480C5" x="271.564045" y="101.103286" width="22.6876404" height="273.896714"></rect>
                    <rect id="Rectangle" fill="#3A679D" x="293" y="101" width="62.6876404" height="273.896714"></rect>
                    <rect id="Rectangle" fill="#3A679D" x="64.5393258" y="101.103286" width="207.024719" height="273.896714"></rect>
                    <rect id="Rectangle" fill="#4480C5" x="282" y="101" width="73.7483146" height="24.1032864"></rect>
                    <g id="printer">
                        <polygon id="Path-64" fill="#4480C5" points="85 68.1043546 128 77 128 61.2373594 101.846611 47"></polygon>
                        <polygon id="Path-65" fill="#3A679D" points="128 61 171 61 171 76.5609547 128 77"></polygon>
                        <polygon id="Path-66" fill="#3A679D" points="171 61 108.49553 27 62 27 128.244199 61"></polygon>
                        <path d="M51.773371,3.94845882 C33.4687659,8.25589113 14.6198212,41.1286591 39.0634695,64.7723146 C41.7253567,67.3470835 29.061183,18.4404212 81.8922271,28.6322506 C96.2174791,50.7185664 80.4102963,66.8411495 34.4706788,77 C2.54616122,77 -14.480248,35.3332468 15.9005622,6.83297792 C26.2837967,0.17960415 38.2413997,-0.781902216 51.773371,3.94845882 Z" id="Path-68" fill="#3A679D"></path>
                        <path d="M72.9718451,27 L104,27 C92.9389746,9 82.5962562,7.67386155e-13 72.9718451,7.67386155e-13 C63.3474339,7.67822094e-13 49.3568189,5.12026709e-13 31,0 C53.2507975,2.60024432 67.2414125,11.6002443 72.9718451,27 Z" id="Path-67" fill="#3A679D"></path>
                        <path d="M31,77.352383 C59.5513933,79.1667937 75.361113,77.1686659 78.4291593,71.3579997 C81.4972055,65.5473334 72.1980881,65.5473334 50.531807,71.3579997 L48.0646106,71.3581521 L31,77.352383 Z" id="Path-69" fill="#4480C5"></path>
                        <path d="M65.4489288,75 C76.9436788,75 92.4607026,67.4518226 112,52.3554677 C84.8609129,35.606867 68.188327,27.1565596 61.9822425,27.0045453 C52.0911854,26.7622699 44,36.2266947 44,50.276652 C44,64.3266093 48.2068037,75 65.4489288,75 Z" id="Oval" fill="#4480C5"></path>
                        <path d="M138.086284,69.4423492 L166.154461,69 C183.519167,97.6535163 170.75894,152.48248 160.774026,175.395824 C150.789111,198.309167 133.905332,221.824361 138.086284,283.690449 C141.17367,329.374888 169.110439,362.01279 195,374.896714 L160.580649,374.896714 C140.29775,363.708287 117.432601,337.599434 109.638456,296.560843 C99.9899547,245.758494 118.657345,196.541753 135.695979,161.069065 C152.414677,126.262452 153.211445,95.7202131 138.086284,69.4423492 Z" id="Path-70" fill="#4480C5"></path>
                        <path d="M205,375 C223.2495,370.028141 237.885329,364.441759 249.225205,343 L280,343 C275.51032,356.441396 255.940509,375.0224 225.759537,374.99998 L205,375 Z" id="Path-72" fill="#4480C5"></path>
                    </g>
                </g>
            </g>
        </g>
    </g>
</svg>