<?xml version="1.0" encoding="UTF-8"?>
<svg width="485px" height="699px" viewBox="0 0 485 699" version="1.1" xmlns="http://www.w3.org/2000/svg" xmlns:xlink="http://www.w3.org/1999/xlink">
    <!-- Generator: sketchtool 52.5 (67469) - http://www.bohemiancoding.com/sketch -->
    <title>CC668225-BE20-45BE-BF46-56E0ADBA41BC</title>
    <desc>Created with sketchtool.</desc>
    <defs>
        <polygon id="path-1" points="114.296365 33.7098884 114.296365 25.0530973 24.1292327 25.0530973 24.1292327 33.7098884"></polygon>
        <polygon id="path-3" points="90 25.561204 90 16.910989 1.27897692e-13 16.910989 5.45696821e-12 25.561204"></polygon>
    </defs>
    <g id="Page-1" stroke="none" stroke-width="1" fill="none" fill-rule="evenodd">
        <g id="Block-3---Templates---eCommerce" transform="translate(0.000000, -381.000000)">
            <g id="xl_left-graphic_ecommerce" transform="translate(0.000000, 381.000000)">
                <g id="box" transform="translate(167.500000, 614.500000) scale(-1, 1) translate(-167.500000, -614.500000) translate(26.000000, 529.000000)">
                    <polygon id="Fill-3" fill="#3A679D" points="4.40536496e-13 170.104221 216.772399 170.104221 216.772399 0 4.40536496e-13 0"></polygon>
                    <polygon id="Fill-6" fill="#4480C5" points="114 63.5146482 187.912834 63.5146482 187.912834 26 114 26"></polygon>
                    <path d="M126.688741,36 L157.082244,36 C158.01447,36 158.770985,37.3430464 158.770985,39.0005676 C158.770985,40.6569536 158.01447,42 157.082244,42 L126.688741,42 C125.755876,42 125,40.6569536 125,39.0005676 C125,37.3430464 125.755876,36 126.688741,36" id="Fill-7" fill="#3A679D"></path>
                    <path d="M125.688741,47 L147.076904,47 C148.009769,47 148.765006,48.3441816 148.765006,50.0005676 C148.765006,51.6580889 148.009769,53 147.076904,53 L125.688741,53 C124.755876,53 124,51.6580889 124,50.0005676 C124,48.3441816 124.755876,47 125.688741,47" id="Fill-8" fill="#3A679D"></path>
                    <polygon id="Stroke-9" stroke="#4480C5" stroke-width="9" points="67 120.514648 185.187749 120.514648 185.187749 89 67 89"></polygon>
                    <polygon id="Fill-10" fill="#3A679D" points="238 0 238 46.7809739 249.61667 37.9491303 262.423115 46.7809739 273.807968 38.930013 282.345598 46.7809739 281.661999 0"></polygon>
                </g>
                <rect id="brick" fill="#3A679D" x="122" y="430" width="64.7711842" height="27.707381" rx="6"></rect>
                <rect id="brick" fill="#3A679D" x="420" y="587" width="64.7711842" height="27.707381" rx="6"></rect>
                <rect id="brick" fill="#3A679D" x="47" y="458" width="57" height="28" rx="6"></rect>
                <rect id="brick" fill="#3A679D" x="374" y="633" width="62" height="28" rx="6"></rect>
                <g id="drawing-board" transform="translate(0.000000, 22.000000)">
                    <path d="M55.7941328,258 L86.1960885,258 C88.2931179,257.999993 89.9946092,259.786892 90,261.994852 C90,264.206834 88.2969308,266 86.1960885,266 L55.7941328,266 C53.6971103,265.994324 51.9999931,264.20282 52,261.994852 C52,259.788556 53.6986911,258 55.7941328,258 Z" id="Rectangle-path-4" fill="#3A679D"></path>
                    <path d="M30.7098093,258 L44.2997275,258 C46.3433316,258 48,259.788556 48,261.994852 C48.0000068,264.20282 46.3448733,265.994324 44.2997275,266 L30.7098093,266 C28.6609382,266 27,264.206834 27,261.994852 C27.0052575,259.786892 28.6646568,257.999993 30.7098093,258 Z" id="Rectangle-path-5" fill="#3A679D"></path>
                    <path d="M77.6490949,276.014306 L57.348915,276.014306 C55.8654519,275.888822 54.4327654,276.615734 53.5986418,277.917106 C52.8004527,279.18149 52.8004527,280.828597 53.5986418,282.092981 C54.4351122,283.390448 55.8673713,284.113215 57.348915,283.985496 L77.6685769,283.985496 C79.1467652,284.109402 80.5744168,283.387084 81.4091091,282.092981 C82.1969636,280.825315 82.1969636,279.184772 81.4091091,277.917106 C80.5718303,276.614059 79.1355273,275.8872 77.6490949,276.014306 Z" id="Shape-4" fill="#3A679D"></path>
                    <path d="M30.7098093,276 L44.2997275,276 C46.3448733,276.005669 48.0000068,277.79487 48,280 C48.0000068,282.20513 46.3448733,283.994331 44.2997275,284 L30.7098093,284 C28.6609382,284 27,282.209139 27,280 C27,277.790861 28.6609382,276 30.7098093,276 Z" id="Rectangle-path-6" fill="#3A679D"></path>
                    <circle id="Oval-3" stroke="#3A679D" stroke-width="6" cx="206.5" cy="74.5" r="11.5"></circle>
                    <g id="Group-7" transform="translate(0.000000, 320.000000)" fill="#3A679D">
                        <polygon id="Path-32" points="121.957303 11 130.903691 11 136 20 121.506757 20"></polygon>
                        <polygon id="Rectangle-18" points="1.66190185e-12 0 98.4543986 4.75100537e-15 109.808634 9.03225806 122.472973 9.03225806 122.472973 22.5806452 109.808634 22.5806452 98.4543986 35 1.66190185e-12 35"></polygon>
                    </g>
                    <g id="postit-copy-3" transform="translate(136.000000, 182.000000)">
                        <polygon id="Path-11" fill="#3A679D" points="114.296365 130.647942 114.296365 38.920354 24.1292327 38.920354 24.1292327 130.647942"></polygon>
                        <mask id="mask-2" fill="white">
                            <use xlink:href="#path-1"></use>
                        </mask>
                        <use id="Path-11" fill="#3A679D" xlink:href="#path-1"></use>
                        <polygon id="Path-33" fill="#3A679D" transform="translate(113.409946, 24.246223) rotate(39.000000) translate(-113.409946, -24.246223) " points="87.6165123 17.5867025 134.188616 14.3369178 139.203381 29.1572442 88.5652594 34.1555286"></polygon>
                        <polygon id="Path-33" fill="#3A679D" transform="translate(24.234240, 130.988153) rotate(39.000000) translate(-24.234240, -130.988153) " points="1.60759736 124.430961 42.4146948 121.026232 46.8608831 135.787417 2.49612558 140.950074"></polygon>
                    </g>
                    <g id="postit-copy-3" transform="translate(25.000000, 86.000000)">
                        <polygon id="Path-11" fill="#3A679D" points="90 122.427138 90 30.7692308 1.27897692e-13 30.7692308 5.45696821e-12 122.427138"></polygon>
                        <mask id="mask-4" fill="white">
                            <use xlink:href="#path-3"></use>
                        </mask>
                        <use id="Path-11" fill="#3A679D" xlink:href="#path-3"></use>
                        <polygon id="Path-33" fill="#3A679D" transform="translate(42.349122, 13.082262) rotate(8.000000) translate(-42.349122, -13.082262) " points="20.085795 9.4649293 62.7578747 3.4324349 64.612449 16.699594 21.9403693 22.7320884"></polygon>
                    </g>
                    <g id="arrow" transform="translate(128.115784, 84.577901) scale(1, -1) rotate(-223.000000) translate(-128.115784, -84.577901) translate(26.615784, 64.577901)">
                        <path d="M201.91232,37.3905444 L202.845354,22.9060603 C202.880439,22.3871126 202.702262,21.8768058 202.354106,21.4991082 C202.005951,21.1214107 201.519679,20.9108877 201.013421,20.9186815 C199.910013,20.9979204 199.021854,21.8808378 198.908405,23.0112744 L198.100534,35.4733084 L185.97109,35.8474032 C184.859399,35.9220305 183.963731,36.8125734 183.854695,37.9516866 C183.816967,38.472906 183.994565,38.9863613 184.343969,39.3662327 C184.699912,39.7443191 185.198199,39.9448327 185.709385,39.9156845 L199.830061,39.4831373 C200.366893,39.4496054 200.874817,39.221813 201.263748,38.8401618 C201.64812,38.4568138 201.879402,37.9398782 201.91232,37.3905444 Z" id="Shape" fill="#3A679D"></path>
                        <path d="M8.97138355,10.2319548 C8.7246986,9.65547455 8.26750637,9.19597712 7.69391818,8.94804838 C7.16549214,8.72721132 6.56889037,8.74066578 6.05085209,8.98510252 C5.53281382,9.22953927 5.14141262,9.68227473 4.97291693,10.2319548 L0.284619013,25.4590852 C-0.0495536875,26.6718603 0.540002078,27.9493297 1.67705627,28.4762653 L16.3934574,34.6261771 C16.9194134,34.8554606 17.5181419,34.8459846 18.0366538,34.6001703 C18.5551657,34.354356 18.9432288,33.8960174 19.101684,33.3422707 C19.4287935,32.1335316 18.8403853,30.8639744 17.7092467,30.3379296 L5.15176208,25.0482351 L9.17577801,11.9523894 C9.31941035,11.3730949 9.24668805,10.7609748 8.97138355,10.2319548 Z" id="Shape-2" fill="#3A679D"></path>
                        <path d="M5.33677002,25.108461 C37.8080977,8.48473711 68.4542288,0.172875175 97.2751633,0.172875175 C126.098867,0.172875175 179.043417,11.9558115 198.33677,35.1728752" id="Path-3-14" stroke="#3A679D" stroke-width="6"></path>
                    </g>
                </g>
                <path d="M309,16.9796679 L18,16.9796679 L18,376.979668 L309,376.979668 L309,391.742188 L-1.8189894e-12,391.742188 L-1.8189894e-12,-1.39266376e-12 L309,-1.39266376e-12 L309,16.9796679 Z" id="Combined-Shape" fill="#3A679D" transform="translate(154.500000, 195.871094) scale(-1, 1) translate(-154.500000, -195.871094) "></path>
            </g>
        </g>
    </g>
</svg>