<?xml version="1.0" encoding="UTF-8"?>
<svg width="484px" height="638px" viewBox="0 0 484 638" version="1.1" xmlns="http://www.w3.org/2000/svg" xmlns:xlink="http://www.w3.org/1999/xlink">
    <!-- Generator: sketchtool 52.5 (67469) - http://www.bohemiancoding.com/sketch -->
    <title>455F5380-B56A-4525-92AE-430F5E65D4A7</title>
    <desc>Created with sketchtool.</desc>
    <g id="Page-1" stroke="none" stroke-width="1" fill="none" fill-rule="evenodd">
        <g id="Block-3---Templates---Portfolio" transform="translate(0.000000, -442.000000)">
            <g id="xl_left-graphic_portfolio" transform="translate(-1.000000, 442.000000)">
                <g id="couch" transform="translate(0.000000, 321.000000)">
                    <path d="M0.796875,296.973369 L289.529821,296.973369 L289.529821,315.440647 L347.611312,315.440647 L347.611312,296.973369 L368.614843,296.973369 L368.614843,125.520506 L396,125.520506 C400.970563,125.520506 405,121.491069 405,116.520506 L405,94 C405,89.0294373 400.970563,85 396,85 L321.907815,85 L321.907815,214.098033 L0.796875,214.098033 L0.796875,296.973369 Z" id="Path-24" fill="#3A679D"></path>
                    <path d="M0.562617413,186.362155 C30.2377461,186.57698 74.7504391,186.899217 134.100696,187.328867 C202.45635,187.328867 261.756118,190.885911 312,198 L312,18 C312,8.0588745 303.941125,-1.82615513e-15 294,0 L1.3203125,3.55271368e-15 C1.15707452,40.1498986 1.03464604,70.2623225 0.953027055,90.3372718 C0.866269357,111.676135 0.736132809,143.684429 0.562617413,186.362155 Z" id="Path-61" fill="#3A679D"></path>
                    <circle id="Oval" fill="#4480C5" cx="41" cy="83" r="16"></circle>
                    <circle id="Oval" fill="#4480C5" cx="132" cy="83" r="16"></circle>
                    <circle id="Oval" fill="#4480C5" cx="223" cy="83" r="16"></circle>
                </g>
                <polygon id="Path-64" fill="#3A679D" points="1.546875 239.519531 324.095061 239.519531 327.37105 255.940989 288.749419 255.940989 285.225364 287 276.119059 287 276.119059 255.940989 1.546875 255.940989"></polygon>
                <g id="frame-plant" transform="translate(0.000000, 61.519531)" fill="#3A679D">
                    <path d="M176,18 L17.5626174,18 L17.5626174,173 L176,173 L176,190 L0.562617413,190 L0.562617413,0 L176,0 L176,18 Z" id="Combined-Shape" transform="translate(88.281309, 95.000000) scale(-1, 1) translate(-88.281309, -95.000000) "></path>
                    <path d="M63,173.917053 C63.2549573,166.509297 63.557139,158.217108 63.8965461,149.750663 C65.282916,114.913262 68.4672344,101.175255 71.5432426,91.1618179 C73.4819942,84.8632002 74.8791951,80.3001149 74.088531,72.7827244 L76.5904955,72.4804688 C77.4461456,80.5926204 76.980412,86.618233 75.0091673,92.9558514 C71.9981452,102.784035 69.3012225,114.83526 70.0052385,149.224153 C70.1174445,154.626109 70.3765803,164.610553 70.6416065,174.480469 L63,173.917053 Z" id="Path"></path>
                    <path d="M74.1848234,74.4804688 C74.1848234,74.4804688 94.9021269,58.7042411 64.0944809,23.4804688 C50.7844279,58.1824777 74.1848234,74.4804688 74.1848234,74.4804688 Z" id="Path"></path>
                    <path d="M71,101.523735 C71,101.523735 69.2237246,71.854067 20,81.3579316 C30.4173325,95.6855099 49.611555,111.065883 71,101.523735 Z" id="Path"></path>
                    <path d="M74,86.5703757 C74,86.5703757 78.112765,60.921342 121,67.5858329 C110.42129,82.9789556 106.90212,90.1617958 74,86.5703757 Z" id="Path"></path>
                    <path d="M67.0134837,127.480469 C67.0134837,127.480469 64.9757868,91.0812907 111,89.4804688 C109.154337,109.012449 106.049783,125.03043 67.0134837,127.480469 Z" id="Path"></path>
                    <path d="M68,133.792459 C68,133.792459 43.2260257,157.959645 11.5664062,113.097438 C47.3169348,104.710483 66.8372093,104.574605 68,133.792459 Z" id="Path"></path>
                    <path d="M68,153.967088 C68,153.967088 80.0197736,114.576888 134,126.850646 C126.661413,142.103645 109.440321,171.762253 68,153.967088 Z" id="Path"></path>
                </g>
                <rect id="Rectangle" stroke="#3A679D" stroke-width="16" fill="#4480C5" x="196" y="119.519531" width="95" height="120"></rect>
                <path d="M262.463088,204.343391 C262.811119,193.24238 256.911826,189.642174 256.413964,185.17083 C255.916102,180.699485 260.006213,173.094294 260.409488,166.699686 C260.812763,160.305077 260.266791,157.334945 256.12857,150.624924 C255.64152,145.401096 252.117167,140.192788 245.555511,135 C251.190294,140.678153 253.903961,145.886461 253.696512,150.624924 L244.272288,164.310813 C243.76312,171.457154 242.868838,175.030325 241.589441,175.030325 C239.670346,175.030325 239.203433,168.851999 239.203433,164.310813 C239.203433,159.769627 230.402853,153.074626 229.675677,150.624924 C229.190894,148.991789 232.096034,143.783481 238.3911,135 C227.219071,146.517054 221.430261,157.083616 221.024671,166.699686 C223.233314,174.40701 225.021011,174.500132 225.021011,185.17083 C225.021011,195.841528 218.799427,193.960319 220.20741,205.677885 C228.235921,208.939148 234.297151,214.882667 238.3911,223.508442 C241.079183,225.344842 243.516359,225.344842 245.702629,223.508442 C249.286428,215.570065 254.873247,209.181715 262.463088,204.343391 Z" id="Path-65" fill="#3A679D"></path>
                <path d="M1,0 L63.7846628,-8.8817842e-16 C67.0983713,1.44626758e-15 69.7846628,2.6862915 69.7846628,6 L69.7846628,21.707381 C69.7846628,25.0210895 67.0983713,27.707381 63.7846628,27.707381 L1,27.707381 L1,0 Z" id="brick" fill="#3A679D"></path>
                <rect id="brick" fill="#3A679D" x="366" y="297" width="64.7711842" height="27.707381" rx="6"></rect>
                <path d="M446.537611,541.769072 L438.888775,626.842039 L438.888775,637.293457 L473.186938,637.293457 L473.186938,626.842039 L465.932682,541.769072 L465.932682,529.644979 L479.29021,529.644979 C474.850808,525.127631 470.398298,522.868958 465.932682,522.868958 C459.234257,522.868958 479.29021,511.42067 484.423449,476.855778 C474.284339,476.855778 465.267279,488.62962 457.372271,512.177303 C451.861985,483.221675 444.648213,466.300707 435.730954,461.414398 C445.711578,456.80612 452.109355,432 423.861124,432 C395.612894,432 403.293925,432 406.089619,447.897156 C408.885312,463.794312 408.88223,465.555674 425.750447,465.555674 C436.995925,465.555674 444.805907,481.096217 449.180391,512.177303 C440.2141,499.199285 425.850509,497.730548 406.089619,507.771093 C430.423465,507.771093 443.906129,513.679344 446.537611,525.495844 C442.97522,524.280442 439.373001,524.668113 435.730954,526.658859 C432.088907,528.649606 435.691126,531.312229 446.537611,534.646729 L446.537611,541.769072 Z" id="Path-63" fill="#3A679D" transform="translate(443.711725, 534.646729) scale(-1, 1) translate(-443.711725, -534.646729) "></path>
                <rect id="brick" fill="#3A679D" x="215" y="28" width="57" height="28" rx="6"></rect>
                <rect id="brick" fill="#3A679D" x="343" y="342" width="46" height="28" rx="6"></rect>
            </g>
        </g>
    </g>
</svg>