<?xml version="1.0" encoding="UTF-8"?>
<svg width="485px" height="699px" viewBox="0 0 485 699" version="1.1" xmlns="http://www.w3.org/2000/svg" xmlns:xlink="http://www.w3.org/1999/xlink">
    <!-- Generator: sketchtool 52.5 (67469) - http://www.bohemiancoding.com/sketch -->
    <title>3CEFF1A8-950C-4282-B3BE-B305F5F46758</title>
    <desc>Created with sketchtool.</desc>
    <g id="Page-1" stroke="none" stroke-width="1" fill="none" fill-rule="evenodd">
        <g id="Block-3---Templates---Technology" transform="translate(0.000000, -380.000000)" fill="#3A679D">
            <g id="xl_left-graphic_technology" transform="translate(0.000000, 380.000000)">
                <g id="comp" transform="translate(0.000000, 154.000000)" fill-rule="nonzero">
                    <path d="M296.031684,280.061055 L356.204169,542.167889 C356.490157,543.413628 355.712124,544.655337 354.466385,544.941324 C354.296537,544.980317 354.122827,545 353.94856,545 L335.538873,545 C334.533546,545 333.643205,544.35096 333.33559,543.393853 L248.700084,280.061055 L0.37109375,280.061055 L0.48046875,253 L352.928859,253 C354.207004,253 355.243145,254.036141 355.243145,255.314286 L355.243145,277.746769 C355.243145,279.024914 354.207004,280.061055 352.928859,280.061055 L296.031684,280.061055 Z M96.3142857,322 L194.151557,322 C195.429702,322 196.465843,323.036141 196.465843,324.314286 L196.465843,542.41901 C196.465843,543.697154 195.429702,544.733295 194.151557,544.733295 L96.3142857,544.733295 C95.036141,544.733295 94,543.697154 94,542.41901 L94,324.314286 C94,323.036141 95.036141,322 96.3142857,322 Z M2.31428565,322 L78.1515568,322 C79.4297015,322 80.4658425,323.036141 80.4658425,324.314286 L80.4658425,542.41901 C80.4658425,543.697154 79.4297015,544.733295 78.1515568,544.733295 L2.31428565,544.733295 C1.03614098,544.733295 -5.67039518e-13,543.697154 -5.83089133e-13,542.41901 L-5.82645043e-13,324.314286 C-5.82801571e-13,323.036141 1.03614098,322 2.31428565,322 Z M109.314286,351 C108.036141,351 107,352.036141 107,353.314286 L107,373.665149 C107,374.943294 108.036141,375.979435 109.314286,375.979435 L184.149021,375.979435 C185.427165,375.979435 186.463306,374.943294 186.463306,373.665149 L186.463306,353.314286 C186.463306,352.036141 185.427165,351 184.149021,351 L109.314286,351 Z M109.314286,386 C108.036141,386 107,387.036141 107,388.314286 L107,412.828388 C107,414.106533 108.036141,415.142674 109.314286,415.142674 L184.149021,415.142674 C185.427165,415.142674 186.463306,414.106533 186.463306,412.828388 L186.463306,388.314286 C186.463306,387.036141 185.427165,386 184.149021,386 L109.314286,386 Z M179.182279,340.326478 C181.492088,340.326478 183.364559,338.462533 183.364559,336.163239 C183.364559,333.863946 181.492088,332 179.182279,332 C176.87247,332 175,333.863946 175,336.163239 C175,338.462533 176.87247,340.326478 179.182279,340.326478 Z" id="Combined-Shape"></path>
                    <path d="M0.37109375,188.919774 C0.73611885,189.718064 1.54172882,190.272727 2.47688728,190.272727 L180.612544,190.272727 C181.890688,190.272727 182.926829,189.236586 182.926829,187.958442 L182.926829,29.4961038 C182.926829,28.2179592 181.890688,27.1818182 180.612544,27.1818182 L2.47688728,27.1818182 C1.54172882,27.1818182 0.73611885,27.7364812 0.37109375,28.534771 L0.37109375,2.31428565 C0.37109375,1.03614098 1.40723473,-9.02598572e-13 2.6853794,-9.02833364e-13 L205.685714,-9.09494702e-13 C206.963859,-9.2562258e-13 208,1.03614098 208,2.31428565 L208,210.958442 C208,212.236586 206.963859,213.272727 205.685714,213.272727 L113.97561,213.272727 L113.97561,236.272727 L195.23856,236.272727 C196.516705,236.272727 197.552846,237.308868 197.552846,238.587013 L197.552846,250.685714 C197.552846,251.963859 196.516705,253 195.23856,253 L2.31428565,253 C1.03614098,253 -3.63002572e-12,251.963859 -3.63131747e-12,250.685714 L-3.63797881e-12,238.587013 C-3.63813533e-12,237.308868 1.03614098,236.272727 2.31428565,236.272727 L42.9349593,236.272727 L42.9349593,213.272727 L2.6853794,213.272727 C1.40723473,213.272727 0.37109375,212.236586 0.37109375,210.958442 L0.37109375,188.919774 Z" id="Combined-Shape"></path>
                    <path d="M229.314286,226 L272.685714,226 C273.963859,226 275,227.036141 275,228.314286 L275,253 L227,253 L227,228.314286 C227,227.036141 228.036141,226 229.314286,226 Z" id="Rectangle-19-Copy-5"></path>
                </g>
                <path d="M0,0 L33.3923314,0 C36.7060399,-6.08718376e-16 39.3923314,2.6862915 39.3923314,6 L39.3923314,21.707381 C39.3923314,25.0210895 36.7060399,27.707381 33.3923314,27.707381 L0,27.707381 L0,0 Z" id="brick"></path>
                <rect id="brick" x="390" y="603" width="64.7711842" height="27.707381" rx="6"></rect>
                <rect id="brick" x="56" y="41" width="57" height="28" rx="6"></rect>
                <rect id="brick" x="439" y="649" width="46" height="28" rx="6"></rect>
            </g>
        </g>
    </g>
</svg>