<?xml version="1.0" encoding="UTF-8"?>
<svg width="59px" height="53px" viewBox="0 0 59 53" version="1.1" xmlns="http://www.w3.org/2000/svg" xmlns:xlink="http://www.w3.org/1999/xlink">
    <!-- Generator: sketchtool 57.1 (101010) - https://sketch.com -->
    <title>E2D4A4E7-D2A0-4353-84AC-3F4E7A12A712</title>
    <desc>Created with sketchtool.</desc>
    <g id="Reseller-hosting---hero" stroke="none" stroke-width="1" fill="none" fill-rule="evenodd">
        <g id="XL-HG-Reseller-hosting" transform="translate(-405.000000, -417.000000)" fill="#316690">
            <g id="xl_icons-copy" transform="translate(366.000000, 417.000000)">
                <g id="cash-register" transform="translate(39.000000, 0.000000)">
                    <rect id="Rectangle-path" x="36.263" y="6.84002857" width="1.5" height="6.75119048"></rect>
                    <path d="M57.911,52.7102667 L0.911,52.7102667 C0.4965,52.7102667 0.161,52.3710667 0.161,51.9531238 L0.161,42.3626476 C0.161,41.9442 0.4965,41.6055048 0.911,41.6055048 L57.911,41.6055048 C58.325,41.6055048 58.661,41.9442 58.661,42.3626476 L58.661,51.9531238 C58.661,52.3715714 58.325,52.7102667 57.911,52.7102667 L57.911,52.7102667 Z M1.661,51.195981 L57.161,51.195981 L57.161,43.1197905 L1.661,43.1197905 L1.661,51.195981 L1.661,51.195981 Z" id="Shape"></path>
                    <path d="M57.911,43.1197905 L0.911,43.1197905 C0.638,43.1197905 0.3865,42.9698762 0.2545,42.7291048 C0.1225,42.4878286 0.1305,42.1935524 0.276,41.9603524 L9.776,26.6913048 C9.913,26.4707238 10.153,26.3369619 10.411,26.3369619 L48.411,26.3369619 C48.669,26.3369619 48.909,26.4707238 49.0465,26.6913048 L58.5465,41.9603524 C58.6915,42.1935524 58.7,42.4883333 58.5675,42.7291048 C58.4355,42.970381 58.184,43.1197905 57.911,43.1197905 L57.911,43.1197905 Z M2.268,41.6055048 L56.5545,41.6055048 L47.997,27.8507429 L10.826,27.8507429 L2.268,41.6055048 L2.268,41.6055048 Z" id="Shape"></path>
                    <path d="M44.6145,23.9388381 L29.4115,23.9388381 C28.997,23.9388381 28.6615,23.5996381 28.6615,23.1816952 L28.6615,17.5031238 C28.6615,17.0846762 28.997,16.745981 29.4115,16.745981 L44.6145,16.745981 C45.0285,16.745981 45.3645,17.0846762 45.3645,17.5031238 L45.3645,23.1816952 C45.3645,23.6001429 45.0285,23.9388381 44.6145,23.9388381 L44.6145,23.9388381 Z M30.161,22.4245524 L43.864,22.4245524 L43.864,18.2602667 L30.161,18.2602667 L30.161,22.4245524 L30.161,22.4245524 Z" id="Shape"></path>
                    <rect id="Rectangle-path" x="14.223" y="22.4245524" width="11.375" height="1.51428571"></rect>
                    <path d="M23.406,23.9388381 L16.5735,23.9388381 C16.159,23.9388381 15.8235,23.5996381 15.8235,23.1816952 L15.8235,5.01026667 C15.8235,4.59181905 16.159,4.25312381 16.5735,4.25312381 L23.406,4.25312381 C23.8205,4.25312381 24.156,4.59181905 24.156,5.01026667 L24.156,23.1816952 C24.156,23.6001429 23.8205,23.9388381 23.406,23.9388381 L23.406,23.9388381 Z M17.3235,22.4245524 L22.656,22.4245524 L22.656,5.76740952 L17.3235,5.76740952 L17.3235,22.4245524 L17.3235,22.4245524 Z" id="Shape"></path>
                    <path d="M48.411,27.8507429 L10.411,27.8507429 C9.9965,27.8507429 9.661,27.5115429 9.661,27.0936 L9.661,13.591219 C9.661,13.1727714 9.9965,12.8340762 10.411,12.8340762 L16.5735,12.8340762 C16.988,12.8340762 17.3235,13.1727714 17.3235,13.591219 L17.3235,22.4245524 L22.656,22.4245524 L22.656,13.591219 C22.656,13.1727714 22.9915,12.8340762 23.406,12.8340762 L48.411,12.8340762 C48.825,12.8340762 49.161,13.1727714 49.161,13.591219 L49.161,27.0936 C49.161,27.5120476 48.825,27.8507429 48.411,27.8507429 L48.411,27.8507429 Z M11.161,26.3364571 L47.661,26.3364571 L47.661,14.3483619 L24.156,14.3483619 L24.156,23.1816952 C24.156,23.5996381 23.8205,23.9388381 23.406,23.9388381 L16.5735,23.9388381 C16.159,23.9388381 15.8235,23.5996381 15.8235,23.1816952 L15.8235,14.3483619 L11.161,14.3483619 L11.161,26.3364571 L11.161,26.3364571 Z" id="Shape"></path>
                    <rect id="Rectangle-path" x="18.7395" y="7.66026667" width="2.3745" height="1.51428571"></rect>
                    <rect id="Rectangle-path" x="18.7395" y="10.8150286" width="2.3745" height="1.51428571"></rect>
                    <rect id="Rectangle-path" x="18.7395" y="13.9697905" width="2.3745" height="1.51428571"></rect>
                    <polygon id="Rectangle-path" points="17.2395 46.4007429 41.0735 46.4007429 41.0735 47.9150286 17.2395 47.9150286"></polygon>
                    <path d="M43.488,31.9302286 C43.2885,31.9302286 43.0985,31.8494667 42.958,31.7081333 C42.8175,31.5668 42.738,31.3749905 42.738,31.1730857 C42.738,30.971181 42.818,30.7793714 42.958,30.6380381 C43.233,30.3553714 43.738,30.3553714 44.018,30.6380381 C44.158,30.7793714 44.2375,30.9762286 44.2375,31.1730857 C44.2375,31.3749905 44.158,31.5668 44.018,31.7081333 C43.878,31.8494667 43.683,31.9302286 43.488,31.9302286 L43.488,31.9302286 Z" id="Shape"></path>
                    <path d="M38.0935,31.1730857 C38.0935,30.7541333 38.4285,30.4159429 38.8435,30.4159429 L38.8435,30.4159429 C39.258,30.4159429 39.5935,30.7541333 39.5935,31.1730857 L39.5935,31.1730857 C39.5935,31.5920381 39.258,31.9302286 38.8435,31.9302286 L38.8435,31.9302286 C38.428,31.9302286 38.0935,31.5920381 38.0935,31.1730857 L38.0935,31.1730857 Z M33.453,31.1730857 C33.453,30.7541333 33.788,30.4159429 34.203,30.4159429 L34.203,30.4159429 C34.618,30.4159429 34.953,30.7541333 34.953,31.1730857 L34.953,31.1730857 C34.953,31.5920381 34.618,31.9302286 34.203,31.9302286 L34.203,31.9302286 C33.788,31.9302286 33.453,31.5920381 33.453,31.1730857 L33.453,31.1730857 Z M28.813,31.1730857 C28.813,30.7541333 29.148,30.4159429 29.563,30.4159429 L29.563,30.4159429 C29.978,30.4159429 30.313,30.7541333 30.313,31.1730857 L30.313,31.1730857 C30.313,31.5920381 29.978,31.9302286 29.563,31.9302286 L29.563,31.9302286 C29.148,31.9302286 28.813,31.5920381 28.813,31.1730857 L28.813,31.1730857 Z M24.173,31.1730857 C24.173,30.7541333 24.508,30.4159429 24.923,30.4159429 L24.923,30.4159429 C25.338,30.4159429 25.673,30.7541333 25.673,31.1730857 L25.673,31.1730857 C25.673,31.5920381 25.338,31.9302286 24.923,31.9302286 L24.923,31.9302286 C24.508,31.9302286 24.173,31.5920381 24.173,31.1730857 L24.173,31.1730857 Z M19.533,31.1730857 C19.533,30.7541333 19.868,30.4159429 20.283,30.4159429 L20.283,30.4159429 C20.698,30.4159429 21.033,30.7541333 21.033,31.1730857 L21.033,31.1730857 C21.033,31.5920381 20.698,31.9302286 20.283,31.9302286 L20.283,31.9302286 C19.868,31.9302286 19.533,31.5920381 19.533,31.1730857 L19.533,31.1730857 Z" id="Shape"></path>
                    <path d="M15.643,31.9302286 C15.443,31.9302286 15.253,31.8494667 15.113,31.7081333 C14.973,31.5668 14.893,31.3749905 14.893,31.1730857 C14.893,30.971181 14.973,30.7793714 15.113,30.6380381 C15.393,30.3553714 15.893,30.3553714 16.173,30.6380381 C16.313,30.7793714 16.393,30.9762286 16.393,31.1730857 C16.393,31.3749905 16.313,31.5668 16.173,31.7081333 C16.033,31.8494667 15.838,31.9302286 15.643,31.9302286 L15.643,31.9302286 Z" id="Shape"></path>
                    <path d="M14.183,35.5039429 C13.988,35.5039429 13.793,35.423181 13.653,35.2818476 C13.518,35.1405143 13.433,34.9487048 13.433,34.7468 C13.433,34.5499429 13.518,34.3530857 13.653,34.2117524 C13.933,33.9341333 14.433,33.9341333 14.718,34.2117524 C14.858,34.3530857 14.938,34.5499429 14.938,34.7468 C14.938,34.9487048 14.858,35.1405143 14.718,35.2818476 C14.578,35.423181 14.383,35.5039429 14.183,35.5039429 L14.183,35.5039429 Z" id="Shape"></path>
                    <path d="M44.038,34.7468 C44.038,34.3278476 44.373,33.9896571 44.788,33.9896571 L44.788,33.9896571 C45.203,33.9896571 45.538,34.3278476 45.538,34.7468 L45.538,34.7468 C45.538,35.1657524 45.203,35.5039429 44.788,35.5039429 L44.788,35.5039429 C44.373,35.5039429 44.038,35.1657524 44.038,34.7468 L44.038,34.7468 Z M38.938,34.7468 C38.938,34.3278476 39.273,33.9896571 39.688,33.9896571 L39.688,33.9896571 C40.103,33.9896571 40.438,34.3278476 40.438,34.7468 L40.438,34.7468 C40.438,35.1657524 40.103,35.5039429 39.688,35.5039429 L39.688,35.5039429 C39.273,35.5039429 38.938,35.1657524 38.938,34.7468 L38.938,34.7468 Z M33.838,34.7468 C33.838,34.3278476 34.173,33.9896571 34.588,33.9896571 L34.588,33.9896571 C35.003,33.9896571 35.338,34.3278476 35.338,34.7468 L35.338,34.7468 C35.338,35.1657524 35.003,35.5039429 34.588,35.5039429 L34.588,35.5039429 C34.173,35.5039429 33.838,35.1657524 33.838,34.7468 L33.838,34.7468 Z M28.738,34.7468 C28.738,34.3278476 29.073,33.9896571 29.488,33.9896571 L29.488,33.9896571 C29.903,33.9896571 30.238,34.3278476 30.238,34.7468 L30.238,34.7468 C30.238,35.1657524 29.903,35.5039429 29.488,35.5039429 L29.488,35.5039429 C29.073,35.5039429 28.738,35.1657524 28.738,34.7468 L28.738,34.7468 Z M23.638,34.7468 C23.638,34.3278476 23.973,33.9896571 24.388,33.9896571 L24.388,33.9896571 C24.798,33.9896571 25.138,34.3278476 25.138,34.7468 L25.138,34.7468 C25.138,35.1657524 24.798,35.5039429 24.388,35.5039429 L24.388,35.5039429 C23.973,35.5039429 23.638,35.1657524 23.638,34.7468 L23.638,34.7468 Z M18.533,34.7468 C18.533,34.3278476 18.873,33.9896571 19.288,33.9896571 L19.288,33.9896571 C19.698,33.9896571 20.038,34.3278476 20.038,34.7468 L20.038,34.7468 C20.038,35.1657524 19.698,35.5039429 19.288,35.5039429 L19.288,35.5039429 C18.873,35.5039429 18.533,35.1657524 18.533,34.7468 L18.533,34.7468 Z" id="Shape"></path>
                    <path d="M44.788,35.5039429 C44.593,35.5039429 44.398,35.423181 44.2575,35.2868952 C44.118,35.1455619 44.038,34.9487048 44.038,34.7468 C44.038,34.5499429 44.118,34.3530857 44.2575,34.2117524 C44.538,33.9341333 45.0425,33.9290857 45.3175,34.2117524 C45.4575,34.3530857 45.5375,34.5499429 45.5375,34.7468 C45.5375,34.9487048 45.4575,35.1455619 45.3175,35.2868952 C45.178,35.423181 44.988,35.5039429 44.788,35.5039429 L44.788,35.5039429 Z" id="Shape"></path>
                    <path d="M11.673,39.0827048 C11.473,39.0827048 11.283,39.0019429 11.143,38.8606095 C11.003,38.7192762 10.923,38.522419 10.923,38.3255619 C10.923,38.1236571 11.003,37.9318476 11.138,37.7905143 C11.418,37.5078476 11.923,37.5078476 12.203,37.7905143 C12.343,37.9318476 12.423,38.1287048 12.423,38.3255619 C12.423,38.522419 12.343,38.7192762 12.203,38.8606095 C12.063,39.0019429 11.868,39.0827048 11.673,39.0827048 L11.673,39.0827048 Z" id="Shape"></path>
                    <path d="M46.398,38.3255619 C46.398,37.9066095 46.733,37.568419 47.148,37.568419 L47.148,37.568419 C47.563,37.568419 47.898,37.9066095 47.898,38.3255619 L47.898,38.3255619 C47.898,38.7445143 47.563,39.0827048 47.148,39.0827048 L47.148,39.0827048 C46.733,39.0827048 46.398,38.7445143 46.398,38.3255619 L46.398,38.3255619 Z M41.333,38.3255619 C41.333,37.9066095 41.668,37.568419 42.078,37.568419 L42.078,37.568419 C42.498,37.568419 42.833,37.9066095 42.833,38.3255619 L42.833,38.3255619 C42.833,38.7445143 42.498,39.0827048 42.078,39.0827048 L42.078,39.0827048 C41.668,39.0827048 41.333,38.7445143 41.333,38.3255619 L41.333,38.3255619 Z M36.263,38.3255619 C36.263,37.9066095 36.598,37.568419 37.013,37.568419 L37.013,37.568419 C37.428,37.568419 37.763,37.9066095 37.763,38.3255619 L37.763,38.3255619 C37.763,38.7445143 37.428,39.0827048 37.013,39.0827048 L37.013,39.0827048 C36.598,39.0827048 36.263,38.7445143 36.263,38.3255619 L36.263,38.3255619 Z M31.193,38.3255619 C31.193,37.9066095 31.528,37.568419 31.943,37.568419 L31.943,37.568419 C32.358,37.568419 32.693,37.9066095 32.693,38.3255619 L32.693,38.3255619 C32.693,38.7445143 32.358,39.0827048 31.943,39.0827048 L31.943,39.0827048 C31.528,39.0827048 31.193,38.7445143 31.193,38.3255619 L31.193,38.3255619 Z M26.128,38.3255619 C26.128,37.9066095 26.463,37.568419 26.878,37.568419 L26.878,37.568419 C27.293,37.568419 27.628,37.9066095 27.628,38.3255619 L27.628,38.3255619 C27.628,38.7445143 27.293,39.0827048 26.878,39.0827048 L26.878,39.0827048 C26.463,39.0827048 26.128,38.7445143 26.128,38.3255619 L26.128,38.3255619 Z M21.058,38.3255619 C21.058,37.9066095 21.393,37.568419 21.808,37.568419 L21.808,37.568419 C22.223,37.568419 22.558,37.9066095 22.558,38.3255619 L22.558,38.3255619 C22.558,38.7445143 22.223,39.0827048 21.808,39.0827048 L21.808,39.0827048 C21.393,39.0827048 21.058,38.7445143 21.058,38.3255619 L21.058,38.3255619 Z M15.988,38.3255619 C15.988,37.9066095 16.323,37.568419 16.738,37.568419 L16.738,37.568419 C17.153,37.568419 17.488,37.9066095 17.488,38.3255619 L17.488,38.3255619 C17.488,38.7445143 17.153,39.0827048 16.738,39.0827048 L16.738,39.0827048 C16.323,39.0827048 15.988,38.7445143 15.988,38.3255619 L15.988,38.3255619 Z" id="Shape"></path>
                    <path d="M47.148,39.0827048 C46.953,39.0827048 46.758,39.0019429 46.618,38.8606095 C46.478,38.7192762 46.398,38.522419 46.398,38.3255619 C46.398,38.1236571 46.478,37.9268 46.618,37.7905143 C46.898,37.5078476 47.4025,37.5078476 47.678,37.7905143 C47.8175,37.9268 47.9025,38.1236571 47.9025,38.3255619 C47.9025,38.522419 47.8175,38.7192762 47.678,38.8606095 C47.538,39.0019429 47.348,39.0827048 47.148,39.0827048 L47.148,39.0827048 Z" id="Shape"></path>
                    <path d="M44.6145,7.59717143 L29.4115,7.59717143 C28.997,7.59717143 28.6615,7.25797143 28.6615,6.84002857 L28.6615,1.16145714 C28.6615,0.743009524 28.997,0.404314286 29.4115,0.404314286 L44.6145,0.404314286 C45.0285,0.404314286 45.3645,0.743009524 45.3645,1.16145714 L45.3645,6.84002857 C45.3645,7.25847619 45.0285,7.59717143 44.6145,7.59717143 L44.6145,7.59717143 Z M30.161,6.08288571 L43.864,6.08288571 L43.864,1.9186 L30.161,1.9186 L30.161,6.08288571 L30.161,6.08288571 Z" id="Shape"></path>
                </g>
            </g>
        </g>
    </g>
</svg>