<?xml version="1.0" encoding="UTF-8"?>
<svg width="275px" height="162px" viewBox="0 0 275 162" version="1.1" xmlns="http://www.w3.org/2000/svg" xmlns:xlink="http://www.w3.org/1999/xlink">
    <!-- Generator: sketchtool 57.1 (101010) - https://sketch.com -->
    <title>B1A6D1A9-EAE8-478A-9168-2C1427F61FD5</title>
    <desc>Created with sketchtool.</desc>
    <g id="Reseller-hosting---hero" stroke="none" stroke-width="1" fill="none" fill-rule="evenodd">
        <g id="XL-HG-Reseller-hosting" transform="translate(-1222.000000, -256.000000)">
            <g id="xl_corner-graphic_reseller-copy" transform="translate(1222.000000, 256.000000)">
                <g id="money-copy" transform="translate(68.779070, 89.144737) scale(-1, 1) translate(-68.779070, -89.144737) translate(25.279070, 46.144737)">
                    <polygon id="Rectangle-18" fill="#316690" points="5.82967449e-13 42.2217792 82.185452 43.4310336 82.185452 66.0229813 85.7411428 66.0229813 85.7411428 85.7553068 0 85.7553068"></polygon>
                    <polygon id="Rectangle-18" fill="#174267" points="81.4900302 42.2217792 81.4900302 46.344551 24.8798378 45.4528653"></polygon>
                    <path d="M8.96507632,38.8850701 C23.2178371,36.6320824 33.7661492,35.3127587 40.6100127,34.927099 C47.4538762,34.5414392 60.3180983,34.5414392 79.2026789,34.927099 L76.6212425,44.7496192 C40.0800411,43.9860627 17.5279857,44.292529 8.96507632,45.6690179 L8.96507632,38.8850701 Z" id="Rectangle-18-Copy" fill="#316690"></path>
                    <polygon id="Rectangle-18-Copy" fill="#174267" points="80.5935225 35.3273019 80.5935225 43.0298629 76.4518202 44.9795702 76.4518202 38.6234991 39.5636359 35.3273019"></polygon>
                    <path d="M79.8981007,29.236832 L44.4315885,37.0728794 L9.12266555,39.4309702 C10.225391,35.6951529 12.2279246,33.018715 15.1302666,31.4016566 C28.0325647,29.5413973 49.6218428,28.8197891 79.8981007,29.236832 Z" id="Rectangle-18-Copy" fill="#174267"></path>
                    <polygon id="Rectangle-18-Copy-2" fill="#316690" points="10.1548341 18.0911085 84.7704718 18.0911085 84.7704718 36.0167496 10.1548341 36.0167496"></polygon>
                    <polygon id="Rectangle-18-Copy-2" fill="#174267" points="53.5809935 18.0911085 84.1795531 18.0911085 84.1795531 24.2961381"></polygon>
                    <path d="M52.1901499,17.8531737 L86.9612403,21.5383472 C85.1159616,17.7215612 83.0180281,15.2430669 80.6674399,14.1028642 C74.9483863,13.496737 65.4559563,14.7468401 52.1901499,17.8531737 Z" id="Path-5" fill="#FFFFFF"></path>
                    <polygon id="Path-5-Copy" fill="#174267" transform="translate(36.109363, 22.555920) scale(-1, 1) translate(-36.109363, -22.555920) " points="11.0513417 24.4639859 56.2234197 27.7101792 61.167385 17.4016608 58.795266 17.4016608 56.2234197 24.4639859"></polygon>
                    <polygon id="Rectangle-18-Copy-3" fill="#316690" points="7.31310751 0.56994346 79.6902761 0.56994346 79.6902761 18.4036582 7.31310751 18.4036582"></polygon>
                    <path d="M79.7324383,11.9565011 L79.7324383,10.0893038 C75.1807554,9.82110927 66.215679,9.82110927 52.8372093,10.0893038 C61.5733286,10.4414181 70.5384049,11.0638172 79.7324383,11.9565011 Z" id="Path-2" fill="#174267"></path>
                    <path d="M81.9339887,58.1012379 L81.9339887,56.2340406 C77.3823058,55.9658461 68.4172294,55.9658461 55.0387597,56.2340406 C63.774879,56.586155 72.7399553,57.2085541 81.9339887,58.1012379 Z" id="Path-2-Copy-5" fill="#174267"></path>
                    <path d="M85.2363142,70.0438244 L85.2363142,66.3219912 C76.7547974,65.7874064 60.0494497,65.7874064 35.120271,66.3219912 C51.3989847,67.023851 68.1043324,68.2644621 85.2363142,70.0438244 Z" id="Path-2-Copy-4" fill="#174267"></path>
                    <path d="M31.913996,20.1594517 L31.913996,18.0911085 L13.833029,18.0911085 C18.1645201,18.5666542 24.1915091,19.2561019 31.913996,20.1594517 Z" id="Path-2-Copy-3" fill="#174267" transform="translate(22.873512, 19.125280) scale(-1, 1) translate(-22.873512, -19.125280) "></path>
                    <path d="M43.7361667,46.3584656 L43.7361667,45.0900517 C29.509809,44.3229471 19.5420964,44.1075626 13.833029,44.4438984 L43.7361667,46.3584656 Z" id="Path-2" fill="#174267" transform="translate(28.784598, 45.324294) scale(-1, 1) translate(-28.784598, -45.324294) "></path>
                </g>
                <path d="M181.705248,99.688773 C199.253106,111.878868 221.488326,101.30383 222.051991,108.769737 C226.171681,103.339558 216.19281,93.5748844 224.395669,88.1298359 C232.598527,82.6847875 239.063426,70.3188829 238.863712,63.4471437 C230.946808,54.3532176 221.048862,48.5857486 209.169874,46.1447368 C206.769813,56.9640696 201.902285,65.1544052 194.567292,70.7157438 C186.073476,77.1556929 180.927438,86.7870101 181.705248,99.688773 Z" id="Path-3" fill="#174267" transform="translate(210.248062, 77.457237) rotate(-18.000000) translate(-210.248062, -77.457237) "></path>
                <path d="M179.426357,89.578014 C186.919944,66.1713238 228.779377,68.1184211 218.166589,40.6513158 C239.146008,40.6513158 245.322933,59.4382419 252.077519,66.9287001 C252.077519,84.817886 237.494713,89.1625547 222.638742,95.5855263 C219.205202,89.7374418 185.445864,89.578014 179.426357,89.578014 Z" id="Path-3" fill="#316690"></path>
                <g id="money" transform="translate(90.263566, 21.973684)">
                    <polygon id="Rectangle-18" fill="#B1D0E9" points="6.48119974 63.8757226 96.2921104 65.4994123 96.2921104 108.694631 6.4838298 106.616099 3.52807049 106.547691 3.52807049 86.6630088 6.48119974 86.6630088"></polygon>
                    <path d="M95.3662247,64.7736856 L95.3662247,71.0206348 C80.7757532,80.5426892 72.9057249,85.5414087 71.75614,86.0167932 C53.5912559,93.5284646 61.1271525,94.9145647 62.4005847,89.3464472 C64.265179,81.1934571 69.7809177,74.6290641 78.9478008,69.6532682 L48.1460552,67.0880234 L95.3662247,64.7736856 Z" id="Rectangle-18" fill="#316690"></path>
                    <path d="M0,59.3954573 C18.9761479,56.3703261 33.0201871,54.598844 42.1321175,54.0810111 C51.244048,53.5631781 68.3714933,53.5631781 93.5144534,54.0810111 L90.0775249,67.2699033 C41.4265125,66.2446609 11.4006709,66.6561592 0,68.5043981 L0,59.3954573 Z" id="Rectangle-18-Copy" fill="#B1D0E9"></path>
                    <polygon id="Rectangle-18-Copy" fill="#316690" points="95.3662247 54.6183715 95.3662247 64.9607525 89.8519558 67.578663 89.8519558 59.0442407 40.7389698 54.6183715"></polygon>
                    <path d="M94.4403391,46.4405771 L51.1142035,53.3066796 L0,60.1727821 C1.6080467,55.1270703 4.34416133,51.5185862 8.20834389,49.34733 C25.3864837,46.849523 54.1304821,45.8806054 94.4403391,46.4405771 Z" id="Rectangle-18-Copy" fill="#FFFFFF"></path>
                    <polygon id="Rectangle-18-Copy-2" fill="#B1D0E9" points="2.77765703 31.4749937 95.3662247 31.4749937 95.3662247 55.5441066 2.77765703 55.5441066"></polygon>
                    <polygon id="Rectangle-18-Copy-2" fill="#316690" points="54.6272549 31.4749937 95.3662247 31.4749937 95.3662247 39.8066097"></polygon>
                    <path d="M52.7754836,31.1555139 L99.0697674,36.1036693 C96.6129605,30.9787952 93.8197686,27.6508718 90.6901917,26.1198992 C83.0758349,25.3060401 70.4375988,26.9845784 52.7754836,31.1555139 Z" id="Path-5" fill="#FFFFFF"></path>
                    <polygon id="Path-5-Copy" fill="#FFFFFF" transform="translate(25.924799, 37.492272) scale(-1, 1) translate(-25.924799, -37.492272) " points="2.77765703 40.0319822 49.0719409 44.4352853 49.0719409 30.5492586 45.9136979 30.5492586 45.9136979 40.4240689"></polygon>
                    <polygon id="Rectangle-18-Copy-3" fill="#B1D0E9" points="2.77765703 16.663232 92.5885677 16.663232 92.5885677 31.4749937 2.77765703 31.4749937"></polygon>
                    <polygon id="Rectangle-18-Copy-4" fill="#316690" transform="translate(23.980341, 20.738859) scale(-1, 1) translate(-23.980341, -20.738859) " points="3.29075836 16.6053735 44.669923 16.6053735 44.669923 24.8723437"></polygon>
                    <path d="M0.267289845,16.7843276 L46.2942839,22.1489232 C43.8516618,16.5927361 41.074597,12.9847324 37.9630894,11.324912 C30.3926956,10.442558 17.8274291,12.2623632 0.267289845,16.7843276 Z" id="Path-5-Copy-2" fill="#FFFFFF" transform="translate(23.280787, 16.628872) scale(-1, 1) translate(-23.280787, -16.628872) "></path>
                    <polygon id="Rectangle-18-Copy-5" fill="#B1D0E9" points="3.70354271 0 93.5144534 0 93.5144534 16.663232 3.70354271 16.663232"></polygon>
                    <path d="M93.489202,14.8117618 L93.489202,12.304639 C89.2584469,11.9445289 80.9254758,11.9445289 68.4902887,12.304639 C76.6104459,12.7774299 84.943417,13.6131375 93.489202,14.8117618 Z" id="Path-2" fill="#316690"></path>
                    <path d="M30.6776788,81.8824685 L30.6776788,79.5010847 C27.2184377,78.9733226 19.1940952,78.9733226 6.60465116,79.5010847 C13.5586361,80.1629388 21.5829786,80.9567334 30.6776788,81.8824685 Z" id="Path-2-Copy" fill="#316690" transform="translate(18.641165, 80.493866) scale(-1, 1) translate(-18.641165, -80.493866) "></path>
                    <path d="M50.5224951,88.4745738 L50.5224951,86.09319 C43.7370607,85.5654279 27.9970042,85.5654279 3.30232558,86.09319 C16.9428345,86.7550441 32.682891,87.5488386 50.5224951,88.4745738 Z" id="Path-2-Copy-2" fill="#316690" transform="translate(26.912410, 87.085971) scale(-1, 1) translate(-26.912410, -87.085971) "></path>
                    <path d="M30.5542273,34.2521991 L30.5542273,31.4749937 L6.48119974,31.4749937 C12.2481538,32.1135183 20.2724963,33.0392534 30.5542273,34.2521991 Z" id="Path-2-Copy-3" fill="#316690" transform="translate(18.517714, 32.863596) scale(-1, 1) translate(-18.517714, -32.863596) "></path>
                    <path d="M46.2942839,69.4301332 L46.2942839,67.7270088 C27.3532891,66.6970022 14.082261,66.4078013 6.48119974,66.859406 L46.2942839,69.4301332 Z" id="Path-2" fill="#316690" transform="translate(26.387742, 68.041531) scale(-1, 1) translate(-26.387742, -68.041531) "></path>
                </g>
                <polygon id="Fill-1" fill="#B1D0E9" points="201.44186 21.9736842 200.040882 27.1674721 194.837209 28.5657895 200.040882 29.9641068 201.44186 35.1578947 202.842839 29.9641068 208.046512 28.5657895 202.842839 27.1674721"></polygon>
                <polygon id="Fill-1-Copy-3" fill="#FFFFFF" points="14.3100775 86.7960526 12.9090989 91.9898405 7.70542636 93.3881579 12.9090989 94.7864753 14.3100775 99.9802632 15.7110561 94.7864753 20.9147287 93.3881579 15.7110561 91.9898405"></polygon>
                <polygon id="Fill-1-Copy-2" fill="#B1D0E9" points="188.782946 3.29605263 187.732212 7.19139355 183.829457 8.24013158 187.732212 9.28886961 188.782946 13.1842105 189.83368 9.28886961 193.736434 8.24013158 189.83368 7.19139355"></polygon>
                <polygon id="Fill-1-Copy-4" fill="#B1D0E9" points="4.95348837 72.5131579 3.90275442 76.4084988 0 77.4572368 3.90275442 78.5059749 4.95348837 82.4013158 6.00422233 78.5059749 9.90697674 77.4572368 6.00422233 76.4084988"></polygon>
                <polygon id="Fill-1-Copy" fill="#FFFFFF" points="214.100775 0 212.116056 7.35786618 204.744186 9.33881579 212.116056 11.3197654 214.100775 18.6776316 216.085495 11.3197654 223.457364 9.33881579 216.085495 7.35786618"></polygon>
                <g id="dollar" transform="translate(212.858076, 105.293011) rotate(246.000000) translate(-212.858076, -105.293011) translate(171.858076, 46.793011)">
                    <path d="M20.2954974,116.613696 L23.8237576,116.471441 L81.9880143,114.126322 C67.8155603,98.9042712 63.7203459,81.8862753 69.7023711,63.0723344 C74.7436854,47.2170031 73.6662302,23.1876026 59.4619255,0.713025645 L0.592319487,12.0317729 C10.0860025,28.2938678 14.1416794,40.0541981 7.31531141,64.9202997 C2.89731682,81.0135286 7.22404548,98.2446608 20.2954974,116.613696 Z" id="Path-4" fill="#B1D0E9"></path>
                    <path d="M27.1868521,109.065835 C35.3892633,110.161483 51.9044226,109.071249 60.6589985,108.430859 C58.7588148,105.233647 61.5435042,101.286313 65.153085,102.040098 C59.5557786,92.5242069 59.6309766,77.0619172 63.5137622,63.7329131 C67.7391385,49.2278483 66.6735055,28.2273608 58.2643317,12.5502177 C57.2067387,14.5520672 51.7302964,17.2266322 52.1963116,12.5339851 C44.0840527,13.1026037 35.0791668,17.7299609 20.0385989,18.1037619 C20.6013864,21.6572058 14.9613002,19.1569287 11.1070137,18.1071828 C20.1476443,34.6152253 17.7553895,52.287125 13.6365485,64.9311284 C9.00724726,79.1421408 13.1694907,94.8494549 21.5578032,106.555358 C24.4055584,103.934793 27.9291863,106.524686 27.1868521,109.065835 Z" id="Path-4" fill="#FFFFFF"></path>
                    <ellipse id="Oval-2-Copy-2" fill="#B1D0E9" cx="38.6870168" cy="62.5275394" rx="15.9089995" ry="15.9360622"></ellipse>
                    <ellipse id="Oval-2-Copy-3" fill="#B1D0E9" cx="40.9596109" cy="93.655646" rx="8.45386738" ry="8.46824822"></ellipse>
                    <ellipse id="Oval-2-Copy-4" fill="#B1D0E9" cx="38.9702581" cy="31.8872473" rx="8.45386738" ry="8.46824822"></ellipse>
                    <path d="M43.6549252,67.0659181 C46.0035673,65.8845724 47.1778883,57.6151527 42.4806042,57.6151527 C37.78332,57.6151527 40.1319621,67.0659181 35.434678,67.0659181 C30.7373938,67.0659181 30.7373938,57.6151527 35.434678,56.433807" id="Path-7" stroke="#FFFFFF" stroke-width="3.465"></path>
                    <path d="M28.0038056,61.7498625 L31.9117148,61.7498625" id="Path-8" stroke="#FFFFFF" stroke-width="3.465"></path>
                    <path d="M45.709987,61.7498625 L49.9891786,61.7498625" id="Path-9" stroke="#FFFFFF" stroke-width="3.465"></path>
                </g>
            </g>
        </g>
    </g>
</svg>