<?xml version="1.0" encoding="UTF-8"?>
<svg width="54px" height="50px" viewBox="0 0 54 50" version="1.1" xmlns="http://www.w3.org/2000/svg" xmlns:xlink="http://www.w3.org/1999/xlink">
    <!-- Generator: sketchtool 57.1 (101010) - https://sketch.com -->
    <title>B9850B9E-D8AC-4EC5-BE57-1A0575833F62</title>
    <desc>Created with sketchtool.</desc>
    <g id="Reseller-hosting---hero" stroke="none" stroke-width="1" fill="none" fill-rule="evenodd">
        <g id="XL-HG-Reseller-hosting" transform="translate(-1458.000000, -439.000000)" fill="#316690">
            <g id="xl_icons-copy" transform="translate(366.000000, 417.000000)">
                <g id="envelope-chart" transform="translate(1092.000000, 22.000000)">
                    <path d="M48.2990727,49.9752475 C48.1302,49.9752475 47.9628,49.9168317 47.8282909,49.8039604 L30.0691636,34.9217822 C29.9007818,34.7806931 29.8030909,34.5712871 29.8030909,34.350495 C29.8030909,34.129703 29.9002909,33.920297 30.0686727,33.779703 L47.8278,18.8930693 C48.0477273,18.7084158 48.3525818,18.669802 48.6112909,18.7915842 C48.8695091,18.9138614 49.0349455,19.1757426 49.0349455,19.4638614 L49.0349455,49.2331683 C49.0349455,49.5212871 48.87,49.7831683 48.6112909,49.9054455 C48.5116364,49.9519802 48.4051091,49.9752475 48.2990727,49.9752475 L48.2990727,49.9752475 Z M31.6916182,34.35 L47.5622182,47.65 L47.5622182,21.0460396 L31.6916182,34.35 L31.6916182,34.35 Z" id="Shape"></path>
                    <path d="M0.9504,49.9752475 C0.844363636,49.9752475 0.737836364,49.9519802 0.637690909,49.9049505 C0.379472727,49.7826733 0.214036364,49.5207921 0.214036364,49.2326733 L0.214036364,19.4589109 C0.214036364,19.1707921 0.378981818,18.9089109 0.637690909,18.7866337 C0.895909091,18.6638614 1.20174545,18.7034653 1.42118182,18.8876238 L19.1847273,33.769802 C19.3531091,33.9108911 19.4508,34.120297 19.4508,34.3405941 C19.4508,34.5608911 19.3536,34.7707921 19.1852182,34.9118812 L1.42167273,49.8034653 C1.28618182,49.9168317 1.11927273,49.9752475 0.9504,49.9752475 L0.9504,49.9752475 Z M1.68676364,21.0415842 L1.68676364,47.65 L17.5612909,34.3415842 L1.68676364,21.0415842 L1.68676364,21.0415842 Z" id="Shape"></path>
                    <path d="M6.56787273,25.1 L0.478636364,19.9772277 C0.310745455,19.8361386 0.214036364,19.6272277 0.214036364,19.4069307 C0.214036364,19.1866337 0.311236364,18.9777228 0.478636364,18.8366337 L6.56787273,13.7143564 L7.5114,14.8549505 L2.10010909,19.4069307 L7.5114,23.9594059 L6.56787273,25.1 L6.56787273,25.1 Z" id="Shape"></path>
                    <path d="M42.8013818,24.9935644 L41.8583455,23.8524752 L47.1483818,19.4069307 L41.8583455,14.9579208 L42.8018727,13.8173267 L48.7703455,18.8371287 C48.9382364,18.9782178 49.0349455,19.1871287 49.0349455,19.4074257 C49.0349455,19.6277228 48.9377455,19.8366337 48.7698545,19.9777228 L42.8013818,24.9935644 L42.8013818,24.9935644 Z" id="Shape"></path>
                    <path d="M14.148,8.69554455 L7.04012727,8.69554455 L7.04012727,7.21039604 L13.4116364,7.21039604 L13.4116364,0.784653465 L14.8843636,0.784653465 L14.8843636,7.9529703 C14.8843636,8.36336634 14.5544727,8.69554455 14.148,8.69554455 L14.148,8.69554455 Z" id="Shape"></path>
                    <path d="M24.6225273,40.0519802 C24.4551273,40.0519802 24.2872364,39.9945545 24.1512545,39.879703 L6.56885455,25.100495 C6.40096364,24.9594059 6.30376364,24.750495 6.30376364,24.530198 L6.30376364,7.95346535 C6.30376364,7.75643564 6.38132727,7.56782178 6.51927273,7.42821782 L13.6271455,0.25990099 C13.7650909,0.120792079 13.9526182,0.0425742574 14.148,0.0425742574 L42.3301091,0.0425742574 C42.7370727,0.0425742574 43.0664727,0.374752475 43.0664727,0.785148515 L43.0664727,24.4237624 C43.0664727,24.6440594 42.9692727,24.8529703 42.8013818,24.9940594 L25.0938,39.880198 C24.9573273,39.9945545 24.7899273,40.0519802 24.6225273,40.0519802 L24.6225273,40.0519802 Z M7.776,24.1821782 L24.6220364,38.3425743 L41.5932545,24.0752475 L41.5932545,1.52722772 L14.4523636,1.52722772 L7.77550909,8.26089109 L7.77550909,24.1821782 L7.776,24.1821782 Z" id="Shape"></path>
                    <path d="M48.2985818,49.9752475 L0.9504,49.9752475 C0.640145455,49.9752475 0.363272727,49.7792079 0.257727273,49.4851485 C0.152181818,49.1910891 0.241036364,48.8618812 0.479618182,48.6618812 L18.2431636,33.770297 L19.1847273,34.9123762 L2.98816364,48.4905941 L46.2603273,48.4905941 L30.0691636,34.9217822 C30.0465818,34.9029703 30.0254727,34.8826733 30.0053455,34.8613861 L30.5762727,34.3064356 L31.0102364,33.779703 L48.7693636,48.6618812 C49.0079455,48.8618812 49.0968,49.1910891 48.9912545,49.4856436 C48.8857091,49.780198 48.6088364,49.9752475 48.2985818,49.9752475 L48.2985818,49.9752475 Z" id="Shape"></path>
                    <path d="M9.95710909,27.0628713 L8.91589091,26.0128713 L17.7925091,17.0613861 C17.9304545,16.9222772 18.1179818,16.8440594 18.3133636,16.8440594 L18.3133636,16.8440594 C18.5087455,16.8440594 18.6957818,16.9222772 18.8342182,17.0613861 L22.5793636,20.8386139 L28.8477818,14.5173267 C29.1236727,14.2391089 29.6131091,14.2391089 29.889,14.5173267 L34.2796909,18.9450495 L51.5086364,1.57029703 L52.5498545,2.62029703 L34.8005455,20.519802 C34.5246545,20.7980198 34.0352182,20.7980198 33.7593273,20.519802 L29.3686364,16.0920792 L23.1002182,22.4133663 C22.9622727,22.5524752 22.7747455,22.6306931 22.5793636,22.6306931 L22.5793636,22.6306931 C22.3839818,22.6306931 22.1969455,22.5524752 22.0585091,22.4133663 L18.3133636,18.6361386 L9.95710909,27.0628713 L9.95710909,27.0628713 Z" id="Shape"></path>
                    <polygon id="Shape" points="51.7197273 5.96732673 51.7207091 2.40594059 48.1886182 2.40693069 49.6878545 0.895049505 53.2189636 0.895049505 53.2189636 4.45594059"></polygon>
                </g>
            </g>
        </g>
    </g>
</svg>