<?xml version="1.0" encoding="UTF-8"?>
<svg width="57px" height="50px" viewBox="0 0 57 50" version="1.1" xmlns="http://www.w3.org/2000/svg" xmlns:xlink="http://www.w3.org/1999/xlink">
    <!-- Generator: sketchtool 57.1 (101010) - https://sketch.com -->
    <title>38BA6C2D-191E-403F-B3DB-DACCABC493A0</title>
    <desc>Created with sketchtool.</desc>
    <g id="Reseller-hosting---hero" stroke="none" stroke-width="1" fill="none" fill-rule="evenodd">
        <g id="XL-HG-Reseller-hosting" transform="translate(-366.000000, -519.000000)" fill="#316690">
            <g id="xl_icons-copy" transform="translate(366.000000, 417.000000)">
                <g id="handshake" transform="translate(0.000000, 102.000000)">
                    <path d="M56.3739756,20.6730303 C56.0293612,20.3263636 55.4711702,20.3263636 55.1265558,20.6730303 L50.9737113,24.8506061 L49.9398681,24.8506061 L36.3402512,11.170303 L36.3402512,10.130303 L44.904401,1.51515152 C45.2493167,1.16848485 45.2493167,0.606969697 44.904401,0.26030303 C44.5597866,-0.0863636364 44.0015956,-0.0863636364 43.6569812,0.26030303 L34.8343706,9.13545455 C34.6689919,9.30181818 34.5759098,9.52727273 34.5759098,9.7630303 L34.5759098,11.5378788 C34.5759098,11.7736364 34.6689919,11.9990909 34.8343706,12.1654545 L35.0928314,12.4254545 L25.7532992,12.4254545 L25.752998,12.4254545 L21.7070924,12.4254545 L21.9655532,12.1654545 C22.1309319,11.9990909 22.224014,11.7736364 22.224014,11.5378788 L22.224014,9.7630303 C22.224014,9.52727273 22.1309319,9.30212121 21.9655532,9.13545455 L13.1429425,0.26030303 C12.7983281,-0.0863636364 12.2401372,-0.0863636364 11.8955228,0.26030303 C11.5509084,0.606969697 11.5509084,1.16848485 11.8955228,1.51515152 L20.4596726,10.130303 L20.4596726,11.170303 L6.86035695,24.8506061 L5.82651375,24.8506061 L1.67366924,20.6730303 C1.32905484,20.3263636 0.770863855,20.3263636 0.426249455,20.6730303 C0.0816350545,21.019697 0.0816350545,21.5815152 0.426249455,21.9278788 L4.83755476,26.3654545 C5.00293353,26.5318182 5.22735462,26.6254545 5.46141527,26.6254545 L7.22575665,26.6254545 C7.37095258,26.6254545 7.51042502,26.5854545 7.63664305,26.5184848 L10.7550419,29.6554545 L10.7550419,32.3178788 L11.7208057,33.2893939 C11.3954704,33.6675758 10.7550419,34.5345455 10.7550419,35.5006061 C10.7550419,37.4584848 12.3383402,39.0506061 14.2840259,39.0506061 C14.2840259,41.0084848 15.8673242,42.6006061 17.8130099,42.6006061 C17.8130099,44.5584848 19.3963082,46.1506061 21.3419939,46.1506061 C21.3419939,48.1084848 22.9252922,49.7006061 24.8709779,49.7006061 C25.8373441,49.7006061 26.7046036,49.0475758 27.0766305,48.7224242 C27.4486575,49.0475758 28.3156157,49.7006061 29.2822832,49.7006061 C30.8722087,49.7006061 32.2187353,48.6372727 32.6585404,47.1806061 C33.102864,47.5133333 33.8080583,47.9254545 34.5759098,47.9254545 C36.2863299,47.9254545 37.7156964,46.6948485 38.0365132,45.0672727 C38.3311223,45.1833333 38.6525415,45.2630303 38.9872151,45.2630303 C40.933202,45.2630303 42.5161991,43.6709091 42.5161991,41.7130303 C42.5161991,40.9406061 42.1065177,40.2315152 41.7757601,39.7842424 C43.2238033,39.3418182 44.2808417,37.9872727 44.2808417,36.3878788 C44.2808417,35.4218182 43.6404132,34.5548485 43.315078,34.1766667 L46.9278057,30.5427273 L46.9278057,28.7678788 L49.1638832,26.5181818 C49.2898,26.5851515 49.4295737,26.6251515 49.5747696,26.6251515 L51.3394122,26.6251515 C51.5731716,26.6251515 51.7975927,26.5315152 51.9632727,26.3651515 L56.374578,21.9275758 C56.71859,21.5815152 56.71859,21.019697 56.3739756,20.6730303 L56.3739756,20.6730303 Z M14.2834234,37.2760606 C13.31043,37.2760606 12.519082,36.479697 12.519082,35.5012121 C12.519082,35.2266667 12.7519377,34.8315152 12.9733465,34.5506061 L15.2287031,36.8193939 C14.9479508,37.0424242 14.5557411,37.2760606 14.2834234,37.2760606 L14.2834234,37.2760606 Z M17.8124074,40.8260606 C16.839414,40.8260606 16.048066,40.029697 16.048066,39.0512121 C16.048066,38.7766667 16.2809217,38.3815152 16.5023305,38.1006061 L18.7576871,40.3693939 C18.4769348,40.5924242 18.0850263,40.8260606 17.8124074,40.8260606 L17.8124074,40.8260606 Z M21.3416927,44.3760606 C20.3686992,44.3760606 19.57705,43.579697 19.57705,42.6012121 C19.57705,42.3266667 19.810207,41.9312121 20.0313145,41.6506061 L22.2866711,43.9193939 C22.0062201,44.1424242 21.6140103,44.3760606 21.3416927,44.3760606 L21.3416927,44.3760606 Z M24.8706767,47.9263636 C23.8976832,47.9263636 23.106034,47.13 23.106034,46.1512121 C23.106034,45.8766667 23.339191,45.4815152 23.5602985,45.2006061 L25.8156551,47.4693939 C25.5352041,47.6927273 25.1429943,47.9263636 24.8706767,47.9263636 L24.8706767,47.9263636 Z M40.7515565,38.1636364 C40.4060384,38.1636364 39.8650179,37.7875758 39.6107744,37.5360606 L31.6701839,29.5481818 C31.3255695,29.2015152 30.7673785,29.2015152 30.4227641,29.5481818 C30.0781497,29.8948485 30.0781497,30.4563636 30.4227641,30.8030303 L40.1249849,40.5633333 C40.3774209,40.8215152 40.7512553,41.3657576 40.7512553,41.7133333 C40.7512553,42.6918182 39.9599073,43.4884848 38.9866127,43.4884848 C38.6410945,43.4884848 38.100074,43.1124242 37.8458305,42.8609091 L28.1408986,33.0981818 C27.7962842,32.7515152 27.2380932,32.7515152 26.8934788,33.0981818 C26.5488644,33.4448485 26.5488644,34.0063636 26.8934788,34.3530303 L35.7130771,43.2251515 L35.7133783,43.2254545 C35.9658144,43.4836364 36.3396487,44.0278788 36.3396487,44.3754545 C36.3396487,45.3539394 35.5483008,46.1506061 34.5753073,46.1506061 C34.2297892,46.1506061 33.6887687,45.7745455 33.4345252,45.5230303 L31.6710876,43.7490909 C31.6710876,43.7490909 31.6701839,43.7484848 31.6701839,43.7481818 L31.6701839,43.7481818 L24.6122159,36.6481818 C24.2676015,36.3015152 23.7094105,36.3015152 23.3647961,36.6481818 C23.0201817,36.9948485 23.0201817,37.5563636 23.3647961,37.9030303 L30.4200529,45.000303 L30.4203542,45.0006061 C30.6727903,45.2587879 31.0469258,45.8033333 31.0469258,46.1506061 C31.0469258,47.1290909 30.2555779,47.9257576 29.2822832,47.9257576 C28.9367651,47.9257576 28.3957446,47.549697 28.1415011,47.2981818 L12.519082,31.5827273 L12.519082,28.92 L8.91418647,25.2936364 L19.9424497,14.199697 L23.6232569,14.199697 L19.8358121,18.009697 C19.7189324,18.1266667 18.69503,19.1918182 18.69503,20.4121212 C18.69503,22.37 20.2783283,23.9621212 22.224014,23.9621212 C23.4367916,23.9621212 24.4956374,22.9324242 24.6122159,22.8145455 L28.7650604,18.6369697 L30.1643033,18.6369697 L30.1643033,23.4421212 L41.8896275,35.2372727 C42.1420636,35.4954545 42.5161991,36.039697 42.5161991,36.3872727 C42.5161991,37.3669697 41.72455,38.1636364 40.7515565,38.1636364 L40.7515565,38.1636364 Z M45.1628618,28.0333333 L45.1628618,29.8084848 L42.0748879,32.9148485 L34.9410083,25.7381818 L35.4579299,25.7381818 C37.4039168,25.7381818 38.9869139,24.1460606 38.9869139,22.1881818 L37.2222713,22.1881818 C37.2222713,23.1666667 36.4309233,23.9633333 35.4576287,23.9633333 L33.1760644,23.9633333 L31.9283434,22.7081818 L31.9283434,16.8630303 L28.0339597,16.8630303 L23.3669047,21.5578788 C23.1102513,21.8118182 22.5689296,22.1878788 22.2237127,22.1878788 C21.2507193,22.1878788 20.4590701,21.3915152 20.4590701,20.4127273 C20.4590701,20.0651515 20.8329044,19.5209091 21.0829306,19.2651515 L26.1180964,14.2 L36.8571728,14.2 L47.8854361,25.2939394 L45.1628618,28.0333333 L45.1628618,28.0333333 Z" id="Shape"></path>
                    <path d="M50.4564884,20.4130303 C50.6824157,20.4130303 50.9080417,20.3263636 51.0803489,20.1530303 L52.8449916,18.3781818 C53.189606,18.0315152 53.189606,17.469697 52.8449916,17.1230303 C52.5003772,16.7763636 51.9421862,16.7763636 51.5975718,17.1230303 L49.8329292,18.8981818 C49.4883148,19.2448485 49.4883148,19.8063636 49.8329292,20.1530303 C50.0052364,20.3263636 50.2308624,20.4130303 50.4564884,20.4130303 L50.4564884,20.4130303 Z" id="Shape"></path>
                    <path d="M5.7192736,20.1530303 C5.8915808,20.3263636 6.11720684,20.4130303 6.34313411,20.4130303 C6.56906138,20.4130303 6.79468742,20.3263636 6.96699462,20.1530303 C7.31160902,19.8063636 7.31160902,19.2448485 6.96699462,18.8981818 L5.202352,17.1230303 C4.8577376,16.7763636 4.29954662,16.7763636 3.95493222,17.1230303 C3.61031782,17.469697 3.61031782,18.0315152 3.95493222,18.3781818 L5.7192736,20.1530303 L5.7192736,20.1530303 Z" id="Shape"></path>
                </g>
            </g>
        </g>
    </g>
</svg>