<?xml version="1.0" encoding="UTF-8"?>
<svg width="45px" height="59px" viewBox="0 0 45 59" version="1.1" xmlns="http://www.w3.org/2000/svg" xmlns:xlink="http://www.w3.org/1999/xlink">
    <!-- Generator: sketchtool 57.1 (101010) - https://sketch.com -->
    <title>82D40D4F-06BE-4F57-A3B6-522087CCC972</title>
    <desc>Created with sketchtool.</desc>
    <g id="Reseller-hosting---hero" stroke="none" stroke-width="1" fill="none" fill-rule="evenodd">
        <g id="XL-HG-Reseller-hosting" transform="translate(-1506.000000, -524.000000)" fill="#316690">
            <g id="xl_icons-copy" transform="translate(366.000000, 417.000000)">
                <g id="hands-raised" transform="translate(1140.000000, 107.000000)">
                    <path d="M26.6561798,58.64 L15.0375843,58.64 L15.0375843,57.14 L25.8977528,57.14 L25.8977528,30.518 L27.4146067,30.518 L27.4146067,57.89 C27.4146067,58.304 27.0748315,58.64 26.6561798,58.64 L26.6561798,58.64 Z" id="Shape"></path>
                    <path d="M14.5602809,53.155 L2.00679775,53.155 C1.58814607,53.155 1.24837079,52.819 1.24837079,52.405 L1.24837079,48.5545 C0.760955056,48.086 0.479325843,47.435 0.479325843,46.7435 L0.479325843,31.461 C0.479325843,30.0795 1.59775281,28.9555 2.97202247,28.9555 C3.31988764,28.9555 3.65106742,29.0275 3.95191011,29.157 L3.95191011,27.256 C3.95191011,25.874 5.06932584,24.7495 6.44258427,24.7495 C6.79044944,24.7495 7.12162921,24.8215 7.42247191,24.951 L7.42247191,24.8855 C7.42247191,23.5035 8.54039326,22.379 9.91466292,22.379 C11.2818539,22.379 12.3952247,23.4925 12.4068539,24.865 C12.7076966,24.7345 13.039382,24.663 13.3867416,24.663 C14.7605056,24.663 15.878427,25.787 15.878427,27.169 L15.878427,40.3165 L16.1388202,39.938 L16.1388202,35.464 C16.1388202,34.0815 17.256236,32.957 18.6294944,32.957 C20.0047753,32.957 21.1237079,34.0815 21.1237079,35.464 L21.1237079,42.375 C21.1237079,43.043 20.8496629,43.689 20.3683146,44.1625 L15.3247753,50.512 L15.3197191,52.4065 C15.3176966,52.8205 14.978427,53.155 14.5602809,53.155 L14.5602809,53.155 Z M2.76522472,51.655 L13.8038764,51.655 L13.8074157,50.25 C13.8079213,50.0825 13.8645506,49.9205 13.9692135,49.7885 L19.1467416,43.2705 C19.180618,43.218 19.221573,43.169 19.2691011,43.1255 C19.4860112,42.9275 19.6053371,42.661 19.6053371,42.375 L19.6053371,35.464 C19.6053371,34.909 19.1669663,34.457 18.6279775,34.457 C18.0910112,34.457 17.6541573,34.9085 17.6541573,35.464 L17.6541573,40.169 C17.6541573,40.3195 17.6081461,40.4665 17.5226966,40.591 L15.7454494,43.174 C15.5583708,43.446 15.2115169,43.5645 14.895,43.469 C14.5769663,43.3725 14.3595506,43.0815 14.3595506,42.752 L14.3595506,27.169 C14.3595506,26.6145 13.922191,26.163 13.3847191,26.163 C12.8467416,26.163 12.4088764,26.614 12.4088764,27.169 L12.4088764,37.275 C12.4088764,37.689 12.0691011,38.025 11.6504494,38.025 C11.2317978,38.025 10.8874719,37.689 10.8874719,37.275 L10.8874719,24.886 C10.8874719,24.3315 10.4501124,23.8795 9.91213483,23.8795 C9.3741573,23.8795 8.93679775,24.331 8.93679775,24.886 L8.93679775,37.275 C8.93679775,37.689 8.59702247,38.025 8.17837079,38.025 C7.7597191,38.025 7.41589888,37.689 7.41589888,37.275 L7.41589888,27.256 C7.41589888,26.7015 6.97803371,26.2495 6.43955056,26.2495 C5.90258427,26.2495 5.46573034,26.701 5.46573034,27.256 L5.46573034,37.275 C5.46573034,37.689 5.12595506,38.025 4.70730337,38.025 C4.28865169,38.025 3.94331461,37.689 3.94331461,37.275 L3.94331461,31.4605 C3.94331461,30.9065 3.50646067,30.455 2.96898876,30.455 C2.43101124,30.455 1.99314607,30.906 1.99314607,31.4605 L1.99314607,46.743 C1.99314607,47.083 2.15747191,47.397 2.43252809,47.583 C2.63882022,47.723 2.76219101,47.9545 2.76219101,48.202 L2.76219101,51.655 L2.76522472,51.655 Z" id="Shape"></path>
                    <path d="M15.0370787,58.64 L1.36264045,58.64 C0.943988764,58.64 0.604213483,58.304 0.604213483,57.89 L0.604213483,52.405 C0.604213483,51.991 0.943988764,51.655 1.36264045,51.655 L15.0370787,51.655 C15.4557303,51.655 15.7955056,51.991 15.7955056,52.405 L15.7955056,57.89 C15.7955056,58.304 15.4557303,58.64 15.0370787,58.64 L15.0370787,58.64 Z M2.12106742,57.14 L14.2786517,57.14 L14.2786517,53.155 L2.12106742,53.155 L2.12106742,57.14 L2.12106742,57.14 Z" id="Shape"></path>
                    <path d="M43.2197191,38.2905 L30.666236,38.2905 C30.2485955,38.2905 29.9093258,37.956 29.907809,37.543 L29.9022472,35.704 L24.8632584,29.5105 C24.379382,29.0455 24.1038202,28.409 24.1038202,27.749 L24.1038202,21.0015 C24.1038202,19.6425 25.2222472,18.537 26.5970225,18.537 C27.9712921,18.537 29.0892135,19.6425 29.0892135,21.0015 L29.0892135,25.36 L29.3485955,25.7275 L29.3485955,12.904 C29.3485955,11.545 30.4665169,10.4395 31.8407865,10.4395 C32.1886517,10.4395 32.5193258,10.5105 32.8206742,10.6375 C32.8408989,9.2955 33.951236,8.2105 35.3133708,8.2105 C36.6871348,8.2105 37.8045506,9.3165 37.8045506,10.6755 L37.8045506,10.7235 C38.1058989,10.595 38.4380899,10.5245 38.7859551,10.5245 C40.1592135,10.5245 41.2761236,11.6305 41.2761236,12.9895 L41.2761236,14.829 C41.5769663,14.7015 41.9081461,14.631 42.2560112,14.631 C43.6302809,14.631 44.7482022,15.736 44.7482022,17.0945 L44.7482022,32.0145 C44.7482022,32.6945 44.466573,33.335 43.9791573,33.7955 L43.9791573,37.542 C43.9781461,37.9545 43.6383708,38.2905 43.2197191,38.2905 L43.2197191,38.2905 Z M31.4221348,36.7905 L42.4612921,36.7905 L42.4612921,33.438 C42.4612921,33.188 42.587191,32.954 42.7975281,32.815 C43.0685393,32.6355 43.2298315,32.336 43.2298315,32.013 L43.2298315,17.093 C43.2298315,16.562 42.7924719,16.1295 42.2544944,16.1295 C41.7175281,16.1295 41.2796629,16.5615 41.2796629,17.093 L41.2796629,22.77 C41.2796629,23.184 40.9398876,23.52 40.521236,23.52 C40.1025843,23.52 39.7577528,23.184 39.7577528,22.77 L39.7577528,12.989 C39.7577528,12.457 39.3214045,12.024 38.7844382,12.024 C38.2459551,12.024 37.8075843,12.4565 37.8075843,12.989 L37.8075843,22.77 C37.8075843,23.184 37.467809,23.52 37.0491573,23.52 C36.6305056,23.52 36.2856742,23.184 36.2856742,22.77 L36.2856742,10.6755 C36.2856742,10.1435 35.8488202,9.7105 35.3113483,9.7105 C34.7733708,9.7105 34.335,10.143 34.335,10.6755 L34.335,22.77 C34.335,23.184 33.9952247,23.52 33.576573,23.52 C33.1579213,23.52 32.8146067,23.184 32.8146067,22.77 L32.8146067,12.904 C32.8146067,12.3725 32.3772472,11.9395 31.838764,11.9395 C31.3012921,11.9395 30.863427,12.372 30.863427,12.904 L30.863427,28.117 C30.863427,28.4445 30.6480337,28.734 30.3320225,28.8325 C30.015,28.9315 29.6711798,28.8145 29.4825843,28.546 L27.7063483,26.0245 C27.6173596,25.8985 27.5698315,25.749 27.5698315,25.596 L27.5698315,21.002 C27.5698315,20.4705 27.1324719,20.0375 26.5944944,20.0375 C26.0565169,20.0375 25.6181461,20.47 25.6181461,21.002 L25.6181461,27.7495 C25.6181461,28.0205 25.7344382,28.274 25.9462921,28.4625 C25.9963483,28.507 26.0393258,28.5565 26.0752247,28.6115 L31.2476966,34.9695 C31.3553933,35.1025 31.4145506,35.2675 31.4150562,35.4375 L31.4221348,36.7905 L31.4221348,36.7905 Z" id="Shape"></path>
                    <path d="M25.8871348,30.3245 L15.1189888,30.3245 C14.7003371,30.3245 14.3605618,29.9885 14.3605618,29.5745 L14.3605618,27.169 C14.3605618,26.6145 13.9232022,26.163 13.3857303,26.163 C13.1182584,26.163 12.8669663,26.277 12.6788764,26.484 C12.5307303,26.6475 12.323427,26.7545 12.094382,26.732 C11.8724157,26.726 11.6635955,26.624 11.5245506,26.4525 L11.0568539,25.8785 C10.9481461,25.745 10.8889888,25.579 10.8889888,25.4085 L10.8889888,24.886 C10.8889888,24.3395 10.4652809,23.894 9.93893258,23.88 C9.90859551,23.8835 9.86359551,23.8885 9.85247191,23.8895 C9.5991573,23.9045 9.36657303,23.8015 9.21134831,23.611 L7.53016854,21.5445 C7.04679775,21.0785 6.77123596,20.442 6.77123596,19.783 L6.77123596,13.0355 C6.77123596,11.6765 7.88966292,10.571 9.26494382,10.571 C10.6387079,10.571 11.7566292,11.6765 11.7566292,13.0355 L11.7566292,17.394 L12.0160112,17.7615 L12.0160112,4.938 C12.0160112,3.579 13.1339326,2.4735 14.5076966,2.4735 C14.8555618,2.4735 15.1867416,2.5445 15.4875843,2.6715 C15.507809,1.3295 16.6176404,0.2445 17.9797753,0.2445 C19.3535393,0.2445 20.4714607,1.3505 20.4714607,2.7095 L20.4714607,2.757 C20.772809,2.629 21.1039888,2.5585 21.4518539,2.5585 C22.825618,2.5585 23.9430337,3.6645 23.9430337,5.0235 L23.9430337,6.8635 C24.244382,6.7355 24.5755618,6.665 24.9229213,6.665 C26.2966854,6.665 27.4146067,7.77 27.4146067,9.1285 L27.4146067,19.294 C27.4146067,19.496 27.332191,19.69 27.1855618,19.831 C27.0394382,19.972 26.8225281,20.042 26.6374719,20.044 C26.6192697,20.0435 26.5909551,20.041 26.5651685,20.0385 C26.0413483,20.055 25.6206742,20.4815 25.6206742,21.0025 L25.6206742,27.75 C25.6206742,28.021 25.7369663,28.2745 25.9488202,28.463 C25.9988764,28.5075 26.0418539,28.557 26.0777528,28.612 L26.4782022,29.104 C26.5864045,29.2375 26.6455618,29.4035 26.6455618,29.574 C26.6455618,29.987 26.3057865,30.3245 25.8871348,30.3245 L25.8871348,30.3245 Z M15.8774157,28.8245 L24.3581461,28.8245 C24.1923034,28.4915 24.1033146,28.124 24.1033146,27.749 L24.1033146,21.0015 C24.1033146,19.8825 24.8617416,18.935 25.8972472,18.636 L25.8972472,9.1275 C25.8972472,8.5965 25.4598876,8.164 24.9224157,8.164 C24.3849438,8.164 23.9470787,8.596 23.9470787,9.1275 L23.9470787,14.8045 C23.9470787,15.2185 23.6073034,15.5545 23.1886517,15.5545 C22.77,15.5545 22.4251685,15.2185 22.4251685,14.8045 L22.4251685,5.0235 C22.4251685,4.4915 21.9883146,4.0585 21.4508427,4.0585 C20.9128652,4.0585 20.475,4.491 20.475,5.0235 L20.475,14.8045 C20.475,15.2185 20.1352247,15.5545 19.716573,15.5545 C19.2979213,15.5545 18.9530899,15.2185 18.9530899,14.8045 L18.9530899,2.71 C18.9530899,2.178 18.5157303,1.745 17.9782584,1.745 C17.4402809,1.745 17.0024157,2.1775 17.0024157,2.71 L17.0024157,14.8045 C17.0024157,15.2185 16.6626404,15.5545 16.2439888,15.5545 C15.8253371,15.5545 15.4820225,15.2185 15.4820225,14.8045 L15.4820225,4.9385 C15.4820225,4.407 15.0441573,3.974 14.5056742,3.974 C13.9687079,3.974 13.5308427,4.4065 13.5308427,4.9385 L13.5308427,20.1515 C13.5308427,20.479 13.3154494,20.7685 12.9994382,20.867 C12.6824157,20.9655 12.3391011,20.849 12.15,20.5805 L10.373764,18.059 C10.2847753,17.933 10.2372472,17.7835 10.2372472,17.6305 L10.2372472,13.0365 C10.2372472,12.505 9.79988764,12.072 9.26241573,12.072 C8.72393258,12.072 8.2855618,12.5045 8.2855618,13.0365 L8.2855618,19.784 C8.2855618,20.055 8.40185393,20.308 8.61421348,20.497 C8.66376404,20.5415 8.70674157,20.5915 8.74264045,20.646 L10.1644382,22.3935 C11.4148315,22.5215 12.3942135,23.5815 12.4033146,24.8695 C12.7102247,24.7355 13.0444382,24.6645 13.3832022,24.6645 C14.7569663,24.6645 15.8748876,25.7885 15.8748876,27.1705 L15.8748876,28.8245 L15.8774157,28.8245 Z" id="Shape"></path>
                    <path d="M43.9882584,58.64 L30.0640449,58.64 C29.6453933,58.64 29.305618,58.304 29.305618,57.89 L29.305618,37.5405 C29.305618,37.1265 29.6453933,36.7905 30.0640449,36.7905 L43.9882584,36.7905 C44.4069101,36.7905 44.7466854,37.1265 44.7466854,37.5405 L44.7466854,57.89 C44.7466854,58.304 44.4069101,58.64 43.9882584,58.64 L43.9882584,58.64 Z M30.8224719,57.14 L43.2298315,57.14 L43.2298315,38.2905 L30.8224719,38.2905 L30.8224719,57.14 L30.8224719,57.14 Z" id="Shape"></path>
                </g>
            </g>
        </g>
    </g>
</svg>