<?xml version="1.0" encoding="UTF-8"?>
<svg width="56px" height="50px" viewBox="0 0 56 50" version="1.1" xmlns="http://www.w3.org/2000/svg" xmlns:xlink="http://www.w3.org/1999/xlink">
    <!-- Generator: sketchtool 57.1 (101010) - https://sketch.com -->
    <title>3EBE1D3B-0FA6-4951-85CE-CE9CDFE9A869</title>
    <desc>Created with sketchtool.</desc>
    <g id="Reseller-hosting---hero" stroke="none" stroke-width="1" fill="none" fill-rule="evenodd">
        <g id="XL-HG-Reseller-hosting" transform="translate(-402.000000, -626.000000)" fill="#316690">
            <g id="xl_icons-copy" transform="translate(366.000000, 417.000000)">
                <g id="laptop-chart" transform="translate(36.000000, 209.000000)">
                    <path d="M34.018,43.6985 L1.788,43.6985 C1.948,45.3635 2.518,47.6885 3.763,47.8685 L34.018,47.8685 L51.898,47.8685 C52.263,47.8685 52.548,47.7435 52.803,47.4735 C53.583,46.6635 53.818,44.8785 53.868,43.6985 L34.018,43.6985 L34.018,43.6985 Z M2.858,43.4085 L52.753,43.4085 L52.753,41.9885 L54.723,41.9885 C55.178,41.9885 55.553,42.3485 55.573,42.8035 C55.593,43.2185 55.708,46.9085 54.038,48.6535 C53.463,49.2535 52.723,49.5735 51.898,49.5735 L3.708,49.5735 C3.678,49.5735 3.648,49.5735 3.618,49.5685 C0.198,49.2035 0.038,43.5035 0.033,42.8535 C0.028,42.6235 0.118,42.4035 0.278,42.2435 C0.438,42.0835 0.658,41.9885 0.883,41.9885 L2.858,41.9885 L2.858,43.4085 L2.858,43.4085 Z" id="Shape"></path>
                    <polygon id="Shape" points="52.753 41.9885 52.753 43.4085 2.858 43.4085 2.858 41.9885 4.563 41.9885"></polygon>
                    <polygon id="Shape" points="52.753 10.8635 52.753 41.9885 4.563 41.9885 4.563 41.7035 51.043 41.7035 51.043 39.5785 51.898 39.5785 51.898 38.7235 51.898 37.8735 51.043 37.8735 51.043 15.6985 51.898 15.6985 51.898 14.8435 51.898 13.9935 51.043 13.9935 51.043 12.5735 42.043 12.5735 42.043 10.8635"></polygon>
                    <polygon id="Rectangle-path" points="51.043 38.7235 51.898 38.7235 51.898 39.5785 51.043 39.5785"></polygon>
                    <polygon id="Rectangle-path" points="51.043 37.8735 51.898 37.8735 51.898 38.7235 51.043 38.7235"></polygon>
                    <polygon id="Rectangle-path" points="51.043 14.8435 51.898 14.8435 51.898 15.6985 51.043 15.6985"></polygon>
                    <polygon id="Rectangle-path" points="51.043 13.9935 51.898 13.9935 51.898 14.8435 51.043 14.8435"></polygon>
                    <polygon id="Rectangle-path" points="42.043 38.7235 51.043 38.7235 51.043 39.5785 42.043 39.5785"></polygon>
                    <polygon id="Rectangle-path" points="42.043 37.8735 51.043 37.8735 51.043 38.7235 42.043 38.7235"></polygon>
                    <polygon id="Rectangle-path" points="42.043 14.8435 51.043 14.8435 51.043 15.6985 42.043 15.6985"></polygon>
                    <polygon id="Rectangle-path" points="42.043 13.9935 51.043 13.9935 51.043 14.8435 42.043 14.8435"></polygon>
                    <polygon id="Shape" points="45.703 6.6035 42.043 6.6035 42.043 10.8635 40.333 10.8635 40.333 4.8935 41.583 4.8935 39.498 2.8085 37.418 4.8935 38.668 4.8935 38.668 10.8635 36.963 10.8635 36.963 6.6035 33.298 6.6035 39.498 0.3985"></polygon>
                    <polygon id="Rectangle-path" points="36.963 38.7235 42.043 38.7235 42.043 39.5785 36.963 39.5785"></polygon>
                    <polygon id="Shape" points="42.043 37.8735 42.043 38.7235 36.963 38.7235 36.963 37.8735 38.668 37.8735 40.333 37.8735"></polygon>
                    <polygon id="Rectangle-path" points="40.333 15.6985 42.043 15.6985 42.043 37.8735 40.333 37.8735"></polygon>
                    <polygon id="Rectangle-path" points="40.333 14.8435 42.043 14.8435 42.043 15.6985 40.333 15.6985"></polygon>
                    <polygon id="Rectangle-path" points="40.333 13.9935 42.043 13.9935 42.043 14.8435 40.333 14.8435"></polygon>
                    <rect id="Rectangle-path" x="40.333" y="12.5735" width="1.71" height="1.42"></rect>
                    <rect id="Rectangle-path" x="40.333" y="10.8635" width="1.71" height="1.71"></rect>
                    <polygon id="Rectangle-path" points="36.963 15.6985 38.668 15.6985 38.668 37.8735 36.963 37.8735"></polygon>
                    <polygon id="Rectangle-path" points="36.963 14.8435 38.668 14.8435 38.668 15.6985 36.963 15.6985"></polygon>
                    <polygon id="Rectangle-path" points="36.963 13.9935 38.668 13.9935 38.668 14.8435 36.963 14.8435"></polygon>
                    <rect id="Rectangle-path" x="36.963" y="12.5735" width="1.705" height="1.42"></rect>
                    <rect id="Rectangle-path" x="36.963" y="10.8635" width="1.705" height="1.71"></rect>
                    <polygon id="Rectangle-path" points="33.283 38.7235 36.963 38.7235 36.963 39.5785 33.283 39.5785"></polygon>
                    <polygon id="Rectangle-path" points="33.283 37.8735 36.963 37.8735 36.963 38.7235 33.283 38.7235"></polygon>
                    <polygon id="Rectangle-path" points="4.563 14.8435 36.963 14.8435 36.963 15.6985 4.563 15.6985"></polygon>
                    <polygon id="Rectangle-path" points="4.563 13.9935 36.963 13.9935 36.963 14.8435 4.563 14.8435"></polygon>
                    <polygon id="Rectangle-path" points="28.198 38.7235 33.283 38.7235 33.283 39.5785 28.198 39.5785"></polygon>
                    <polygon id="Shape" points="33.283 37.8735 33.283 38.7235 28.198 38.7235 28.198 37.8735 29.908 37.8735 31.578 37.8735"></polygon>
                    <polygon id="Shape" points="33.283 18.5385 33.283 37.8735 31.578 37.8735 31.578 20.2485 29.908 20.2485 29.908 37.8735 28.198 37.8735 28.198 18.5385"></polygon>
                    <polygon id="Rectangle-path" points="24.533 38.7235 28.198 38.7235 28.198 39.5785 24.533 39.5785"></polygon>
                    <polygon id="Rectangle-path" points="24.533 37.8735 28.198 37.8735 28.198 38.7235 24.533 38.7235"></polygon>
                    <polygon id="Rectangle-path" points="19.448 38.7235 24.533 38.7235 24.533 39.5785 19.448 39.5785"></polygon>
                    <polygon id="Shape" points="24.533 37.8735 24.533 38.7235 19.448 38.7235 19.448 37.8735 21.158 37.8735 22.823 37.8735"></polygon>
                    <polygon id="Shape" points="24.533 22.2335 24.533 37.8735 22.823 37.8735 22.823 23.9435 21.158 23.9435 21.158 37.8735 19.448 37.8735 19.448 22.2335"></polygon>
                    <path d="M34.018,44.9285 C34.488,44.9285 34.868,45.3085 34.868,45.7835 C34.868,46.2535 34.488,46.6335 34.018,46.6335 L23.238,46.6335 C22.763,46.6335 22.383,46.2535 22.383,45.7835 C22.383,45.3085 22.763,44.9285 23.238,44.9285 L34.018,44.9285 L34.018,44.9285 Z" id="Shape"></path>
                    <polygon id="Rectangle-path" points="15.783 38.7235 19.448 38.7235 19.448 39.5785 15.783 39.5785"></polygon>
                    <polygon id="Rectangle-path" points="15.783 37.8735 19.448 37.8735 19.448 38.7235 15.783 38.7235"></polygon>
                    <polygon id="Rectangle-path" points="10.698 38.7235 15.783 38.7235 15.783 39.5785 10.698 39.5785"></polygon>
                    <polygon id="Shape" points="15.783 37.8735 15.783 38.7235 10.698 38.7235 10.698 37.8735 12.403 37.8735 14.073 37.8735"></polygon>
                    <polygon id="Shape" points="15.783 26.7835 15.783 37.8735 14.073 37.8735 14.073 28.4935 12.403 28.4935 12.403 37.8735 10.698 37.8735 10.698 26.7835"></polygon>
                    <polygon id="Rectangle-path" points="4.563 38.7235 10.698 38.7235 10.698 39.5785 4.563 39.5785"></polygon>
                    <polygon id="Rectangle-path" points="4.563 37.8735 10.698 37.8735 10.698 38.7235 4.563 38.7235"></polygon>
                    <polygon id="Rectangle-path" points="3.708 38.7235 4.563 38.7235 4.563 39.5785 3.708 39.5785"></polygon>
                    <polygon id="Rectangle-path" points="3.708 37.8735 4.563 37.8735 4.563 38.7235 3.708 38.7235"></polygon>
                    <polygon id="Rectangle-path" points="3.708 14.8435 4.563 14.8435 4.563 15.6985 3.708 15.6985"></polygon>
                    <polygon id="Rectangle-path" points="3.708 13.9935 4.563 13.9935 4.563 14.8435 3.708 14.8435"></polygon>
                    <polygon id="Shape" points="3.708 37.8735 3.708 38.7235 3.708 39.5785 4.563 39.5785 4.563 41.7035 4.563 41.9885 2.858 41.9885 2.858 15.6985 3.708 15.6985 4.563 15.6985 4.563 37.8735"></polygon>
                    <polygon id="Shape" points="3.708 13.9935 3.708 14.8435 3.708 15.6985 2.858 15.6985 2.858 10.8635 36.963 10.8635 36.963 12.5735 4.563 12.5735 4.563 13.9935"></polygon>
                </g>
            </g>
        </g>
    </g>
</svg>