<?xml version="1.0" encoding="UTF-8"?>
<svg width="43px" height="55px" viewBox="0 0 43 55" version="1.1" xmlns="http://www.w3.org/2000/svg" xmlns:xlink="http://www.w3.org/1999/xlink">
    <!-- Generator: sketchtool 57.1 (101010) - https://sketch.com -->
    <title>B9C238A9-98C8-4FA8-8334-EA87CFD69220</title>
    <desc>Created with sketchtool.</desc>
    <g id="Reseller-hosting---hero" stroke="none" stroke-width="1" fill="none" fill-rule="evenodd">
        <g id="XL-HG-Reseller-hosting" transform="translate(-1465.000000, -629.000000)" fill="#316690">
            <g id="xl_icons-copy" transform="translate(366.000000, 417.000000)">
                <g id="money-bag" transform="translate(1099.000000, 212.000000)">
                    <path d="M39.1055682,54.7411468 L3.87684091,54.7411468 C1.82359091,54.7411468 0.152943182,53.0159633 0.152943182,50.8956881 C0.152943182,49.4793119 0.887363636,48.2127982 2.06106818,47.5401835 L2.06106818,28.9133486 C2.06106818,17.8442202 10.7817614,8.8393578 21.5004886,8.8393578 C32.2192159,8.8393578 40.9399091,17.8447248 40.9399091,28.9133486 L40.9399091,47.5502752 C42.1018864,48.2259174 42.8289773,49.4888991 42.8289773,50.8956881 C42.8294659,53.0159633 41.1588182,54.7411468 39.1055682,54.7411468 L39.1055682,54.7411468 Z M21.5009773,10.3531193 C11.5904545,10.3531193 3.52746591,18.6793119 3.52746591,28.9133486 L3.52746591,48.0190367 C3.52746591,48.3308716 3.34227273,48.611422 3.06032955,48.723945 C2.18469318,49.0756422 1.61934091,49.9283945 1.61934091,50.8956881 C1.61934091,52.1813761 2.63228409,53.2273853 3.87732955,53.2273853 L39.1060568,53.2273853 C40.3511023,53.2273853 41.3640455,52.1813761 41.3640455,50.8956881 C41.3640455,49.9349541 40.8040682,49.0842202 39.9377159,48.7294954 C39.6582159,48.6144495 39.4749773,48.336422 39.4749773,48.0255963 L39.4749773,28.9133486 C39.4744886,18.6793119 31.4115,10.3531193 21.5009773,10.3531193 L21.5009773,10.3531193 Z" id="Shape"></path>
                    <path d="M11.292875,17.9562385 L10.277,16.8653211 C10.6400568,16.5045413 11.0236364,16.1573853 11.4160114,15.833945 L12.3307386,17.0172018 C11.9730568,17.3118807 11.6241705,17.6277523 11.292875,17.9562385 L11.292875,17.9562385 Z" id="Shape"></path>
                    <path d="M6.77054545,45.1499541 L5.30463636,45.1499541 L5.30463636,28.9133486 C5.30463636,24.9922018 6.65082955,21.1775229 9.0945,18.1716972 L10.2173864,19.1450459 C7.99457955,21.8783945 6.77054545,25.3474312 6.77054545,28.912844 L6.77054545,45.1499541 L6.77054545,45.1499541 Z" id="Shape"></path>
                    <path d="M15.9310114,11.2240367 C15.6744773,11.2240367 15.4301591,11.0847706 15.2962727,10.8455963 L11.7189659,4.44692661 C11.1067045,3.35197248 11.0314545,2.28073394 11.5064091,1.43100917 C11.9818523,0.580779817 12.9175909,0.113027523 14.141625,0.113027523 L28.8393182,0.113027523 C30.0633523,0.113027523 30.9995795,0.581284404 31.4750227,1.43100917 C31.9504659,2.28123853 31.8747273,3.35197248 31.2629545,4.44743119 L27.6880909,10.8405505 C27.5165795,11.1468349 27.1628068,11.2891284 26.8359091,11.1851835 C23.3871136,10.0801376 19.59725,10.0811468 16.1484545,11.1902294 C16.076625,11.2129358 16.0038182,11.2240367 15.9310114,11.2240367 L15.9310114,11.2240367 Z M14.1421136,1.62678899 C13.4736591,1.62678899 12.9757386,1.83114679 12.776375,2.18788991 C12.5770114,2.54463303 12.6542159,3.09211009 12.9889318,3.69004587 L16.2774545,9.57252294 C19.6612614,8.60068807 23.3231023,8.59816514 26.7073977,9.56798165 L29.9939659,3.69004587 C30.3281932,3.0916055 30.4053977,2.54412844 30.2060341,2.18738532 C30.0066705,1.8306422 29.50875,1.6262844 28.8402955,1.6262844 L14.1421136,1.6262844 L14.1421136,1.62678899 Z" id="Shape"></path>
                    <path d="M18.8721136,37.8727982 C19.4330682,38.445 20.140125,38.8042661 20.9913295,38.9505963 L20.9913295,33.1221101 C20.2388295,32.9318807 19.5899205,32.7224771 19.0431364,32.4949083 C18.4958636,32.267844 18.0414318,31.9968807 17.6798409,31.6815138 C17.3172727,31.3661468 17.0519432,30.9811468 16.8809205,30.5265138 C16.7103864,30.0723853 16.6258523,29.5223853 16.6258523,28.8770183 C16.6258523,28.2170183 16.7392159,27.6125229 16.9664318,27.0620183 C17.1926705,26.5125229 17.5024659,26.0361927 17.893375,25.6325229 C18.2833068,25.2293578 18.7450682,24.9104587 19.2771932,24.6758257 C19.8098068,24.4416972 20.382,24.3024312 20.9918182,24.2580275 L20.9918182,22.8068349 L22.1630795,22.8068349 L22.1630795,24.2802294 C23.3138182,24.4270642 24.2300114,24.8665596 24.9106818,25.6002294 C25.5923295,26.3333945 26.0746136,27.3450917 26.359,28.6353211 L24.5486023,28.6353211 C24.2647045,27.1836239 23.4687159,26.3333945 22.1630795,26.0836239 L22.1630795,31.4943119 L23.4408636,31.8465138 C23.72525,31.9201835 24.0585,32.047844 24.4420795,32.2315138 C24.8256591,32.4146789 25.1945795,32.6679817 25.5503068,32.9904128 C25.9045682,33.3133486 26.2065455,33.7160092 26.45575,34.1999083 C26.7034886,34.6838073 26.8276023,35.2625688 26.8276023,35.9372018 C26.8276023,36.6557339 26.7103295,37.2935321 26.4762727,37.8505963 C26.2422159,38.4076606 25.91825,38.8880275 25.5077955,39.2911927 C25.0953864,39.6948624 24.6062614,40.0137615 24.0379773,40.2478899 C23.4692045,40.4825229 22.8452159,40.6293578 22.1635682,40.6878899 L22.1635682,42.491789 L20.9923068,42.491789 L20.9923068,40.6878899 C19.5723295,40.541055 18.4430909,40.0319266 17.6060568,39.1594954 C16.7680455,38.2870642 16.2921136,37.0805963 16.1782614,35.5416055 L17.9891477,35.5416055 C18.0165114,36.5235321 18.3106705,37.3005963 18.8721136,37.8727982 L18.8721136,37.8727982 Z M19.2556932,26.776422 C18.7792727,27.2093578 18.5427727,27.8436239 18.5427727,28.6792202 C18.5427727,29.0606881 18.6023864,29.387156 18.7235682,29.6581193 C18.8432841,29.9295872 19.0143068,30.1566514 19.2337045,30.3398165 C19.4535909,30.5229817 19.7140341,30.6804128 20.0116136,30.8126147 C20.3091932,30.9448165 20.6365795,31.0618807 20.9913295,31.1648165 L20.9913295,26.0185321 C20.3091932,26.0911927 19.7306477,26.3444954 19.2556932,26.776422 L19.2556932,26.776422 Z M23.2595795,38.7300917 C23.5928295,38.6130275 23.8840568,38.4409633 24.1322841,38.2138991 C24.3814886,37.9863303 24.5730341,37.7002294 24.7083864,37.3561009 C24.8427614,37.0114679 24.9101932,36.6047706 24.9101932,36.1355046 C24.9101932,35.7101376 24.8388523,35.3544037 24.6976364,35.0688073 C24.5554432,34.783211 24.3634091,34.5369725 24.1225114,34.3321101 C23.8806364,34.1267431 23.5894091,33.9546789 23.2488295,33.8154128 C22.9087386,33.6761468 22.5461705,33.5479817 22.1625909,33.4304128 L22.1625909,38.9505963 C22.5598523,38.9213303 22.9253523,38.8486697 23.2595795,38.7300917 L23.2595795,38.7300917 Z" id="Shape"></path>
                </g>
            </g>
        </g>
    </g>
</svg>